  0
SECTION
  2
HEADER
  9
$ACADVER
  1
AC1015
  9
$ACADMAINTVER
 70
     6
  9
$DWGCODEPAGE
  3
ANSI_1252
  9
$INSBASE
 10
0.0
 20
0.0
 30
0.0
  9
$EXTMIN
 10
33.0917644347
 20
-172.5766121065
 30
0.0
  9
$EXTMAX
 10
1076.6218159183
 20
434.9879459186
 30
0.0
  9
$LIMMIN
 10
0.0
 20
0.0
  9
$LIMMAX
 10
420.0
 20
297.0
  9
$ORTHOMODE
 70
     0
  9
$REGENMODE
 70
     1
  9
$FILLMODE
 70
     1
  9
$QTEXTMODE
 70
     0
  9
$MIRRTEXT
 70
     1
  9
$LTSCALE
 40
1.0
  9
$ATTMODE
 70
     1
  9
$TEXTSIZE
 40
3.5
  9
$TRACEWID
 40
1.0
  9
$TEXTSTYLE
  7
Standard
  9
$CLAYER
  8
0
  9
$CELTYPE
  6
ByLayer
  9
$CECOLOR
 62
   256
  9
$CELTSCALE
 40
1.0
  9
$DISPSILH
 70
     0
  9
$DIMSCALE
 40
1.0
  9
$DIMASZ
 40
3.302
  9
$DIMEXO
 40
1.0
  9
$DIMDLI
 40
3.75
  9
$DIMRND
 40
0.0
  9
$DIMDLE
 40
0.0
  9
$DIMEXE
 40
1.0
  9
$DIMTP
 40
0.0
  9
$DIMTM
 40
0.0
  9
$DIMTXT
 40
3.5
  9
$DIMCEN
 40
2.5
  9
$DIMTSZ
 40
0.0
  9
$DIMTOL
 70
     0
  9
$DIMLIM
 70
     0
  9
$DIMTIH
 70
     1
  9
$DIMTOH
 70
     1
  9
$DIMSE1
 70
     0
  9
$DIMSE2
 70
     0
  9
$DIMTAD
 70
     1
  9
$DIMZIN
 70
     1
  9
$DIMBLK
  1

  9
$DIMASO
 70
     1
  9
$DIMSHO
 70
     1
  9
$DIMPOST
  1

  9
$DIMAPOST
  1

  9
$DIMALT
 70
     0
  9
$DIMALTD
 70
     3
  9
$DIMALTF
 40
0.0393700787
  9
$DIMLFAC
 40
1.0
  9
$DIMTOFL
 70
     1
  9
$DIMTVP
 40
0.0
  9
$DIMTIX
 70
     0
  9
$DIMSOXD
 70
     0
  9
$DIMSAH
 70
     0
  9
$DIMBLK1
  1

  9
$DIMBLK2
  1

  9
$DIMSTYLE
  2
ISO-25
  9
$DIMCLRD
 70
     0
  9
$DIMCLRE
 70
     0
  9
$DIMCLRT
 70
     0
  9
$DIMTFAC
 40
1.0
  9
$DIMGAP
 40
1.524
  9
$DIMJUST
 70
     0
  9
$DIMSD1
 70
     0
  9
$DIMSD2
 70
     0
  9
$DIMTOLJ
 70
     0
  9
$DIMTZIN
 70
     1
  9
$DIMALTZ
 70
     0
  9
$DIMALTTZ
 70
     0
  9
$DIMUPT
 70
     0
  9
$DIMDEC
 70
     2
  9
$DIMTDEC
 70
     2
  9
$DIMALTU
 70
     2
  9
$DIMALTTD
 70
     3
  9
$DIMTXSTY
  7
Standard
  9
$DIMAUNIT
 70
     0
  9
$DIMADEC
 70
     2
  9
$DIMALTRND
 40
0.0
  9
$DIMAZIN
 70
     0
  9
$DIMDSEP
 70
    44
  9
$DIMATFIT
 70
     3
  9
$DIMFRAC
 70
     0
  9
$DIMLDRBLK
  1

  9
$DIMLUNIT
 70
     2
  9
$DIMLWD
 70
    -2
  9
$DIMLWE
 70
    -2
  9
$DIMTMOVE
 70
     0
  9
$LUNITS
 70
     2
  9
$LUPREC
 70
     2
  9
$SKETCHINC
 40
1.0
  9
$FILLETRAD
 40
10.0
  9
$AUNITS
 70
     0
  9
$AUPREC
 70
     2
  9
$MENU
  1
.
  9
$ELEVATION
 40
0.0
  9
$PELEVATION
 40
0.0
  9
$THICKNESS
 40
0.0
  9
$LIMCHECK
 70
     0
  9
$CHAMFERA
 40
0.0
  9
$CHAMFERB
 40
0.0
  9
$CHAMFERC
 40
0.0
  9
$CHAMFERD
 40
0.0
  9
$SKPOLY
 70
     0
  9
$TDCREATE
 40
2458754.582642072
  9
$TDUCREATE
 40
2458754.499308738
  9
$TDUPDATE
 40
2458754.583304248
  9
$TDUUPDATE
 40
2458754.499970914
  9
$TDINDWG
 40
0.0000000116
  9
$TDUSRTIMER
 40
0.0000000116
  9
$USRTIMER
 70
     1
  9
$ANGBASE
 50
0.0
  9
$ANGDIR
 70
     0
  9
$PDMODE
 70
     0
  9
$PDSIZE
 40
-1.0
  9
$PLINEWID
 40
0.0
  9
$SPLFRAME
 70
     0
  9
$SPLINETYPE
 70
     6
  9
$SPLINESEGS
 70
     8
  9
$HANDSEED
  5
357
  9
$SURFTAB1
 70
     6
  9
$SURFTAB2
 70
     6
  9
$SURFTYPE
 70
     6
  9
$SURFU
 70
     6
  9
$SURFV
 70
     6
  9
$UCSBASE
  2

  9
$UCSNAME
  2

  9
$UCSORG
 10
0.0
 20
0.0
 30
0.0
  9
$UCSXDIR
 10
1.0
 20
0.0
 30
0.0
  9
$UCSYDIR
 10
0.0
 20
1.0
 30
0.0
  9
$UCSORTHOREF
  2

  9
$UCSORTHOVIEW
 70
     0
  9
$UCSORGTOP
 10
0.0
 20
0.0
 30
0.0
  9
$UCSORGBOTTOM
 10
0.0
 20
0.0
 30
0.0
  9
$UCSORGLEFT
 10
0.0
 20
0.0
 30
0.0
  9
$UCSORGRIGHT
 10
0.0
 20
0.0
 30
0.0
  9
$UCSORGFRONT
 10
0.0
 20
0.0
 30
0.0
  9
$UCSORGBACK
 10
0.0
 20
0.0
 30
0.0
  9
$PUCSBASE
  2

  9
$PUCSNAME
  2

  9
$PUCSORG
 10
0.0
 20
0.0
 30
0.0
  9
$PUCSXDIR
 10
1.0
 20
0.0
 30
0.0
  9
$PUCSYDIR
 10
0.0
 20
1.0
 30
0.0
  9
$PUCSORTHOREF
  2

  9
$PUCSORTHOVIEW
 70
     0
  9
$PUCSORGTOP
 10
0.0
 20
0.0
 30
0.0
  9
$PUCSORGBOTTOM
 10
0.0
 20
0.0
 30
0.0
  9
$PUCSORGLEFT
 10
0.0
 20
0.0
 30
0.0
  9
$PUCSORGRIGHT
 10
0.0
 20
0.0
 30
0.0
  9
$PUCSORGFRONT
 10
0.0
 20
0.0
 30
0.0
  9
$PUCSORGBACK
 10
0.0
 20
0.0
 30
0.0
  9
$USERI1
 70
     0
  9
$USERI2
 70
     0
  9
$USERI3
 70
     0
  9
$USERI4
 70
     0
  9
$USERI5
 70
     0
  9
$USERR1
 40
0.0
  9
$USERR2
 40
0.0
  9
$USERR3
 40
0.0
  9
$USERR4
 40
0.0
  9
$USERR5
 40
0.0
  9
$WORLDVIEW
 70
     1
  9
$SHADEDGE
 70
     3
  9
$SHADEDIF
 70
    70
  9
$TILEMODE
 70
     1
  9
$MAXACTVP
 70
    64
  9
$PINSBASE
 10
0.0
 20
0.0
 30
0.0
  9
$PLIMCHECK
 70
     0
  9
$PEXTMIN
 10
1.0000000000E+20
 20
1.0000000000E+20
 30
1.0000000000E+20
  9
$PEXTMAX
 10
-1.0000000000E+20
 20
-1.0000000000E+20
 30
-1.0000000000E+20
  9
$PLIMMIN
 10
0.0
 20
0.0
  9
$PLIMMAX
 10
420.0
 20
297.0
  9
$UNITMODE
 70
     0
  9
$VISRETAIN
 70
     1
  9
$PLINEGEN
 70
     0
  9
$PSLTSCALE
 70
     1
  9
$TREEDEPTH
 70
  3020
  9
$CMLSTYLE
  2
Standard
  9
$CMLJUST
 70
     0
  9
$CMLSCALE
 40
20.0
  9
$PROXYGRAPHICS
 70
     1
  9
$MEASUREMENT
 70
     1
  9
$CELWEIGHT
370
    -1
  9
$ENDCAPS
280
     0
  9
$JOINSTYLE
280
     0
  9
$LWDISPLAY
290
     1
  9
$INSUNITS
 70
     4
  9
$HYPERLINKBASE
  1

  9
$STYLESHEET
  1

  9
$XEDIT
290
     1
  9
$CEPSNTYPE
380
     0
  9
$PSTYLEMODE
290
     1
  9
$FINGERPRINTGUID
  2
{2C1DA4B6-71A0-483D-817C-702E830C32A9}
  9
$VERSIONGUID
  2
{FAEB1C32-E019-11D5-929B-00C0DF256EC4}
  9
$EXTNAMES
290
     1
  9
$PSVPSCALE
 40
0.0
  9
$OLESTARTUP
290
     0
  0
ENDSEC
  0
SECTION
  2
CLASSES
  0
CLASS
  1
ACDBDICTIONARYWDFLT
  2
AcDbDictionaryWithDefault
  3
ObjectDBX Classes
 90
        0
280
     0
281
     0
  0
CLASS
  1
VISUALSTYLE
  2
AcDbVisualStyle
  3
ObjectDBX Classes
 90
     4095
280
     0
281
     0
  0
CLASS
  1
MATERIAL
  2
AcDbMaterial
  3
ObjectDBX Classes
 90
     1153
280
     0
281
     0
  0
CLASS
  1
SCALE
  2
AcDbScale
  3
ObjectDBX Classes
 90
     1153
280
     0
281
     0
  0
CLASS
  1
TABLESTYLE
  2
AcDbTableStyle
  3
ObjectDBX Classes
 90
     4095
280
     0
281
     0
  0
CLASS
  1
MLEADERSTYLE
  2
AcDbMLeaderStyle
  3
ACDB_MLEADERSTYLE_CLASS
 90
     4095
280
     0
281
     0
  0
CLASS
  1
SUN
  2
AcDbSun
  3
SCENEOE
 90
     1153
280
     0
281
     0
  0
CLASS
  1
ACDBPLACEHOLDER
  2
AcDbPlaceHolder
  3
ObjectDBX Classes
 90
        0
280
     0
281
     0
  0
CLASS
  1
LAYOUT
  2
AcDbLayout
  3
ObjectDBX Classes
 90
        0
280
     0
281
     0
  0
ENDSEC
  0
SECTION
  2
TABLES
  0
TABLE
  2
VPORT
  5
8
330
0
100
AcDbSymbolTable
 70
     1
  0
VPORT
  5
29
330
8
100
AcDbSymbolTableRecord
100
AcDbViewportTableRecord
  2
*Active
 70
     0
 10
0.0
 20
0.0
 11
1.0
 21
1.0
 12
554.8567901765
 22
131.205666906
 13
0.0
 23
0.0
 14
10.0
 24
10.0
 15
10.0
 25
10.0
 16
0.0
 26
0.0
 36
1.0
 17
0.0
 27
0.0
 37
0.0
 40
619.7158491857
 41
1.7175624182
 42
50.0
 43
0.0
 44
0.0
 50
0.0
 51
0.0
 71
     0
 72
   100
 73
     1
 74
     3
 75
     0
 76
     0
 77
     0
 78
     0
281
     0
 65
     1
110
0.0
120
0.0
130
0.0
111
1.0
121
0.0
131
0.0
112
0.0
122
1.0
132
0.0
 79
     0
146
0.0
  0
ENDTAB
  0
TABLE
  2
LTYPE
  5
5
330
0
100
AcDbSymbolTable
 70
     6
  0
LTYPE
  5
14
330
5
100
AcDbSymbolTableRecord
100
AcDbLinetypeTableRecord
  2
ByBlock
 70
     0
  3

 72
    65
 73
     0
 40
0.0
  0
LTYPE
  5
15
330
5
100
AcDbSymbolTableRecord
100
AcDbLinetypeTableRecord
  2
ByLayer
 70
     0
  3

 72
    65
 73
     0
 40
0.0
  0
LTYPE
  5
16
330
5
100
AcDbSymbolTableRecord
100
AcDbLinetypeTableRecord
  2
Continuous
 70
     0
  3
Solid line
 72
    65
 73
     0
 40
0.0
  0
LTYPE
  5
6E
330
5
100
AcDbSymbolTableRecord
100
AcDbLinetypeTableRecord
  2
HIDDEN
 70
     0
  3
Hidden __ __ __ __ __ __ __ __ __ __ __ __ __ __
 72
    65
 73
     2
 40
1.905
 49
1.27
 74
     0
 49
-0.635
 74
     0
  0
LTYPE
  5
6F
330
5
100
AcDbSymbolTableRecord
100
AcDbLinetypeTableRecord
  2
PHANTOM
 70
     0
  3
Phantom ______  __  __  ______  __  __  ______
 72
    65
 73
     6
 40
12.7
 49
6.35
 74
     0
 49
-1.27
 74
     0
 49
1.27
 74
     0
 49
-1.27
 74
     0
 49
1.27
 74
     0
 49
-1.27
 74
     0
  0
LTYPE
  5
70
330
5
100
AcDbSymbolTableRecord
100
AcDbLinetypeTableRecord
  2
CENTER
 70
     0
  3
Center ____ _ ____ _ ____ _ ____ _ ____ _ ____
 72
    65
 73
     4
 40
10.16
 49
6.35
 74
     0
 49
-1.27
 74
     0
 49
1.27
 74
     0
 49
-1.27
 74
     0
  0
LTYPE
  5
71
330
5
100
AcDbSymbolTableRecord
100
AcDbLinetypeTableRecord
  2
CENTERX2
 70
     0
  3
Center (2x) ________  __  ________  __  _____
 72
    65
 73
     4
 40
20.32
 49
12.7
 74
     0
 49
-2.54
 74
     0
 49
2.54
 74
     0
 49
-2.54
 74
     0
  0
LTYPE
  5
72
330
5
100
AcDbSymbolTableRecord
100
AcDbLinetypeTableRecord
  2
DOT2
 70
     0
  3
Dot (.5x) ........................................
 72
    65
 73
     2
 40
0.635
 49
0.0
 74
     0
 49
-0.635
 74
     0
  0
ENDTAB
  0
TABLE
  2
LAYER
  5
2
330
0
100
AcDbSymbolTable
 70
     1
  0
LAYER
  5
10
330
2
100
AcDbSymbolTableRecord
100
AcDbLayerTableRecord
  2
0
 70
     0
 62
     7
  6
Continuous
370
    -3
390
F
  0
ENDTAB
  0
TABLE
  2
STYLE
  5
3
330
0
100
AcDbSymbolTable
 70
     1
  0
STYLE
  5
11
330
3
100
AcDbSymbolTableRecord
100
AcDbTextStyleTableRecord
  2
Standard
 70
     0
 40
0.0
 41
1.0
 50
0.0
 71
     0
 42
3.5
  3
txt
  4

  0
ENDTAB
  0
TABLE
  2
VIEW
  5
6
330
0
100
AcDbSymbolTable
 70
     0
  0
ENDTAB
  0
TABLE
  2
UCS
  5
7
330
0
100
AcDbSymbolTable
 70
     0
  0
ENDTAB
  0
TABLE
  2
APPID
  5
9
330
0
100
AcDbSymbolTable
 70
     1
  0
APPID
  5
12
330
9
100
AcDbSymbolTableRecord
100
AcDbRegAppTableRecord
  2
ACAD
 70
     0
  0
ENDTAB
  0
TABLE
  2
DIMSTYLE
  5
A
330
0
100
AcDbSymbolTable
 70
     1
100
AcDbDimStyleTable
  0
DIMSTYLE
105
27
330
A
100
AcDbSymbolTableRecord
100
AcDbDimStyleTableRecord
  2
ISO-25
 70
     0
 41
2.5
 42
0.625
 43
3.75
 44
1.25
 73
     0
 74
     0
 77
     1
 78
     8
140
2.5
141
2.5
143
0.0393700787
147
0.625
171
     3
172
     1
178
     0
271
     2
272
     2
274
     3
278
    44
283
     0
284
     8
340
11
  0
ENDTAB
  0
TABLE
  2
BLOCK_RECORD
  5
1
330
0
100
AcDbSymbolTable
 70
     1
  0
BLOCK_RECORD
  5
1F
330
1
100
AcDbSymbolTableRecord
100
AcDbBlockTableRecord
  2
*Model_Space
340
22
  0
BLOCK_RECORD
  5
1B
330
1
100
AcDbSymbolTableRecord
100
AcDbBlockTableRecord
  2
*Paper_Space
340
1E
  0
BLOCK_RECORD
  5
23
330
1
100
AcDbSymbolTableRecord
100
AcDbBlockTableRecord
  2
*Paper_Space0
340
26
  0
ENDTAB
  0
ENDSEC
  0
SECTION
  2
BLOCKS
  0
BLOCK
  5
20
330
1F
100
AcDbEntity
  8
0
100
AcDbBlockBegin
  2
*Model_Space
 70
     0
 10
0.0
 20
0.0
 30
0.0
  3
*Model_Space
  1

  0
ENDBLK
  5
21
330
1F
100
AcDbEntity
  8
0
100
AcDbBlockEnd
  0
BLOCK
  5
1C
330
1B
100
AcDbEntity
 67
     1
  8
0
100
AcDbBlockBegin
  2
*Paper_Space
 70
     0
 10
0.0
 20
0.0
 30
0.0
  3
*Paper_Space
  1

  0
ENDBLK
  5
1D
330
1B
100
AcDbEntity
 67
     1
  8
0
100
AcDbBlockEnd
  0
BLOCK
  5
24
330
23
100
AcDbEntity
  8
0
100
AcDbBlockBegin
  2
*Paper_Space0
 70
     0
 10
0.0
 20
0.0
 30
0.0
  3
*Paper_Space0
  1

  0
ENDBLK
  5
25
330
23
100
AcDbEntity
  8
0
100
AcDbBlockEnd
  0
ENDSEC
  0
SECTION
  2
ENTITIES
  0
ARC
  5
73
330
1F
100
AcDbEntity
  8
0
  6
Continuous
 62
     7
100
AcDbCircle
 10
1070.6218159183
 20
217.3354208214
 30
0.0
 40
6.0
100
AcDbArc
 50
270.0
 51
0.0
  0
ARC
  5
74
330
1F
100
AcDbEntity
  8
0
  6
Continuous
 62
     7
100
AcDbCircle
 10
1002.2006946527
 20
217.3354208214
 30
0.0
 40
6.0
100
AcDbArc
 50
180.0
 51
270.0
  0
LINE
  5
75
330
1F
100
AcDbEntity
  8
0
  6
Continuous
 62
     7
100
AcDbLine
 10
229.5406990012
 20
-124.1766121065
 30
0.0
 11
229.5406990012
 21
-120.9766121065
 31
0.0
  0
LINE
  5
76
330
1F
100
AcDbEntity
  8
0
  6
Continuous
 62
     7
100
AcDbLine
 10
229.5406990012
 20
-120.9766121065
 30
0.0
 11
226.1606990012
 21
-120.9766121065
 31
0.0
  0
LINE
  5
77
330
1F
100
AcDbEntity
  8
0
  6
Continuous
 62
     7
100
AcDbLine
 10
226.1606990012
 20
-120.9766121065
 30
0.0
 11
226.1606990012
 21
-117.7766121065
 31
0.0
  0
LINE
  5
78
330
1F
100
AcDbEntity
  8
0
  6
Continuous
 62
     7
100
AcDbLine
 10
226.1606990012
 20
-117.7766121065
 30
0.0
 11
229.5406990012
 21
-117.7766121065
 31
0.0
  0
LINE
  5
79
330
1F
100
AcDbEntity
  8
0
  6
Continuous
 62
     7
100
AcDbLine
 10
229.5406990012
 20
-117.7766121065
 30
0.0
 11
229.5406990012
 21
-114.5766121065
 31
0.0
  0
LINE
  5
7A
330
1F
100
AcDbEntity
  8
0
  6
Continuous
 62
     7
100
AcDbLine
 10
229.5406990012
 20
-114.5766121065
 30
0.0
 11
304.9242990012
 21
-114.5766121065
 31
0.0
  0
LINE
  5
7B
330
1F
100
AcDbEntity
  8
0
  6
Continuous
 62
     7
100
AcDbLine
 10
304.9242990012
 20
-114.5766121065
 30
0.0
 11
304.9242990012
 21
-117.7766121065
 31
0.0
  0
LINE
  5
7C
330
1F
100
AcDbEntity
  8
0
  6
Continuous
 62
     7
100
AcDbLine
 10
304.9242990012
 20
-117.7766121065
 30
0.0
 11
308.3042990012
 21
-117.7766121065
 31
0.0
  0
LINE
  5
7D
330
1F
100
AcDbEntity
  8
0
  6
Continuous
 62
     7
100
AcDbLine
 10
308.3042990012
 20
-117.7766121065
 30
0.0
 11
308.3042990012
 21
-120.9766121065
 31
0.0
  0
LINE
  5
7E
330
1F
100
AcDbEntity
  8
0
  6
Continuous
 62
     7
100
AcDbLine
 10
308.3042990012
 20
-120.9766121065
 30
0.0
 11
304.9242990012
 21
-120.9766121065
 31
0.0
  0
LINE
  5
7F
330
1F
100
AcDbEntity
  8
0
  6
Continuous
 62
     7
100
AcDbLine
 10
304.9242990012
 20
-120.9766121065
 30
0.0
 11
304.9242990012
 21
-124.1766121065
 31
0.0
  0
LINE
  5
80
330
1F
100
AcDbEntity
  8
0
  6
Continuous
 62
     7
100
AcDbLine
 10
304.9242990012
 20
-124.1766121065
 30
0.0
 11
308.3042990012
 21
-124.1766121065
 31
0.0
  0
LINE
  5
81
330
1F
100
AcDbEntity
  8
0
  6
Continuous
 62
     7
100
AcDbLine
 10
308.3042990012
 20
-124.1766121065
 30
0.0
 11
308.3042990012
 21
-127.3766121065
 31
0.0
  0
LINE
  5
82
330
1F
100
AcDbEntity
  8
0
  6
Continuous
 62
     7
100
AcDbLine
 10
308.3042990012
 20
-127.3766121065
 30
0.0
 11
304.9242990012
 21
-127.3766121065
 31
0.0
  0
LINE
  5
83
330
1F
100
AcDbEntity
  8
0
  6
Continuous
 62
     7
100
AcDbLine
 10
304.9242990012
 20
-127.3766121065
 30
0.0
 11
304.9242990012
 21
-130.5766121065
 31
0.0
  0
LINE
  5
84
330
1F
100
AcDbEntity
  8
0
  6
Continuous
 62
     7
100
AcDbLine
 10
304.9242990012
 20
-130.5766121065
 30
0.0
 11
308.3042990012
 21
-130.5766121065
 31
0.0
  0
LINE
  5
85
330
1F
100
AcDbEntity
  8
0
  6
Continuous
 62
     7
100
AcDbLine
 10
308.3042990012
 20
-130.5766121065
 30
0.0
 11
308.3042990012
 21
-133.7766121065
 31
0.0
  0
LINE
  5
86
330
1F
100
AcDbEntity
  8
0
  6
Continuous
 62
     7
100
AcDbLine
 10
308.3042990012
 20
-133.7766121065
 30
0.0
 11
226.1606990012
 21
-133.7766121065
 31
0.0
  0
LINE
  5
87
330
1F
100
AcDbEntity
  8
0
  6
Continuous
 62
     7
100
AcDbLine
 10
226.1606990012
 20
-133.7766121065
 30
0.0
 11
226.1606990012
 21
-130.5766121065
 31
0.0
  0
LINE
  5
88
330
1F
100
AcDbEntity
  8
0
  6
Continuous
 62
     7
100
AcDbLine
 10
226.1606990012
 20
-130.5766121065
 30
0.0
 11
229.5406990012
 21
-130.5766121065
 31
0.0
  0
LINE
  5
89
330
1F
100
AcDbEntity
  8
0
  6
Continuous
 62
     7
100
AcDbLine
 10
229.5406990012
 20
-130.5766121065
 30
0.0
 11
229.5406990012
 21
-127.3766121065
 31
0.0
  0
LINE
  5
8A
330
1F
100
AcDbEntity
  8
0
  6
Continuous
 62
     7
100
AcDbLine
 10
229.5406990012
 20
-127.3766121065
 30
0.0
 11
226.1606990012
 21
-127.3766121065
 31
0.0
  0
LINE
  5
8B
330
1F
100
AcDbEntity
  8
0
  6
Continuous
 62
     7
100
AcDbLine
 10
226.1606990012
 20
-127.3766121065
 30
0.0
 11
226.1606990012
 21
-124.1766121065
 31
0.0
  0
LINE
  5
8C
330
1F
100
AcDbEntity
  8
0
  6
Continuous
 62
     7
100
AcDbLine
 10
226.1606990012
 20
-124.1766121065
 30
0.0
 11
229.5406990012
 21
-124.1766121065
 31
0.0
  0
LINE
  5
8D
330
1F
100
AcDbEntity
  8
0
  6
Continuous
 62
     7
100
AcDbLine
 10
229.5406990012
 20
-143.5766121065
 30
0.0
 11
229.5406990012
 21
-140.3766121065
 31
0.0
  0
LINE
  5
8E
330
1F
100
AcDbEntity
  8
0
  6
Continuous
 62
     7
100
AcDbLine
 10
229.5406990012
 20
-140.3766121065
 30
0.0
 11
226.1606990012
 21
-140.3766121065
 31
0.0
  0
LINE
  5
8F
330
1F
100
AcDbEntity
  8
0
  6
Continuous
 62
     7
100
AcDbLine
 10
226.1606990012
 20
-140.3766121065
 30
0.0
 11
226.1606990012
 21
-137.1766121065
 31
0.0
  0
LINE
  5
90
330
1F
100
AcDbEntity
  8
0
  6
Continuous
 62
     7
100
AcDbLine
 10
226.1606990012
 20
-137.1766121065
 30
0.0
 11
229.5406990012
 21
-137.1766121065
 31
0.0
  0
LINE
  5
91
330
1F
100
AcDbEntity
  8
0
  6
Continuous
 62
     7
100
AcDbLine
 10
229.5406990012
 20
-137.1766121065
 30
0.0
 11
229.5406990012
 21
-133.9766121065
 31
0.0
  0
LINE
  5
92
330
1F
100
AcDbEntity
  8
0
  6
Continuous
 62
     7
100
AcDbLine
 10
229.5406990012
 20
-133.9766121065
 30
0.0
 11
304.9242990012
 21
-133.9766121065
 31
0.0
  0
LINE
  5
93
330
1F
100
AcDbEntity
  8
0
  6
Continuous
 62
     7
100
AcDbLine
 10
304.9242990012
 20
-133.9766121065
 30
0.0
 11
304.9242990012
 21
-137.1766121065
 31
0.0
  0
LINE
  5
94
330
1F
100
AcDbEntity
  8
0
  6
Continuous
 62
     7
100
AcDbLine
 10
304.9242990012
 20
-137.1766121065
 30
0.0
 11
308.3042990012
 21
-137.1766121065
 31
0.0
  0
LINE
  5
95
330
1F
100
AcDbEntity
  8
0
  6
Continuous
 62
     7
100
AcDbLine
 10
308.3042990012
 20
-137.1766121065
 30
0.0
 11
308.3042990012
 21
-140.3766121065
 31
0.0
  0
LINE
  5
96
330
1F
100
AcDbEntity
  8
0
  6
Continuous
 62
     7
100
AcDbLine
 10
308.3042990012
 20
-140.3766121065
 30
0.0
 11
304.9242990012
 21
-140.3766121065
 31
0.0
  0
LINE
  5
97
330
1F
100
AcDbEntity
  8
0
  6
Continuous
 62
     7
100
AcDbLine
 10
304.9242990012
 20
-140.3766121065
 30
0.0
 11
304.9242990012
 21
-143.5766121065
 31
0.0
  0
LINE
  5
98
330
1F
100
AcDbEntity
  8
0
  6
Continuous
 62
     7
100
AcDbLine
 10
304.9242990012
 20
-143.5766121065
 30
0.0
 11
308.3042990012
 21
-143.5766121065
 31
0.0
  0
LINE
  5
99
330
1F
100
AcDbEntity
  8
0
  6
Continuous
 62
     7
100
AcDbLine
 10
308.3042990012
 20
-143.5766121065
 30
0.0
 11
308.3042990012
 21
-146.7766121065
 31
0.0
  0
LINE
  5
9A
330
1F
100
AcDbEntity
  8
0
  6
Continuous
 62
     7
100
AcDbLine
 10
308.3042990012
 20
-146.7766121065
 30
0.0
 11
304.9242990012
 21
-146.7766121065
 31
0.0
  0
LINE
  5
9B
330
1F
100
AcDbEntity
  8
0
  6
Continuous
 62
     7
100
AcDbLine
 10
304.9242990012
 20
-146.7766121065
 30
0.0
 11
304.9242990012
 21
-149.9766121065
 31
0.0
  0
LINE
  5
9C
330
1F
100
AcDbEntity
  8
0
  6
Continuous
 62
     7
100
AcDbLine
 10
304.9242990012
 20
-149.9766121065
 30
0.0
 11
308.3042990012
 21
-149.9766121065
 31
0.0
  0
LINE
  5
9D
330
1F
100
AcDbEntity
  8
0
  6
Continuous
 62
     7
100
AcDbLine
 10
308.3042990012
 20
-149.9766121065
 30
0.0
 11
308.3042990012
 21
-153.1766121065
 31
0.0
  0
LINE
  5
9E
330
1F
100
AcDbEntity
  8
0
  6
Continuous
 62
     7
100
AcDbLine
 10
308.3042990012
 20
-153.1766121065
 30
0.0
 11
226.1606990012
 21
-153.1766121065
 31
0.0
  0
LINE
  5
9F
330
1F
100
AcDbEntity
  8
0
  6
Continuous
 62
     7
100
AcDbLine
 10
226.1606990012
 20
-153.1766121065
 30
0.0
 11
226.1606990012
 21
-149.9766121065
 31
0.0
  0
LINE
  5
A0
330
1F
100
AcDbEntity
  8
0
  6
Continuous
 62
     7
100
AcDbLine
 10
226.1606990012
 20
-149.9766121065
 30
0.0
 11
229.5406990012
 21
-149.9766121065
 31
0.0
  0
LINE
  5
A1
330
1F
100
AcDbEntity
  8
0
  6
Continuous
 62
     7
100
AcDbLine
 10
229.5406990012
 20
-149.9766121065
 30
0.0
 11
229.5406990012
 21
-146.7766121065
 31
0.0
  0
LINE
  5
A2
330
1F
100
AcDbEntity
  8
0
  6
Continuous
 62
     7
100
AcDbLine
 10
229.5406990012
 20
-146.7766121065
 30
0.0
 11
226.1606990012
 21
-146.7766121065
 31
0.0
  0
LINE
  5
A3
330
1F
100
AcDbEntity
  8
0
  6
Continuous
 62
     7
100
AcDbLine
 10
226.1606990012
 20
-146.7766121065
 30
0.0
 11
226.1606990012
 21
-143.5766121065
 31
0.0
  0
LINE
  5
A4
330
1F
100
AcDbEntity
  8
0
  6
Continuous
 62
     7
100
AcDbLine
 10
226.1606990012
 20
-143.5766121065
 30
0.0
 11
229.5406990012
 21
-143.5766121065
 31
0.0
  0
LINE
  5
A5
330
1F
100
AcDbEntity
  8
0
  6
Continuous
 62
     7
100
AcDbLine
 10
229.5406990012
 20
-162.9766121065
 30
0.0
 11
229.5406990012
 21
-159.7766121065
 31
0.0
  0
LINE
  5
A6
330
1F
100
AcDbEntity
  8
0
  6
Continuous
 62
     7
100
AcDbLine
 10
229.5406990012
 20
-159.7766121065
 30
0.0
 11
226.1606990012
 21
-159.7766121065
 31
0.0
  0
LINE
  5
A7
330
1F
100
AcDbEntity
  8
0
  6
Continuous
 62
     7
100
AcDbLine
 10
226.1606990012
 20
-159.7766121065
 30
0.0
 11
226.1606990012
 21
-156.5766121065
 31
0.0
  0
LINE
  5
A8
330
1F
100
AcDbEntity
  8
0
  6
Continuous
 62
     7
100
AcDbLine
 10
226.1606990012
 20
-156.5766121065
 30
0.0
 11
229.5406990012
 21
-156.5766121065
 31
0.0
  0
LINE
  5
A9
330
1F
100
AcDbEntity
  8
0
  6
Continuous
 62
     7
100
AcDbLine
 10
152.1283260187
 20
268.069733
 30
0.0
 11
152.1283260187
 21
255.369733
 31
0.0
  0
LINE
  5
AA
330
1F
100
AcDbEntity
  8
0
  6
Continuous
 62
     7
100
AcDbLine
 10
152.1283260187
 20
255.369733
 30
0.0
 11
148.7483260187
 21
255.369733
 31
0.0
  0
LINE
  5
AB
330
1F
100
AcDbEntity
  8
0
  6
Continuous
 62
     7
100
AcDbLine
 10
148.7483260187
 20
255.369733
 30
0.0
 11
148.7483260187
 21
242.669733
 31
0.0
  0
LINE
  5
AC
330
1F
100
AcDbEntity
  8
0
  6
Continuous
 62
     7
100
AcDbLine
 10
148.7483260187
 20
242.669733
 30
0.0
 11
152.1283260187
 21
242.669733
 31
0.0
  0
LINE
  5
AD
330
1F
100
AcDbEntity
  8
0
  6
Continuous
 62
     7
100
AcDbLine
 10
152.1283260187
 20
242.669733
 30
0.0
 11
152.1283260187
 21
229.969733
 31
0.0
  0
LINE
  5
AE
330
1F
100
AcDbEntity
  8
0
  6
Continuous
 62
     7
100
AcDbLine
 10
152.1283260187
 20
229.969733
 30
0.0
 11
148.7483260187
 21
229.969733
 31
0.0
  0
LINE
  5
AF
330
1F
100
AcDbEntity
  8
0
  6
Continuous
 62
     7
100
AcDbLine
 10
148.7483260187
 20
229.969733
 30
0.0
 11
148.7483260187
 21
217.269733
 31
0.0
  0
LINE
  5
B0
330
1F
100
AcDbEntity
  8
0
  6
Continuous
 62
     7
100
AcDbLine
 10
148.7483260187
 20
217.269733
 30
0.0
 11
152.1283260187
 21
217.269733
 31
0.0
  0
LINE
  5
B1
330
1F
100
AcDbEntity
  8
0
  6
Continuous
 62
     7
100
AcDbLine
 10
152.1283260187
 20
217.269733
 30
0.0
 11
152.1283260187
 21
204.569733
 31
0.0
  0
LINE
  5
B2
330
1F
100
AcDbEntity
  8
0
  6
Continuous
 62
     7
100
AcDbLine
 10
152.1283260187
 20
204.569733
 30
0.0
 11
148.7483260187
 21
204.569733
 31
0.0
  0
LINE
  5
B3
330
1F
100
AcDbEntity
  8
0
  6
Continuous
 62
     7
100
AcDbLine
 10
148.7483260187
 20
204.569733
 30
0.0
 11
148.7483260187
 21
191.869733
 31
0.0
  0
LINE
  5
B4
330
1F
100
AcDbEntity
  8
0
  6
Continuous
 62
     7
100
AcDbLine
 10
148.7483260187
 20
191.869733
 30
0.0
 11
152.1283260187
 21
191.869733
 31
0.0
  0
LINE
  5
B5
330
1F
100
AcDbEntity
  8
0
  6
Continuous
 62
     7
100
AcDbLine
 10
152.1283260187
 20
191.869733
 30
0.0
 11
152.1283260187
 21
179.169733
 31
0.0
  0
LINE
  5
B6
330
1F
100
AcDbEntity
  8
0
  6
Continuous
 62
     7
100
AcDbLine
 10
152.1283260187
 20
179.169733
 30
0.0
 11
148.7483260187
 21
179.169733
 31
0.0
  0
LINE
  5
B7
330
1F
100
AcDbEntity
  8
0
  6
Continuous
 62
     7
100
AcDbLine
 10
148.7483260187
 20
179.169733
 30
0.0
 11
148.7483260187
 21
166.469733
 31
0.0
  0
LINE
  5
B8
330
1F
100
AcDbEntity
  8
0
  6
Continuous
 62
     7
100
AcDbLine
 10
148.7483260187
 20
166.469733
 30
0.0
 11
152.1283260187
 21
166.469733
 31
0.0
  0
LINE
  5
B9
330
1F
100
AcDbEntity
  8
0
  6
Continuous
 62
     7
100
AcDbLine
 10
152.1283260187
 20
166.469733
 30
0.0
 11
152.1283260187
 21
153.769733
 31
0.0
  0
LINE
  5
BA
330
1F
100
AcDbEntity
  8
0
  6
Continuous
 62
     7
100
AcDbLine
 10
152.1283260187
 20
153.769733
 30
0.0
 11
148.7483260187
 21
153.769733
 31
0.0
  0
LINE
  5
BB
330
1F
100
AcDbEntity
  8
0
  6
Continuous
 62
     7
100
AcDbLine
 10
148.7483260187
 20
153.769733
 30
0.0
 11
148.7483260187
 21
141.069733
 31
0.0
  0
LINE
  5
BC
330
1F
100
AcDbEntity
  8
0
  6
Continuous
 62
     7
100
AcDbLine
 10
148.7483260187
 20
141.069733
 30
0.0
 11
152.1283260187
 21
141.069733
 31
0.0
  0
LINE
  5
BD
330
1F
100
AcDbEntity
  8
0
  6
Continuous
 62
     7
100
AcDbLine
 10
152.1283260187
 20
141.069733
 30
0.0
 11
152.1283260187
 21
128.369733
 31
0.0
  0
LINE
  5
BE
330
1F
100
AcDbEntity
  8
0
  6
Continuous
 62
     7
100
AcDbLine
 10
152.1283260187
 20
128.369733
 30
0.0
 11
148.7483260187
 21
128.369733
 31
0.0
  0
LINE
  5
BF
330
1F
100
AcDbEntity
  8
0
  6
Continuous
 62
     7
100
AcDbLine
 10
148.7483260187
 20
128.369733
 30
0.0
 11
148.7483260187
 21
115.669733
 31
0.0
  0
LINE
  5
C0
330
1F
100
AcDbEntity
  8
0
  6
Continuous
 62
     7
100
AcDbLine
 10
148.7483260187
 20
115.669733
 30
0.0
 11
152.1283260187
 21
115.669733
 31
0.0
  0
LINE
  5
C1
330
1F
100
AcDbEntity
  8
0
  6
Continuous
 62
     7
100
AcDbLine
 10
152.1283260187
 20
115.669733
 30
0.0
 11
152.1283260187
 21
102.969733
 31
0.0
  0
LINE
  5
C2
330
1F
100
AcDbEntity
  8
0
  6
Continuous
 62
     7
100
AcDbLine
 10
152.1283260187
 20
102.969733
 30
0.0
 11
158.0701260187
 21
102.969733
 31
0.0
  0
LINE
  5
C3
330
1F
100
AcDbEntity
  8
0
  6
Continuous
 62
     7
100
AcDbLine
 10
230.8919260187
 20
115.669733
 30
0.0
 11
227.5119260187
 21
115.669733
 31
0.0
  0
LINE
  5
C4
330
1F
100
AcDbEntity
  8
0
  6
Continuous
 62
     7
100
AcDbLine
 10
227.5119260187
 20
128.369733
 30
0.0
 11
230.8919260187
 21
128.369733
 31
0.0
  0
LINE
  5
C5
330
1F
100
AcDbEntity
  8
0
  6
Continuous
 62
     7
100
AcDbLine
 10
230.8919260187
 20
141.069733
 30
0.0
 11
227.5119260187
 21
141.069733
 31
0.0
  0
LINE
  5
C6
330
1F
100
AcDbEntity
  8
0
  6
Continuous
 62
     7
100
AcDbLine
 10
227.5119260187
 20
153.769733
 30
0.0
 11
230.8919260187
 21
153.769733
 31
0.0
  0
LINE
  5
C7
330
1F
100
AcDbEntity
  8
0
  6
Continuous
 62
     7
100
AcDbLine
 10
230.8919260187
 20
166.469733
 30
0.0
 11
227.5119260187
 21
166.469733
 31
0.0
  0
LINE
  5
C8
330
1F
100
AcDbEntity
  8
0
  6
Continuous
 62
     7
100
AcDbLine
 10
227.5119260187
 20
179.169733
 30
0.0
 11
230.8919260187
 21
179.169733
 31
0.0
  0
LINE
  5
C9
330
1F
100
AcDbEntity
  8
0
  6
Continuous
 62
     7
100
AcDbLine
 10
230.8919260187
 20
191.869733
 30
0.0
 11
227.5119260187
 21
191.869733
 31
0.0
  0
LINE
  5
CA
330
1F
100
AcDbEntity
  8
0
  6
Continuous
 62
     7
100
AcDbLine
 10
227.5119260187
 20
204.569733
 30
0.0
 11
230.8919260187
 21
204.569733
 31
0.0
  0
LINE
  5
CB
330
1F
100
AcDbEntity
  8
0
  6
Continuous
 62
     7
100
AcDbLine
 10
230.8919260187
 20
217.269733
 30
0.0
 11
227.5119260187
 21
217.269733
 31
0.0
  0
LINE
  5
CC
330
1F
100
AcDbEntity
  8
0
  6
Continuous
 62
     7
100
AcDbLine
 10
227.5119260187
 20
229.969733
 30
0.0
 11
230.8919260187
 21
229.969733
 31
0.0
  0
LINE
  5
CD
330
1F
100
AcDbEntity
  8
0
  6
Continuous
 62
     7
100
AcDbLine
 10
230.8919260187
 20
242.669733
 30
0.0
 11
227.5119260187
 21
242.669733
 31
0.0
  0
LINE
  5
CE
330
1F
100
AcDbEntity
  8
0
  6
Continuous
 62
     7
100
AcDbLine
 10
227.5119260187
 20
255.369733
 30
0.0
 11
230.8919260187
 21
255.369733
 31
0.0
  0
LINE
  5
CF
330
1F
100
AcDbEntity
  8
0
  6
Continuous
 62
     7
100
AcDbLine
 10
156.6165360187
 20
109.729733
 30
0.0
 11
223.0237160187
 21
109.729733
 31
0.0
  0
LINE
  5
D0
330
1F
100
AcDbEntity
  8
0
  6
Continuous
 62
     7
100
AcDbLine
 10
224.1319260187
 20
110.837943
 30
0.0
 11
224.1319260187
 21
149.6707641409
 31
0.0
  0
LINE
  5
D1
330
1F
100
AcDbEntity
  8
0
  6
Continuous
 62
     7
100
AcDbLine
 10
223.0237160187
 20
150.7789741409
 30
0.0
 11
156.6165360187
 21
150.7789741409
 31
0.0
  0
LINE
  5
D2
330
1F
100
AcDbEntity
  8
0
  6
Continuous
 62
     7
100
AcDbLine
 10
155.5083260187
 20
149.6707641409
 30
0.0
 11
155.5083260187
 21
110.837943
 31
0.0
  0
LINE
  5
D3
330
1F
100
AcDbEntity
  8
0
  6
Continuous
 62
     7
100
AcDbLine
 10
229.5406990012
 20
-156.5766121065
 30
0.0
 11
229.5406990012
 21
-153.3766121065
 31
0.0
  0
LINE
  5
D4
330
1F
100
AcDbEntity
  8
0
  6
Continuous
 62
     7
100
AcDbLine
 10
229.5406990012
 20
-153.3766121065
 30
0.0
 11
304.9242990012
 21
-153.3766121065
 31
0.0
  0
LINE
  5
D5
330
1F
100
AcDbEntity
  8
0
  6
Continuous
 62
     7
100
AcDbLine
 10
304.9242990012
 20
-153.3766121065
 30
0.0
 11
304.9242990012
 21
-156.5766121065
 31
0.0
  0
LINE
  5
D6
330
1F
100
AcDbEntity
  8
0
  6
Continuous
 62
     7
100
AcDbLine
 10
304.9242990012
 20
-156.5766121065
 30
0.0
 11
308.3042990012
 21
-156.5766121065
 31
0.0
  0
LINE
  5
D7
330
1F
100
AcDbEntity
  8
0
  6
Continuous
 62
     7
100
AcDbLine
 10
308.3042990012
 20
-156.5766121065
 30
0.0
 11
308.3042990012
 21
-159.7766121065
 31
0.0
  0
LINE
  5
D8
330
1F
100
AcDbEntity
  8
0
  6
Continuous
 62
     7
100
AcDbLine
 10
308.3042990012
 20
-159.7766121065
 30
0.0
 11
304.9242990012
 21
-159.7766121065
 31
0.0
  0
LINE
  5
D9
330
1F
100
AcDbEntity
  8
0
  6
Continuous
 62
     7
100
AcDbLine
 10
304.9242990012
 20
-159.7766121065
 30
0.0
 11
304.9242990012
 21
-162.9766121065
 31
0.0
  0
LINE
  5
DA
330
1F
100
AcDbEntity
  8
0
  6
Continuous
 62
     7
100
AcDbLine
 10
304.9242990012
 20
-162.9766121065
 30
0.0
 11
308.3042990012
 21
-162.9766121065
 31
0.0
  0
LINE
  5
DB
330
1F
100
AcDbEntity
  8
0
  6
Continuous
 62
     7
100
AcDbLine
 10
308.3042990012
 20
-162.9766121065
 30
0.0
 11
308.3042990012
 21
-166.1766121065
 31
0.0
  0
LINE
  5
DC
330
1F
100
AcDbEntity
  8
0
  6
Continuous
 62
     7
100
AcDbLine
 10
308.3042990012
 20
-166.1766121065
 30
0.0
 11
304.9242990012
 21
-166.1766121065
 31
0.0
  0
LINE
  5
DD
330
1F
100
AcDbEntity
  8
0
  6
Continuous
 62
     7
100
AcDbLine
 10
304.9242990012
 20
-166.1766121065
 30
0.0
 11
304.9242990012
 21
-169.3766121065
 31
0.0
  0
LINE
  5
DE
330
1F
100
AcDbEntity
  8
0
  6
Continuous
 62
     7
100
AcDbLine
 10
304.9242990012
 20
-169.3766121065
 30
0.0
 11
308.3042990012
 21
-169.3766121065
 31
0.0
  0
LINE
  5
DF
330
1F
100
AcDbEntity
  8
0
  6
Continuous
 62
     7
100
AcDbLine
 10
308.3042990012
 20
-169.3766121065
 30
0.0
 11
308.3042990012
 21
-172.5766121065
 31
0.0
  0
LINE
  5
E0
330
1F
100
AcDbEntity
  8
0
  6
Continuous
 62
     7
100
AcDbLine
 10
308.3042990012
 20
-172.5766121065
 30
0.0
 11
226.1606990012
 21
-172.5766121065
 31
0.0
  0
LINE
  5
E1
330
1F
100
AcDbEntity
  8
0
  6
Continuous
 62
     7
100
AcDbLine
 10
226.1606990012
 20
-172.5766121065
 30
0.0
 11
226.1606990012
 21
-169.3766121065
 31
0.0
  0
LINE
  5
E2
330
1F
100
AcDbEntity
  8
0
  6
Continuous
 62
     7
100
AcDbLine
 10
226.1606990012
 20
-169.3766121065
 30
0.0
 11
229.5406990012
 21
-169.3766121065
 31
0.0
  0
LINE
  5
E3
330
1F
100
AcDbEntity
  8
0
  6
Continuous
 62
     7
100
AcDbLine
 10
229.5406990012
 20
-169.3766121065
 30
0.0
 11
229.5406990012
 21
-166.1766121065
 31
0.0
  0
LINE
  5
E4
330
1F
100
AcDbEntity
  8
0
  6
Continuous
 62
     7
100
AcDbLine
 10
229.5406990012
 20
-166.1766121065
 30
0.0
 11
226.1606990012
 21
-166.1766121065
 31
0.0
  0
LINE
  5
E5
330
1F
100
AcDbEntity
  8
0
  6
Continuous
 62
     7
100
AcDbLine
 10
226.1606990012
 20
-166.1766121065
 30
0.0
 11
226.1606990012
 21
-162.9766121065
 31
0.0
  0
LINE
  5
E6
330
1F
100
AcDbEntity
  8
0
  6
Continuous
 62
     7
100
AcDbLine
 10
226.1606990012
 20
-162.9766121065
 30
0.0
 11
229.5406990012
 21
-162.9766121065
 31
0.0
  0
LINE
  5
E8
330
1F
100
AcDbEntity
  8
0
  6
Continuous
 62
     7
100
AcDbLine
 10
101.3470378572
 20
-69.7515579989
 30
0.0
 11
101.3470378572
 21
-72.9515579989
 31
0.0
  0
LINE
  5
E9
330
1F
100
AcDbEntity
  8
0
  6
Continuous
 62
     7
100
AcDbLine
 10
101.3470378572
 20
-72.9515579989
 30
0.0
 11
176.7306378572
 21
-72.9515579989
 31
0.0
  0
LINE
  5
EA
330
1F
100
AcDbEntity
  8
0
  6
Continuous
 62
     7
100
AcDbLine
 10
176.7306378572
 20
-72.9515579989
 30
0.0
 11
176.7306378572
 21
-69.7515579989
 31
0.0
  0
LINE
  5
EB
330
1F
100
AcDbEntity
  8
0
  6
Continuous
 62
     7
100
AcDbLine
 10
176.7306378572
 20
-69.7515579989
 30
0.0
 11
180.1106378572
 21
-69.7515579989
 31
0.0
  0
LINE
  5
EC
330
1F
100
AcDbEntity
  8
0
  6
Continuous
 62
     7
100
AcDbLine
 10
101.3470378572
 20
-69.7515579989
 30
0.0
 11
97.9670378572
 21
-69.7515579989
 31
0.0
  0
LINE
  5
ED
330
1F
100
AcDbEntity
  8
0
  6
Continuous
 62
     7
100
AcDbLine
 10
229.5406990012
 20
-104.7766121065
 30
0.0
 11
229.5406990012
 21
-101.5766121065
 31
0.0
  0
LINE
  5
EE
330
1F
100
AcDbEntity
  8
0
  6
Continuous
 62
     7
100
AcDbLine
 10
229.5406990012
 20
-101.5766121065
 30
0.0
 11
226.1606990012
 21
-101.5766121065
 31
0.0
  0
LINE
  5
EF
330
1F
100
AcDbEntity
  8
0
  6
Continuous
 62
     7
100
AcDbLine
 10
226.1606990012
 20
-101.5766121065
 30
0.0
 11
226.1606990012
 21
-98.3766121065
 31
0.0
  0
LINE
  5
F0
330
1F
100
AcDbEntity
  8
0
  6
Continuous
 62
     7
100
AcDbLine
 10
226.1606990012
 20
-98.3766121065
 30
0.0
 11
229.5406990012
 21
-98.3766121065
 31
0.0
  0
LINE
  5
F1
330
1F
100
AcDbEntity
  8
0
  6
Continuous
 62
     7
100
AcDbLine
 10
229.5406990012
 20
-98.3766121065
 30
0.0
 11
229.5406990012
 21
-95.1766121065
 31
0.0
  0
LINE
  5
F2
330
1F
100
AcDbEntity
  8
0
  6
Continuous
 62
     7
100
AcDbLine
 10
229.5406990012
 20
-95.1766121065
 30
0.0
 11
304.9242990012
 21
-95.1766121065
 31
0.0
  0
LINE
  5
F3
330
1F
100
AcDbEntity
  8
0
  6
Continuous
 62
     7
100
AcDbLine
 10
304.9242990012
 20
-95.1766121065
 30
0.0
 11
304.9242990012
 21
-98.3766121065
 31
0.0
  0
LINE
  5
F4
330
1F
100
AcDbEntity
  8
0
  6
Continuous
 62
     7
100
AcDbLine
 10
304.9242990012
 20
-98.3766121065
 30
0.0
 11
308.3042990012
 21
-98.3766121065
 31
0.0
  0
LINE
  5
F5
330
1F
100
AcDbEntity
  8
0
  6
Continuous
 62
     7
100
AcDbLine
 10
308.3042990012
 20
-98.3766121065
 30
0.0
 11
308.3042990012
 21
-101.5766121065
 31
0.0
  0
LINE
  5
F6
330
1F
100
AcDbEntity
  8
0
  6
Continuous
 62
     7
100
AcDbLine
 10
308.3042990012
 20
-101.5766121065
 30
0.0
 11
304.9242990012
 21
-101.5766121065
 31
0.0
  0
LINE
  5
F7
330
1F
100
AcDbEntity
  8
0
  6
Continuous
 62
     7
100
AcDbLine
 10
304.9242990012
 20
-101.5766121065
 30
0.0
 11
304.9242990012
 21
-104.7766121065
 31
0.0
  0
LINE
  5
F8
330
1F
100
AcDbEntity
  8
0
  6
Continuous
 62
     7
100
AcDbLine
 10
304.9242990012
 20
-104.7766121065
 30
0.0
 11
308.3042990012
 21
-104.7766121065
 31
0.0
  0
LINE
  5
F9
330
1F
100
AcDbEntity
  8
0
  6
Continuous
 62
     7
100
AcDbLine
 10
308.3042990012
 20
-104.7766121065
 30
0.0
 11
308.3042990012
 21
-107.9766121065
 31
0.0
  0
LINE
  5
FA
330
1F
100
AcDbEntity
  8
0
  6
Continuous
 62
     7
100
AcDbLine
 10
308.3042990012
 20
-107.9766121065
 30
0.0
 11
304.9242990012
 21
-107.9766121065
 31
0.0
  0
LINE
  5
FB
330
1F
100
AcDbEntity
  8
0
  6
Continuous
 62
     7
100
AcDbLine
 10
304.9242990012
 20
-107.9766121065
 30
0.0
 11
304.9242990012
 21
-111.1766121065
 31
0.0
  0
LINE
  5
FC
330
1F
100
AcDbEntity
  8
0
  6
Continuous
 62
     7
100
AcDbLine
 10
304.9242990012
 20
-111.1766121065
 30
0.0
 11
308.3042990012
 21
-111.1766121065
 31
0.0
  0
LINE
  5
FD
330
1F
100
AcDbEntity
  8
0
  6
Continuous
 62
     7
100
AcDbLine
 10
308.3042990012
 20
-111.1766121065
 30
0.0
 11
308.3042990012
 21
-114.3766121065
 31
0.0
  0
LINE
  5
FE
330
1F
100
AcDbEntity
  8
0
  6
Continuous
 62
     7
100
AcDbLine
 10
308.3042990012
 20
-114.3766121065
 30
0.0
 11
226.1606990012
 21
-114.3766121065
 31
0.0
  0
LINE
  5
FF
330
1F
100
AcDbEntity
  8
0
  6
Continuous
 62
     7
100
AcDbLine
 10
226.1606990012
 20
-114.3766121065
 30
0.0
 11
226.1606990012
 21
-111.1766121065
 31
0.0
  0
LINE
  5
100
330
1F
100
AcDbEntity
  8
0
  6
Continuous
 62
     7
100
AcDbLine
 10
226.1606990012
 20
-111.1766121065
 30
0.0
 11
229.5406990012
 21
-111.1766121065
 31
0.0
  0
LINE
  5
101
330
1F
100
AcDbEntity
  8
0
  6
Continuous
 62
     7
100
AcDbLine
 10
229.5406990012
 20
-111.1766121065
 30
0.0
 11
229.5406990012
 21
-107.9766121065
 31
0.0
  0
LINE
  5
102
330
1F
100
AcDbEntity
  8
0
  6
Continuous
 62
     7
100
AcDbLine
 10
229.5406990012
 20
-107.9766121065
 30
0.0
 11
226.1606990012
 21
-107.9766121065
 31
0.0
  0
LINE
  5
103
330
1F
100
AcDbEntity
  8
0
  6
Continuous
 62
     7
100
AcDbLine
 10
226.1606990012
 20
-107.9766121065
 30
0.0
 11
226.1606990012
 21
-104.7766121065
 31
0.0
  0
LINE
  5
104
330
1F
100
AcDbEntity
  8
0
  6
Continuous
 62
     7
100
AcDbLine
 10
226.1606990012
 20
-104.7766121065
 30
0.0
 11
229.5406990012
 21
-104.7766121065
 31
0.0
  0
LINE
  5
105
330
1F
100
AcDbEntity
  8
0
  6
Continuous
 62
     7
100
AcDbLine
 10
240.4366949614
 20
-29.3967441086
 30
0.0
 11
322.5802949614
 21
-29.3967441086
 31
0.0
  0
LINE
  5
106
330
1F
100
AcDbEntity
  8
0
  6
Continuous
 62
     7
100
AcDbLine
 10
322.5802949614
 20
-29.3967441086
 30
0.0
 11
322.5802949614
 21
-32.5967441086
 31
0.0
  0
LINE
  5
107
330
1F
100
AcDbEntity
  8
0
  6
Continuous
 62
     7
100
AcDbLine
 10
322.5802949614
 20
-32.5967441086
 30
0.0
 11
319.2002949614
 21
-32.5967441086
 31
0.0
  0
LINE
  5
108
330
1F
100
AcDbEntity
  8
0
  6
Continuous
 62
     7
100
AcDbLine
 10
319.2002949614
 20
-32.5967441086
 30
0.0
 11
319.2002949614
 21
-35.7967441086
 31
0.0
  0
LINE
  5
109
330
1F
100
AcDbEntity
  8
0
  6
Continuous
 62
     7
100
AcDbLine
 10
319.2002949614
 20
-35.7967441086
 30
0.0
 11
322.5802949614
 21
-35.7967441086
 31
0.0
  0
LINE
  5
10A
330
1F
100
AcDbEntity
  8
0
  6
Continuous
 62
     7
100
AcDbLine
 10
322.5802949614
 20
-35.7967441086
 30
0.0
 11
322.5802949614
 21
-38.9967441086
 31
0.0
  0
LINE
  5
10B
330
1F
100
AcDbEntity
  8
0
  6
Continuous
 62
     7
100
AcDbLine
 10
322.5802949614
 20
-38.9967441086
 30
0.0
 11
240.4366949614
 21
-38.9967441086
 31
0.0
  0
LINE
  5
10C
330
1F
100
AcDbEntity
  8
0
  6
Continuous
 62
     7
100
AcDbLine
 10
240.4366949614
 20
-38.9967441086
 30
0.0
 11
240.4366949614
 21
-35.7967441086
 31
0.0
  0
LINE
  5
10D
330
1F
100
AcDbEntity
  8
0
  6
Continuous
 62
     7
100
AcDbLine
 10
240.4366949614
 20
-35.7967441086
 30
0.0
 11
243.8166949614
 21
-35.7967441086
 31
0.0
  0
LINE
  5
10E
330
1F
100
AcDbEntity
  8
0
  6
Continuous
 62
     7
100
AcDbLine
 10
243.8166949614
 20
-35.7967441086
 30
0.0
 11
243.8166949614
 21
-32.5967441086
 31
0.0
  0
LINE
  5
10F
330
1F
100
AcDbEntity
  8
0
  6
Continuous
 62
     7
100
AcDbLine
 10
243.8166949614
 20
-32.5967441086
 30
0.0
 11
240.4366949614
 21
-32.5967441086
 31
0.0
  0
LINE
  5
110
330
1F
100
AcDbEntity
  8
0
  6
Continuous
 62
     7
100
AcDbLine
 10
240.4366949614
 20
-32.5967441086
 30
0.0
 11
240.4366949614
 21
-29.3967441086
 31
0.0
  0
LINE
  5
111
330
1F
100
AcDbEntity
  8
0
  6
Continuous
 62
     7
100
AcDbLine
 10
101.3470378572
 20
-63.3515579989
 30
0.0
 11
97.9670378572
 21
-63.3515579989
 31
0.0
  0
LINE
  5
112
330
1F
100
AcDbEntity
  8
0
  6
Continuous
 62
     7
100
AcDbLine
 10
97.9670378572
 20
-63.3515579989
 30
0.0
 11
97.9670378572
 21
-60.1515579989
 31
0.0
  0
LINE
  5
113
330
1F
100
AcDbEntity
  8
0
  6
Continuous
 62
     7
100
AcDbLine
 10
97.9670378572
 20
-60.1515579989
 30
0.0
 11
101.3470378572
 21
-60.1515579989
 31
0.0
  0
LINE
  5
114
330
1F
100
AcDbEntity
  8
0
  6
Continuous
 62
     7
100
AcDbLine
 10
101.3470378572
 20
-60.1515579989
 30
0.0
 11
101.3470378572
 21
-56.9515579989
 31
0.0
  0
LINE
  5
115
330
1F
100
AcDbEntity
  8
0
  6
Continuous
 62
     7
100
AcDbLine
 10
101.3470378572
 20
-56.9515579989
 30
0.0
 11
97.9670378572
 21
-56.9515579989
 31
0.0
  0
LINE
  5
116
330
1F
100
AcDbEntity
  8
0
  6
Continuous
 62
     7
100
AcDbLine
 10
97.9670378572
 20
-56.9515579989
 30
0.0
 11
97.9670378572
 21
-53.7515579989
 31
0.0
  0
LINE
  5
117
330
1F
100
AcDbEntity
  8
0
  6
Continuous
 62
     7
100
AcDbLine
 10
97.9670378572
 20
-53.7515579989
 30
0.0
 11
101.3470378572
 21
-53.7515579989
 31
0.0
  0
LINE
  5
118
330
1F
100
AcDbEntity
  8
0
  6
Continuous
 62
     7
100
AcDbLine
 10
101.3470378572
 20
-53.7515579989
 30
0.0
 11
101.3470378572
 21
-50.5515579989
 31
0.0
  0
LINE
  5
119
330
1F
100
AcDbEntity
  8
0
  6
Continuous
 62
     7
100
AcDbLine
 10
101.3470378572
 20
-50.5515579989
 30
0.0
 11
97.9670378572
 21
-50.5515579989
 31
0.0
  0
LINE
  5
11A
330
1F
100
AcDbEntity
  8
0
  6
Continuous
 62
     7
100
AcDbLine
 10
97.9670378572
 20
-50.5515579989
 30
0.0
 11
97.9670378572
 21
-47.3515579989
 31
0.0
  0
LINE
  5
11B
330
1F
100
AcDbEntity
  8
0
  6
Continuous
 62
     7
100
AcDbLine
 10
97.9670378572
 20
-47.3515579989
 30
0.0
 11
101.3470378572
 21
-47.3515579989
 31
0.0
  0
LINE
  5
11C
330
1F
100
AcDbEntity
  8
0
  6
Continuous
 62
     7
100
AcDbLine
 10
101.3470378572
 20
-47.3515579989
 30
0.0
 11
101.3470378572
 21
-44.1515579989
 31
0.0
  0
LINE
  5
11D
330
1F
100
AcDbEntity
  8
0
  6
Continuous
 62
     7
100
AcDbLine
 10
101.3470378572
 20
-44.1515579989
 30
0.0
 11
97.9670378572
 21
-44.1515579989
 31
0.0
  0
LINE
  5
11E
330
1F
100
AcDbEntity
  8
0
  6
Continuous
 62
     7
100
AcDbLine
 10
97.9670378572
 20
-44.1515579989
 30
0.0
 11
97.9670378572
 21
-40.9515579989
 31
0.0
  0
LINE
  5
11F
330
1F
100
AcDbEntity
  8
0
  6
Continuous
 62
     7
100
AcDbLine
 10
97.9670378572
 20
-40.9515579989
 30
0.0
 11
101.3470378572
 21
-40.9515579989
 31
0.0
  0
LINE
  5
120
330
1F
100
AcDbEntity
  8
0
  6
Continuous
 62
     7
100
AcDbLine
 10
101.3470378572
 20
-40.9515579989
 30
0.0
 11
101.3470378572
 21
-37.7515579989
 31
0.0
  0
LINE
  5
121
330
1F
100
AcDbEntity
  8
0
  6
Continuous
 62
     7
100
AcDbLine
 10
101.3470378572
 20
-37.7515579989
 30
0.0
 11
97.9670378572
 21
-37.7515579989
 31
0.0
  0
LINE
  5
122
330
1F
100
AcDbEntity
  8
0
  6
Continuous
 62
     7
100
AcDbLine
 10
97.9670378572
 20
-37.7515579989
 30
0.0
 11
97.9670378572
 21
-34.5515579989
 31
0.0
  0
LINE
  5
123
330
1F
100
AcDbEntity
  8
0
  6
Continuous
 62
     7
100
AcDbLine
 10
97.9670378572
 20
-34.5515579989
 30
0.0
 11
101.3470378572
 21
-34.5515579989
 31
0.0
  0
LINE
  5
124
330
1F
100
AcDbEntity
  8
0
  6
Continuous
 62
     7
100
AcDbLine
 10
101.3470378572
 20
-34.5515579989
 30
0.0
 11
101.3470378572
 21
-31.3515579989
 31
0.0
  0
LINE
  5
125
330
1F
100
AcDbEntity
  8
0
  6
Continuous
 62
     7
100
AcDbLine
 10
101.3470378572
 20
-31.3515579989
 30
0.0
 11
176.7306378572
 21
-31.3515579989
 31
0.0
  0
LINE
  5
126
330
1F
100
AcDbEntity
  8
0
  6
Continuous
 62
     7
100
AcDbLine
 10
176.7306378572
 20
-31.3515579989
 30
0.0
 11
176.7306378572
 21
-34.5515579989
 31
0.0
  0
LINE
  5
127
330
1F
100
AcDbEntity
  8
0
  6
Continuous
 62
     7
100
AcDbLine
 10
176.7306378572
 20
-34.5515579989
 30
0.0
 11
180.1106378572
 21
-34.5515579989
 31
0.0
  0
LINE
  5
128
330
1F
100
AcDbEntity
  8
0
  6
Continuous
 62
     7
100
AcDbLine
 10
180.1106378572
 20
-34.5515579989
 30
0.0
 11
180.1106378572
 21
-37.7515579989
 31
0.0
  0
LINE
  5
129
330
1F
100
AcDbEntity
  8
0
  6
Continuous
 62
     7
100
AcDbLine
 10
180.1106378572
 20
-37.7515579989
 30
0.0
 11
176.7306378572
 21
-37.7515579989
 31
0.0
  0
LINE
  5
12A
330
1F
100
AcDbEntity
  8
0
  6
Continuous
 62
     7
100
AcDbLine
 10
176.7306378572
 20
-37.7515579989
 30
0.0
 11
176.7306378572
 21
-40.9515579989
 31
0.0
  0
LINE
  5
12B
330
1F
100
AcDbEntity
  8
0
  6
Continuous
 62
     7
100
AcDbLine
 10
176.7306378572
 20
-40.9515579989
 30
0.0
 11
180.1106378572
 21
-40.9515579989
 31
0.0
  0
LINE
  5
12C
330
1F
100
AcDbEntity
  8
0
  6
Continuous
 62
     7
100
AcDbLine
 10
180.1106378572
 20
-40.9515579989
 30
0.0
 11
180.1106378572
 21
-44.1515579989
 31
0.0
  0
LINE
  5
12D
330
1F
100
AcDbEntity
  8
0
  6
Continuous
 62
     7
100
AcDbLine
 10
180.1106378572
 20
-44.1515579989
 30
0.0
 11
176.7306378572
 21
-44.1515579989
 31
0.0
  0
LINE
  5
12E
330
1F
100
AcDbEntity
  8
0
  6
Continuous
 62
     7
100
AcDbLine
 10
176.7306378572
 20
-44.1515579989
 30
0.0
 11
176.7306378572
 21
-47.3515579989
 31
0.0
  0
LINE
  5
12F
330
1F
100
AcDbEntity
  8
0
  6
Continuous
 62
     7
100
AcDbLine
 10
176.7306378572
 20
-47.3515579989
 30
0.0
 11
180.1106378572
 21
-47.3515579989
 31
0.0
  0
LINE
  5
130
330
1F
100
AcDbEntity
  8
0
  6
Continuous
 62
     7
100
AcDbLine
 10
180.1106378572
 20
-47.3515579989
 30
0.0
 11
180.1106378572
 21
-50.5515579989
 31
0.0
  0
LINE
  5
131
330
1F
100
AcDbEntity
  8
0
  6
Continuous
 62
     7
100
AcDbLine
 10
180.1106378572
 20
-50.5515579989
 30
0.0
 11
176.7306378572
 21
-50.5515579989
 31
0.0
  0
LINE
  5
132
330
1F
100
AcDbEntity
  8
0
  6
Continuous
 62
     7
100
AcDbLine
 10
176.7306378572
 20
-50.5515579989
 30
0.0
 11
176.7306378572
 21
-53.7515579989
 31
0.0
  0
LINE
  5
133
330
1F
100
AcDbEntity
  8
0
  6
Continuous
 62
     7
100
AcDbLine
 10
176.7306378572
 20
-53.7515579989
 30
0.0
 11
180.1106378572
 21
-53.7515579989
 31
0.0
  0
LINE
  5
134
330
1F
100
AcDbEntity
  8
0
  6
Continuous
 62
     7
100
AcDbLine
 10
180.1106378572
 20
-53.7515579989
 30
0.0
 11
180.1106378572
 21
-56.9515579989
 31
0.0
  0
LINE
  5
135
330
1F
100
AcDbEntity
  8
0
  6
Continuous
 62
     7
100
AcDbLine
 10
180.1106378572
 20
-56.9515579989
 30
0.0
 11
176.7306378572
 21
-56.9515579989
 31
0.0
  0
LINE
  5
136
330
1F
100
AcDbEntity
  8
0
  6
Continuous
 62
     7
100
AcDbLine
 10
176.7306378572
 20
-56.9515579989
 30
0.0
 11
176.7306378572
 21
-60.1515579989
 31
0.0
  0
LINE
  5
137
330
1F
100
AcDbEntity
  8
0
  6
Continuous
 62
     7
100
AcDbLine
 10
176.7306378572
 20
-60.1515579989
 30
0.0
 11
180.1106378572
 21
-60.1515579989
 31
0.0
  0
LINE
  5
138
330
1F
100
AcDbEntity
  8
0
  6
Continuous
 62
     7
100
AcDbLine
 10
180.1106378572
 20
-60.1515579989
 30
0.0
 11
180.1106378572
 21
-63.3515579989
 31
0.0
  0
LINE
  5
139
330
1F
100
AcDbEntity
  8
0
  6
Continuous
 62
     7
100
AcDbLine
 10
180.1106378572
 20
-63.3515579989
 30
0.0
 11
176.7306378572
 21
-63.3515579989
 31
0.0
  0
LINE
  5
13A
330
1F
100
AcDbEntity
  8
0
  6
Continuous
 62
     7
100
AcDbLine
 10
176.7306378572
 20
-63.3515579989
 30
0.0
 11
176.7306378572
 21
-66.5515579989
 31
0.0
  0
LINE
  5
13B
330
1F
100
AcDbEntity
  8
0
  6
Continuous
 62
     7
100
AcDbLine
 10
176.7306378572
 20
-66.5515579989
 30
0.0
 11
180.1106378572
 21
-66.5515579989
 31
0.0
  0
LINE
  5
13C
330
1F
100
AcDbEntity
  8
0
  6
Continuous
 62
     7
100
AcDbLine
 10
180.1106378572
 20
-66.5515579989
 30
0.0
 11
180.1106378572
 21
-69.7515579989
 31
0.0
  0
LINE
  5
13D
330
1F
100
AcDbEntity
  8
0
  6
Continuous
 62
     7
100
AcDbLine
 10
97.9670378572
 20
-69.7515579989
 30
0.0
 11
97.9670378572
 21
-66.5515579989
 31
0.0
  0
LINE
  5
13E
330
1F
100
AcDbEntity
  8
0
  6
Continuous
 62
     7
100
AcDbLine
 10
97.9670378572
 20
-66.5515579989
 30
0.0
 11
101.3470378572
 21
-66.5515579989
 31
0.0
  0
LINE
  5
13F
330
1F
100
AcDbEntity
  8
0
  6
Continuous
 62
     7
100
AcDbLine
 10
101.3470378572
 20
-66.5515579989
 30
0.0
 11
101.3470378572
 21
-63.3515579989
 31
0.0
  0
LINE
  5
140
330
1F
100
AcDbEntity
  8
0
  6
Continuous
 62
     7
100
AcDbLine
 10
338.1875626317
 20
267.6589817912
 30
0.0
 11
338.1875626317
 21
254.9589817912
 31
0.0
  0
LINE
  5
141
330
1F
100
AcDbEntity
  8
0
  6
Continuous
 62
     7
100
AcDbLine
 10
338.1875626317
 20
254.9589817912
 30
0.0
 11
334.8075626317
 21
254.9589817912
 31
0.0
  0
LINE
  5
142
330
1F
100
AcDbEntity
  8
0
  6
Continuous
 62
     7
100
AcDbLine
 10
334.8075626317
 20
254.9589817912
 30
0.0
 11
334.8075626317
 21
242.2589817912
 31
0.0
  0
LINE
  5
143
330
1F
100
AcDbEntity
  8
0
  6
Continuous
 62
     7
100
AcDbLine
 10
334.8075626317
 20
242.2589817912
 30
0.0
 11
338.1875626317
 21
242.2589817912
 31
0.0
  0
LINE
  5
144
330
1F
100
AcDbEntity
  8
0
  6
Continuous
 62
     7
100
AcDbLine
 10
338.1875626317
 20
242.2589817912
 30
0.0
 11
338.1875626317
 21
229.5589817912
 31
0.0
  0
LINE
  5
145
330
1F
100
AcDbEntity
  8
0
  6
Continuous
 62
     7
100
AcDbLine
 10
338.1875626317
 20
229.5589817912
 30
0.0
 11
334.8075626317
 21
229.5589817912
 31
0.0
  0
LINE
  5
146
330
1F
100
AcDbEntity
  8
0
  6
Continuous
 62
     7
100
AcDbLine
 10
334.8075626317
 20
229.5589817912
 30
0.0
 11
334.8075626317
 21
216.8589817912
 31
0.0
  0
LINE
  5
147
330
1F
100
AcDbEntity
  8
0
  6
Continuous
 62
     7
100
AcDbLine
 10
334.8075626317
 20
216.8589817912
 30
0.0
 11
338.1875626317
 21
216.8589817912
 31
0.0
  0
LINE
  5
148
330
1F
100
AcDbEntity
  8
0
  6
Continuous
 62
     7
100
AcDbLine
 10
338.1875626317
 20
216.8589817912
 30
0.0
 11
338.1875626317
 21
204.1589817912
 31
0.0
  0
LINE
  5
149
330
1F
100
AcDbEntity
  8
0
  6
Continuous
 62
     7
100
AcDbLine
 10
338.1875626317
 20
204.1589817912
 30
0.0
 11
334.8075626317
 21
204.1589817912
 31
0.0
  0
LINE
  5
14A
330
1F
100
AcDbEntity
  8
0
  6
Continuous
 62
     7
100
AcDbLine
 10
334.8075626317
 20
204.1589817912
 30
0.0
 11
334.8075626317
 21
191.4589817912
 31
0.0
  0
LINE
  5
14B
330
1F
100
AcDbEntity
  8
0
  6
Continuous
 62
     7
100
AcDbLine
 10
334.8075626317
 20
191.4589817912
 30
0.0
 11
338.1875626317
 21
191.4589817912
 31
0.0
  0
LINE
  5
14C
330
1F
100
AcDbEntity
  8
0
  6
Continuous
 62
     7
100
AcDbLine
 10
338.1875626317
 20
191.4589817912
 30
0.0
 11
338.1875626317
 21
178.7589817912
 31
0.0
  0
LINE
  5
14D
330
1F
100
AcDbEntity
  8
0
  6
Continuous
 62
     7
100
AcDbLine
 10
338.1875626317
 20
178.7589817912
 30
0.0
 11
334.8075626317
 21
178.7589817912
 31
0.0
  0
LINE
  5
14E
330
1F
100
AcDbEntity
  8
0
  6
Continuous
 62
     7
100
AcDbLine
 10
334.8075626317
 20
178.7589817912
 30
0.0
 11
334.8075626317
 21
166.0589817912
 31
0.0
  0
LINE
  5
14F
330
1F
100
AcDbEntity
  8
0
  6
Continuous
 62
     7
100
AcDbLine
 10
334.8075626317
 20
166.0589817912
 30
0.0
 11
338.1875626317
 21
166.0589817912
 31
0.0
  0
LINE
  5
150
330
1F
100
AcDbEntity
  8
0
  6
Continuous
 62
     7
100
AcDbLine
 10
338.1875626317
 20
166.0589817912
 30
0.0
 11
338.1875626317
 21
153.3589817912
 31
0.0
  0
LINE
  5
151
330
1F
100
AcDbEntity
  8
0
  6
Continuous
 62
     7
100
AcDbLine
 10
338.1875626317
 20
153.3589817912
 30
0.0
 11
334.8075626317
 21
153.3589817912
 31
0.0
  0
LINE
  5
152
330
1F
100
AcDbEntity
  8
0
  6
Continuous
 62
     7
100
AcDbLine
 10
334.8075626317
 20
153.3589817912
 30
0.0
 11
334.8075626317
 21
140.6589817912
 31
0.0
  0
LINE
  5
153
330
1F
100
AcDbEntity
  8
0
  6
Continuous
 62
     7
100
AcDbLine
 10
334.8075626317
 20
140.6589817912
 30
0.0
 11
338.1875626317
 21
140.6589817912
 31
0.0
  0
LINE
  5
154
330
1F
100
AcDbEntity
  8
0
  6
Continuous
 62
     7
100
AcDbLine
 10
338.1875626317
 20
140.6589817912
 30
0.0
 11
338.1875626317
 21
127.9589817912
 31
0.0
  0
LINE
  5
155
330
1F
100
AcDbEntity
  8
0
  6
Continuous
 62
     7
100
AcDbLine
 10
338.1875626317
 20
127.9589817912
 30
0.0
 11
334.8075626317
 21
127.9589817912
 31
0.0
  0
LINE
  5
156
330
1F
100
AcDbEntity
  8
0
  6
Continuous
 62
     7
100
AcDbLine
 10
334.8075626317
 20
127.9589817912
 30
0.0
 11
334.8075626317
 21
115.2589817912
 31
0.0
  0
LINE
  5
157
330
1F
100
AcDbEntity
  8
0
  6
Continuous
 62
     7
100
AcDbLine
 10
334.8075626317
 20
115.2589817912
 30
0.0
 11
338.1875626317
 21
115.2589817912
 31
0.0
  0
LINE
  5
158
330
1F
100
AcDbEntity
  8
0
  6
Continuous
 62
     7
100
AcDbLine
 10
338.1875626317
 20
115.2589817912
 30
0.0
 11
338.1875626317
 21
102.5589817912
 31
0.0
  0
LINE
  5
159
330
1F
100
AcDbEntity
  8
0
  6
Continuous
 62
     7
100
AcDbLine
 10
291.5675626317
 20
115.2589817912
 30
0.0
 11
288.1875626317
 21
115.2589817912
 31
0.0
  0
LINE
  5
15A
330
1F
100
AcDbEntity
  8
0
  6
Continuous
 62
     7
100
AcDbLine
 10
288.1875626317
 20
127.9589817912
 30
0.0
 11
291.5675626317
 21
127.9589817912
 31
0.0
  0
LINE
  5
15B
330
1F
100
AcDbEntity
  8
0
  6
Continuous
 62
     7
100
AcDbLine
 10
291.5675626317
 20
140.6589817912
 30
0.0
 11
288.1875626317
 21
140.6589817912
 31
0.0
  0
LINE
  5
15C
330
1F
100
AcDbEntity
  8
0
  6
Continuous
 62
     7
100
AcDbLine
 10
288.1875626317
 20
153.3589817912
 30
0.0
 11
291.5675626317
 21
153.3589817912
 31
0.0
  0
LINE
  5
15D
330
1F
100
AcDbEntity
  8
0
  6
Continuous
 62
     7
100
AcDbLine
 10
291.5675626317
 20
166.0589817912
 30
0.0
 11
288.1875626317
 21
166.0589817912
 31
0.0
  0
LINE
  5
15E
330
1F
100
AcDbEntity
  8
0
  6
Continuous
 62
     7
100
AcDbLine
 10
288.1875626317
 20
178.7589817912
 30
0.0
 11
291.5675626317
 21
178.7589817912
 31
0.0
  0
LINE
  5
15F
330
1F
100
AcDbEntity
  8
0
  6
Continuous
 62
     7
100
AcDbLine
 10
291.5675626317
 20
191.4589817912
 30
0.0
 11
288.1875626317
 21
191.4589817912
 31
0.0
  0
LINE
  5
160
330
1F
100
AcDbEntity
  8
0
  6
Continuous
 62
     7
100
AcDbLine
 10
288.1875626317
 20
204.1589817912
 30
0.0
 11
291.5675626317
 21
204.1589817912
 31
0.0
  0
LINE
  5
161
330
1F
100
AcDbEntity
  8
0
  6
Continuous
 62
     7
100
AcDbLine
 10
291.5675626317
 20
216.8589817912
 30
0.0
 11
288.1875626317
 21
216.8589817912
 31
0.0
  0
LINE
  5
162
330
1F
100
AcDbEntity
  8
0
  6
Continuous
 62
     7
100
AcDbLine
 10
288.1875626317
 20
229.5589817912
 30
0.0
 11
291.5675626317
 21
229.5589817912
 31
0.0
  0
LINE
  5
163
330
1F
100
AcDbEntity
  8
0
  6
Continuous
 62
     7
100
AcDbLine
 10
291.5675626317
 20
242.2589817912
 30
0.0
 11
288.1875626317
 21
242.2589817912
 31
0.0
  0
LINE
  5
164
330
1F
100
AcDbEntity
  8
0
  6
Continuous
 62
     7
100
AcDbLine
 10
288.1875626317
 20
254.9589817912
 30
0.0
 11
291.5675626317
 21
254.9589817912
 31
0.0
  0
LINE
  5
165
330
1F
100
AcDbEntity
  8
0
  6
Continuous
 62
     7
100
AcDbLine
 10
298.3078110527
 20
264.0983469491
 30
0.0
 11
295.1281974738
 21
264.4589817912
 31
0.0
  0
LINE
  5
166
330
1F
100
AcDbEntity
  8
0
  6
Continuous
 62
     7
100
AcDbLine
 10
295.1281974738
 20
264.4589817912
 30
0.0
 11
294.7675626317
 21
261.2793682124
 31
0.0
  0
LINE
  5
167
330
1F
100
AcDbEntity
  8
0
  6
Continuous
 62
     7
100
AcDbLine
 10
294.7675626317
 20
261.2793682124
 30
0.0
 11
297.9471762105
 21
260.9187333703
 31
0.0
  0
LINE
  5
168
330
1F
100
AcDbEntity
  8
0
  6
Continuous
 62
     7
100
AcDbLine
 10
297.9471762105
 20
260.9187333703
 30
0.0
 11
298.3078110527
 21
264.0983469491
 31
0.0
  0
LINE
  5
169
330
1F
100
AcDbEntity
  8
0
  6
Continuous
 62
     7
100
AcDbLine
 10
297.110803759
 20
114.4149823376
 30
0.0
 11
299.889583408
 21
116.0019239441
 31
0.0
  0
LINE
  5
16A
330
1F
100
AcDbEntity
  8
0
  6
Continuous
 62
     7
100
AcDbLine
 10
299.889583408
 20
116.0019239441
 30
0.0
 11
301.4765250145
 21
113.2231442951
 31
0.0
  0
LINE
  5
16B
330
1F
100
AcDbEntity
  8
0
  6
Continuous
 62
     7
100
AcDbLine
 10
301.4765250145
 20
113.2231442951
 30
0.0
 11
298.6977453655
 21
111.6362026886
 31
0.0
  0
LINE
  5
16C
330
1F
100
AcDbEntity
  8
0
  6
Continuous
 62
     7
100
AcDbLine
 10
298.6977453655
 20
111.6362026886
 30
0.0
 11
297.110803759
 21
114.4149823376
 31
0.0
  0
LINE
  5
16D
330
1F
100
AcDbEntity
  8
0
  6
Continuous
 62
     7
100
AcDbLine
 10
304.6670382103
 20
263.3770772649
 30
0.0
 11
301.4874246315
 21
263.737712107
 31
0.0
  0
LINE
  5
16E
330
1F
100
AcDbEntity
  8
0
  6
Continuous
 62
     7
100
AcDbLine
 10
301.4874246315
 20
263.737712107
 30
0.0
 11
301.1267897893
 21
260.5580985282
 31
0.0
  0
LINE
  5
16F
330
1F
100
AcDbEntity
  8
0
  6
Continuous
 62
     7
100
AcDbLine
 10
301.1267897893
 20
260.5580985282
 30
0.0
 11
304.3064033682
 21
260.197463686
 31
0.0
  0
LINE
  5
170
330
1F
100
AcDbEntity
  8
0
  6
Continuous
 62
     7
100
AcDbLine
 10
304.3064033682
 20
260.197463686
 30
0.0
 11
304.6670382103
 21
263.3770772649
 31
0.0
  0
LINE
  5
171
330
1F
100
AcDbEntity
  8
0
  6
Continuous
 62
     7
100
AcDbLine
 10
311.8927800985
 20
206.8672526635
 30
0.0
 11
308.9363848306
 21
208.0918860862
 31
0.0
  0
LINE
  5
172
330
1F
100
AcDbEntity
  8
0
  6
Continuous
 62
     7
100
AcDbLine
 10
308.9363848306
 20
208.0918860862
 30
0.0
 11
310.1610182533
 21
211.0482813541
 31
0.0
  0
LINE
  5
173
330
1F
100
AcDbEntity
  8
0
  6
Continuous
 62
     7
100
AcDbLine
 10
310.1610182533
 20
211.0482813541
 30
0.0
 11
313.1174135212
 21
209.8236479314
 31
0.0
  0
LINE
  5
174
330
1F
100
AcDbEntity
  8
0
  6
Continuous
 62
     7
100
AcDbLine
 10
313.1174135212
 20
209.8236479314
 30
0.0
 11
311.8927800985
 21
206.8672526635
 31
0.0
  0
LINE
  5
175
330
1F
100
AcDbEntity
  8
0
  6
Continuous
 62
     7
100
AcDbLine
 10
305.9799895627
 20
209.3165195089
 30
0.0
 11
303.0235942948
 21
210.5411529315
 31
0.0
  0
LINE
  5
176
330
1F
100
AcDbEntity
  8
0
  6
Continuous
 62
     7
100
AcDbLine
 10
303.0235942948
 20
210.5411529315
 30
0.0
 11
304.2482277175
 21
213.4975481994
 31
0.0
  0
LINE
  5
177
330
1F
100
AcDbEntity
  8
0
  6
Continuous
 62
     7
100
AcDbLine
 10
304.2482277175
 20
213.4975481994
 30
0.0
 11
307.2046229854
 21
212.2729147768
 31
0.0
  0
LINE
  5
178
330
1F
100
AcDbEntity
  8
0
  6
Continuous
 62
     7
100
AcDbLine
 10
307.2046229854
 20
212.2729147768
 30
0.0
 11
305.9799895627
 21
209.3165195089
 31
0.0
  0
LINE
  5
179
330
1F
100
AcDbEntity
  8
0
  6
Continuous
 62
     7
100
AcDbLine
 10
300.0671990269
 20
211.7657863542
 30
0.0
 11
297.110803759
 21
212.9904197769
 31
0.0
  0
LINE
  5
17A
330
1F
100
AcDbEntity
  8
0
  6
Continuous
 62
     7
100
AcDbLine
 10
297.110803759
 20
212.9904197769
 30
0.0
 11
298.3354371817
 21
215.9468150448
 31
0.0
  0
LINE
  5
17B
330
1F
100
AcDbEntity
  8
0
  6
Continuous
 62
     7
100
AcDbLine
 10
298.3354371817
 20
215.9468150448
 30
0.0
 11
301.2918324496
 21
214.7221816221
 31
0.0
  0
LINE
  5
17C
330
1F
100
AcDbEntity
  8
0
  6
Continuous
 62
     7
100
AcDbLine
 10
301.2918324496
 20
214.7221816221
 30
0.0
 11
300.0671990269
 21
211.7657863542
 31
0.0
  0
LINE
  5
17D
330
1F
100
AcDbEntity
  8
0
  6
Continuous
 62
     7
100
AcDbLine
 10
311.8927800985
 20
150.3682229321
 30
0.0
 11
308.9363848306
 21
151.5928563548
 31
0.0
  0
LINE
  5
17E
330
1F
100
AcDbEntity
  8
0
  6
Continuous
 62
     7
100
AcDbLine
 10
308.9363848306
 20
151.5928563548
 30
0.0
 11
310.1610182533
 21
154.5492516227
 31
0.0
  0
LINE
  5
17F
330
1F
100
AcDbEntity
  8
0
  6
Continuous
 62
     7
100
AcDbLine
 10
310.1610182533
 20
154.5492516227
 30
0.0
 11
313.1174135212
 21
153.3246182
 31
0.0
  0
LINE
  5
180
330
1F
100
AcDbEntity
  8
0
  6
Continuous
 62
     7
100
AcDbLine
 10
313.1174135212
 20
153.3246182
 30
0.0
 11
311.8927800985
 21
150.3682229321
 31
0.0
  0
LINE
  5
181
330
1F
100
AcDbEntity
  8
0
  6
Continuous
 62
     7
100
AcDbLine
 10
305.9799895627
 20
152.8174897774
 30
0.0
 11
303.0235942948
 21
154.0421232001
 31
0.0
  0
LINE
  5
182
330
1F
100
AcDbEntity
  8
0
  6
Continuous
 62
     7
100
AcDbLine
 10
303.0235942948
 20
154.0421232001
 30
0.0
 11
304.2482277175
 21
156.998518468
 31
0.0
  0
LINE
  5
183
330
1F
100
AcDbEntity
  8
0
  6
Continuous
 62
     7
100
AcDbLine
 10
304.2482277175
 20
156.998518468
 30
0.0
 11
307.2046229854
 21
155.7738850453
 31
0.0
  0
LINE
  5
184
330
1F
100
AcDbEntity
  8
0
  6
Continuous
 62
     7
100
AcDbLine
 10
307.2046229854
 20
155.7738850453
 30
0.0
 11
305.9799895627
 21
152.8174897774
 31
0.0
  0
LINE
  5
185
330
1F
100
AcDbEntity
  8
0
  6
Continuous
 62
     7
100
AcDbLine
 10
300.0671990269
 20
155.2667566228
 30
0.0
 11
297.110803759
 21
156.4913900454
 31
0.0
  0
LINE
  5
186
330
1F
100
AcDbEntity
  8
0
  6
Continuous
 62
     7
100
AcDbLine
 10
297.110803759
 20
156.4913900454
 30
0.0
 11
298.3354371817
 21
159.4477853133
 31
0.0
  0
LINE
  5
187
330
1F
100
AcDbEntity
  8
0
  6
Continuous
 62
     7
100
AcDbLine
 10
298.3354371817
 20
159.4477853133
 30
0.0
 11
301.2918324496
 21
158.2231518907
 31
0.0
  0
LINE
  5
188
330
1F
100
AcDbEntity
  8
0
  6
Continuous
 62
     7
100
AcDbLine
 10
301.2918324496
 20
158.2231518907
 30
0.0
 11
300.0671990269
 21
155.2667566228
 31
0.0
  0
LINE
  5
189
330
1F
100
AcDbEntity
  8
0
  6
Continuous
 62
     7
100
AcDbLine
 10
314.4823451649
 20
235.1167675293
 30
0.0
 11
317.4387404328
 21
236.3414009519
 31
0.0
  0
LINE
  5
18A
330
1F
100
AcDbEntity
  8
0
  6
Continuous
 62
     7
100
AcDbLine
 10
317.4387404328
 20
236.3414009519
 30
0.0
 11
316.2141070101
 21
239.2977962198
 31
0.0
  0
LINE
  5
18B
330
1F
100
AcDbEntity
  8
0
  6
Continuous
 62
     7
100
AcDbLine
 10
316.2141070101
 20
239.2977962198
 30
0.0
 11
313.2577117422
 21
238.0731627972
 31
0.0
  0
LINE
  5
18C
330
1F
100
AcDbEntity
  8
0
  6
Continuous
 62
     7
100
AcDbLine
 10
313.2577117422
 20
238.0731627972
 30
0.0
 11
314.4823451649
 21
235.1167675293
 31
0.0
  0
LINE
  5
18D
330
1F
100
AcDbEntity
  8
0
  6
Continuous
 62
     7
100
AcDbLine
 10
320.3951357007
 20
237.5660343746
 30
0.0
 11
323.3515309686
 21
238.7906677973
 31
0.0
  0
LINE
  5
18E
330
1F
100
AcDbEntity
  8
0
  6
Continuous
 62
     7
100
AcDbLine
 10
323.3515309686
 20
238.7906677973
 30
0.0
 11
322.1268975459
 21
241.7470630652
 31
0.0
  0
LINE
  5
18F
330
1F
100
AcDbEntity
  8
0
  6
Continuous
 62
     7
100
AcDbLine
 10
322.1268975459
 20
241.7470630652
 30
0.0
 11
319.170502278
 21
240.5224296425
 31
0.0
  0
LINE
  5
190
330
1F
100
AcDbEntity
  8
0
  6
Continuous
 62
     7
100
AcDbLine
 10
319.170502278
 20
240.5224296425
 30
0.0
 11
320.3951357007
 21
237.5660343746
 31
0.0
  0
LINE
  5
191
330
1F
100
AcDbEntity
  8
0
  6
Continuous
 62
     7
100
AcDbLine
 10
326.3079262365
 20
240.0153012199
 30
0.0
 11
329.2643215044
 21
241.2399346426
 31
0.0
  0
LINE
  5
192
330
1F
100
AcDbEntity
  8
0
  6
Continuous
 62
     7
100
AcDbLine
 10
329.2643215044
 20
241.2399346426
 30
0.0
 11
328.0396880817
 21
244.1963299105
 31
0.0
  0
LINE
  5
193
330
1F
100
AcDbEntity
  8
0
  6
Continuous
 62
     7
100
AcDbLine
 10
328.0396880817
 20
244.1963299105
 30
0.0
 11
325.0832928138
 21
242.9716964878
 31
0.0
  0
LINE
  5
194
330
1F
100
AcDbEntity
  8
0
  6
Continuous
 62
     7
100
AcDbLine
 10
325.0832928138
 20
242.9716964878
 30
0.0
 11
326.3079262365
 21
240.0153012199
 31
0.0
  0
LINE
  5
195
330
1F
100
AcDbEntity
  8
0
  6
Continuous
 62
     7
100
AcDbLine
 10
314.4823451649
 20
178.6177377978
 30
0.0
 11
317.4387404328
 21
179.8423712205
 31
0.0
  0
LINE
  5
196
330
1F
100
AcDbEntity
  8
0
  6
Continuous
 62
     7
100
AcDbLine
 10
317.4387404328
 20
179.8423712205
 30
0.0
 11
316.2141070101
 21
182.7987664884
 31
0.0
  0
LINE
  5
197
330
1F
100
AcDbEntity
  8
0
  6
Continuous
 62
     7
100
AcDbLine
 10
316.2141070101
 20
182.7987664884
 30
0.0
 11
313.2577117422
 21
181.5741330657
 31
0.0
  0
LINE
  5
198
330
1F
100
AcDbEntity
  8
0
  6
Continuous
 62
     7
100
AcDbLine
 10
313.2577117422
 20
181.5741330657
 30
0.0
 11
314.4823451649
 21
178.6177377978
 31
0.0
  0
LINE
  5
199
330
1F
100
AcDbEntity
  8
0
  6
Continuous
 62
     7
100
AcDbLine
 10
320.3951357007
 20
181.0670046431
 30
0.0
 11
323.3515309686
 21
182.2916380658
 31
0.0
  0
LINE
  5
19A
330
1F
100
AcDbEntity
  8
0
  6
Continuous
 62
     7
100
AcDbLine
 10
323.3515309686
 20
182.2916380658
 30
0.0
 11
322.1268975459
 21
185.2480333337
 31
0.0
  0
LINE
  5
19B
330
1F
100
AcDbEntity
  8
0
  6
Continuous
 62
     7
100
AcDbLine
 10
322.1268975459
 20
185.2480333337
 30
0.0
 11
319.170502278
 21
184.0233999111
 31
0.0
  0
LINE
  5
19C
330
1F
100
AcDbEntity
  8
0
  6
Continuous
 62
     7
100
AcDbLine
 10
319.170502278
 20
184.0233999111
 30
0.0
 11
320.3951357007
 21
181.0670046431
 31
0.0
  0
LINE
  5
19D
330
1F
100
AcDbEntity
  8
0
  6
Continuous
 62
     7
100
AcDbLine
 10
326.3079262365
 20
183.5162714885
 30
0.0
 11
329.2643215044
 21
184.7409049112
 31
0.0
  0
LINE
  5
19E
330
1F
100
AcDbEntity
  8
0
  6
Continuous
 62
     7
100
AcDbLine
 10
329.2643215044
 20
184.7409049112
 30
0.0
 11
328.0396880817
 21
187.6973001791
 31
0.0
  0
LINE
  5
19F
330
1F
100
AcDbEntity
  8
0
  6
Continuous
 62
     7
100
AcDbLine
 10
328.0396880817
 20
187.6973001791
 30
0.0
 11
325.0832928138
 21
186.4726667564
 31
0.0
  0
LINE
  5
1A0
330
1F
100
AcDbEntity
  8
0
  6
Continuous
 62
     7
100
AcDbLine
 10
325.0832928138
 20
186.4726667564
 30
0.0
 11
326.3079262365
 21
183.5162714885
 31
0.0
  0
LINE
  5
1A1
330
1F
100
AcDbEntity
  8
0
  6
Continuous
 62
     7
100
AcDbLine
 10
302.668363057
 20
117.5888655506
 30
0.0
 11
305.447142706
 21
119.1758071571
 31
0.0
  0
LINE
  5
1A2
330
1F
100
AcDbEntity
  8
0
  6
Continuous
 62
     7
100
AcDbLine
 10
305.447142706
 20
119.1758071571
 30
0.0
 11
307.0340843125
 21
116.3970275081
 31
0.0
  0
LINE
  5
1A3
330
1F
100
AcDbEntity
  8
0
  6
Continuous
 62
     7
100
AcDbLine
 10
307.0340843125
 20
116.3970275081
 30
0.0
 11
304.2553046635
 21
114.8100859016
 31
0.0
  0
LINE
  5
1A4
330
1F
100
AcDbEntity
  8
0
  6
Continuous
 62
     7
100
AcDbLine
 10
304.2553046635
 20
114.8100859016
 30
0.0
 11
302.668363057
 21
117.5888655506
 31
0.0
  0
LINE
  5
1A5
330
1F
100
AcDbEntity
  8
0
  6
Continuous
 62
     7
100
AcDbLine
 10
308.225922355
 20
120.7627487635
 30
0.0
 11
311.004702004
 21
122.34969037
 31
0.0
  0
LINE
  5
1A6
330
1F
100
AcDbEntity
  8
0
  6
Continuous
 62
     7
100
AcDbLine
 10
311.004702004
 20
122.34969037
 30
0.0
 11
312.5916436104
 21
119.570910721
 31
0.0
  0
LINE
  5
1A7
330
1F
100
AcDbEntity
  8
0
  6
Continuous
 62
     7
100
AcDbLine
 10
312.5916436104
 20
119.570910721
 30
0.0
 11
309.8128639615
 21
117.9839691145
 31
0.0
  0
LINE
  5
1A8
330
1F
100
AcDbEntity
  8
0
  6
Continuous
 62
     7
100
AcDbLine
 10
309.8128639615
 20
117.9839691145
 30
0.0
 11
308.225922355
 21
120.7627487635
 31
0.0
  0
LINE
  5
1A9
330
1F
100
AcDbEntity
  8
0
  6
Continuous
 62
     7
100
AcDbLine
 10
313.783481653
 20
123.9366319765
 30
0.0
 11
316.5622613019
 21
125.523573583
 31
0.0
  0
LINE
  5
1AA
330
1F
100
AcDbEntity
  8
0
  6
Continuous
 62
     7
100
AcDbLine
 10
316.5622613019
 20
125.523573583
 30
0.0
 11
318.1492029084
 21
122.744793934
 31
0.0
  0
LINE
  5
1AB
330
1F
100
AcDbEntity
  8
0
  6
Continuous
 62
     7
100
AcDbLine
 10
318.1492029084
 20
122.744793934
 30
0.0
 11
315.3704232594
 21
121.1578523275
 31
0.0
  0
LINE
  5
1AC
330
1F
100
AcDbEntity
  8
0
  6
Continuous
 62
     7
100
AcDbLine
 10
315.3704232594
 20
121.1578523275
 30
0.0
 11
313.783481653
 21
123.9366319765
 31
0.0
  0
LINE
  5
1AD
330
1F
100
AcDbEntity
  8
0
  6
Continuous
 62
     7
100
AcDbLine
 10
319.3410409509
 20
127.1105151894
 30
0.0
 11
322.1198205999
 21
128.6974567959
 31
0.0
  0
LINE
  5
1AE
330
1F
100
AcDbEntity
  8
0
  6
Continuous
 62
     7
100
AcDbLine
 10
322.1198205999
 20
128.6974567959
 30
0.0
 11
323.7067622064
 21
125.9186771469
 31
0.0
  0
LINE
  5
1AF
330
1F
100
AcDbEntity
  8
0
  6
Continuous
 62
     7
100
AcDbLine
 10
323.7067622064
 20
125.9186771469
 30
0.0
 11
320.9279825574
 21
124.3317355404
 31
0.0
  0
LINE
  5
1B0
330
1F
100
AcDbEntity
  8
0
  6
Continuous
 62
     7
100
AcDbLine
 10
320.9279825574
 20
124.3317355404
 30
0.0
 11
319.3410409509
 21
127.1105151894
 31
0.0
  0
LINE
  5
1B1
330
1F
100
AcDbEntity
  8
0
  6
Continuous
 62
     7
100
AcDbLine
 10
324.8986002489
 20
130.2843984024
 30
0.0
 11
327.6773798979
 21
131.8713400089
 31
0.0
  0
LINE
  5
1B2
330
1F
100
AcDbEntity
  8
0
  6
Continuous
 62
     7
100
AcDbLine
 10
327.6773798979
 20
131.8713400089
 30
0.0
 11
329.2643215044
 21
129.0925603599
 31
0.0
  0
LINE
  5
1B3
330
1F
100
AcDbEntity
  8
0
  6
Continuous
 62
     7
100
AcDbLine
 10
329.2643215044
 20
129.0925603599
 30
0.0
 11
326.4855418554
 21
127.5056187534
 31
0.0
  0
LINE
  5
1B4
330
1F
100
AcDbEntity
  8
0
  6
Continuous
 62
     7
100
AcDbLine
 10
326.4855418554
 20
127.5056187534
 30
0.0
 11
324.8986002489
 21
130.2843984024
 31
0.0
  0
LINE
  5
1B5
330
1F
100
AcDbEntity
  8
0
  6
Continuous
 62
     7
100
AcDbLine
 10
208.8701260187
 20
102.969733
 30
0.0
 11
208.8701260187
 21
106.349733
 31
0.0
  0
LINE
  5
1B6
330
1F
100
AcDbEntity
  8
0
  6
Continuous
 62
     7
100
AcDbLine
 10
208.8701260187
 20
106.349733
 30
0.0
 11
221.5701260187
 21
106.349733
 31
0.0
  0
LINE
  5
1B7
330
1F
100
AcDbEntity
  8
0
  6
Continuous
 62
     7
100
AcDbLine
 10
221.5701260187
 20
106.349733
 30
0.0
 11
221.5701260187
 21
102.969733
 31
0.0
  0
LINE
  5
1B8
330
1F
100
AcDbEntity
  8
0
  6
Continuous
 62
     7
100
AcDbLine
 10
183.4701260187
 20
102.969733
 30
0.0
 11
183.4701260187
 21
106.349733
 31
0.0
  0
LINE
  5
1B9
330
1F
100
AcDbEntity
  8
0
  6
Continuous
 62
     7
100
AcDbLine
 10
183.4701260187
 20
106.349733
 30
0.0
 11
196.1701260187
 21
106.349733
 31
0.0
  0
LINE
  5
1BA
330
1F
100
AcDbEntity
  8
0
  6
Continuous
 62
     7
100
AcDbLine
 10
196.1701260187
 20
106.349733
 30
0.0
 11
196.1701260187
 21
102.969733
 31
0.0
  0
LINE
  5
1BB
330
1F
100
AcDbEntity
  8
0
  6
Continuous
 62
     7
100
AcDbLine
 10
158.0701260187
 20
102.969733
 30
0.0
 11
158.0701260187
 21
106.349733
 31
0.0
  0
LINE
  5
1BC
330
1F
100
AcDbEntity
  8
0
  6
Continuous
 62
     7
100
AcDbLine
 10
158.0701260187
 20
106.349733
 30
0.0
 11
170.7701260187
 21
106.349733
 31
0.0
  0
LINE
  5
1BD
330
1F
100
AcDbEntity
  8
0
  6
Continuous
 62
     7
100
AcDbLine
 10
170.7701260187
 20
106.349733
 30
0.0
 11
170.7701260187
 21
102.969733
 31
0.0
  0
LINE
  5
1BE
330
1F
100
AcDbEntity
  8
0
  6
Continuous
 62
     7
100
AcDbLine
 10
319.5375626317
 20
102.5589817912
 30
0.0
 11
319.5375626317
 21
105.9389817912
 31
0.0
  0
LINE
  5
1BF
330
1F
100
AcDbEntity
  8
0
  6
Continuous
 62
     7
100
AcDbLine
 10
319.5375626317
 20
105.9389817912
 30
0.0
 11
306.8375626317
 21
105.9389817912
 31
0.0
  0
LINE
  5
1C0
330
1F
100
AcDbEntity
  8
0
  6
Continuous
 62
     7
100
AcDbLine
 10
306.8375626317
 20
105.9389817912
 30
0.0
 11
306.8375626317
 21
102.5589817912
 31
0.0
  0
LINE
  5
1C1
330
1F
100
AcDbEntity
  8
0
  6
Continuous
 62
     7
100
AcDbLine
 10
1051.2218159183
 20
211.3354208214
 30
0.0
 11
1051.2218159183
 21
243.4854208214
 31
0.0
  0
LINE
  5
1C2
330
1F
100
AcDbEntity
  8
0
  6
Continuous
 62
     7
100
AcDbLine
 10
1051.2218159183
 20
243.4854208214
 30
0.0
 11
1047.8418159183
 21
243.4854208214
 31
0.0
  0
LINE
  5
1C3
330
1F
100
AcDbEntity
  8
0
  6
Continuous
 62
     7
100
AcDbLine
 10
1047.8418159183
 20
243.4854208214
 30
0.0
 11
1047.8418159183
 21
256.1854208214
 31
0.0
  0
LINE
  5
1C4
330
1F
100
AcDbEntity
  8
0
  6
Continuous
 62
     7
100
AcDbLine
 10
1047.8418159183
 20
256.1854208214
 30
0.0
 11
1051.2218159183
 21
256.1854208214
 31
0.0
  0
LINE
  5
1C5
330
1F
100
AcDbEntity
  8
0
  6
Continuous
 62
     7
100
AcDbLine
 10
1051.2218159183
 20
256.1854208214
 30
0.0
 11
1051.2218159183
 21
268.8854208214
 31
0.0
  0
LINE
  5
1C6
330
1F
100
AcDbEntity
  8
0
  6
Continuous
 62
     7
100
AcDbLine
 10
1051.2218159183
 20
268.8854208214
 30
0.0
 11
1047.8418159183
 21
268.8854208214
 31
0.0
  0
LINE
  5
1C7
330
1F
100
AcDbEntity
  8
0
  6
Continuous
 62
     7
100
AcDbLine
 10
1047.8418159183
 20
268.8854208214
 30
0.0
 11
1047.8418159183
 21
281.5854208214
 31
0.0
  0
LINE
  5
1C8
330
1F
100
AcDbEntity
  8
0
  6
Continuous
 62
     7
100
AcDbLine
 10
1047.8418159183
 20
281.5854208214
 30
0.0
 11
1051.2218159183
 21
281.5854208214
 31
0.0
  0
LINE
  5
1C9
330
1F
100
AcDbEntity
  8
0
  6
Continuous
 62
     7
100
AcDbLine
 10
1051.2218159183
 20
281.5854208214
 30
0.0
 11
1051.2218159183
 21
294.2854208214
 31
0.0
  0
LINE
  5
1CA
330
1F
100
AcDbEntity
  8
0
  6
Continuous
 62
     7
100
AcDbLine
 10
1051.2218159183
 20
294.2854208214
 30
0.0
 11
1047.8418159183
 21
294.2854208214
 31
0.0
  0
LINE
  5
1CB
330
1F
100
AcDbEntity
  8
0
  6
Continuous
 62
     7
100
AcDbLine
 10
1047.8418159183
 20
294.2854208214
 30
0.0
 11
1047.8418159183
 21
306.9854208214
 31
0.0
  0
LINE
  5
1CC
330
1F
100
AcDbEntity
  8
0
  6
Continuous
 62
     7
100
AcDbLine
 10
1047.8418159183
 20
306.9854208214
 30
0.0
 11
1051.2218159183
 21
306.9854208214
 31
0.0
  0
LINE
  5
1CD
330
1F
100
AcDbEntity
  8
0
  6
Continuous
 62
     7
100
AcDbLine
 10
1051.2218159183
 20
306.9854208214
 30
0.0
 11
1051.2218159183
 21
319.6854208214
 31
0.0
  0
LINE
  5
1CE
330
1F
100
AcDbEntity
  8
0
  6
Continuous
 62
     7
100
AcDbLine
 10
1051.2218159183
 20
319.6854208214
 30
0.0
 11
1047.8418159183
 21
319.6854208214
 31
0.0
  0
LINE
  5
1CF
330
1F
100
AcDbEntity
  8
0
  6
Continuous
 62
     7
100
AcDbLine
 10
1047.8418159183
 20
319.6854208214
 30
0.0
 11
1047.8418159183
 21
332.3854208214
 31
0.0
  0
LINE
  5
1D0
330
1F
100
AcDbEntity
  8
0
  6
Continuous
 62
     7
100
AcDbLine
 10
1047.8418159183
 20
332.3854208214
 30
0.0
 11
1051.2218159183
 21
332.3854208214
 31
0.0
  0
LINE
  5
1D1
330
1F
100
AcDbEntity
  8
0
  6
Continuous
 62
     7
100
AcDbLine
 10
1051.2218159183
 20
332.3854208214
 30
0.0
 11
1051.2218159183
 21
345.0854208214
 31
0.0
  0
LINE
  5
1D2
330
1F
100
AcDbEntity
  8
0
  6
Continuous
 62
     7
100
AcDbLine
 10
1051.2218159183
 20
345.0854208214
 30
0.0
 11
1063.9218159183
 21
345.0854208214
 31
0.0
  0
LINE
  5
1D3
330
1F
100
AcDbEntity
  8
0
  6
Continuous
 62
     7
100
AcDbLine
 10
1063.9218159183
 20
345.0854208214
 30
0.0
 11
1063.9218159183
 21
341.7054208214
 31
0.0
  0
LINE
  5
1D4
330
1F
100
AcDbEntity
  8
0
  6
Continuous
 62
     7
100
AcDbLine
 10
1063.9218159183
 20
341.7054208214
 30
0.0
 11
1076.6218159183
 21
341.7054208214
 31
0.0
  0
LINE
  5
1D5
330
1F
100
AcDbEntity
  8
0
  6
Continuous
 62
     7
100
AcDbLine
 10
921.3549933454
 20
434.9879459186
 30
0.0
 11
921.3549933454
 21
422.2879459186
 31
0.0
  0
LINE
  5
1D6
330
1F
100
AcDbEntity
  8
0
  6
Continuous
 62
     7
100
AcDbLine
 10
921.3549933454
 20
422.2879459186
 30
0.0
 11
917.9749933454
 21
422.2879459186
 31
0.0
  0
LINE
  5
1D7
330
1F
100
AcDbEntity
  8
0
  6
Continuous
 62
     7
100
AcDbLine
 10
917.9749933454
 20
422.2879459186
 30
0.0
 11
917.9749933454
 21
409.5879459186
 31
0.0
  0
LINE
  5
1D8
330
1F
100
AcDbEntity
  8
0
  6
Continuous
 62
     7
100
AcDbLine
 10
917.9749933454
 20
409.5879459186
 30
0.0
 11
908.4531933454
 21
409.5879459186
 31
0.0
  0
LINE
  5
1D9
330
1F
100
AcDbEntity
  8
0
  6
Continuous
 62
     7
100
AcDbLine
 10
908.4531933454
 20
409.5879459186
 30
0.0
 11
908.4531933454
 21
406.2079459186
 31
0.0
  0
LINE
  5
1DA
330
1F
100
AcDbEntity
  8
0
  6
Continuous
 62
     7
100
AcDbLine
 10
908.4531933454
 20
406.2079459186
 30
0.0
 11
895.7531933454
 21
406.2079459186
 31
0.0
  0
LINE
  5
1DB
330
1F
100
AcDbEntity
  8
0
  6
Continuous
 62
     7
100
AcDbLine
 10
895.7531933454
 20
406.2079459186
 30
0.0
 11
895.7531933454
 21
409.5879459186
 31
0.0
  0
LINE
  5
1DC
330
1F
100
AcDbEntity
  8
0
  6
Continuous
 62
     7
100
AcDbLine
 10
895.7531933454
 20
409.5879459186
 30
0.0
 11
883.0531933454
 21
409.5879459186
 31
0.0
  0
LINE
  5
1DD
330
1F
100
AcDbEntity
  8
0
  6
Continuous
 62
     7
100
AcDbLine
 10
883.0531933454
 20
409.5879459186
 30
0.0
 11
883.0531933454
 21
406.2079459186
 31
0.0
  0
LINE
  5
1DE
330
1F
100
AcDbEntity
  8
0
  6
Continuous
 62
     7
100
AcDbLine
 10
883.0531933454
 20
406.2079459186
 30
0.0
 11
870.3531933454
 21
406.2079459186
 31
0.0
  0
LINE
  5
1DF
330
1F
100
AcDbEntity
  8
0
  6
Continuous
 62
     7
100
AcDbLine
 10
870.3531933454
 20
406.2079459186
 30
0.0
 11
870.3531933454
 21
409.5879459186
 31
0.0
  0
LINE
  5
1E0
330
1F
100
AcDbEntity
  8
0
  6
Continuous
 62
     7
100
AcDbLine
 10
870.3531933454
 20
409.5879459186
 30
0.0
 11
857.6531933454
 21
409.5879459186
 31
0.0
  0
LINE
  5
1E1
330
1F
100
AcDbEntity
  8
0
  6
Continuous
 62
     7
100
AcDbLine
 10
857.6531933454
 20
409.5879459186
 30
0.0
 11
857.6531933454
 21
406.2079459186
 31
0.0
  0
LINE
  5
1E2
330
1F
100
AcDbEntity
  8
0
  6
Continuous
 62
     7
100
AcDbLine
 10
857.6531933454
 20
406.2079459186
 30
0.0
 11
844.9531933454
 21
406.2079459186
 31
0.0
  0
LINE
  5
1E3
330
1F
100
AcDbEntity
  8
0
  6
Continuous
 62
     7
100
AcDbLine
 10
844.9531933454
 20
406.2079459186
 30
0.0
 11
844.9531933454
 21
409.5879459186
 31
0.0
  0
LINE
  5
1E4
330
1F
100
AcDbEntity
  8
0
  6
Continuous
 62
     7
100
AcDbLine
 10
844.9531933454
 20
409.5879459186
 30
0.0
 11
835.4313933454
 21
409.5879459186
 31
0.0
  0
LINE
  5
1E5
330
1F
100
AcDbEntity
  8
0
  6
Continuous
 62
     7
100
AcDbLine
 10
835.4313933454
 20
409.5879459186
 30
0.0
 11
835.4313933454
 21
422.2879459186
 31
0.0
  0
LINE
  5
1E6
330
1F
100
AcDbEntity
  8
0
  6
Continuous
 62
     7
100
AcDbLine
 10
835.4313933454
 20
422.2879459186
 30
0.0
 11
832.0513933454
 21
422.2879459186
 31
0.0
  0
LINE
  5
1E7
330
1F
100
AcDbEntity
  8
0
  6
Continuous
 62
     7
100
AcDbLine
 10
832.0513933454
 20
422.2879459186
 30
0.0
 11
832.0513933454
 21
434.9879459186
 31
0.0
  0
LINE
  5
1E8
330
1F
100
AcDbEntity
  8
0
  6
Continuous
 62
     7
100
AcDbLine
 10
836.2400888688
 20
195.2618178214
 30
0.0
 11
836.2400888688
 21
179.9918178214
 31
0.0
  0
LINE
  5
1E9
330
1F
100
AcDbEntity
  8
0
  6
Continuous
 62
     7
100
AcDbLine
 10
836.2400888688
 20
179.9918178214
 30
0.0
 11
842.1818888688
 21
179.9918178214
 31
0.0
  0
LINE
  5
1EA
330
1F
100
AcDbEntity
  8
0
  6
Continuous
 62
     7
100
AcDbLine
 10
842.1818888688
 20
179.9918178214
 30
0.0
 11
842.1818888688
 21
176.6118178214
 31
0.0
  0
LINE
  5
1EB
330
1F
100
AcDbEntity
  8
0
  6
Continuous
 62
     7
100
AcDbLine
 10
842.1818888688
 20
176.6118178214
 30
0.0
 11
832.8600888688
 21
176.6118178214
 31
0.0
  0
LINE
  5
1EC
330
1F
100
AcDbEntity
  8
0
  6
Continuous
 62
     7
100
AcDbLine
 10
832.8600888688
 20
176.6118178214
 30
0.0
 11
832.8600888688
 21
195.2618178214
 31
0.0
  0
LINE
  5
1ED
330
1F
100
AcDbEntity
  8
0
  6
Continuous
 62
     7
100
AcDbLine
 10
832.8600888688
 20
207.9618178214
 30
0.0
 11
832.8600888688
 21
226.6118178214
 31
0.0
  0
LINE
  5
1EE
330
1F
100
AcDbEntity
  8
0
  6
Continuous
 62
     7
100
AcDbLine
 10
832.8600888688
 20
195.2618178214
 30
0.0
 11
836.2400888688
 21
195.2618178214
 31
0.0
  0
LINE
  5
1EF
330
1F
100
AcDbEntity
  8
0
  6
Continuous
 62
     7
100
AcDbLine
 10
836.2400888688
 20
223.2318178214
 30
0.0
 11
836.2400888688
 21
207.9618178214
 31
0.0
  0
LINE
  5
1F0
330
1F
100
AcDbEntity
  8
0
  6
Continuous
 62
     7
100
AcDbLine
 10
836.2400888688
 20
207.9618178214
 30
0.0
 11
832.8600888688
 21
207.9618178214
 31
0.0
  0
LINE
  5
1F1
330
1F
100
AcDbEntity
  8
0
  6
Continuous
 62
     7
100
AcDbLine
 10
854.8818888688
 20
223.2318178214
 30
0.0
 11
867.5818888688
 21
223.2318178214
 31
0.0
  0
LINE
  5
1F2
330
1F
100
AcDbEntity
  8
0
  6
Continuous
 62
     7
100
AcDbLine
 10
880.2818888688
 20
223.2318178214
 30
0.0
 11
892.9818888688
 21
223.2318178214
 31
0.0
  0
LINE
  5
1F3
330
1F
100
AcDbEntity
  8
0
  6
Continuous
 62
     7
100
AcDbLine
 10
832.8600888688
 20
226.6118178214
 30
0.0
 11
842.1818888688
 21
226.6118178214
 31
0.0
  0
LINE
  5
1F4
330
1F
100
AcDbEntity
  8
0
  6
Continuous
 62
     7
100
AcDbLine
 10
842.1818888688
 20
226.6118178214
 30
0.0
 11
842.1818888688
 21
223.2318178214
 31
0.0
  0
LINE
  5
1F5
330
1F
100
AcDbEntity
  8
0
  6
Continuous
 62
     7
100
AcDbLine
 10
842.1818888688
 20
223.2318178214
 30
0.0
 11
836.2400888688
 21
223.2318178214
 31
0.0
  0
LINE
  5
1F6
330
1F
100
AcDbEntity
  8
0
  6
Continuous
 62
     7
100
AcDbLine
 10
905.6818888688
 20
223.2318178214
 30
0.0
 11
905.6818888688
 21
226.6118178214
 31
0.0
  0
LINE
  5
1F7
330
1F
100
AcDbEntity
  8
0
  6
Continuous
 62
     7
100
AcDbLine
 10
905.6818888688
 20
226.6118178214
 30
0.0
 11
915.0036888688
 21
226.6118178214
 31
0.0
  0
LINE
  5
1F8
330
1F
100
AcDbEntity
  8
0
  6
Continuous
 62
     7
100
AcDbLine
 10
915.0036888688
 20
207.9618178214
 30
0.0
 11
915.0036888688
 21
226.6118178214
 31
0.0
  0
LINE
  5
1F9
330
1F
100
AcDbEntity
  8
0
  6
Continuous
 62
     7
100
AcDbLine
 10
854.8818888688
 20
176.6118178214
 30
0.0
 11
867.5818888688
 21
176.6118178214
 31
0.0
  0
LINE
  5
1FA
330
1F
100
AcDbEntity
  8
0
  6
Continuous
 62
     7
100
AcDbLine
 10
915.0036888688
 20
207.9618178214
 30
0.0
 11
911.6236888688
 21
207.9618178214
 31
0.0
  0
LINE
  5
1FB
330
1F
100
AcDbEntity
  8
0
  6
Continuous
 62
     7
100
AcDbLine
 10
911.6236888688
 20
207.9618178214
 30
0.0
 11
911.6236888688
 21
223.2318178214
 31
0.0
  0
LINE
  5
1FC
330
1F
100
AcDbEntity
  8
0
  6
Continuous
 62
     7
100
AcDbLine
 10
911.6236888688
 20
223.2318178214
 30
0.0
 11
905.6818888688
 21
223.2318178214
 31
0.0
  0
LINE
  5
1FD
330
1F
100
AcDbEntity
  8
0
  6
Continuous
 62
     7
100
AcDbLine
 10
880.2818888688
 20
223.2318178214
 30
0.0
 11
880.2818888688
 21
226.6118178214
 31
0.0
  0
LINE
  5
1FE
330
1F
100
AcDbEntity
  8
0
  6
Continuous
 62
     7
100
AcDbLine
 10
880.2818888688
 20
226.6118178214
 30
0.0
 11
892.9818888688
 21
226.6118178214
 31
0.0
  0
LINE
  5
1FF
330
1F
100
AcDbEntity
  8
0
  6
Continuous
 62
     7
100
AcDbLine
 10
892.9818888688
 20
226.6118178214
 30
0.0
 11
892.9818888688
 21
223.2318178214
 31
0.0
  0
LINE
  5
200
330
1F
100
AcDbEntity
  8
0
  6
Continuous
 62
     7
100
AcDbLine
 10
880.2818888688
 20
176.6118178214
 30
0.0
 11
892.9818888688
 21
176.6118178214
 31
0.0
  0
LINE
  5
201
330
1F
100
AcDbEntity
  8
0
  6
Continuous
 62
     7
100
AcDbLine
 10
319.5375626317
 20
102.5589817912
 30
0.0
 11
338.1875626317
 21
102.5589817912
 31
0.0
  0
LINE
  5
202
330
1F
100
AcDbEntity
  8
0
  6
Continuous
 62
     7
100
AcDbLine
 10
854.8818888688
 20
223.2318178214
 30
0.0
 11
854.8818888688
 21
226.6118178214
 31
0.0
  0
LINE
  5
203
330
1F
100
AcDbEntity
  8
0
  6
Continuous
 62
     7
100
AcDbLine
 10
854.8818888688
 20
226.6118178214
 30
0.0
 11
867.5818888688
 21
226.6118178214
 31
0.0
  0
LINE
  5
204
330
1F
100
AcDbEntity
  8
0
  6
Continuous
 62
     7
100
AcDbLine
 10
867.5818888688
 20
226.6118178214
 30
0.0
 11
867.5818888688
 21
223.2318178214
 31
0.0
  0
LINE
  5
205
330
1F
100
AcDbEntity
  8
0
  6
Continuous
 62
     7
100
AcDbLine
 10
918.5836888688
 20
316.3118178214
 30
0.0
 11
915.2036888688
 21
316.3118178214
 31
0.0
  0
LINE
  5
206
330
1F
100
AcDbEntity
  8
0
  6
Continuous
 62
     7
100
AcDbLine
 10
915.2036888688
 20
316.3118178214
 30
0.0
 11
915.2036888688
 21
329.0118178214
 31
0.0
  0
LINE
  5
207
330
1F
100
AcDbEntity
  8
0
  6
Continuous
 62
     7
100
AcDbLine
 10
915.2036888688
 20
329.0118178214
 30
0.0
 11
918.5836888688
 21
329.0118178214
 31
0.0
  0
LINE
  5
208
330
1F
100
AcDbEntity
  8
0
  6
Continuous
 62
     7
100
AcDbLine
 10
918.5836888688
 20
329.0118178214
 30
0.0
 11
918.5836888688
 21
341.7118178214
 31
0.0
  0
LINE
  5
209
330
1F
100
AcDbEntity
  8
0
  6
Continuous
 62
     7
100
AcDbLine
 10
918.5836888688
 20
341.7118178214
 30
0.0
 11
905.6818888688
 21
341.7118178214
 31
0.0
  0
LINE
  5
20A
330
1F
100
AcDbEntity
  8
0
  6
Continuous
 62
     7
100
AcDbLine
 10
905.6818888688
 20
341.7118178214
 30
0.0
 11
905.6818888688
 21
338.3318178214
 31
0.0
  0
LINE
  5
20B
330
1F
100
AcDbEntity
  8
0
  6
Continuous
 62
     7
100
AcDbLine
 10
905.6818888688
 20
338.3318178214
 30
0.0
 11
892.9818888688
 21
338.3318178214
 31
0.0
  0
LINE
  5
20C
330
1F
100
AcDbEntity
  8
0
  6
Continuous
 62
     7
100
AcDbLine
 10
892.9818888688
 20
338.3318178214
 30
0.0
 11
892.9818888688
 21
341.7118178214
 31
0.0
  0
LINE
  5
20D
330
1F
100
AcDbEntity
  8
0
  6
Continuous
 62
     7
100
AcDbLine
 10
892.9818888688
 20
341.7118178214
 30
0.0
 11
880.2818888688
 21
341.7118178214
 31
0.0
  0
LINE
  5
20E
330
1F
100
AcDbEntity
  8
0
  6
Continuous
 62
     7
100
AcDbLine
 10
880.2818888688
 20
341.7118178214
 30
0.0
 11
880.2818888688
 21
338.3318178214
 31
0.0
  0
LINE
  5
20F
330
1F
100
AcDbEntity
  8
0
  6
Continuous
 62
     7
100
AcDbLine
 10
880.2818888688
 20
338.3318178214
 30
0.0
 11
867.5818888688
 21
338.3318178214
 31
0.0
  0
LINE
  5
210
330
1F
100
AcDbEntity
  8
0
  6
Continuous
 62
     7
100
AcDbLine
 10
867.5818888688
 20
338.3318178214
 30
0.0
 11
867.5818888688
 21
341.7118178214
 31
0.0
  0
LINE
  5
211
330
1F
100
AcDbEntity
  8
0
  6
Continuous
 62
     7
100
AcDbLine
 10
867.5818888688
 20
341.7118178214
 30
0.0
 11
854.8818888688
 21
341.7118178214
 31
0.0
  0
LINE
  5
212
330
1F
100
AcDbEntity
  8
0
  6
Continuous
 62
     7
100
AcDbLine
 10
854.8818888688
 20
341.7118178214
 30
0.0
 11
854.8818888688
 21
338.3318178214
 31
0.0
  0
LINE
  5
213
330
1F
100
AcDbEntity
  8
0
  6
Continuous
 62
     7
100
AcDbLine
 10
854.8818888688
 20
338.3318178214
 30
0.0
 11
842.1818888688
 21
338.3318178214
 31
0.0
  0
LINE
  5
214
330
1F
100
AcDbEntity
  8
0
  6
Continuous
 62
     7
100
AcDbLine
 10
842.1818888688
 20
338.3318178214
 30
0.0
 11
842.1818888688
 21
341.7118178214
 31
0.0
  0
LINE
  5
215
330
1F
100
AcDbEntity
  8
0
  6
Continuous
 62
     7
100
AcDbLine
 10
842.1818888688
 20
341.7118178214
 30
0.0
 11
829.2800888688
 21
341.7118178214
 31
0.0
  0
LINE
  5
216
330
1F
100
AcDbEntity
  8
0
  6
Continuous
 62
     7
100
AcDbLine
 10
829.2800888688
 20
341.7118178214
 30
0.0
 11
829.2800888688
 21
329.0118178214
 31
0.0
  0
LINE
  5
217
330
1F
100
AcDbEntity
  8
0
  6
Continuous
 62
     7
100
AcDbLine
 10
829.2800888688
 20
329.0118178214
 30
0.0
 11
832.6600888688
 21
329.0118178214
 31
0.0
  0
LINE
  5
218
330
1F
100
AcDbEntity
  8
0
  6
Continuous
 62
     7
100
AcDbLine
 10
832.6600888688
 20
329.0118178214
 30
0.0
 11
832.6600888688
 21
316.3118178214
 31
0.0
  0
LINE
  5
219
330
1F
100
AcDbEntity
  8
0
  6
Continuous
 62
     7
100
AcDbLine
 10
832.6600888688
 20
316.3118178214
 30
0.0
 11
829.2800888688
 21
316.3118178214
 31
0.0
  0
LINE
  5
21A
330
1F
100
AcDbEntity
  8
0
  6
Continuous
 62
     7
100
AcDbLine
 10
829.2800888688
 20
316.3118178214
 30
0.0
 11
829.2800888688
 21
303.6118178214
 31
0.0
  0
LINE
  5
21B
330
1F
100
AcDbEntity
  8
0
  6
Continuous
 62
     7
100
AcDbLine
 10
829.2800888688
 20
303.6118178214
 30
0.0
 11
832.6600888688
 21
303.6118178214
 31
0.0
  0
LINE
  5
21C
330
1F
100
AcDbEntity
  8
0
  6
Continuous
 62
     7
100
AcDbLine
 10
832.6600888688
 20
303.6118178214
 30
0.0
 11
832.6600888688
 21
290.9118178214
 31
0.0
  0
LINE
  5
21D
330
1F
100
AcDbEntity
  8
0
  6
Continuous
 62
     7
100
AcDbLine
 10
832.6600888688
 20
290.9118178214
 30
0.0
 11
829.2800888688
 21
290.9118178214
 31
0.0
  0
LINE
  5
21E
330
1F
100
AcDbEntity
  8
0
  6
Continuous
 62
     7
100
AcDbLine
 10
829.2800888688
 20
290.9118178214
 30
0.0
 11
829.2800888688
 21
278.2118178214
 31
0.0
  0
LINE
  5
21F
330
1F
100
AcDbEntity
  8
0
  6
Continuous
 62
     7
100
AcDbLine
 10
829.2800888688
 20
278.2118178214
 30
0.0
 11
832.6600888688
 21
278.2118178214
 31
0.0
  0
LINE
  5
220
330
1F
100
AcDbEntity
  8
0
  6
Continuous
 62
     7
100
AcDbLine
 10
832.6600888688
 20
278.2118178214
 30
0.0
 11
832.6600888688
 21
265.5118178214
 31
0.0
  0
LINE
  5
221
330
1F
100
AcDbEntity
  8
0
  6
Continuous
 62
     7
100
AcDbLine
 10
832.6600888688
 20
265.5118178214
 30
0.0
 11
829.2800888688
 21
265.5118178214
 31
0.0
  0
LINE
  5
222
330
1F
100
AcDbEntity
  8
0
  6
Continuous
 62
     7
100
AcDbLine
 10
829.2800888688
 20
265.5118178214
 30
0.0
 11
829.2800888688
 21
252.8118178214
 31
0.0
  0
LINE
  5
223
330
1F
100
AcDbEntity
  8
0
  6
Continuous
 62
     7
100
AcDbLine
 10
829.2800888688
 20
252.8118178214
 30
0.0
 11
832.6600888688
 21
252.8118178214
 31
0.0
  0
LINE
  5
224
330
1F
100
AcDbEntity
  8
0
  6
Continuous
 62
     7
100
AcDbLine
 10
832.6600888688
 20
252.8118178214
 30
0.0
 11
832.6600888688
 21
240.1118178214
 31
0.0
  0
LINE
  5
225
330
1F
100
AcDbEntity
  8
0
  6
Continuous
 62
     7
100
AcDbLine
 10
832.6600888688
 20
240.1118178214
 30
0.0
 11
829.2800888688
 21
240.1118178214
 31
0.0
  0
LINE
  5
226
330
1F
100
AcDbEntity
  8
0
  6
Continuous
 62
     7
100
AcDbLine
 10
829.2800888688
 20
240.1118178214
 30
0.0
 11
829.2800888688
 21
174.9022198214
 31
0.0
  0
LINE
  5
227
330
1F
100
AcDbEntity
  8
0
  6
Continuous
 62
     7
100
AcDbLine
 10
830.9504918688
 20
173.2318178214
 30
0.0
 11
916.9132858688
 21
173.2318178214
 31
0.0
  0
LINE
  5
228
330
1F
100
AcDbEntity
  8
0
  6
Continuous
 62
     7
100
AcDbLine
 10
918.5836888688
 20
174.9022198214
 30
0.0
 11
918.5836888688
 21
240.1118178214
 31
0.0
  0
LINE
  5
229
330
1F
100
AcDbEntity
  8
0
  6
Continuous
 62
     7
100
AcDbLine
 10
918.5836888688
 20
240.1118178214
 30
0.0
 11
915.2036888688
 21
240.1118178214
 31
0.0
  0
LINE
  5
22A
330
1F
100
AcDbEntity
  8
0
  6
Continuous
 62
     7
100
AcDbLine
 10
915.2036888688
 20
252.8118178214
 30
0.0
 11
915.2036888688
 21
240.1118178214
 31
0.0
  0
LINE
  5
22B
330
1F
100
AcDbEntity
  8
0
  6
Continuous
 62
     7
100
AcDbLine
 10
915.2036888688
 20
252.8118178214
 30
0.0
 11
918.5836888688
 21
252.8118178214
 31
0.0
  0
LINE
  5
22C
330
1F
100
AcDbEntity
  8
0
  6
Continuous
 62
     7
100
AcDbLine
 10
918.5836888688
 20
252.8118178214
 30
0.0
 11
918.5836888688
 21
265.5118178214
 31
0.0
  0
LINE
  5
22D
330
1F
100
AcDbEntity
  8
0
  6
Continuous
 62
     7
100
AcDbLine
 10
918.5836888688
 20
265.5118178214
 30
0.0
 11
915.2036888688
 21
265.5118178214
 31
0.0
  0
LINE
  5
22E
330
1F
100
AcDbEntity
  8
0
  6
Continuous
 62
     7
100
AcDbLine
 10
915.2036888688
 20
265.5118178214
 30
0.0
 11
915.2036888688
 21
278.2118178214
 31
0.0
  0
LINE
  5
22F
330
1F
100
AcDbEntity
  8
0
  6
Continuous
 62
     7
100
AcDbLine
 10
915.2036888688
 20
278.2118178214
 30
0.0
 11
918.5836888688
 21
278.2118178214
 31
0.0
  0
LINE
  5
230
330
1F
100
AcDbEntity
  8
0
  6
Continuous
 62
     7
100
AcDbLine
 10
918.5836888688
 20
278.2118178214
 30
0.0
 11
918.5836888688
 21
290.9118178214
 31
0.0
  0
LINE
  5
231
330
1F
100
AcDbEntity
  8
0
  6
Continuous
 62
     7
100
AcDbLine
 10
918.5836888688
 20
290.9118178214
 30
0.0
 11
915.2036888688
 21
290.9118178214
 31
0.0
  0
LINE
  5
232
330
1F
100
AcDbEntity
  8
0
  6
Continuous
 62
     7
100
AcDbLine
 10
915.2036888688
 20
290.9118178214
 30
0.0
 11
915.2036888688
 21
303.6118178214
 31
0.0
  0
LINE
  5
233
330
1F
100
AcDbEntity
  8
0
  6
Continuous
 62
     7
100
AcDbLine
 10
915.2036888688
 20
303.6118178214
 30
0.0
 11
918.5836888688
 21
303.6118178214
 31
0.0
  0
LINE
  5
234
330
1F
100
AcDbEntity
  8
0
  6
Continuous
 62
     7
100
AcDbLine
 10
918.5836888688
 20
303.6118178214
 30
0.0
 11
918.5836888688
 21
316.3118178214
 31
0.0
  0
LINE
  5
235
330
1F
100
AcDbEntity
  8
0
  6
Continuous
 62
     7
100
AcDbLine
 10
905.6818888688
 20
176.6118178214
 30
0.0
 11
905.6818888688
 21
179.9918178214
 31
0.0
  0
LINE
  5
236
330
1F
100
AcDbEntity
  8
0
  6
Continuous
 62
     7
100
AcDbLine
 10
905.6818888688
 20
179.9918178214
 30
0.0
 11
911.6236888688
 21
179.9918178214
 31
0.0
  0
LINE
  5
237
330
1F
100
AcDbEntity
  8
0
  6
Continuous
 62
     7
100
AcDbLine
 10
911.6236888688
 20
179.9918178214
 30
0.0
 11
911.6236888688
 21
195.2618178214
 31
0.0
  0
LINE
  5
238
330
1F
100
AcDbEntity
  8
0
  6
Continuous
 62
     7
100
AcDbLine
 10
911.6236888688
 20
195.2618178214
 30
0.0
 11
915.0036888688
 21
195.2618178214
 31
0.0
  0
LINE
  5
239
330
1F
100
AcDbEntity
  8
0
  6
Continuous
 62
     7
100
AcDbLine
 10
915.0036888688
 20
195.2618178214
 30
0.0
 11
915.0036888688
 21
176.6118178214
 31
0.0
  0
LINE
  5
23A
330
1F
100
AcDbEntity
  8
0
  6
Continuous
 62
     7
100
AcDbLine
 10
170.7701260187
 20
102.969733
 30
0.0
 11
183.4701260187
 21
102.969733
 31
0.0
  0
LINE
  5
23B
330
1F
100
AcDbEntity
  8
0
  6
Continuous
 62
     7
100
AcDbLine
 10
915.0036888688
 20
176.6118178214
 30
0.0
 11
905.6818888688
 21
176.6118178214
 31
0.0
  0
LINE
  5
23C
330
1F
100
AcDbEntity
  8
0
  6
Continuous
 62
     7
100
AcDbLine
 10
880.2818888688
 20
176.6118178214
 30
0.0
 11
880.2818888688
 21
179.9918178214
 31
0.0
  0
LINE
  5
23D
330
1F
100
AcDbEntity
  8
0
  6
Continuous
 62
     7
100
AcDbLine
 10
880.2818888688
 20
179.9918178214
 30
0.0
 11
892.9818888688
 21
179.9918178214
 31
0.0
  0
LINE
  5
23E
330
1F
100
AcDbEntity
  8
0
  6
Continuous
 62
     7
100
AcDbLine
 10
892.9818888688
 20
179.9918178214
 30
0.0
 11
892.9818888688
 21
176.6118178214
 31
0.0
  0
LINE
  5
23F
330
1F
100
AcDbEntity
  8
0
  6
Continuous
 62
     7
100
AcDbLine
 10
196.1701260187
 20
102.969733
 30
0.0
 11
208.8701260187
 21
102.969733
 31
0.0
  0
LINE
  5
240
330
1F
100
AcDbEntity
  8
0
  6
Continuous
 62
     7
100
AcDbLine
 10
854.8818888688
 20
179.9918178214
 30
0.0
 11
867.5818888688
 21
179.9918178214
 31
0.0
  0
LINE
  5
241
330
1F
100
AcDbEntity
  8
0
  6
Continuous
 62
     7
100
AcDbLine
 10
867.5818888688
 20
179.9918178214
 30
0.0
 11
867.5818888688
 21
176.6118178214
 31
0.0
  0
LINE
  5
242
330
1F
100
AcDbEntity
  8
0
  6
Continuous
 62
     7
100
AcDbLine
 10
854.8818888688
 20
176.6118178214
 30
0.0
 11
854.8818888688
 21
179.9918178214
 31
0.0
  0
LINE
  5
244
330
1F
100
AcDbEntity
  8
0
  6
Continuous
 62
     7
100
AcDbLine
 10
1076.6218159183
 20
341.7054208214
 30
0.0
 11
1076.6218159183
 21
217.3354208214
 31
0.0
  0
LINE
  5
245
330
1F
100
AcDbEntity
  8
0
  6
Continuous
 62
     7
100
AcDbLine
 10
1051.2218159183
 20
211.3354208214
 30
0.0
 11
1070.6218159183
 21
211.3354208214
 31
0.0
  0
LINE
  5
246
330
1F
100
AcDbEntity
  8
0
  6
Continuous
 62
     7
100
AcDbLine
 10
832.0513933454
 20
434.9879459186
 30
0.0
 11
921.3549933454
 21
434.9879459186
 31
0.0
  0
LINE
  5
247
330
1F
100
AcDbEntity
  8
0
  6
Continuous
 62
     7
100
AcDbLine
 10
1021.6006946527
 20
211.3354208214
 30
0.0
 11
1002.2006946527
 21
211.3354208214
 31
0.0
  0
LINE
  5
248
330
1F
100
AcDbEntity
  8
0
  6
Continuous
 62
     7
100
AcDbLine
 10
996.2006946527
 20
341.7054208214
 30
0.0
 11
996.2006946527
 21
217.3354208214
 31
0.0
  0
LINE
  5
249
330
1F
100
AcDbEntity
  8
0
  6
Continuous
 62
     7
100
AcDbLine
 10
1008.9006946527
 20
341.7054208214
 30
0.0
 11
996.2006946527
 21
341.7054208214
 31
0.0
  0
LINE
  5
24A
330
1F
100
AcDbEntity
  8
0
  6
Continuous
 62
     7
100
AcDbLine
 10
1008.9006946527
 20
345.0854208214
 30
0.0
 11
1008.9006946527
 21
341.7054208214
 31
0.0
  0
LINE
  5
24B
330
1F
100
AcDbEntity
  8
0
  6
Continuous
 62
     7
100
AcDbLine
 10
1021.6006946527
 20
345.0854208214
 30
0.0
 11
1008.9006946527
 21
345.0854208214
 31
0.0
  0
LINE
  5
24C
330
1F
100
AcDbEntity
  8
0
  6
Continuous
 62
     7
100
AcDbLine
 10
1021.6006946527
 20
332.3854208214
 30
0.0
 11
1021.6006946527
 21
345.0854208214
 31
0.0
  0
LINE
  5
24D
330
1F
100
AcDbEntity
  8
0
  6
Continuous
 62
     7
100
AcDbLine
 10
1024.9806946527
 20
332.3854208214
 30
0.0
 11
1021.6006946527
 21
332.3854208214
 31
0.0
  0
LINE
  5
24E
330
1F
100
AcDbEntity
  8
0
  6
Continuous
 62
     7
100
AcDbLine
 10
1024.9806946527
 20
319.6854208214
 30
0.0
 11
1024.9806946527
 21
332.3854208214
 31
0.0
  0
LINE
  5
24F
330
1F
100
AcDbEntity
  8
0
  6
Continuous
 62
     7
100
AcDbLine
 10
1021.6006946527
 20
319.6854208214
 30
0.0
 11
1024.9806946527
 21
319.6854208214
 31
0.0
  0
LINE
  5
250
330
1F
100
AcDbEntity
  8
0
  6
Continuous
 62
     7
100
AcDbLine
 10
1021.6006946527
 20
306.9854208214
 30
0.0
 11
1021.6006946527
 21
319.6854208214
 31
0.0
  0
LINE
  5
251
330
1F
100
AcDbEntity
  8
0
  6
Continuous
 62
     7
100
AcDbLine
 10
1024.9806946527
 20
306.9854208214
 30
0.0
 11
1021.6006946527
 21
306.9854208214
 31
0.0
  0
LINE
  5
252
330
1F
100
AcDbEntity
  8
0
  6
Continuous
 62
     7
100
AcDbLine
 10
1024.9806946527
 20
294.2854208214
 30
0.0
 11
1024.9806946527
 21
306.9854208214
 31
0.0
  0
LINE
  5
253
330
1F
100
AcDbEntity
  8
0
  6
Continuous
 62
     7
100
AcDbLine
 10
1021.6006946527
 20
294.2854208214
 30
0.0
 11
1024.9806946527
 21
294.2854208214
 31
0.0
  0
LINE
  5
254
330
1F
100
AcDbEntity
  8
0
  6
Continuous
 62
     7
100
AcDbLine
 10
1021.6006946527
 20
281.5854208214
 30
0.0
 11
1021.6006946527
 21
294.2854208214
 31
0.0
  0
LINE
  5
255
330
1F
100
AcDbEntity
  8
0
  6
Continuous
 62
     7
100
AcDbLine
 10
1024.9806946527
 20
281.5854208214
 30
0.0
 11
1021.6006946527
 21
281.5854208214
 31
0.0
  0
LINE
  5
256
330
1F
100
AcDbEntity
  8
0
  6
Continuous
 62
     7
100
AcDbLine
 10
1024.9806946527
 20
268.8854208214
 30
0.0
 11
1024.9806946527
 21
281.5854208214
 31
0.0
  0
LINE
  5
257
330
1F
100
AcDbEntity
  8
0
  6
Continuous
 62
     7
100
AcDbLine
 10
1021.6006946527
 20
268.8854208214
 30
0.0
 11
1024.9806946527
 21
268.8854208214
 31
0.0
  0
LINE
  5
258
330
1F
100
AcDbEntity
  8
0
  6
Continuous
 62
     7
100
AcDbLine
 10
1021.6006946527
 20
256.1854208214
 30
0.0
 11
1021.6006946527
 21
268.8854208214
 31
0.0
  0
LINE
  5
259
330
1F
100
AcDbEntity
  8
0
  6
Continuous
 62
     7
100
AcDbLine
 10
1024.9806946527
 20
256.1854208214
 30
0.0
 11
1021.6006946527
 21
256.1854208214
 31
0.0
  0
LINE
  5
25A
330
1F
100
AcDbEntity
  8
0
  6
Continuous
 62
     7
100
AcDbLine
 10
1024.9806946527
 20
243.4854208214
 30
0.0
 11
1024.9806946527
 21
256.1854208214
 31
0.0
  0
LINE
  5
25B
330
1F
100
AcDbEntity
  8
0
  6
Continuous
 62
     7
100
AcDbLine
 10
1021.6006946527
 20
243.4854208214
 30
0.0
 11
1024.9806946527
 21
243.4854208214
 31
0.0
  0
LINE
  5
25C
330
1F
100
AcDbEntity
  8
0
  6
Continuous
 62
     7
100
AcDbLine
 10
1021.6006946527
 20
211.3354208214
 30
0.0
 11
1021.6006946527
 21
243.4854208214
 31
0.0
  0
LINE
  5
25D
330
1F
100
AcDbEntity
  8
0
  6
Continuous
 62
     7
100
AcDbLine
 10
288.1875626317
 20
254.9589817912
 30
0.0
 11
288.1875626317
 21
267.6589817912
 31
0.0
  0
LINE
  5
25F
330
1F
100
AcDbEntity
  8
0
  6
Continuous
 62
     7
100
AcDbLine
 10
288.1875626317
 20
242.2589817912
 30
0.0
 11
288.1875626317
 21
229.5589817912
 31
0.0
  0
LINE
  5
260
330
1F
100
AcDbEntity
  8
0
  6
Continuous
 62
     7
100
AcDbLine
 10
291.5675626317
 20
242.2589817912
 30
0.0
 11
291.5675626317
 21
254.9589817912
 31
0.0
  0
LINE
  5
261
330
1F
100
AcDbEntity
  8
0
  6
Continuous
 62
     7
100
AcDbLine
 10
291.5675626317
 20
229.5589817912
 30
0.0
 11
291.5675626317
 21
216.8589817912
 31
0.0
  0
LINE
  5
262
330
1F
100
AcDbEntity
  8
0
  6
Continuous
 62
     7
100
AcDbLine
 10
288.1875626317
 20
216.8589817912
 30
0.0
 11
288.1875626317
 21
204.1589817912
 31
0.0
  0
LINE
  5
263
330
1F
100
AcDbEntity
  8
0
  6
Continuous
 62
     7
100
AcDbLine
 10
288.1875626317
 20
191.4589817912
 30
0.0
 11
288.1875626317
 21
178.7589817912
 31
0.0
  0
LINE
  5
264
330
1F
100
AcDbEntity
  8
0
  6
Continuous
 62
     7
100
AcDbLine
 10
291.5675626317
 20
204.1589817912
 30
0.0
 11
291.5675626317
 21
191.4589817912
 31
0.0
  0
LINE
  5
265
330
1F
100
AcDbEntity
  8
0
  6
Continuous
 62
     7
100
AcDbLine
 10
291.5675626317
 20
178.7589817912
 30
0.0
 11
291.5675626317
 21
166.0589817912
 31
0.0
  0
LINE
  5
266
330
1F
100
AcDbEntity
  8
0
  6
Continuous
 62
     7
100
AcDbLine
 10
288.1875626317
 20
166.0589817912
 30
0.0
 11
288.1875626317
 21
153.3589817912
 31
0.0
  0
LINE
  5
267
330
1F
100
AcDbEntity
  8
0
  6
Continuous
 62
     7
100
AcDbLine
 10
291.5675626317
 20
153.3589817912
 30
0.0
 11
291.5675626317
 21
140.6589817912
 31
0.0
  0
LINE
  5
268
330
1F
100
AcDbEntity
  8
0
  6
Continuous
 62
     7
100
AcDbLine
 10
288.1875626317
 20
140.6589817912
 30
0.0
 11
288.1875626317
 21
127.9589817912
 31
0.0
  0
LINE
  5
269
330
1F
100
AcDbEntity
  8
0
  6
Continuous
 62
     7
100
AcDbLine
 10
291.5675626317
 20
127.9589817912
 30
0.0
 11
291.5675626317
 21
115.2589817912
 31
0.0
  0
LINE
  5
26A
330
1F
100
AcDbEntity
  8
0
  6
Continuous
 62
     7
100
AcDbLine
 10
288.1875626317
 20
115.2589817912
 30
0.0
 11
288.1875626317
 21
102.5589817912
 31
0.0
  0
LINE
  5
26B
330
1F
100
AcDbEntity
  8
0
  6
Continuous
 62
     7
100
AcDbLine
 10
288.1875626317
 20
102.5589817912
 30
0.0
 11
306.8375626317
 21
102.5589817912
 31
0.0
  0
LINE
  5
26C
330
1F
100
AcDbEntity
  8
0
  6
Continuous
 62
     7
100
AcDbLine
 10
288.1875626317
 20
267.6589817912
 30
0.0
 11
338.1875626317
 21
267.6589817912
 31
0.0
  0
LINE
  5
272
330
1F
100
AcDbEntity
  8
0
  6
Continuous
 62
     7
100
AcDbLine
 10
227.5119260187
 20
255.369733
 30
0.0
 11
227.5119260187
 21
268.069733
 31
0.0
  0
LINE
  5
273
330
1F
100
AcDbEntity
  8
0
  6
Continuous
 62
     7
100
AcDbLine
 10
230.8919260187
 20
255.369733
 30
0.0
 11
230.8919260187
 21
242.669733
 31
0.0
  0
LINE
  5
274
330
1F
100
AcDbEntity
  8
0
  6
Continuous
 62
     7
100
AcDbLine
 10
227.5119260187
 20
242.669733
 30
0.0
 11
227.5119260187
 21
229.969733
 31
0.0
  0
LINE
  5
275
330
1F
100
AcDbEntity
  8
0
  6
Continuous
 62
     7
100
AcDbLine
 10
230.8919260187
 20
229.969733
 30
0.0
 11
230.8919260187
 21
217.269733
 31
0.0
  0
LINE
  5
276
330
1F
100
AcDbEntity
  8
0
  6
Continuous
 62
     7
100
AcDbLine
 10
227.5119260187
 20
217.269733
 30
0.0
 11
227.5119260187
 21
204.569733
 31
0.0
  0
LINE
  5
277
330
1F
100
AcDbEntity
  8
0
  6
Continuous
 62
     7
100
AcDbLine
 10
230.8919260187
 20
204.569733
 30
0.0
 11
230.8919260187
 21
191.869733
 31
0.0
  0
LINE
  5
278
330
1F
100
AcDbEntity
  8
0
  6
Continuous
 62
     7
100
AcDbLine
 10
227.5119260187
 20
191.869733
 30
0.0
 11
227.5119260187
 21
179.169733
 31
0.0
  0
LINE
  5
279
330
1F
100
AcDbEntity
  8
0
  6
Continuous
 62
     7
100
AcDbLine
 10
230.8919260187
 20
179.169733
 30
0.0
 11
230.8919260187
 21
166.469733
 31
0.0
  0
LINE
  5
27A
330
1F
100
AcDbEntity
  8
0
  6
Continuous
 62
     7
100
AcDbLine
 10
227.5119260187
 20
166.469733
 30
0.0
 11
227.5119260187
 21
153.769733
 31
0.0
  0
LINE
  5
27B
330
1F
100
AcDbEntity
  8
0
  6
Continuous
 62
     7
100
AcDbLine
 10
230.8919260187
 20
153.769733
 30
0.0
 11
230.8919260187
 21
141.069733
 31
0.0
  0
LINE
  5
27C
330
1F
100
AcDbEntity
  8
0
  6
Continuous
 62
     7
100
AcDbLine
 10
227.5119260187
 20
141.069733
 30
0.0
 11
227.5119260187
 21
128.369733
 31
0.0
  0
LINE
  5
27D
330
1F
100
AcDbEntity
  8
0
  6
Continuous
 62
     7
100
AcDbLine
 10
230.8919260187
 20
128.369733
 30
0.0
 11
230.8919260187
 21
115.669733
 31
0.0
  0
LINE
  5
27E
330
1F
100
AcDbEntity
  8
0
  6
Continuous
 62
     7
100
AcDbLine
 10
227.5119260187
 20
115.669733
 30
0.0
 11
227.5119260187
 21
102.969733
 31
0.0
  0
LINE
  5
27F
330
1F
100
AcDbEntity
  8
0
  6
Continuous
 62
     7
100
AcDbLine
 10
227.5119260187
 20
102.969733
 30
0.0
 11
221.5701260187
 21
102.969733
 31
0.0
  0
LINE
  5
280
330
1F
100
AcDbEntity
  8
0
  6
Continuous
 62
     7
100
AcDbLine
 10
152.1283260187
 20
268.069733
 30
0.0
 11
227.5119260187
 21
268.069733
 31
0.0
  0
LINE
  5
282
330
1F
100
AcDbEntity
  8
0
  6
Continuous
 62
     7
100
AcDbLine
 10
111.8553644347
 20
268.069733
 30
0.0
 11
36.4717644347
 21
268.069733
 31
0.0
  0
LINE
  5
283
330
1F
100
AcDbEntity
  8
0
  6
Continuous
 62
     7
100
AcDbLine
 10
36.4717644347
 20
102.969733
 30
0.0
 11
42.4135644347
 21
102.969733
 31
0.0
  0
LINE
  5
284
330
1F
100
AcDbEntity
  8
0
  6
Continuous
 62
     7
100
AcDbLine
 10
36.4717644347
 20
115.669733
 30
0.0
 11
36.4717644347
 21
102.969733
 31
0.0
  0
LINE
  5
285
330
1F
100
AcDbEntity
  8
0
  6
Continuous
 62
     7
100
AcDbLine
 10
33.0917644347
 20
128.369733
 30
0.0
 11
33.0917644347
 21
115.669733
 31
0.0
  0
LINE
  5
286
330
1F
100
AcDbEntity
  8
0
  6
Continuous
 62
     7
100
AcDbLine
 10
36.4717644347
 20
141.069733
 30
0.0
 11
36.4717644347
 21
128.369733
 31
0.0
  0
LINE
  5
287
330
1F
100
AcDbEntity
  8
0
  6
Continuous
 62
     7
100
AcDbLine
 10
33.0917644347
 20
153.769733
 30
0.0
 11
33.0917644347
 21
141.069733
 31
0.0
  0
LINE
  5
288
330
1F
100
AcDbEntity
  8
0
  6
Continuous
 62
     7
100
AcDbLine
 10
36.4717644347
 20
166.469733
 30
0.0
 11
36.4717644347
 21
153.769733
 31
0.0
  0
LINE
  5
289
330
1F
100
AcDbEntity
  8
0
  6
Continuous
 62
     7
100
AcDbLine
 10
33.0917644347
 20
179.169733
 30
0.0
 11
33.0917644347
 21
166.469733
 31
0.0
  0
LINE
  5
28A
330
1F
100
AcDbEntity
  8
0
  6
Continuous
 62
     7
100
AcDbLine
 10
36.4717644347
 20
191.869733
 30
0.0
 11
36.4717644347
 21
179.169733
 31
0.0
  0
LINE
  5
28B
330
1F
100
AcDbEntity
  8
0
  6
Continuous
 62
     7
100
AcDbLine
 10
33.0917644347
 20
204.569733
 30
0.0
 11
33.0917644347
 21
191.869733
 31
0.0
  0
LINE
  5
28C
330
1F
100
AcDbEntity
  8
0
  6
Continuous
 62
     7
100
AcDbLine
 10
36.4717644347
 20
217.269733
 30
0.0
 11
36.4717644347
 21
204.569733
 31
0.0
  0
LINE
  5
28D
330
1F
100
AcDbEntity
  8
0
  6
Continuous
 62
     7
100
AcDbLine
 10
33.0917644347
 20
229.969733
 30
0.0
 11
33.0917644347
 21
217.269733
 31
0.0
  0
LINE
  5
28E
330
1F
100
AcDbEntity
  8
0
  6
Continuous
 62
     7
100
AcDbLine
 10
36.4717644347
 20
242.669733
 30
0.0
 11
36.4717644347
 21
229.969733
 31
0.0
  0
LINE
  5
28F
330
1F
100
AcDbEntity
  8
0
  6
Continuous
 62
     7
100
AcDbLine
 10
33.0917644347
 20
255.369733
 30
0.0
 11
33.0917644347
 21
242.669733
 31
0.0
  0
LINE
  5
290
330
1F
100
AcDbEntity
  8
0
  6
Continuous
 62
     7
100
AcDbLine
 10
36.4717644347
 20
255.369733
 30
0.0
 11
36.4717644347
 21
268.069733
 31
0.0
  0
LINE
  5
291
330
1F
100
AcDbEntity
  8
0
  6
Continuous
 62
     7
100
AcDbLine
 10
67.8135644347
 20
102.969733
 30
0.0
 11
55.1135644347
 21
102.969733
 31
0.0
  0
LINE
  5
292
330
1F
100
AcDbEntity
  8
0
  6
Continuous
 62
     7
100
AcDbLine
 10
93.2135644347
 20
102.969733
 30
0.0
 11
80.5135644347
 21
102.969733
 31
0.0
  0
LINE
  5
293
330
1F
100
AcDbEntity
  8
0
  6
Continuous
 62
     7
100
AcDbLine
 10
93.2135644347
 20
106.349733
 30
0.0
 11
93.2135644347
 21
102.969733
 31
0.0
  0
LINE
  5
294
330
1F
100
AcDbEntity
  8
0
  6
Continuous
 62
     7
100
AcDbLine
 10
105.9135644347
 20
106.349733
 30
0.0
 11
93.2135644347
 21
106.349733
 31
0.0
  0
LINE
  5
295
330
1F
100
AcDbEntity
  8
0
  6
Continuous
 62
     7
100
AcDbLine
 10
105.9135644347
 20
102.969733
 30
0.0
 11
105.9135644347
 21
106.349733
 31
0.0
  0
LINE
  5
296
330
1F
100
AcDbEntity
  8
0
  6
Continuous
 62
     7
100
AcDbLine
 10
67.8135644347
 20
106.349733
 30
0.0
 11
67.8135644347
 21
102.969733
 31
0.0
  0
LINE
  5
297
330
1F
100
AcDbEntity
  8
0
  6
Continuous
 62
     7
100
AcDbLine
 10
80.5135644347
 20
106.349733
 30
0.0
 11
67.8135644347
 21
106.349733
 31
0.0
  0
LINE
  5
298
330
1F
100
AcDbEntity
  8
0
  6
Continuous
 62
     7
100
AcDbLine
 10
80.5135644347
 20
102.969733
 30
0.0
 11
80.5135644347
 21
106.349733
 31
0.0
  0
LINE
  5
299
330
1F
100
AcDbEntity
  8
0
  6
Continuous
 62
     7
100
AcDbLine
 10
42.4135644347
 20
106.349733
 30
0.0
 11
42.4135644347
 21
102.969733
 31
0.0
  0
LINE
  5
29A
330
1F
100
AcDbEntity
  8
0
  6
Continuous
 62
     7
100
AcDbLine
 10
55.1135644347
 20
106.349733
 30
0.0
 11
42.4135644347
 21
106.349733
 31
0.0
  0
LINE
  5
29B
330
1F
100
AcDbEntity
  8
0
  6
Continuous
 62
     7
100
AcDbLine
 10
55.1135644347
 20
102.969733
 30
0.0
 11
55.1135644347
 21
106.349733
 31
0.0
  0
LINE
  5
29C
330
1F
100
AcDbEntity
  8
0
  6
Continuous
 62
     7
100
AcDbLine
 10
36.4717644347
 20
255.369733
 30
0.0
 11
33.0917644347
 21
255.369733
 31
0.0
  0
LINE
  5
29D
330
1F
100
AcDbEntity
  8
0
  6
Continuous
 62
     7
100
AcDbLine
 10
33.0917644347
 20
242.669733
 30
0.0
 11
36.4717644347
 21
242.669733
 31
0.0
  0
LINE
  5
29E
330
1F
100
AcDbEntity
  8
0
  6
Continuous
 62
     7
100
AcDbLine
 10
36.4717644347
 20
229.969733
 30
0.0
 11
33.0917644347
 21
229.969733
 31
0.0
  0
LINE
  5
29F
330
1F
100
AcDbEntity
  8
0
  6
Continuous
 62
     7
100
AcDbLine
 10
33.0917644347
 20
217.269733
 30
0.0
 11
36.4717644347
 21
217.269733
 31
0.0
  0
LINE
  5
2A0
330
1F
100
AcDbEntity
  8
0
  6
Continuous
 62
     7
100
AcDbLine
 10
36.4717644347
 20
204.569733
 30
0.0
 11
33.0917644347
 21
204.569733
 31
0.0
  0
LINE
  5
2A1
330
1F
100
AcDbEntity
  8
0
  6
Continuous
 62
     7
100
AcDbLine
 10
33.0917644347
 20
191.869733
 30
0.0
 11
36.4717644347
 21
191.869733
 31
0.0
  0
LINE
  5
2A2
330
1F
100
AcDbEntity
  8
0
  6
Continuous
 62
     7
100
AcDbLine
 10
36.4717644347
 20
179.169733
 30
0.0
 11
33.0917644347
 21
179.169733
 31
0.0
  0
LINE
  5
2A3
330
1F
100
AcDbEntity
  8
0
  6
Continuous
 62
     7
100
AcDbLine
 10
33.0917644347
 20
166.469733
 30
0.0
 11
36.4717644347
 21
166.469733
 31
0.0
  0
LINE
  5
2A4
330
1F
100
AcDbEntity
  8
0
  6
Continuous
 62
     7
100
AcDbLine
 10
36.4717644347
 20
153.769733
 30
0.0
 11
33.0917644347
 21
153.769733
 31
0.0
  0
LINE
  5
2A5
330
1F
100
AcDbEntity
  8
0
  6
Continuous
 62
     7
100
AcDbLine
 10
33.0917644347
 20
141.069733
 30
0.0
 11
36.4717644347
 21
141.069733
 31
0.0
  0
LINE
  5
2A6
330
1F
100
AcDbEntity
  8
0
  6
Continuous
 62
     7
100
AcDbLine
 10
36.4717644347
 20
128.369733
 30
0.0
 11
33.0917644347
 21
128.369733
 31
0.0
  0
LINE
  5
2A7
330
1F
100
AcDbEntity
  8
0
  6
Continuous
 62
     7
100
AcDbLine
 10
33.0917644347
 20
115.669733
 30
0.0
 11
36.4717644347
 21
115.669733
 31
0.0
  0
LINE
  5
2A8
330
1F
100
AcDbEntity
  8
0
  6
Continuous
 62
     7
100
AcDbLine
 10
111.8553644347
 20
102.969733
 30
0.0
 11
105.9135644347
 21
102.969733
 31
0.0
  0
LINE
  5
2A9
330
1F
100
AcDbEntity
  8
0
  6
Continuous
 62
     7
100
AcDbLine
 10
111.8553644347
 20
115.669733
 30
0.0
 11
111.8553644347
 21
102.969733
 31
0.0
  0
LINE
  5
2AA
330
1F
100
AcDbEntity
  8
0
  6
Continuous
 62
     7
100
AcDbLine
 10
115.2353644347
 20
115.669733
 30
0.0
 11
111.8553644347
 21
115.669733
 31
0.0
  0
LINE
  5
2AB
330
1F
100
AcDbEntity
  8
0
  6
Continuous
 62
     7
100
AcDbLine
 10
115.2353644347
 20
128.369733
 30
0.0
 11
115.2353644347
 21
115.669733
 31
0.0
  0
LINE
  5
2AC
330
1F
100
AcDbEntity
  8
0
  6
Continuous
 62
     7
100
AcDbLine
 10
111.8553644347
 20
128.369733
 30
0.0
 11
115.2353644347
 21
128.369733
 31
0.0
  0
LINE
  5
2AD
330
1F
100
AcDbEntity
  8
0
  6
Continuous
 62
     7
100
AcDbLine
 10
111.8553644347
 20
141.069733
 30
0.0
 11
111.8553644347
 21
128.369733
 31
0.0
  0
LINE
  5
2AE
330
1F
100
AcDbEntity
  8
0
  6
Continuous
 62
     7
100
AcDbLine
 10
115.2353644347
 20
141.069733
 30
0.0
 11
111.8553644347
 21
141.069733
 31
0.0
  0
LINE
  5
2AF
330
1F
100
AcDbEntity
  8
0
  6
Continuous
 62
     7
100
AcDbLine
 10
115.2353644347
 20
153.769733
 30
0.0
 11
115.2353644347
 21
141.069733
 31
0.0
  0
LINE
  5
2B0
330
1F
100
AcDbEntity
  8
0
  6
Continuous
 62
     7
100
AcDbLine
 10
111.8553644347
 20
153.769733
 30
0.0
 11
115.2353644347
 21
153.769733
 31
0.0
  0
LINE
  5
2B1
330
1F
100
AcDbEntity
  8
0
  6
Continuous
 62
     7
100
AcDbLine
 10
111.8553644347
 20
166.469733
 30
0.0
 11
111.8553644347
 21
153.769733
 31
0.0
  0
LINE
  5
2B2
330
1F
100
AcDbEntity
  8
0
  6
Continuous
 62
     7
100
AcDbLine
 10
115.2353644347
 20
166.469733
 30
0.0
 11
111.8553644347
 21
166.469733
 31
0.0
  0
LINE
  5
2B3
330
1F
100
AcDbEntity
  8
0
  6
Continuous
 62
     7
100
AcDbLine
 10
115.2353644347
 20
179.169733
 30
0.0
 11
115.2353644347
 21
166.469733
 31
0.0
  0
LINE
  5
2B4
330
1F
100
AcDbEntity
  8
0
  6
Continuous
 62
     7
100
AcDbLine
 10
111.8553644347
 20
179.169733
 30
0.0
 11
115.2353644347
 21
179.169733
 31
0.0
  0
LINE
  5
2B5
330
1F
100
AcDbEntity
  8
0
  6
Continuous
 62
     7
100
AcDbLine
 10
111.8553644347
 20
191.869733
 30
0.0
 11
111.8553644347
 21
179.169733
 31
0.0
  0
LINE
  5
2B6
330
1F
100
AcDbEntity
  8
0
  6
Continuous
 62
     7
100
AcDbLine
 10
115.2353644347
 20
191.869733
 30
0.0
 11
111.8553644347
 21
191.869733
 31
0.0
  0
LINE
  5
2B7
330
1F
100
AcDbEntity
  8
0
  6
Continuous
 62
     7
100
AcDbLine
 10
115.2353644347
 20
204.569733
 30
0.0
 11
115.2353644347
 21
191.869733
 31
0.0
  0
LINE
  5
2B8
330
1F
100
AcDbEntity
  8
0
  6
Continuous
 62
     7
100
AcDbLine
 10
111.8553644347
 20
204.569733
 30
0.0
 11
115.2353644347
 21
204.569733
 31
0.0
  0
LINE
  5
2B9
330
1F
100
AcDbEntity
  8
0
  6
Continuous
 62
     7
100
AcDbLine
 10
111.8553644347
 20
217.269733
 30
0.0
 11
111.8553644347
 21
204.569733
 31
0.0
  0
LINE
  5
2BA
330
1F
100
AcDbEntity
  8
0
  6
Continuous
 62
     7
100
AcDbLine
 10
115.2353644347
 20
217.269733
 30
0.0
 11
111.8553644347
 21
217.269733
 31
0.0
  0
LINE
  5
2BB
330
1F
100
AcDbEntity
  8
0
  6
Continuous
 62
     7
100
AcDbLine
 10
115.2353644347
 20
229.969733
 30
0.0
 11
115.2353644347
 21
217.269733
 31
0.0
  0
LINE
  5
2BC
330
1F
100
AcDbEntity
  8
0
  6
Continuous
 62
     7
100
AcDbLine
 10
111.8553644347
 20
229.969733
 30
0.0
 11
115.2353644347
 21
229.969733
 31
0.0
  0
LINE
  5
2BD
330
1F
100
AcDbEntity
  8
0
  6
Continuous
 62
     7
100
AcDbLine
 10
111.8553644347
 20
242.669733
 30
0.0
 11
111.8553644347
 21
229.969733
 31
0.0
  0
LINE
  5
2BE
330
1F
100
AcDbEntity
  8
0
  6
Continuous
 62
     7
100
AcDbLine
 10
115.2353644347
 20
242.669733
 30
0.0
 11
111.8553644347
 21
242.669733
 31
0.0
  0
LINE
  5
2BF
330
1F
100
AcDbEntity
  8
0
  6
Continuous
 62
     7
100
AcDbLine
 10
115.2353644347
 20
255.369733
 30
0.0
 11
115.2353644347
 21
242.669733
 31
0.0
  0
LINE
  5
2C0
330
1F
100
AcDbEntity
  8
0
  6
Continuous
 62
     7
100
AcDbLine
 10
111.8553644347
 20
255.369733
 30
0.0
 11
115.2353644347
 21
255.369733
 31
0.0
  0
LINE
  5
2C1
330
1F
100
AcDbEntity
  8
0
  6
Continuous
 62
     7
100
AcDbLine
 10
111.8553644347
 20
268.069733
 30
0.0
 11
111.8553644347
 21
255.369733
 31
0.0
  0
LINE
  5
2C9
330
1F
100
AcDbEntity
  8
0
  6
Continuous
 62
     7
100
AcDbLine
 10
433.0993006761
 20
267.6589817912
 30
0.0
 11
383.0993006761
 21
267.6589817912
 31
0.0
  0
LINE
  5
2CA
330
1F
100
AcDbEntity
  8
0
  6
Continuous
 62
     7
100
AcDbLine
 10
433.0993006761
 20
102.5589817912
 30
0.0
 11
414.4493006761
 21
102.5589817912
 31
0.0
  0
LINE
  5
2CB
330
1F
100
AcDbEntity
  8
0
  6
Continuous
 62
     7
100
AcDbLine
 10
433.0993006761
 20
115.2589817912
 30
0.0
 11
433.0993006761
 21
102.5589817912
 31
0.0
  0
LINE
  5
2CC
330
1F
100
AcDbEntity
  8
0
  6
Continuous
 62
     7
100
AcDbLine
 10
429.7193006761
 20
127.9589817912
 30
0.0
 11
429.7193006761
 21
115.2589817912
 31
0.0
  0
LINE
  5
2CD
330
1F
100
AcDbEntity
  8
0
  6
Continuous
 62
     7
100
AcDbLine
 10
433.0993006761
 20
140.6589817912
 30
0.0
 11
433.0993006761
 21
127.9589817912
 31
0.0
  0
LINE
  5
2CE
330
1F
100
AcDbEntity
  8
0
  6
Continuous
 62
     7
100
AcDbLine
 10
429.7193006761
 20
153.3589817912
 30
0.0
 11
429.7193006761
 21
140.6589817912
 31
0.0
  0
LINE
  5
2CF
330
1F
100
AcDbEntity
  8
0
  6
Continuous
 62
     7
100
AcDbLine
 10
433.0993006761
 20
166.0589817912
 30
0.0
 11
433.0993006761
 21
153.3589817912
 31
0.0
  0
LINE
  5
2D0
330
1F
100
AcDbEntity
  8
0
  6
Continuous
 62
     7
100
AcDbLine
 10
429.7193006761
 20
178.7589817912
 30
0.0
 11
429.7193006761
 21
166.0589817912
 31
0.0
  0
LINE
  5
2D1
330
1F
100
AcDbEntity
  8
0
  6
Continuous
 62
     7
100
AcDbLine
 10
429.7193006761
 20
204.1589817912
 30
0.0
 11
429.7193006761
 21
191.4589817912
 31
0.0
  0
LINE
  5
2D2
330
1F
100
AcDbEntity
  8
0
  6
Continuous
 62
     7
100
AcDbLine
 10
433.0993006761
 20
191.4589817912
 30
0.0
 11
433.0993006761
 21
178.7589817912
 31
0.0
  0
LINE
  5
2D3
330
1F
100
AcDbEntity
  8
0
  6
Continuous
 62
     7
100
AcDbLine
 10
433.0993006761
 20
216.8589817912
 30
0.0
 11
433.0993006761
 21
204.1589817912
 31
0.0
  0
LINE
  5
2D4
330
1F
100
AcDbEntity
  8
0
  6
Continuous
 62
     7
100
AcDbLine
 10
429.7193006761
 20
229.5589817912
 30
0.0
 11
429.7193006761
 21
216.8589817912
 31
0.0
  0
LINE
  5
2D5
330
1F
100
AcDbEntity
  8
0
  6
Continuous
 62
     7
100
AcDbLine
 10
429.7193006761
 20
242.2589817912
 30
0.0
 11
429.7193006761
 21
254.9589817912
 31
0.0
  0
LINE
  5
2D6
330
1F
100
AcDbEntity
  8
0
  6
Continuous
 62
     7
100
AcDbLine
 10
433.0993006761
 20
242.2589817912
 30
0.0
 11
433.0993006761
 21
229.5589817912
 31
0.0
  0
LINE
  5
2D7
330
1F
100
AcDbEntity
  8
0
  6
Continuous
 62
     7
100
AcDbLine
 10
433.0993006761
 20
254.9589817912
 30
0.0
 11
433.0993006761
 21
267.6589817912
 31
0.0
  0
LINE
  5
2D8
330
1F
100
AcDbEntity
  8
0
  6
Continuous
 62
     7
100
AcDbLine
 10
401.7493006761
 20
102.5589817912
 30
0.0
 11
383.0993006761
 21
102.5589817912
 31
0.0
  0
LINE
  5
2D9
330
1F
100
AcDbEntity
  8
0
  6
Continuous
 62
     7
100
AcDbLine
 10
414.4493006761
 20
105.9389817912
 30
0.0
 11
414.4493006761
 21
102.5589817912
 31
0.0
  0
LINE
  5
2DA
330
1F
100
AcDbEntity
  8
0
  6
Continuous
 62
     7
100
AcDbLine
 10
401.7493006761
 20
105.9389817912
 30
0.0
 11
414.4493006761
 21
105.9389817912
 31
0.0
  0
LINE
  5
2DB
330
1F
100
AcDbEntity
  8
0
  6
Continuous
 62
     7
100
AcDbLine
 10
401.7493006761
 20
102.5589817912
 30
0.0
 11
401.7493006761
 21
105.9389817912
 31
0.0
  0
LINE
  5
2DC
330
1F
100
AcDbEntity
  8
0
  6
Continuous
 62
     7
100
AcDbLine
 10
394.8013214524
 20
127.5056187534
 30
0.0
 11
396.3882630588
 21
130.2843984024
 31
0.0
  0
LINE
  5
2DD
330
1F
100
AcDbEntity
  8
0
  6
Continuous
 62
     7
100
AcDbLine
 10
392.0225418034
 20
129.0925603599
 30
0.0
 11
394.8013214524
 21
127.5056187534
 31
0.0
  0
LINE
  5
2DE
330
1F
100
AcDbEntity
  8
0
  6
Continuous
 62
     7
100
AcDbLine
 10
393.6094834099
 20
131.8713400089
 30
0.0
 11
392.0225418034
 21
129.0925603599
 31
0.0
  0
LINE
  5
2DF
330
1F
100
AcDbEntity
  8
0
  6
Continuous
 62
     7
100
AcDbLine
 10
396.3882630588
 20
130.2843984024
 30
0.0
 11
393.6094834099
 21
131.8713400089
 31
0.0
  0
LINE
  5
2E0
330
1F
100
AcDbEntity
  8
0
  6
Continuous
 62
     7
100
AcDbLine
 10
400.3588807503
 20
124.3317355404
 30
0.0
 11
401.9458223568
 21
127.1105151894
 31
0.0
  0
LINE
  5
2E1
330
1F
100
AcDbEntity
  8
0
  6
Continuous
 62
     7
100
AcDbLine
 10
397.5801011014
 20
125.9186771469
 30
0.0
 11
400.3588807503
 21
124.3317355404
 31
0.0
  0
LINE
  5
2E2
330
1F
100
AcDbEntity
  8
0
  6
Continuous
 62
     7
100
AcDbLine
 10
399.1670427078
 20
128.6974567959
 30
0.0
 11
397.5801011014
 21
125.9186771469
 31
0.0
  0
LINE
  5
2E3
330
1F
100
AcDbEntity
  8
0
  6
Continuous
 62
     7
100
AcDbLine
 10
401.9458223568
 20
127.1105151894
 30
0.0
 11
399.1670427078
 21
128.6974567959
 31
0.0
  0
LINE
  5
2E4
330
1F
100
AcDbEntity
  8
0
  6
Continuous
 62
     7
100
AcDbLine
 10
405.9164400483
 20
121.1578523275
 30
0.0
 11
407.5033816548
 21
123.9366319765
 31
0.0
  0
LINE
  5
2E5
330
1F
100
AcDbEntity
  8
0
  6
Continuous
 62
     7
100
AcDbLine
 10
403.1376603993
 20
122.744793934
 30
0.0
 11
405.9164400483
 21
121.1578523275
 31
0.0
  0
LINE
  5
2E6
330
1F
100
AcDbEntity
  8
0
  6
Continuous
 62
     7
100
AcDbLine
 10
404.7246020058
 20
125.523573583
 30
0.0
 11
403.1376603993
 21
122.744793934
 31
0.0
  0
LINE
  5
2E7
330
1F
100
AcDbEntity
  8
0
  6
Continuous
 62
     7
100
AcDbLine
 10
407.5033816548
 20
123.9366319765
 30
0.0
 11
404.7246020058
 21
125.523573583
 31
0.0
  0
LINE
  5
2E8
330
1F
100
AcDbEntity
  8
0
  6
Continuous
 62
     7
100
AcDbLine
 10
411.4739993463
 20
117.9839691145
 30
0.0
 11
413.0609409528
 21
120.7627487635
 31
0.0
  0
LINE
  5
2E9
330
1F
100
AcDbEntity
  8
0
  6
Continuous
 62
     7
100
AcDbLine
 10
408.6952196973
 20
119.570910721
 30
0.0
 11
411.4739993463
 21
117.9839691145
 31
0.0
  0
LINE
  5
2EA
330
1F
100
AcDbEntity
  8
0
  6
Continuous
 62
     7
100
AcDbLine
 10
410.2821613038
 20
122.34969037
 30
0.0
 11
408.6952196973
 21
119.570910721
 31
0.0
  0
LINE
  5
2EB
330
1F
100
AcDbEntity
  8
0
  6
Continuous
 62
     7
100
AcDbLine
 10
413.0609409528
 20
120.7627487635
 30
0.0
 11
410.2821613038
 21
122.34969037
 31
0.0
  0
LINE
  5
2EC
330
1F
100
AcDbEntity
  8
0
  6
Continuous
 62
     7
100
AcDbLine
 10
417.0315586443
 20
114.8100859016
 30
0.0
 11
418.6185002508
 21
117.5888655506
 31
0.0
  0
LINE
  5
2ED
330
1F
100
AcDbEntity
  8
0
  6
Continuous
 62
     7
100
AcDbLine
 10
414.2527789953
 20
116.3970275081
 30
0.0
 11
417.0315586443
 21
114.8100859016
 31
0.0
  0
LINE
  5
2EE
330
1F
100
AcDbEntity
  8
0
  6
Continuous
 62
     7
100
AcDbLine
 10
415.8397206018
 20
119.1758071571
 30
0.0
 11
414.2527789953
 21
116.3970275081
 31
0.0
  0
LINE
  5
2EF
330
1F
100
AcDbEntity
  8
0
  6
Continuous
 62
     7
100
AcDbLine
 10
418.6185002508
 20
117.5888655506
 30
0.0
 11
415.8397206018
 21
119.1758071571
 31
0.0
  0
LINE
  5
2F0
330
1F
100
AcDbEntity
  8
0
  6
Continuous
 62
     7
100
AcDbLine
 10
396.203570494
 20
186.4726667564
 30
0.0
 11
394.9789370713
 21
183.5162714885
 31
0.0
  0
LINE
  5
2F1
330
1F
100
AcDbEntity
  8
0
  6
Continuous
 62
     7
100
AcDbLine
 10
393.247175226
 20
187.6973001791
 30
0.0
 11
396.203570494
 21
186.4726667564
 31
0.0
  0
LINE
  5
2F2
330
1F
100
AcDbEntity
  8
0
  6
Continuous
 62
     7
100
AcDbLine
 10
392.0225418034
 20
184.7409049112
 30
0.0
 11
393.247175226
 21
187.6973001791
 31
0.0
  0
LINE
  5
2F3
330
1F
100
AcDbEntity
  8
0
  6
Continuous
 62
     7
100
AcDbLine
 10
394.9789370713
 20
183.5162714885
 30
0.0
 11
392.0225418034
 21
184.7409049112
 31
0.0
  0
LINE
  5
2F4
330
1F
100
AcDbEntity
  8
0
  6
Continuous
 62
     7
100
AcDbLine
 10
402.1163610298
 20
184.0233999111
 30
0.0
 11
400.8917276071
 21
181.0670046431
 31
0.0
  0
LINE
  5
2F5
330
1F
100
AcDbEntity
  8
0
  6
Continuous
 62
     7
100
AcDbLine
 10
399.1599657619
 20
185.2480333337
 30
0.0
 11
402.1163610298
 21
184.0233999111
 31
0.0
  0
LINE
  5
2F6
330
1F
100
AcDbEntity
  8
0
  6
Continuous
 62
     7
100
AcDbLine
 10
397.9353323392
 20
182.2916380658
 30
0.0
 11
399.1599657619
 21
185.2480333337
 31
0.0
  0
LINE
  5
2F7
330
1F
100
AcDbEntity
  8
0
  6
Continuous
 62
     7
100
AcDbLine
 10
400.8917276071
 20
181.0670046431
 30
0.0
 11
397.9353323392
 21
182.2916380658
 31
0.0
  0
LINE
  5
2F8
330
1F
100
AcDbEntity
  8
0
  6
Continuous
 62
     7
100
AcDbLine
 10
408.0291515656
 20
181.5741330657
 30
0.0
 11
406.8045181429
 21
178.6177377978
 31
0.0
  0
LINE
  5
2F9
330
1F
100
AcDbEntity
  8
0
  6
Continuous
 62
     7
100
AcDbLine
 10
405.0727562977
 20
182.7987664884
 30
0.0
 11
408.0291515656
 21
181.5741330657
 31
0.0
  0
LINE
  5
2FA
330
1F
100
AcDbEntity
  8
0
  6
Continuous
 62
     7
100
AcDbLine
 10
403.848122875
 20
179.8423712205
 30
0.0
 11
405.0727562977
 21
182.7987664884
 31
0.0
  0
LINE
  5
2FB
330
1F
100
AcDbEntity
  8
0
  6
Continuous
 62
     7
100
AcDbLine
 10
406.8045181429
 20
178.6177377978
 30
0.0
 11
403.848122875
 21
179.8423712205
 31
0.0
  0
LINE
  5
2FC
330
1F
100
AcDbEntity
  8
0
  6
Continuous
 62
     7
100
AcDbLine
 10
396.203570494
 20
242.9716964878
 30
0.0
 11
394.9789370713
 21
240.0153012199
 31
0.0
  0
LINE
  5
2FD
330
1F
100
AcDbEntity
  8
0
  6
Continuous
 62
     7
100
AcDbLine
 10
393.247175226
 20
244.1963299105
 30
0.0
 11
396.203570494
 21
242.9716964878
 31
0.0
  0
LINE
  5
2FE
330
1F
100
AcDbEntity
  8
0
  6
Continuous
 62
     7
100
AcDbLine
 10
392.0225418034
 20
241.2399346426
 30
0.0
 11
393.247175226
 21
244.1963299105
 31
0.0
  0
LINE
  5
2FF
330
1F
100
AcDbEntity
  8
0
  6
Continuous
 62
     7
100
AcDbLine
 10
394.9789370713
 20
240.0153012199
 30
0.0
 11
392.0225418034
 21
241.2399346426
 31
0.0
  0
LINE
  5
300
330
1F
100
AcDbEntity
  8
0
  6
Continuous
 62
     7
100
AcDbLine
 10
402.1163610298
 20
240.5224296425
 30
0.0
 11
400.8917276071
 21
237.5660343746
 31
0.0
  0
LINE
  5
301
330
1F
100
AcDbEntity
  8
0
  6
Continuous
 62
     7
100
AcDbLine
 10
399.1599657619
 20
241.7470630652
 30
0.0
 11
402.1163610298
 21
240.5224296425
 31
0.0
  0
LINE
  5
302
330
1F
100
AcDbEntity
  8
0
  6
Continuous
 62
     7
100
AcDbLine
 10
397.9353323392
 20
238.7906677973
 30
0.0
 11
399.1599657619
 21
241.7470630652
 31
0.0
  0
LINE
  5
303
330
1F
100
AcDbEntity
  8
0
  6
Continuous
 62
     7
100
AcDbLine
 10
400.8917276071
 20
237.5660343746
 30
0.0
 11
397.9353323392
 21
238.7906677973
 31
0.0
  0
LINE
  5
304
330
1F
100
AcDbEntity
  8
0
  6
Continuous
 62
     7
100
AcDbLine
 10
408.0291515656
 20
238.0731627972
 30
0.0
 11
406.8045181429
 21
235.1167675293
 31
0.0
  0
LINE
  5
305
330
1F
100
AcDbEntity
  8
0
  6
Continuous
 62
     7
100
AcDbLine
 10
405.0727562977
 20
239.2977962198
 30
0.0
 11
408.0291515656
 21
238.0731627972
 31
0.0
  0
LINE
  5
306
330
1F
100
AcDbEntity
  8
0
  6
Continuous
 62
     7
100
AcDbLine
 10
403.848122875
 20
236.3414009519
 30
0.0
 11
405.0727562977
 21
239.2977962198
 31
0.0
  0
LINE
  5
307
330
1F
100
AcDbEntity
  8
0
  6
Continuous
 62
     7
100
AcDbLine
 10
406.8045181429
 20
235.1167675293
 30
0.0
 11
403.848122875
 21
236.3414009519
 31
0.0
  0
LINE
  5
308
330
1F
100
AcDbEntity
  8
0
  6
Continuous
 62
     7
100
AcDbLine
 10
419.9950308582
 20
158.2231518907
 30
0.0
 11
421.2196642808
 21
155.2667566228
 31
0.0
  0
LINE
  5
309
330
1F
100
AcDbEntity
  8
0
  6
Continuous
 62
     7
100
AcDbLine
 10
422.9514261261
 20
159.4477853133
 30
0.0
 11
419.9950308582
 21
158.2231518907
 31
0.0
  0
LINE
  5
30A
330
1F
100
AcDbEntity
  8
0
  6
Continuous
 62
     7
100
AcDbLine
 10
424.1760595487
 20
156.4913900454
 30
0.0
 11
422.9514261261
 21
159.4477853133
 31
0.0
  0
LINE
  5
30B
330
1F
100
AcDbEntity
  8
0
  6
Continuous
 62
     7
100
AcDbLine
 10
421.2196642808
 20
155.2667566228
 30
0.0
 11
424.1760595487
 21
156.4913900454
 31
0.0
  0
LINE
  5
30C
330
1F
100
AcDbEntity
  8
0
  6
Continuous
 62
     7
100
AcDbLine
 10
414.0822403224
 20
155.7738850453
 30
0.0
 11
415.306873745
 21
152.8174897774
 31
0.0
  0
LINE
  5
30D
330
1F
100
AcDbEntity
  8
0
  6
Continuous
 62
     7
100
AcDbLine
 10
417.0386355903
 20
156.998518468
 30
0.0
 11
414.0822403224
 21
155.7738850453
 31
0.0
  0
LINE
  5
30E
330
1F
100
AcDbEntity
  8
0
  6
Continuous
 62
     7
100
AcDbLine
 10
418.2632690129
 20
154.0421232001
 30
0.0
 11
417.0386355903
 21
156.998518468
 31
0.0
  0
LINE
  5
30F
330
1F
100
AcDbEntity
  8
0
  6
Continuous
 62
     7
100
AcDbLine
 10
415.306873745
 20
152.8174897774
 30
0.0
 11
418.2632690129
 21
154.0421232001
 31
0.0
  0
LINE
  5
310
330
1F
100
AcDbEntity
  8
0
  6
Continuous
 62
     7
100
AcDbLine
 10
408.1694497866
 20
153.3246182
 30
0.0
 11
409.3940832092
 21
150.3682229321
 31
0.0
  0
LINE
  5
311
330
1F
100
AcDbEntity
  8
0
  6
Continuous
 62
     7
100
AcDbLine
 10
411.1258450545
 20
154.5492516227
 30
0.0
 11
408.1694497866
 21
153.3246182
 31
0.0
  0
LINE
  5
312
330
1F
100
AcDbEntity
  8
0
  6
Continuous
 62
     7
100
AcDbLine
 10
412.3504784771
 20
151.5928563548
 30
0.0
 11
411.1258450545
 21
154.5492516227
 31
0.0
  0
LINE
  5
313
330
1F
100
AcDbEntity
  8
0
  6
Continuous
 62
     7
100
AcDbLine
 10
409.3940832092
 20
150.3682229321
 30
0.0
 11
412.3504784771
 21
151.5928563548
 31
0.0
  0
LINE
  5
314
330
1F
100
AcDbEntity
  8
0
  6
Continuous
 62
     7
100
AcDbLine
 10
419.9950308582
 20
214.7221816221
 30
0.0
 11
421.2196642808
 21
211.7657863542
 31
0.0
  0
LINE
  5
315
330
1F
100
AcDbEntity
  8
0
  6
Continuous
 62
     7
100
AcDbLine
 10
422.9514261261
 20
215.9468150448
 30
0.0
 11
419.9950308582
 21
214.7221816221
 31
0.0
  0
LINE
  5
316
330
1F
100
AcDbEntity
  8
0
  6
Continuous
 62
     7
100
AcDbLine
 10
424.1760595487
 20
212.9904197769
 30
0.0
 11
422.9514261261
 21
215.9468150448
 31
0.0
  0
LINE
  5
317
330
1F
100
AcDbEntity
  8
0
  6
Continuous
 62
     7
100
AcDbLine
 10
421.2196642808
 20
211.7657863542
 30
0.0
 11
424.1760595487
 21
212.9904197769
 31
0.0
  0
LINE
  5
318
330
1F
100
AcDbEntity
  8
0
  6
Continuous
 62
     7
100
AcDbLine
 10
414.0822403224
 20
212.2729147768
 30
0.0
 11
415.306873745
 21
209.3165195089
 31
0.0
  0
LINE
  5
319
330
1F
100
AcDbEntity
  8
0
  6
Continuous
 62
     7
100
AcDbLine
 10
417.0386355903
 20
213.4975481994
 30
0.0
 11
414.0822403224
 21
212.2729147768
 31
0.0
  0
LINE
  5
31A
330
1F
100
AcDbEntity
  8
0
  6
Continuous
 62
     7
100
AcDbLine
 10
418.2632690129
 20
210.5411529315
 30
0.0
 11
417.0386355903
 21
213.4975481994
 31
0.0
  0
LINE
  5
31B
330
1F
100
AcDbEntity
  8
0
  6
Continuous
 62
     7
100
AcDbLine
 10
415.306873745
 20
209.3165195089
 30
0.0
 11
418.2632690129
 21
210.5411529315
 31
0.0
  0
LINE
  5
31C
330
1F
100
AcDbEntity
  8
0
  6
Continuous
 62
     7
100
AcDbLine
 10
408.1694497866
 20
209.8236479314
 30
0.0
 11
409.3940832092
 21
206.8672526635
 31
0.0
  0
LINE
  5
31D
330
1F
100
AcDbEntity
  8
0
  6
Continuous
 62
     7
100
AcDbLine
 10
411.1258450545
 20
211.0482813541
 30
0.0
 11
408.1694497866
 21
209.8236479314
 31
0.0
  0
LINE
  5
31E
330
1F
100
AcDbEntity
  8
0
  6
Continuous
 62
     7
100
AcDbLine
 10
412.3504784771
 20
208.0918860862
 30
0.0
 11
411.1258450545
 21
211.0482813541
 31
0.0
  0
LINE
  5
31F
330
1F
100
AcDbEntity
  8
0
  6
Continuous
 62
     7
100
AcDbLine
 10
409.3940832092
 20
206.8672526635
 30
0.0
 11
412.3504784771
 21
208.0918860862
 31
0.0
  0
LINE
  5
320
330
1F
100
AcDbEntity
  8
0
  6
Continuous
 62
     7
100
AcDbLine
 10
416.9804599396
 20
260.197463686
 30
0.0
 11
416.6198250975
 21
263.3770772649
 31
0.0
  0
LINE
  5
321
330
1F
100
AcDbEntity
  8
0
  6
Continuous
 62
     7
100
AcDbLine
 10
420.1600735184
 20
260.5580985282
 30
0.0
 11
416.9804599396
 21
260.197463686
 31
0.0
  0
LINE
  5
322
330
1F
100
AcDbEntity
  8
0
  6
Continuous
 62
     7
100
AcDbLine
 10
419.7994386763
 20
263.737712107
 30
0.0
 11
420.1600735184
 21
260.5580985282
 31
0.0
  0
LINE
  5
323
330
1F
100
AcDbEntity
  8
0
  6
Continuous
 62
     7
100
AcDbLine
 10
416.6198250975
 20
263.3770772649
 30
0.0
 11
419.7994386763
 21
263.737712107
 31
0.0
  0
LINE
  5
324
330
1F
100
AcDbEntity
  8
0
  6
Continuous
 62
     7
100
AcDbLine
 10
422.5891179423
 20
111.6362026886
 30
0.0
 11
424.1760595487
 21
114.4149823376
 31
0.0
  0
LINE
  5
325
330
1F
100
AcDbEntity
  8
0
  6
Continuous
 62
     7
100
AcDbLine
 10
419.8103382933
 20
113.2231442951
 30
0.0
 11
422.5891179423
 21
111.6362026886
 31
0.0
  0
LINE
  5
326
330
1F
100
AcDbEntity
  8
0
  6
Continuous
 62
     7
100
AcDbLine
 10
421.3972798998
 20
116.0019239441
 30
0.0
 11
419.8103382933
 21
113.2231442951
 31
0.0
  0
LINE
  5
327
330
1F
100
AcDbEntity
  8
0
  6
Continuous
 62
     7
100
AcDbLine
 10
424.1760595487
 20
114.4149823376
 30
0.0
 11
421.3972798998
 21
116.0019239441
 31
0.0
  0
LINE
  5
328
330
1F
100
AcDbEntity
  8
0
  6
Continuous
 62
     7
100
AcDbLine
 10
423.3396870972
 20
260.9187333703
 30
0.0
 11
422.9790522551
 21
264.0983469491
 31
0.0
  0
LINE
  5
329
330
1F
100
AcDbEntity
  8
0
  6
Continuous
 62
     7
100
AcDbLine
 10
426.5193006761
 20
261.2793682124
 30
0.0
 11
423.3396870972
 21
260.9187333703
 31
0.0
  0
LINE
  5
32A
330
1F
100
AcDbEntity
  8
0
  6
Continuous
 62
     7
100
AcDbLine
 10
426.1586658339
 20
264.4589817912
 30
0.0
 11
426.5193006761
 21
261.2793682124
 31
0.0
  0
LINE
  5
32B
330
1F
100
AcDbEntity
  8
0
  6
Continuous
 62
     7
100
AcDbLine
 10
422.9790522551
 20
264.0983469491
 30
0.0
 11
426.1586658339
 21
264.4589817912
 31
0.0
  0
LINE
  5
32C
330
1F
100
AcDbEntity
  8
0
  6
Continuous
 62
     7
100
AcDbLine
 10
433.0993006761
 20
254.9589817912
 30
0.0
 11
429.7193006761
 21
254.9589817912
 31
0.0
  0
LINE
  5
32D
330
1F
100
AcDbEntity
  8
0
  6
Continuous
 62
     7
100
AcDbLine
 10
429.7193006761
 20
242.2589817912
 30
0.0
 11
433.0993006761
 21
242.2589817912
 31
0.0
  0
LINE
  5
32E
330
1F
100
AcDbEntity
  8
0
  6
Continuous
 62
     7
100
AcDbLine
 10
433.0993006761
 20
229.5589817912
 30
0.0
 11
429.7193006761
 21
229.5589817912
 31
0.0
  0
LINE
  5
32F
330
1F
100
AcDbEntity
  8
0
  6
Continuous
 62
     7
100
AcDbLine
 10
429.7193006761
 20
216.8589817912
 30
0.0
 11
433.0993006761
 21
216.8589817912
 31
0.0
  0
LINE
  5
330
330
1F
100
AcDbEntity
  8
0
  6
Continuous
 62
     7
100
AcDbLine
 10
433.0993006761
 20
204.1589817912
 30
0.0
 11
429.7193006761
 21
204.1589817912
 31
0.0
  0
LINE
  5
331
330
1F
100
AcDbEntity
  8
0
  6
Continuous
 62
     7
100
AcDbLine
 10
429.7193006761
 20
191.4589817912
 30
0.0
 11
433.0993006761
 21
191.4589817912
 31
0.0
  0
LINE
  5
332
330
1F
100
AcDbEntity
  8
0
  6
Continuous
 62
     7
100
AcDbLine
 10
433.0993006761
 20
178.7589817912
 30
0.0
 11
429.7193006761
 21
178.7589817912
 31
0.0
  0
LINE
  5
333
330
1F
100
AcDbEntity
  8
0
  6
Continuous
 62
     7
100
AcDbLine
 10
429.7193006761
 20
166.0589817912
 30
0.0
 11
433.0993006761
 21
166.0589817912
 31
0.0
  0
LINE
  5
334
330
1F
100
AcDbEntity
  8
0
  6
Continuous
 62
     7
100
AcDbLine
 10
433.0993006761
 20
153.3589817912
 30
0.0
 11
429.7193006761
 21
153.3589817912
 31
0.0
  0
LINE
  5
335
330
1F
100
AcDbEntity
  8
0
  6
Continuous
 62
     7
100
AcDbLine
 10
429.7193006761
 20
140.6589817912
 30
0.0
 11
433.0993006761
 21
140.6589817912
 31
0.0
  0
LINE
  5
336
330
1F
100
AcDbEntity
  8
0
  6
Continuous
 62
     7
100
AcDbLine
 10
433.0993006761
 20
127.9589817912
 30
0.0
 11
429.7193006761
 21
127.9589817912
 31
0.0
  0
LINE
  5
337
330
1F
100
AcDbEntity
  8
0
  6
Continuous
 62
     7
100
AcDbLine
 10
429.7193006761
 20
115.2589817912
 30
0.0
 11
433.0993006761
 21
115.2589817912
 31
0.0
  0
LINE
  5
338
330
1F
100
AcDbEntity
  8
0
  6
Continuous
 62
     7
100
AcDbLine
 10
383.0993006761
 20
115.2589817912
 30
0.0
 11
383.0993006761
 21
102.5589817912
 31
0.0
  0
LINE
  5
339
330
1F
100
AcDbEntity
  8
0
  6
Continuous
 62
     7
100
AcDbLine
 10
386.4793006761
 20
115.2589817912
 30
0.0
 11
383.0993006761
 21
115.2589817912
 31
0.0
  0
LINE
  5
33A
330
1F
100
AcDbEntity
  8
0
  6
Continuous
 62
     7
100
AcDbLine
 10
386.4793006761
 20
127.9589817912
 30
0.0
 11
386.4793006761
 21
115.2589817912
 31
0.0
  0
LINE
  5
33B
330
1F
100
AcDbEntity
  8
0
  6
Continuous
 62
     7
100
AcDbLine
 10
383.0993006761
 20
127.9589817912
 30
0.0
 11
386.4793006761
 21
127.9589817912
 31
0.0
  0
LINE
  5
33C
330
1F
100
AcDbEntity
  8
0
  6
Continuous
 62
     7
100
AcDbLine
 10
383.0993006761
 20
140.6589817912
 30
0.0
 11
383.0993006761
 21
127.9589817912
 31
0.0
  0
LINE
  5
33D
330
1F
100
AcDbEntity
  8
0
  6
Continuous
 62
     7
100
AcDbLine
 10
386.4793006761
 20
140.6589817912
 30
0.0
 11
383.0993006761
 21
140.6589817912
 31
0.0
  0
LINE
  5
33E
330
1F
100
AcDbEntity
  8
0
  6
Continuous
 62
     7
100
AcDbLine
 10
386.4793006761
 20
153.3589817912
 30
0.0
 11
386.4793006761
 21
140.6589817912
 31
0.0
  0
LINE
  5
33F
330
1F
100
AcDbEntity
  8
0
  6
Continuous
 62
     7
100
AcDbLine
 10
383.0993006761
 20
153.3589817912
 30
0.0
 11
386.4793006761
 21
153.3589817912
 31
0.0
  0
LINE
  5
340
330
1F
100
AcDbEntity
  8
0
  6
Continuous
 62
     7
100
AcDbLine
 10
383.0993006761
 20
166.0589817912
 30
0.0
 11
383.0993006761
 21
153.3589817912
 31
0.0
  0
LINE
  5
341
330
1F
100
AcDbEntity
  8
0
  6
Continuous
 62
     7
100
AcDbLine
 10
386.4793006761
 20
166.0589817912
 30
0.0
 11
383.0993006761
 21
166.0589817912
 31
0.0
  0
LINE
  5
342
330
1F
100
AcDbEntity
  8
0
  6
Continuous
 62
     7
100
AcDbLine
 10
386.4793006761
 20
178.7589817912
 30
0.0
 11
386.4793006761
 21
166.0589817912
 31
0.0
  0
LINE
  5
343
330
1F
100
AcDbEntity
  8
0
  6
Continuous
 62
     7
100
AcDbLine
 10
383.0993006761
 20
178.7589817912
 30
0.0
 11
386.4793006761
 21
178.7589817912
 31
0.0
  0
LINE
  5
344
330
1F
100
AcDbEntity
  8
0
  6
Continuous
 62
     7
100
AcDbLine
 10
383.0993006761
 20
191.4589817912
 30
0.0
 11
383.0993006761
 21
178.7589817912
 31
0.0
  0
LINE
  5
345
330
1F
100
AcDbEntity
  8
0
  6
Continuous
 62
     7
100
AcDbLine
 10
386.4793006761
 20
191.4589817912
 30
0.0
 11
383.0993006761
 21
191.4589817912
 31
0.0
  0
LINE
  5
346
330
1F
100
AcDbEntity
  8
0
  6
Continuous
 62
     7
100
AcDbLine
 10
386.4793006761
 20
204.1589817912
 30
0.0
 11
386.4793006761
 21
191.4589817912
 31
0.0
  0
LINE
  5
347
330
1F
100
AcDbEntity
  8
0
  6
Continuous
 62
     7
100
AcDbLine
 10
383.0993006761
 20
204.1589817912
 30
0.0
 11
386.4793006761
 21
204.1589817912
 31
0.0
  0
LINE
  5
348
330
1F
100
AcDbEntity
  8
0
  6
Continuous
 62
     7
100
AcDbLine
 10
383.0993006761
 20
216.8589817912
 30
0.0
 11
383.0993006761
 21
204.1589817912
 31
0.0
  0
LINE
  5
349
330
1F
100
AcDbEntity
  8
0
  6
Continuous
 62
     7
100
AcDbLine
 10
386.4793006761
 20
216.8589817912
 30
0.0
 11
383.0993006761
 21
216.8589817912
 31
0.0
  0
LINE
  5
34A
330
1F
100
AcDbEntity
  8
0
  6
Continuous
 62
     7
100
AcDbLine
 10
386.4793006761
 20
229.5589817912
 30
0.0
 11
386.4793006761
 21
216.8589817912
 31
0.0
  0
LINE
  5
34B
330
1F
100
AcDbEntity
  8
0
  6
Continuous
 62
     7
100
AcDbLine
 10
383.0993006761
 20
229.5589817912
 30
0.0
 11
386.4793006761
 21
229.5589817912
 31
0.0
  0
LINE
  5
34C
330
1F
100
AcDbEntity
  8
0
  6
Continuous
 62
     7
100
AcDbLine
 10
383.0993006761
 20
242.2589817912
 30
0.0
 11
383.0993006761
 21
229.5589817912
 31
0.0
  0
LINE
  5
34D
330
1F
100
AcDbEntity
  8
0
  6
Continuous
 62
     7
100
AcDbLine
 10
386.4793006761
 20
242.2589817912
 30
0.0
 11
383.0993006761
 21
242.2589817912
 31
0.0
  0
LINE
  5
34E
330
1F
100
AcDbEntity
  8
0
  6
Continuous
 62
     7
100
AcDbLine
 10
386.4793006761
 20
254.9589817912
 30
0.0
 11
386.4793006761
 21
242.2589817912
 31
0.0
  0
LINE
  5
34F
330
1F
100
AcDbEntity
  8
0
  6
Continuous
 62
     7
100
AcDbLine
 10
383.0993006761
 20
254.9589817912
 30
0.0
 11
386.4793006761
 21
254.9589817912
 31
0.0
  0
LINE
  5
350
330
1F
100
AcDbEntity
  8
0
  6
Continuous
 62
     7
100
AcDbLine
 10
383.0993006761
 20
267.6589817912
 30
0.0
 11
383.0993006761
 21
254.9589817912
 31
0.0
  0
LWPOLYLINE
  5
351
330
1F
100
AcDbEntity
  8
0
  6
Continuous
 62
     7
100
AcDbPolyline
 90
        3
 70
   128
 43
0.0
 10
223.0236530304
 20
109.729733
 10
223.8753265605
 20
110.1307856074
 10
224.1319260187
 20
110.837943
  0
LWPOLYLINE
  5
352
330
1F
100
AcDbEntity
  8
0
  6
Continuous
 62
     7
100
AcDbPolyline
 90
        3
 70
   128
 43
0.0
 10
224.1318225861
 20
149.6707641409
 10
223.730880516
 20
150.5223740352
 10
223.0237160187
 20
150.7789741409
  0
LWPOLYLINE
  5
353
330
1F
100
AcDbEntity
  8
0
  6
Continuous
 62
     7
100
AcDbPolyline
 90
        3
 70
   128
 43
0.0
 10
156.6164493561
 20
150.7789741409
 10
155.7649190438
 20
150.3779294879
 10
155.5083260187
 20
149.6707641409
  0
LWPOLYLINE
  5
354
330
1F
100
AcDbEntity
  8
0
  6
Continuous
 62
     7
100
AcDbPolyline
 90
        3
 70
   128
 43
0.0
 10
155.5082798004
 20
110.837943
 10
155.9093779547
 20
109.9863251512
 10
156.6165360187
 20
109.729733
  0
LWPOLYLINE
  5
355
330
1F
100
AcDbEntity
  8
0
  6
Continuous
 62
     7
100
AcDbPolyline
 90
        3
 70
   128
 43
0.0
 10
829.2798995972
 20
174.9022198214
 10
829.8880668375
 20
173.6228735041
 10
830.9504918688
 20
173.2318178214
  0
LWPOLYLINE
  5
356
330
1F
100
AcDbEntity
  8
0
  6
Continuous
 62
     7
100
AcDbPolyline
 90
        3
 70
   128
 43
0.0
 10
916.9130325317
 20
173.2318178214
 10
918.1926100083
 20
173.8397776075
 10
918.5836888688
 20
174.9022198214
  0
ENDSEC
  0
SECTION
  2
OBJECTS
  0
DICTIONARY
  5
C
330
0
100
AcDbDictionary
281
     1
  3
ACAD_GROUP
350
D
  3
ACAD_LAYOUT
350
1A
  3
ACAD_MLINESTYLE
350
17
  3
ACAD_PLOTSETTINGS
350
19
  3
ACAD_PLOTSTYLENAME
350
E
  3
ACAD_SCALELIST
350
47
  0
DICTIONARY
  5
D
102
{ACAD_REACTORS
330
C
102
}
330
C
100
AcDbDictionary
281
     1
  0
DICTIONARY
  5
1A
102
{ACAD_REACTORS
330
C
102
}
330
C
100
AcDbDictionary
281
     1
  3
Layout1
350
1E
  3
Layout2
350
26
  3
Model
350
22
  0
DICTIONARY
  5
17
102
{ACAD_REACTORS
330
C
102
}
330
C
100
AcDbDictionary
281
     1
  3
Standard
350
18
  0
DICTIONARY
  5
19
102
{ACAD_REACTORS
330
C
102
}
330
C
100
AcDbDictionary
281
     1
  0
ACDBDICTIONARYWDFLT
  5
E
102
{ACAD_REACTORS
330
C
102
}
330
C
100
AcDbDictionary
281
     1
  3
Normal
350
F
100
AcDbDictionaryWithDefault
340
F
  0
DICTIONARY
  5
47
102
{ACAD_REACTORS
330
C
102
}
330
C
100
AcDbDictionary
281
     1
  3
A0
350
48
  3
A1
350
49
  3
A2
350
4A
  3
A3
350
4B
  3
A4
350
4C
  3
A5
350
4D
  3
A6
350
4E
  3
A7
350
4F
  3
A8
350
50
  3
A9
350
51
  3
B0
350
52
  3
B1
350
53
  3
B2
350
54
  3
B3
350
55
  3
B4
350
56
  3
B5
350
57
  3
B6
350
58
  3
B7
350
59
  3
B8
350
5A
  3
B9
350
5B
  3
C0
350
5C
  3
C1
350
5D
  3
C2
350
5E
  3
C3
350
5F
  3
C4
350
60
  3
C5
350
61
  3
C6
350
62
  3
C7
350
63
  3
C8
350
64
  3
C9
350
65
  3
D0
350
66
  3
D1
350
67
  3
D2
350
68
  0
LAYOUT
  5
1E
102
{ACAD_REACTORS
330
1A
102
}
330
1A
100
AcDbPlotSettings
  1

  2
none_device
  4

  6

 40
0.0
 41
0.0
 42
0.0
 43
0.0
 44
0.0
 45
0.0
 46
0.0
 47
0.0
 48
0.0
 49
0.0
140
0.0
141
0.0
142
1.0
143
1.0
 70
   688
 72
     1
 73
     0
 74
     5
  7

 75
    16
147
1.0
148
0.0
149
0.0
100
AcDbLayout
  1
Layout1
 70
     1
 71
     1
 10
0.0
 20
0.0
 11
420.0
 21
297.0
 12
0.0
 22
0.0
 32
0.0
 14
1.0000000000E+20
 24
1.0000000000E+20
 34
1.0000000000E+20
 15
-1.0000000000E+20
 25
-1.0000000000E+20
 35
-1.0000000000E+20
146
0.0
 13
0.0
 23
0.0
 33
0.0
 16
1.0
 26
0.0
 36
0.0
 17
0.0
 27
1.0
 37
0.0
 76
     0
330
1B
  0
LAYOUT
  5
26
102
{ACAD_REACTORS
330
1A
102
}
330
1A
100
AcDbPlotSettings
  1

  2
none_device
  4

  6

 40
0.0
 41
0.0
 42
0.0
 43
0.0
 44
0.0
 45
0.0
 46
0.0
 47
0.0
 48
0.0
 49
0.0
140
0.0
141
0.0
142
1.0
143
1.0
 70
   688
 72
     1
 73
     0
 74
     5
  7

 75
    16
147
1.0
148
0.0
149
0.0
100
AcDbLayout
  1
Layout2
 70
     1
 71
     2
 10
0.0
 20
0.0
 11
0.0
 21
0.0
 12
0.0
 22
0.0
 32
0.0
 14
0.0
 24
0.0
 34
0.0
 15
0.0
 25
0.0
 35
0.0
146
0.0
 13
0.0
 23
0.0
 33
0.0
 16
1.0
 26
0.0
 36
0.0
 17
0.0
 27
1.0
 37
0.0
 76
     0
330
23
  0
LAYOUT
  5
22
102
{ACAD_REACTORS
330
1A
102
}
330
1A
100
AcDbPlotSettings
  1

  2
none_device
  4
ANSI_A_(11.00_x_8.50_Inches)
  6

 40
6.35
 41
19.05
 42
6.35000508
 43
19.05000254
 44
279.4
 45
215.9
 46
-13.7245569195
 47
54.1216282857
 48
0.0
 49
0.0
140
0.0
141
0.0
142
0.010435732
143
1.0
 70
  1696
 72
     0
 73
     0
 74
     0
  7

 75
     0
147
0.0179189148
148
-1300.4909072572
149
0.0
100
AcDbLayout
  1
Model
 70
     1
 71
     0
 10
0.0
 20
0.0
 11
420.0
 21
297.0
 12
0.0
 22
0.0
 32
0.0
 14
33.0917644347
 24
-172.5766121065
 34
0.0
 15
1076.6218159183
 25
434.9879459186
 35
0.0
146
0.0
 13
0.0
 23
0.0
 33
0.0
 16
1.0
 26
0.0
 36
0.0
 17
0.0
 27
1.0
 37
0.0
 76
     0
330
1F
331
29
  0
MLINESTYLE
  5
18
102
{ACAD_REACTORS
330
17
102
}
330
17
100
AcDbMlineStyle
  2
Standard
 70
     0
  3

 62
   256
 51
90.0
 52
90.0
 71
     2
 49
0.5
 62
   256
  6
BYLAYER
 49
-0.5
 62
   256
  6
BYLAYER
  0
ACDBPLACEHOLDER
  5
F
102
{ACAD_REACTORS
330
E
102
}
330
E
  0
SCALE
  5
48
102
{ACAD_REACTORS
330
47
102
}
330
47
100
AcDbScale
 70
     0
300
1:1
140
1.0
141
1.0
290
     1
  0
SCALE
  5
49
102
{ACAD_REACTORS
330
47
102
}
330
47
100
AcDbScale
 70
     0
300
1:2
140
1.0
141
2.0
290
     0
  0
SCALE
  5
4A
102
{ACAD_REACTORS
330
47
102
}
330
47
100
AcDbScale
 70
     0
300
1:4
140
1.0
141
4.0
290
     0
  0
SCALE
  5
4B
102
{ACAD_REACTORS
330
47
102
}
330
47
100
AcDbScale
 70
     0
300
1:5
140
1.0
141
5.0
290
     0
  0
SCALE
  5
4C
102
{ACAD_REACTORS
330
47
102
}
330
47
100
AcDbScale
 70
     0
300
1:8
140
1.0
141
8.0
290
     0
  0
SCALE
  5
4D
102
{ACAD_REACTORS
330
47
102
}
330
47
100
AcDbScale
 70
     0
300
1:10
140
1.0
141
10.0
290
     0
  0
SCALE
  5
4E
102
{ACAD_REACTORS
330
47
102
}
330
47
100
AcDbScale
 70
     0
300
1:16
140
1.0
141
16.0
290
     0
  0
SCALE
  5
4F
102
{ACAD_REACTORS
330
47
102
}
330
47
100
AcDbScale
 70
     0
300
1:20
140
1.0
141
20.0
290
     0
  0
SCALE
  5
50
102
{ACAD_REACTORS
330
47
102
}
330
47
100
AcDbScale
 70
     0
300
1:30
140
1.0
141
30.0
290
     0
  0
SCALE
  5
51
102
{ACAD_REACTORS
330
47
102
}
330
47
100
AcDbScale
 70
     0
300
1:40
140
1.0
141
40.0
290
     0
  0
SCALE
  5
52
102
{ACAD_REACTORS
330
47
102
}
330
47
100
AcDbScale
 70
     0
300
1:50
140
1.0
141
50.0
290
     0
  0
SCALE
  5
53
102
{ACAD_REACTORS
330
47
102
}
330
47
100
AcDbScale
 70
     0
300
1:100
140
1.0
141
100.0
290
     0
  0
SCALE
  5
54
102
{ACAD_REACTORS
330
47
102
}
330
47
100
AcDbScale
 70
     0
300
2:1
140
2.0
141
1.0
290
     0
  0
SCALE
  5
55
102
{ACAD_REACTORS
330
47
102
}
330
47
100
AcDbScale
 70
     0
300
4:1
140
4.0
141
1.0
290
     0
  0
SCALE
  5
56
102
{ACAD_REACTORS
330
47
102
}
330
47
100
AcDbScale
 70
     0
300
8:1
140
8.0
141
1.0
290
     0
  0
SCALE
  5
57
102
{ACAD_REACTORS
330
47
102
}
330
47
100
AcDbScale
 70
     0
300
10:1
140
10.0
141
1.0
290
     0
  0
SCALE
  5
58
102
{ACAD_REACTORS
330
47
102
}
330
47
100
AcDbScale
 70
     0
300
100:1
140
100.0
141
1.0
290
     0
  0
SCALE
  5
59
102
{ACAD_REACTORS
330
47
102
}
330
47
100
AcDbScale
 70
     0
300
1/128" = 1'-0"
140
0.0078125
141
12.0
290
     0
  0
SCALE
  5
5A
102
{ACAD_REACTORS
330
47
102
}
330
47
100
AcDbScale
 70
     0
300
1/64" = 1'-0"
140
0.015625
141
12.0
290
     0
  0
SCALE
  5
5B
102
{ACAD_REACTORS
330
47
102
}
330
47
100
AcDbScale
 70
     0
300
1/32" = 1'-0"
140
0.03125
141
12.0
290
     0
  0
SCALE
  5
5C
102
{ACAD_REACTORS
330
47
102
}
330
47
100
AcDbScale
 70
     0
300
1/16" = 1'-0"
140
0.0625
141
12.0
290
     0
  0
SCALE
  5
5D
102
{ACAD_REACTORS
330
47
102
}
330
47
100
AcDbScale
 70
     0
300
3/32" = 1'-0"
140
0.09375
141
12.0
290
     0
  0
SCALE
  5
5E
102
{ACAD_REACTORS
330
47
102
}
330
47
100
AcDbScale
 70
     0
300
1/8" = 1'-0"
140
0.125
141
12.0
290
     0
  0
SCALE
  5
5F
102
{ACAD_REACTORS
330
47
102
}
330
47
100
AcDbScale
 70
     0
300
3/16" = 1'-0"
140
0.1875
141
12.0
290
     0
  0
SCALE
  5
60
102
{ACAD_REACTORS
330
47
102
}
330
47
100
AcDbScale
 70
     0
300
1/4" = 1'-0"
140
0.25
141
12.0
290
     0
  0
SCALE
  5
61
102
{ACAD_REACTORS
330
47
102
}
330
47
100
AcDbScale
 70
     0
300
3/8" = 1'-0"
140
0.375
141
12.0
290
     0
  0
SCALE
  5
62
102
{ACAD_REACTORS
330
47
102
}
330
47
100
AcDbScale
 70
     0
300
1/2" = 1'-0"
140
0.5
141
12.0
290
     0
  0
SCALE
  5
63
102
{ACAD_REACTORS
330
47
102
}
330
47
100
AcDbScale
 70
     0
300
3/4" = 1'-0"
140
0.75
141
12.0
290
     0
  0
SCALE
  5
64
102
{ACAD_REACTORS
330
47
102
}
330
47
100
AcDbScale
 70
     0
300
1" = 1'-0"
140
1.0
141
12.0
290
     0
  0
SCALE
  5
65
102
{ACAD_REACTORS
330
47
102
}
330
47
100
AcDbScale
 70
     0
300
1-1/2" = 1'-0"
140
1.5
141
12.0
290
     0
  0
SCALE
  5
66
102
{ACAD_REACTORS
330
47
102
}
330
47
100
AcDbScale
 70
     0
300
3" = 1'-0"
140
3.0
141
12.0
290
     0
  0
SCALE
  5
67
102
{ACAD_REACTORS
330
47
102
}
330
47
100
AcDbScale
 70
     0
300
6" = 1'-0"
140
6.0
141
12.0
290
     0
  0
SCALE
  5
68
102
{ACAD_REACTORS
330
47
102
}
330
47
100
AcDbScale
 70
     0
300
1'-0" = 1'-0"
140
12.0
141
12.0
290
     0
  0
ENDSEC
  0
EOF
