  0
SECTION
  2
HEADER
  9
$ACADVER
  1
AC1015
  9
$ACADMAINTVER
 70
     6
  9
$DWGCODEPAGE
  3
UNDEFINED
  9
$INSBASE
 10
0.0
 20
0.0
 30
0.0
  9
$EXTMIN
 10
251.3744528
 20
1025.111869
 30
0.0
  9
$EXTMAX
 10
11783.2278409541
 20
6808.971142
 30
0.0
  9
$LIMMIN
 10
0.0
 20
0.0
  9
$LIMMAX
 10
420.0
 20
297.0
  9
$ORTHOMODE
 70
     0
  9
$REGENMODE
 70
     1
  9
$FILLMODE
 70
     1
  9
$QTEXTMODE
 70
     0
  9
$MIRRTEXT
 70
     1
  9
$LTSCALE
 40
1.0
  9
$ATTMODE
 70
     1
  9
$TEXTSIZE
 40
3.5
  9
$TRACEWID
 40
1.0
  9
$TEXTSTYLE
  7
Standard
  9
$CLAYER
  8
0
  9
$CELTYPE
  6
ByLayer
  9
$CECOLOR
 62
   256
  9
$CELTSCALE
 40
1.0
  9
$DISPSILH
 70
     0
  9
$DIMSCALE
 40
1.0
  9
$DIMASZ
 40
3.302
  9
$DIMEXO
 40
1.0
  9
$DIMDLI
 40
3.75
  9
$DIMRND
 40
0.0
  9
$DIMDLE
 40
0.0
  9
$DIMEXE
 40
1.0
  9
$DIMTP
 40
0.0
  9
$DIMTM
 40
0.0
  9
$DIMTXT
 40
3.5
  9
$DIMCEN
 40
2.5
  9
$DIMTSZ
 40
0.0
  9
$DIMTOL
 70
     0
  9
$DIMLIM
 70
     0
  9
$DIMTIH
 70
     1
  9
$DIMTOH
 70
     1
  9
$DIMSE1
 70
     0
  9
$DIMSE2
 70
     0
  9
$DIMTAD
 70
     1
  9
$DIMZIN
 70
     0
  9
$DIMBLK
  1

  9
$DIMASO
 70
     1
  9
$DIMSHO
 70
     1
  9
$DIMPOST
  1

  9
$DIMAPOST
  1

  9
$DIMALT
 70
     0
  9
$DIMALTD
 70
     3
  9
$DIMALTF
 40
0.0393700787
  9
$DIMLFAC
 40
1.0
  9
$DIMTOFL
 70
     1
  9
$DIMTVP
 40
0.0
  9
$DIMTIX
 70
     0
  9
$DIMSOXD
 70
     0
  9
$DIMSAH
 70
     0
  9
$DIMBLK1
  1

  9
$DIMBLK2
  1

  9
$DIMSTYLE
  2
ISO-25
  9
$DIMCLRD
 70
     0
  9
$DIMCLRE
 70
     0
  9
$DIMCLRT
 70
     0
  9
$DIMTFAC
 40
1.0
  9
$DIMGAP
 40
1.524
  9
$DIMJUST
 70
     0
  9
$DIMSD1
 70
     0
  9
$DIMSD2
 70
     0
  9
$DIMTOLJ
 70
     0
  9
$DIMTZIN
 70
     0
  9
$DIMALTZ
 70
     0
  9
$DIMALTTZ
 70
     0
  9
$DIMUPT
 70
     0
  9
$DIMDEC
 70
     2
  9
$DIMTDEC
 70
     2
  9
$DIMALTU
 70
     2
  9
$DIMALTTD
 70
     3
  9
$DIMTXSTY
  7
Standard
  9
$DIMAUNIT
 70
     0
  9
$DIMADEC
 70
     2
  9
$DIMALTRND
 40
0.0
  9
$DIMAZIN
 70
     0
  9
$DIMDSEP
 70
    44
  9
$DIMATFIT
 70
     3
  9
$DIMFRAC
 70
     0
  9
$DIMLDRBLK
  1

  9
$DIMLUNIT
 70
     2
  9
$DIMLWD
 70
    -2
  9
$DIMLWE
 70
    -2
  9
$DIMTMOVE
 70
     0
  9
$LUNITS
 70
     2
  9
$LUPREC
 70
     2
  9
$SKETCHINC
 40
1.0
  9
$FILLETRAD
 40
10.0
  9
$AUNITS
 70
     0
  9
$AUPREC
 70
     2
  9
$MENU
  1
.
  9
$ELEVATION
 40
0.0
  9
$PELEVATION
 40
0.0
  9
$THICKNESS
 40
0.0
  9
$LIMCHECK
 70
     0
  9
$CHAMFERA
 40
0.0
  9
$CHAMFERB
 40
0.0
  9
$CHAMFERC
 40
0.0
  9
$CHAMFERD
 40
0.0
  9
$SKPOLY
 70
     0
  9
$TDCREATE
 40
2458722.961717743
  9
$TDUCREATE
 40
2458722.87838441
  9
$TDUPDATE
 40
2458722.962004745
  9
$TDUUPDATE
 40
2458722.878671412
  9
$TDINDWG
 40
0.0000000116
  9
$TDUSRTIMER
 40
0.0000000116
  9
$USRTIMER
 70
     1
  9
$ANGBASE
 50
0.0
  9
$ANGDIR
 70
     0
  9
$PDMODE
 70
     0
  9
$PDSIZE
 40
-1.0
  9
$PLINEWID
 40
0.0
  9
$SPLFRAME
 70
     0
  9
$SPLINETYPE
 70
     6
  9
$SPLINESEGS
 70
     8
  9
$HANDSEED
  5
342
  9
$SURFTAB1
 70
     6
  9
$SURFTAB2
 70
     6
  9
$SURFTYPE
 70
     6
  9
$SURFU
 70
     6
  9
$SURFV
 70
     6
  9
$UCSBASE
  2

  9
$UCSNAME
  2

  9
$UCSORG
 10
0.0
 20
0.0
 30
0.0
  9
$UCSXDIR
 10
1.0
 20
0.0
 30
0.0
  9
$UCSYDIR
 10
0.0
 20
1.0
 30
0.0
  9
$UCSORTHOREF
  2

  9
$UCSORTHOVIEW
 70
     0
  9
$UCSORGTOP
 10
0.0
 20
0.0
 30
0.0
  9
$UCSORGBOTTOM
 10
0.0
 20
0.0
 30
0.0
  9
$UCSORGLEFT
 10
0.0
 20
0.0
 30
0.0
  9
$UCSORGRIGHT
 10
0.0
 20
0.0
 30
0.0
  9
$UCSORGFRONT
 10
0.0
 20
0.0
 30
0.0
  9
$UCSORGBACK
 10
0.0
 20
0.0
 30
0.0
  9
$PUCSBASE
  2

  9
$PUCSNAME
  2

  9
$PUCSORG
 10
0.0
 20
0.0
 30
0.0
  9
$PUCSXDIR
 10
1.0
 20
0.0
 30
0.0
  9
$PUCSYDIR
 10
0.0
 20
1.0
 30
0.0
  9
$PUCSORTHOREF
  2

  9
$PUCSORTHOVIEW
 70
     0
  9
$PUCSORGTOP
 10
0.0
 20
0.0
 30
0.0
  9
$PUCSORGBOTTOM
 10
0.0
 20
0.0
 30
0.0
  9
$PUCSORGLEFT
 10
0.0
 20
0.0
 30
0.0
  9
$PUCSORGRIGHT
 10
0.0
 20
0.0
 30
0.0
  9
$PUCSORGFRONT
 10
0.0
 20
0.0
 30
0.0
  9
$PUCSORGBACK
 10
0.0
 20
0.0
 30
0.0
  9
$USERI1
 70
     0
  9
$USERI2
 70
     0
  9
$USERI3
 70
     0
  9
$USERI4
 70
     0
  9
$USERI5
 70
     0
  9
$USERR1
 40
0.0
  9
$USERR2
 40
0.0
  9
$USERR3
 40
0.0
  9
$USERR4
 40
0.0
  9
$USERR5
 40
0.0
  9
$WORLDVIEW
 70
     1
  9
$SHADEDGE
 70
     3
  9
$SHADEDIF
 70
    70
  9
$TILEMODE
 70
     1
  9
$MAXACTVP
 70
    64
  9
$PINSBASE
 10
0.0
 20
0.0
 30
0.0
  9
$PLIMCHECK
 70
     0
  9
$PEXTMIN
 10
1.0000000000E+20
 20
1.0000000000E+20
 30
1.0000000000E+20
  9
$PEXTMAX
 10
-1.0000000000E+20
 20
-1.0000000000E+20
 30
-1.0000000000E+20
  9
$PLIMMIN
 10
0.0
 20
0.0
  9
$PLIMMAX
 10
420.0
 20
297.0
  9
$UNITMODE
 70
     0
  9
$VISRETAIN
 70
     1
  9
$PLINEGEN
 70
     0
  9
$PSLTSCALE
 70
     1
  9
$TREEDEPTH
 70
  3020
  9
$CMLSTYLE
  2
Standard
  9
$CMLJUST
 70
     0
  9
$CMLSCALE
 40
20.0
  9
$PROXYGRAPHICS
 70
     1
  9
$MEASUREMENT
 70
     1
  9
$CELWEIGHT
370
    -1
  9
$ENDCAPS
280
     0
  9
$JOINSTYLE
280
     0
  9
$LWDISPLAY
290
     1
  9
$INSUNITS
 70
     4
  9
$HYPERLINKBASE
  1

  9
$STYLESHEET
  1

  9
$XEDIT
290
     1
  9
$CEPSNTYPE
380
     0
  9
$PSTYLEMODE
290
     1
  9
$FINGERPRINTGUID
  2
{F5E28774-2E53-4F76-A166-C2A4EEB222AD}
  9
$VERSIONGUID
  2
{FAEB1C32-E019-11D5-929B-00C0DF256EC4}
  9
$EXTNAMES
290
     1
  9
$PSVPSCALE
 40
0.0
  9
$OLESTARTUP
290
     0
  0
ENDSEC
  0
SECTION
  2
CLASSES
  0
CLASS
  1
ACDBDICTIONARYWDFLT
  2
AcDbDictionaryWithDefault
  3
ObjectDBX Classes
 90
        0
280
     0
281
     0
  0
CLASS
  1
VISUALSTYLE
  2
AcDbVisualStyle
  3
ObjectDBX Classes
 90
     4095
280
     0
281
     0
  0
CLASS
  1
MATERIAL
  2
AcDbMaterial
  3
ObjectDBX Classes
 90
     1153
280
     0
281
     0
  0
CLASS
  1
SCALE
  2
AcDbScale
  3
ObjectDBX Classes
 90
     1153
280
     0
281
     0
  0
CLASS
  1
TABLESTYLE
  2
AcDbTableStyle
  3
ObjectDBX Classes
 90
     4095
280
     0
281
     0
  0
CLASS
  1
MLEADERSTYLE
  2
AcDbMLeaderStyle
  3
ACDB_MLEADERSTYLE_CLASS
 90
     4095
280
     0
281
     0
  0
CLASS
  1
SUN
  2
AcDbSun
  3
SCENEOE
 90
     1153
280
     0
281
     0
  0
CLASS
  1
ACDBPLACEHOLDER
  2
AcDbPlaceHolder
  3
ObjectDBX Classes
 90
        0
280
     0
281
     0
  0
CLASS
  1
LAYOUT
  2
AcDbLayout
  3
ObjectDBX Classes
 90
        0
280
     0
281
     0
  0
ENDSEC
  0
SECTION
  2
TABLES
  0
TABLE
  2
VPORT
  5
8
330
0
100
AcDbSymbolTable
 70
     1
  0
VPORT
  5
29
330
8
100
AcDbSymbolTableRecord
100
AcDbViewportTableRecord
  2
*Active
 70
     0
 10
0.0
 20
0.0
 11
1.0
 21
1.0
 12
6017.301146877
 22
3917.0415055
 13
0.0
 23
0.0
 14
10.0
 24
10.0
 15
10.0
 25
10.0
 16
0.0
 26
0.0
 36
1.0
 17
0.0
 27
0.0
 37
0.0
 40
5899.53645846
 41
1.9937990957
 42
50.0
 43
0.0
 44
0.0
 50
0.0
 51
0.0
 71
     0
 72
   100
 73
     1
 74
     3
 75
     0
 76
     0
 77
     0
 78
     0
281
     0
 65
     1
110
0.0
120
0.0
130
0.0
111
1.0
121
0.0
131
0.0
112
0.0
122
1.0
132
0.0
 79
     0
146
0.0
  0
ENDTAB
  0
TABLE
  2
LTYPE
  5
5
330
0
100
AcDbSymbolTable
 70
     6
  0
LTYPE
  5
14
330
5
100
AcDbSymbolTableRecord
100
AcDbLinetypeTableRecord
  2
ByBlock
 70
     0
  3

 72
    65
 73
     0
 40
0.0
  0
LTYPE
  5
15
330
5
100
AcDbSymbolTableRecord
100
AcDbLinetypeTableRecord
  2
ByLayer
 70
     0
  3

 72
    65
 73
     0
 40
0.0
  0
LTYPE
  5
16
330
5
100
AcDbSymbolTableRecord
100
AcDbLinetypeTableRecord
  2
Continuous
 70
     0
  3
Solid line
 72
    65
 73
     0
 40
0.0
  0
LTYPE
  5
6E
330
5
100
AcDbSymbolTableRecord
100
AcDbLinetypeTableRecord
  2
HIDDEN
 70
     0
  3
Hidden __ __ __ __ __ __ __ __ __ __ __ __ __ __
 72
    65
 73
     2
 40
1.905
 49
1.27
 74
     0
 49
-0.635
 74
     0
  0
LTYPE
  5
6F
330
5
100
AcDbSymbolTableRecord
100
AcDbLinetypeTableRecord
  2
PHANTOM
 70
     0
  3
Phantom ______  __  __  ______  __  __  ______
 72
    65
 73
     6
 40
12.7
 49
6.35
 74
     0
 49
-1.27
 74
     0
 49
1.27
 74
     0
 49
-1.27
 74
     0
 49
1.27
 74
     0
 49
-1.27
 74
     0
  0
LTYPE
  5
70
330
5
100
AcDbSymbolTableRecord
100
AcDbLinetypeTableRecord
  2
CENTER
 70
     0
  3
Center ____ _ ____ _ ____ _ ____ _ ____ _ ____
 72
    65
 73
     4
 40
10.16
 49
6.35
 74
     0
 49
-1.27
 74
     0
 49
1.27
 74
     0
 49
-1.27
 74
     0
  0
LTYPE
  5
71
330
5
100
AcDbSymbolTableRecord
100
AcDbLinetypeTableRecord
  2
CENTERX2
 70
     0
  3
Center (2x) ________  __  ________  __  _____
 72
    65
 73
     4
 40
20.32
 49
12.7
 74
     0
 49
-2.54
 74
     0
 49
2.54
 74
     0
 49
-2.54
 74
     0
  0
LTYPE
  5
72
330
5
100
AcDbSymbolTableRecord
100
AcDbLinetypeTableRecord
  2
DOT2
 70
     0
  3
Dot (.5x) ........................................
 72
    65
 73
     2
 40
0.635
 49
0.0
 74
     0
 49
-0.635
 74
     0
  0
ENDTAB
  0
TABLE
  2
LAYER
  5
2
330
0
100
AcDbSymbolTable
 70
     1
  0
LAYER
  5
10
330
2
100
AcDbSymbolTableRecord
100
AcDbLayerTableRecord
  2
0
 70
     0
 62
     7
  6
Continuous
370
    -3
390
F
  0
ENDTAB
  0
TABLE
  2
STYLE
  5
3
330
0
100
AcDbSymbolTable
 70
     2
  0
STYLE
  5
11
330
3
100
AcDbSymbolTableRecord
100
AcDbTextStyleTableRecord
  2
Standard
 70
     0
 40
0.0
 41
1.0
 50
0.0
 71
     0
 42
3.5
  3
txt
  4

  0
STYLE
  5
33F
330
3
100
AcDbSymbolTableRecord
100
AcDbTextStyleTableRecord
  2
SLDTEXTSTYLE0
 70
     0
 40
0.0
 41
0.7
 50
0.0
 71
     0
 42
3.5
  3
TXT
  4

  0
ENDTAB
  0
TABLE
  2
VIEW
  5
6
330
0
100
AcDbSymbolTable
 70
     0
  0
ENDTAB
  0
TABLE
  2
UCS
  5
7
330
0
100
AcDbSymbolTable
 70
     0
  0
ENDTAB
  0
TABLE
  2
APPID
  5
9
330
0
100
AcDbSymbolTable
 70
     1
  0
APPID
  5
12
330
9
100
AcDbSymbolTableRecord
100
AcDbRegAppTableRecord
  2
ACAD
 70
     0
  0
ENDTAB
  0
TABLE
  2
DIMSTYLE
  5
A
330
0
100
AcDbSymbolTable
 70
     1
100
AcDbDimStyleTable
  0
DIMSTYLE
105
27
330
A
100
AcDbSymbolTableRecord
100
AcDbDimStyleTableRecord
  2
ISO-25
 70
     0
 41
2.5
 42
0.625
 43
3.75
 44
1.25
 73
     0
 74
     0
 77
     1
 78
     8
140
2.5
141
2.5
143
0.0393700787
147
0.625
171
     3
172
     1
178
     0
271
     2
272
     2
274
     3
278
    44
283
     0
284
     8
340
11
  0
ENDTAB
  0
TABLE
  2
BLOCK_RECORD
  5
1
330
0
100
AcDbSymbolTable
 70
     1
  0
BLOCK_RECORD
  5
1F
330
1
100
AcDbSymbolTableRecord
100
AcDbBlockTableRecord
  2
*Model_Space
340
22
  0
BLOCK_RECORD
  5
1B
330
1
100
AcDbSymbolTableRecord
100
AcDbBlockTableRecord
  2
*Paper_Space
340
1E
  0
BLOCK_RECORD
  5
23
330
1
100
AcDbSymbolTableRecord
100
AcDbBlockTableRecord
  2
*Paper_Space0
340
26
  0
ENDTAB
  0
ENDSEC
  0
SECTION
  2
BLOCKS
  0
BLOCK
  5
20
330
1F
100
AcDbEntity
  8
0
100
AcDbBlockBegin
  2
*Model_Space
 70
     0
 10
0.0
 20
0.0
 30
0.0
  3
*Model_Space
  1

  0
ENDBLK
  5
21
330
1F
100
AcDbEntity
  8
0
100
AcDbBlockEnd
  0
BLOCK
  5
1C
330
1B
100
AcDbEntity
 67
     1
  8
0
100
AcDbBlockBegin
  2
*Paper_Space
 70
     0
 10
0.0
 20
0.0
 30
0.0
  3
*Paper_Space
  1

  0
ENDBLK
  5
1D
330
1B
100
AcDbEntity
 67
     1
  8
0
100
AcDbBlockEnd
  0
BLOCK
  5
24
330
23
100
AcDbEntity
  8
0
100
AcDbBlockBegin
  2
*Paper_Space0
 70
     0
 10
0.0
 20
0.0
 30
0.0
  3
*Paper_Space0
  1

  0
ENDBLK
  5
25
330
23
100
AcDbEntity
  8
0
100
AcDbBlockEnd
  0
ENDSEC
  0
SECTION
  2
ENTITIES
  0
LINE
  5
73
330
1F
100
AcDbEntity
  8
0
  6
Continuous
 62
     7
100
AcDbLine
 10
2337.821842
 20
6808.971142
 30
0.0
 11
337.1807328
 21
6808.971142
 31
0.0
  0
LINE
  5
74
330
1F
100
AcDbEntity
  8
0
  6
Continuous
 62
     7
100
AcDbLine
 10
337.1807328
 20
6808.971142
 30
0.0
 11
337.1807328
 21
6486.391142
 31
0.0
  0
LINE
  5
75
330
1F
100
AcDbEntity
  8
0
  6
Continuous
 62
     7
100
AcDbLine
 10
337.1807328
 20
6486.391142
 30
0.0
 11
251.3744528
 21
6486.391142
 31
0.0
  0
LINE
  5
76
330
1F
100
AcDbEntity
  8
0
  6
Continuous
 62
     7
100
AcDbLine
 10
251.3744528
 20
6486.391142
 30
0.0
 11
251.3744528
 21
6163.811142
 31
0.0
  0
LINE
  5
77
330
1F
100
AcDbEntity
  8
0
  6
Continuous
 62
     7
100
AcDbLine
 10
251.3744528
 20
6163.811142
 30
0.0
 11
337.1807328
 21
6163.811142
 31
0.0
  0
LINE
  5
78
330
1F
100
AcDbEntity
  8
0
  6
Continuous
 62
     7
100
AcDbLine
 10
337.1807328
 20
6163.811142
 30
0.0
 11
337.1807328
 21
5841.2311674
 31
0.0
  0
LINE
  5
79
330
1F
100
AcDbEntity
  8
0
  6
Continuous
 62
     7
100
AcDbLine
 10
337.1807328
 20
5841.2311674
 30
0.0
 11
251.3744528
 21
5841.2311674
 31
0.0
  0
LINE
  5
7A
330
1F
100
AcDbEntity
  8
0
  6
Continuous
 62
     7
100
AcDbLine
 10
251.3744528
 20
5841.2311674
 30
0.0
 11
251.3744528
 21
5518.6511674
 31
0.0
  0
LINE
  5
7B
330
1F
100
AcDbEntity
  8
0
  6
Continuous
 62
     7
100
AcDbLine
 10
251.3744528
 20
5518.6511674
 30
0.0
 11
337.1807328
 21
5518.6511674
 31
0.0
  0
LINE
  5
7C
330
1F
100
AcDbEntity
  8
0
  6
Continuous
 62
     7
100
AcDbLine
 10
337.1807328
 20
5518.6511674
 30
0.0
 11
337.1807328
 21
5196.0711674
 31
0.0
  0
LINE
  5
7D
330
1F
100
AcDbEntity
  8
0
  6
Continuous
 62
     7
100
AcDbLine
 10
337.1807328
 20
5196.0711674
 30
0.0
 11
251.3744528
 21
5196.0711674
 31
0.0
  0
LINE
  5
7E
330
1F
100
AcDbEntity
  8
0
  6
Continuous
 62
     7
100
AcDbLine
 10
251.3744528
 20
5196.0711674
 30
0.0
 11
251.3744528
 21
4873.4911674
 31
0.0
  0
LINE
  5
7F
330
1F
100
AcDbEntity
  8
0
  6
Continuous
 62
     7
100
AcDbLine
 10
251.3744528
 20
4873.4911674
 30
0.0
 11
337.1807328
 21
4873.4911674
 31
0.0
  0
LINE
  5
80
330
1F
100
AcDbEntity
  8
0
  6
Continuous
 62
     7
100
AcDbLine
 10
337.1807328
 20
4873.4911674
 30
0.0
 11
337.1807328
 21
4550.9111928
 31
0.0
  0
LINE
  5
81
330
1F
100
AcDbEntity
  8
0
  6
Continuous
 62
     7
100
AcDbLine
 10
337.1807328
 20
4550.9111928
 30
0.0
 11
251.3744528
 21
4550.9111928
 31
0.0
  0
LINE
  5
82
330
1F
100
AcDbEntity
  8
0
  6
Continuous
 62
     7
100
AcDbLine
 10
251.3744528
 20
4550.9111928
 30
0.0
 11
251.3744528
 21
4228.3311928
 31
0.0
  0
LINE
  5
83
330
1F
100
AcDbEntity
  8
0
  6
Continuous
 62
     7
100
AcDbLine
 10
251.3744528
 20
4228.3311928
 30
0.0
 11
337.1807328
 21
4228.3311928
 31
0.0
  0
LINE
  5
84
330
1F
100
AcDbEntity
  8
0
  6
Continuous
 62
     7
100
AcDbLine
 10
337.1807328
 20
4228.3311928
 30
0.0
 11
337.1807328
 21
3905.7511928
 31
0.0
  0
LINE
  5
85
330
1F
100
AcDbEntity
  8
0
  6
Continuous
 62
     7
100
AcDbLine
 10
337.1807328
 20
3905.7511928
 30
0.0
 11
251.3744528
 21
3905.7511928
 31
0.0
  0
LINE
  5
86
330
1F
100
AcDbEntity
  8
0
  6
Continuous
 62
     7
100
AcDbLine
 10
251.3744528
 20
3905.7511928
 30
0.0
 11
251.3744528
 21
3583.1712182
 31
0.0
  0
LINE
  5
87
330
1F
100
AcDbEntity
  8
0
  6
Continuous
 62
     7
100
AcDbLine
 10
251.3744528
 20
3583.1712182
 30
0.0
 11
337.1807328
 21
3583.1712182
 31
0.0
  0
LINE
  5
88
330
1F
100
AcDbEntity
  8
0
  6
Continuous
 62
     7
100
AcDbLine
 10
337.1807328
 20
3583.1712182
 30
0.0
 11
337.1807328
 21
3260.5912182
 31
0.0
  0
LINE
  5
89
330
1F
100
AcDbEntity
  8
0
  6
Continuous
 62
     7
100
AcDbLine
 10
337.1807328
 20
3260.5912182
 30
0.0
 11
251.3744528
 21
3260.5912182
 31
0.0
  0
LINE
  5
8A
330
1F
100
AcDbEntity
  8
0
  6
Continuous
 62
     7
100
AcDbLine
 10
251.3744528
 20
3260.5912182
 30
0.0
 11
251.3744528
 21
2938.0112182
 31
0.0
  0
LINE
  5
8B
330
1F
100
AcDbEntity
  8
0
  6
Continuous
 62
     7
100
AcDbLine
 10
251.3744528
 20
2938.0112182
 30
0.0
 11
337.1807328
 21
2938.0112182
 31
0.0
  0
LINE
  5
8C
330
1F
100
AcDbEntity
  8
0
  6
Continuous
 62
     7
100
AcDbLine
 10
337.1807328
 20
2938.0112182
 30
0.0
 11
337.1807328
 21
2615.4312182
 31
0.0
  0
LINE
  5
8D
330
1F
100
AcDbEntity
  8
0
  6
Continuous
 62
     7
100
AcDbLine
 10
337.1807328
 20
2615.4312182
 30
0.0
 11
2337.821842
 21
2615.4312182
 31
0.0
  0
LINE
  5
8E
330
1F
100
AcDbEntity
  8
0
  6
Continuous
 62
     7
100
AcDbLine
 10
2337.821842
 20
2615.4312182
 30
0.0
 11
2337.821842
 21
2938.0112182
 31
0.0
  0
LINE
  5
8F
330
1F
100
AcDbEntity
  8
0
  6
Continuous
 62
     7
100
AcDbLine
 10
2337.821842
 20
2938.0112182
 30
0.0
 11
2252.015562
 21
2938.0112182
 31
0.0
  0
LINE
  5
90
330
1F
100
AcDbEntity
  8
0
  6
Continuous
 62
     7
100
AcDbLine
 10
2252.015562
 20
2938.0112182
 30
0.0
 11
2252.015562
 21
3260.5912182
 31
0.0
  0
LINE
  5
91
330
1F
100
AcDbEntity
  8
0
  6
Continuous
 62
     7
100
AcDbLine
 10
2252.015562
 20
3260.5912182
 30
0.0
 11
2337.821842
 21
3260.5912182
 31
0.0
  0
LINE
  5
92
330
1F
100
AcDbEntity
  8
0
  6
Continuous
 62
     7
100
AcDbLine
 10
2337.821842
 20
3260.5912182
 30
0.0
 11
2337.821842
 21
3583.1712182
 31
0.0
  0
LINE
  5
93
330
1F
100
AcDbEntity
  8
0
  6
Continuous
 62
     7
100
AcDbLine
 10
2337.821842
 20
3583.1712182
 30
0.0
 11
2252.015562
 21
3583.1712182
 31
0.0
  0
LINE
  5
94
330
1F
100
AcDbEntity
  8
0
  6
Continuous
 62
     7
100
AcDbLine
 10
2252.015562
 20
3583.1712182
 30
0.0
 11
2252.015562
 21
3905.7511928
 31
0.0
  0
LINE
  5
95
330
1F
100
AcDbEntity
  8
0
  6
Continuous
 62
     7
100
AcDbLine
 10
2252.015562
 20
3905.7511928
 30
0.0
 11
2337.821842
 21
3905.7511928
 31
0.0
  0
LINE
  5
96
330
1F
100
AcDbEntity
  8
0
  6
Continuous
 62
     7
100
AcDbLine
 10
2337.821842
 20
3905.7511928
 30
0.0
 11
2337.821842
 21
4228.3311928
 31
0.0
  0
LINE
  5
97
330
1F
100
AcDbEntity
  8
0
  6
Continuous
 62
     7
100
AcDbLine
 10
2337.821842
 20
4228.3311928
 30
0.0
 11
2252.015562
 21
4228.3311928
 31
0.0
  0
LINE
  5
98
330
1F
100
AcDbEntity
  8
0
  6
Continuous
 62
     7
100
AcDbLine
 10
2252.015562
 20
4228.3311928
 30
0.0
 11
2252.015562
 21
4550.9111928
 31
0.0
  0
LINE
  5
99
330
1F
100
AcDbEntity
  8
0
  6
Continuous
 62
     7
100
AcDbLine
 10
2252.015562
 20
4550.9111928
 30
0.0
 11
2337.821842
 21
4550.9111928
 31
0.0
  0
LINE
  5
9A
330
1F
100
AcDbEntity
  8
0
  6
Continuous
 62
     7
100
AcDbLine
 10
2337.821842
 20
4550.9111928
 30
0.0
 11
2337.821842
 21
4873.4911674
 31
0.0
  0
LINE
  5
9B
330
1F
100
AcDbEntity
  8
0
  6
Continuous
 62
     7
100
AcDbLine
 10
2337.821842
 20
4873.4911674
 30
0.0
 11
2252.015562
 21
4873.4911674
 31
0.0
  0
LINE
  5
9C
330
1F
100
AcDbEntity
  8
0
  6
Continuous
 62
     7
100
AcDbLine
 10
2252.015562
 20
4873.4911674
 30
0.0
 11
2252.015562
 21
5196.0711674
 31
0.0
  0
LINE
  5
9D
330
1F
100
AcDbEntity
  8
0
  6
Continuous
 62
     7
100
AcDbLine
 10
2252.015562
 20
5196.0711674
 30
0.0
 11
2337.821842
 21
5196.0711674
 31
0.0
  0
LINE
  5
9E
330
1F
100
AcDbEntity
  8
0
  6
Continuous
 62
     7
100
AcDbLine
 10
2337.821842
 20
5196.0711674
 30
0.0
 11
2337.821842
 21
5518.6511674
 31
0.0
  0
LINE
  5
9F
330
1F
100
AcDbEntity
  8
0
  6
Continuous
 62
     7
100
AcDbLine
 10
2337.821842
 20
5518.6511674
 30
0.0
 11
2252.015562
 21
5518.6511674
 31
0.0
  0
LINE
  5
A0
330
1F
100
AcDbEntity
  8
0
  6
Continuous
 62
     7
100
AcDbLine
 10
2252.015562
 20
5518.6511674
 30
0.0
 11
2252.015562
 21
5841.2311674
 31
0.0
  0
LINE
  5
A1
330
1F
100
AcDbEntity
  8
0
  6
Continuous
 62
     7
100
AcDbLine
 10
2252.015562
 20
5841.2311674
 30
0.0
 11
2337.821842
 21
5841.2311674
 31
0.0
  0
LINE
  5
A2
330
1F
100
AcDbEntity
  8
0
  6
Continuous
 62
     7
100
AcDbLine
 10
2337.821842
 20
5841.2311674
 30
0.0
 11
2337.821842
 21
6163.811142
 31
0.0
  0
LINE
  5
A3
330
1F
100
AcDbEntity
  8
0
  6
Continuous
 62
     7
100
AcDbLine
 10
2337.821842
 20
6163.811142
 30
0.0
 11
2252.015562
 21
6163.811142
 31
0.0
  0
LINE
  5
A4
330
1F
100
AcDbEntity
  8
0
  6
Continuous
 62
     7
100
AcDbLine
 10
2252.015562
 20
6163.811142
 30
0.0
 11
2252.015562
 21
6486.391142
 31
0.0
  0
LINE
  5
A5
330
1F
100
AcDbEntity
  8
0
  6
Continuous
 62
     7
100
AcDbLine
 10
2252.015562
 20
6486.391142
 30
0.0
 11
2337.821842
 21
6486.391142
 31
0.0
  0
LINE
  5
A6
330
1F
100
AcDbEntity
  8
0
  6
Continuous
 62
     7
100
AcDbLine
 10
2337.821842
 20
6486.391142
 30
0.0
 11
2337.821842
 21
6808.971142
 31
0.0
  0
LINE
  5
A7
330
1F
100
AcDbEntity
  8
0
  6
Continuous
 62
     7
100
AcDbLine
 10
5799.7503258
 20
6808.971142
 30
0.0
 11
3799.1092166
 21
6808.971142
 31
0.0
  0
LINE
  5
A8
330
1F
100
AcDbEntity
  8
0
  6
Continuous
 62
     7
100
AcDbLine
 10
3799.1092166
 20
6808.971142
 30
0.0
 11
3799.1092166
 21
6486.391142
 31
0.0
  0
LINE
  5
A9
330
1F
100
AcDbEntity
  8
0
  6
Continuous
 62
     7
100
AcDbLine
 10
3799.1092166
 20
6486.391142
 30
0.0
 11
3713.3029366
 21
6486.391142
 31
0.0
  0
LINE
  5
AA
330
1F
100
AcDbEntity
  8
0
  6
Continuous
 62
     7
100
AcDbLine
 10
3713.3029366
 20
6486.391142
 30
0.0
 11
3713.3029366
 21
6163.811142
 31
0.0
  0
LINE
  5
AB
330
1F
100
AcDbEntity
  8
0
  6
Continuous
 62
     7
100
AcDbLine
 10
3713.3029366
 20
6163.811142
 30
0.0
 11
3799.1092166
 21
6163.811142
 31
0.0
  0
LINE
  5
AC
330
1F
100
AcDbEntity
  8
0
  6
Continuous
 62
     7
100
AcDbLine
 10
3799.1092166
 20
6163.811142
 30
0.0
 11
3799.1092166
 21
5841.2311674
 31
0.0
  0
LINE
  5
AD
330
1F
100
AcDbEntity
  8
0
  6
Continuous
 62
     7
100
AcDbLine
 10
3799.1092166
 20
5841.2311674
 30
0.0
 11
3713.3029366
 21
5841.2311674
 31
0.0
  0
LINE
  5
AE
330
1F
100
AcDbEntity
  8
0
  6
Continuous
 62
     7
100
AcDbLine
 10
3713.3029366
 20
5841.2311674
 30
0.0
 11
3713.3029366
 21
5518.6511674
 31
0.0
  0
LINE
  5
AF
330
1F
100
AcDbEntity
  8
0
  6
Continuous
 62
     7
100
AcDbLine
 10
3713.3029366
 20
5518.6511674
 30
0.0
 11
3799.1092166
 21
5518.6511674
 31
0.0
  0
LINE
  5
B0
330
1F
100
AcDbEntity
  8
0
  6
Continuous
 62
     7
100
AcDbLine
 10
3799.1092166
 20
5518.6511674
 30
0.0
 11
3799.1092166
 21
5196.0711674
 31
0.0
  0
LINE
  5
B1
330
1F
100
AcDbEntity
  8
0
  6
Continuous
 62
     7
100
AcDbLine
 10
3799.1092166
 20
5196.0711674
 30
0.0
 11
3713.3029366
 21
5196.0711674
 31
0.0
  0
LINE
  5
B2
330
1F
100
AcDbEntity
  8
0
  6
Continuous
 62
     7
100
AcDbLine
 10
3713.3029366
 20
5196.0711674
 30
0.0
 11
3713.3029366
 21
4873.4911674
 31
0.0
  0
LINE
  5
B3
330
1F
100
AcDbEntity
  8
0
  6
Continuous
 62
     7
100
AcDbLine
 10
3713.3029366
 20
4873.4911674
 30
0.0
 11
3799.1092166
 21
4873.4911674
 31
0.0
  0
LINE
  5
B4
330
1F
100
AcDbEntity
  8
0
  6
Continuous
 62
     7
100
AcDbLine
 10
3799.1092166
 20
4873.4911674
 30
0.0
 11
3799.1092166
 21
4550.9111928
 31
0.0
  0
LINE
  5
B5
330
1F
100
AcDbEntity
  8
0
  6
Continuous
 62
     7
100
AcDbLine
 10
3799.1092166
 20
4550.9111928
 30
0.0
 11
3713.3029366
 21
4550.9111928
 31
0.0
  0
LINE
  5
B6
330
1F
100
AcDbEntity
  8
0
  6
Continuous
 62
     7
100
AcDbLine
 10
3713.3029366
 20
4550.9111928
 30
0.0
 11
3713.3029366
 21
4228.3311928
 31
0.0
  0
LINE
  5
B7
330
1F
100
AcDbEntity
  8
0
  6
Continuous
 62
     7
100
AcDbLine
 10
3713.3029366
 20
4228.3311928
 30
0.0
 11
3799.1092166
 21
4228.3311928
 31
0.0
  0
LINE
  5
B8
330
1F
100
AcDbEntity
  8
0
  6
Continuous
 62
     7
100
AcDbLine
 10
3799.1092166
 20
4228.3311928
 30
0.0
 11
3799.1092166
 21
3905.7511928
 31
0.0
  0
LINE
  5
B9
330
1F
100
AcDbEntity
  8
0
  6
Continuous
 62
     7
100
AcDbLine
 10
3799.1092166
 20
3905.7511928
 30
0.0
 11
3713.3029366
 21
3905.7511928
 31
0.0
  0
LINE
  5
BA
330
1F
100
AcDbEntity
  8
0
  6
Continuous
 62
     7
100
AcDbLine
 10
3713.3029366
 20
3905.7511928
 30
0.0
 11
3713.3029366
 21
3583.1712182
 31
0.0
  0
LINE
  5
BB
330
1F
100
AcDbEntity
  8
0
  6
Continuous
 62
     7
100
AcDbLine
 10
3713.3029366
 20
3583.1712182
 30
0.0
 11
3799.1092166
 21
3583.1712182
 31
0.0
  0
LINE
  5
BC
330
1F
100
AcDbEntity
  8
0
  6
Continuous
 62
     7
100
AcDbLine
 10
3799.1092166
 20
3583.1712182
 30
0.0
 11
3799.1092166
 21
3260.5912182
 31
0.0
  0
LINE
  5
BD
330
1F
100
AcDbEntity
  8
0
  6
Continuous
 62
     7
100
AcDbLine
 10
3799.1092166
 20
3260.5912182
 30
0.0
 11
3713.3029366
 21
3260.5912182
 31
0.0
  0
LINE
  5
BE
330
1F
100
AcDbEntity
  8
0
  6
Continuous
 62
     7
100
AcDbLine
 10
3713.3029366
 20
3260.5912182
 30
0.0
 11
3713.3029366
 21
2938.0112182
 31
0.0
  0
LINE
  5
BF
330
1F
100
AcDbEntity
  8
0
  6
Continuous
 62
     7
100
AcDbLine
 10
3713.3029366
 20
2938.0112182
 30
0.0
 11
3799.1092166
 21
2938.0112182
 31
0.0
  0
LINE
  5
C0
330
1F
100
AcDbEntity
  8
0
  6
Continuous
 62
     7
100
AcDbLine
 10
3799.1092166
 20
2938.0112182
 30
0.0
 11
3799.1092166
 21
2615.4312182
 31
0.0
  0
LINE
  5
C1
330
1F
100
AcDbEntity
  8
0
  6
Continuous
 62
     7
100
AcDbLine
 10
3799.1092166
 20
2615.4312182
 30
0.0
 11
5799.7503258
 21
2615.4312182
 31
0.0
  0
LINE
  5
C2
330
1F
100
AcDbEntity
  8
0
  6
Continuous
 62
     7
100
AcDbLine
 10
5799.7503258
 20
2615.4312182
 30
0.0
 11
5799.7503258
 21
2938.0112182
 31
0.0
  0
LINE
  5
C3
330
1F
100
AcDbEntity
  8
0
  6
Continuous
 62
     7
100
AcDbLine
 10
5799.7503258
 20
2938.0112182
 30
0.0
 11
5713.9440458
 21
2938.0112182
 31
0.0
  0
LINE
  5
C4
330
1F
100
AcDbEntity
  8
0
  6
Continuous
 62
     7
100
AcDbLine
 10
5713.9440458
 20
2938.0112182
 30
0.0
 11
5713.9440458
 21
3260.5912182
 31
0.0
  0
LINE
  5
C5
330
1F
100
AcDbEntity
  8
0
  6
Continuous
 62
     7
100
AcDbLine
 10
5713.9440458
 20
3260.5912182
 30
0.0
 11
5799.7503258
 21
3260.5912182
 31
0.0
  0
LINE
  5
C6
330
1F
100
AcDbEntity
  8
0
  6
Continuous
 62
     7
100
AcDbLine
 10
5799.7503258
 20
3260.5912182
 30
0.0
 11
5799.7503258
 21
3583.1712182
 31
0.0
  0
LINE
  5
C7
330
1F
100
AcDbEntity
  8
0
  6
Continuous
 62
     7
100
AcDbLine
 10
5799.7503258
 20
3583.1712182
 30
0.0
 11
5713.9440458
 21
3583.1712182
 31
0.0
  0
LINE
  5
C8
330
1F
100
AcDbEntity
  8
0
  6
Continuous
 62
     7
100
AcDbLine
 10
5713.9440458
 20
3583.1712182
 30
0.0
 11
5713.9440458
 21
3905.7511928
 31
0.0
  0
LINE
  5
C9
330
1F
100
AcDbEntity
  8
0
  6
Continuous
 62
     7
100
AcDbLine
 10
5713.9440458
 20
3905.7511928
 30
0.0
 11
5799.7503258
 21
3905.7511928
 31
0.0
  0
LINE
  5
CA
330
1F
100
AcDbEntity
  8
0
  6
Continuous
 62
     7
100
AcDbLine
 10
5799.7503258
 20
3905.7511928
 30
0.0
 11
5799.7503258
 21
4228.3311928
 31
0.0
  0
LINE
  5
CB
330
1F
100
AcDbEntity
  8
0
  6
Continuous
 62
     7
100
AcDbLine
 10
5799.7503258
 20
4228.3311928
 30
0.0
 11
5713.9440458
 21
4228.3311928
 31
0.0
  0
LINE
  5
CC
330
1F
100
AcDbEntity
  8
0
  6
Continuous
 62
     7
100
AcDbLine
 10
5713.9440458
 20
4228.3311928
 30
0.0
 11
5713.9440458
 21
4550.9111928
 31
0.0
  0
LINE
  5
CD
330
1F
100
AcDbEntity
  8
0
  6
Continuous
 62
     7
100
AcDbLine
 10
5713.9440458
 20
4550.9111928
 30
0.0
 11
5799.7503258
 21
4550.9111928
 31
0.0
  0
LINE
  5
CE
330
1F
100
AcDbEntity
  8
0
  6
Continuous
 62
     7
100
AcDbLine
 10
5799.7503258
 20
4550.9111928
 30
0.0
 11
5799.7503258
 21
4873.4911674
 31
0.0
  0
LINE
  5
CF
330
1F
100
AcDbEntity
  8
0
  6
Continuous
 62
     7
100
AcDbLine
 10
5799.7503258
 20
4873.4911674
 30
0.0
 11
5713.9440458
 21
4873.4911674
 31
0.0
  0
LINE
  5
D0
330
1F
100
AcDbEntity
  8
0
  6
Continuous
 62
     7
100
AcDbLine
 10
5713.9440458
 20
4873.4911674
 30
0.0
 11
5713.9440458
 21
5196.0711674
 31
0.0
  0
LINE
  5
D1
330
1F
100
AcDbEntity
  8
0
  6
Continuous
 62
     7
100
AcDbLine
 10
5713.9440458
 20
5196.0711674
 30
0.0
 11
5799.7503258
 21
5196.0711674
 31
0.0
  0
LINE
  5
D2
330
1F
100
AcDbEntity
  8
0
  6
Continuous
 62
     7
100
AcDbLine
 10
5799.7503258
 20
5196.0711674
 30
0.0
 11
5799.7503258
 21
5518.6511674
 31
0.0
  0
LINE
  5
D3
330
1F
100
AcDbEntity
  8
0
  6
Continuous
 62
     7
100
AcDbLine
 10
5799.7503258
 20
5518.6511674
 30
0.0
 11
5713.9440458
 21
5518.6511674
 31
0.0
  0
LINE
  5
D4
330
1F
100
AcDbEntity
  8
0
  6
Continuous
 62
     7
100
AcDbLine
 10
5713.9440458
 20
5518.6511674
 30
0.0
 11
5713.9440458
 21
5841.2311674
 31
0.0
  0
LINE
  5
D5
330
1F
100
AcDbEntity
  8
0
  6
Continuous
 62
     7
100
AcDbLine
 10
5713.9440458
 20
5841.2311674
 30
0.0
 11
5799.7503258
 21
5841.2311674
 31
0.0
  0
LINE
  5
D6
330
1F
100
AcDbEntity
  8
0
  6
Continuous
 62
     7
100
AcDbLine
 10
5799.7503258
 20
5841.2311674
 30
0.0
 11
5799.7503258
 21
6163.811142
 31
0.0
  0
LINE
  5
D7
330
1F
100
AcDbEntity
  8
0
  6
Continuous
 62
     7
100
AcDbLine
 10
5799.7503258
 20
6163.811142
 30
0.0
 11
5713.9440458
 21
6163.811142
 31
0.0
  0
LINE
  5
D8
330
1F
100
AcDbEntity
  8
0
  6
Continuous
 62
     7
100
AcDbLine
 10
5713.9440458
 20
6163.811142
 30
0.0
 11
5713.9440458
 21
6486.391142
 31
0.0
  0
LINE
  5
D9
330
1F
100
AcDbEntity
  8
0
  6
Continuous
 62
     7
100
AcDbLine
 10
5713.9440458
 20
6486.391142
 30
0.0
 11
5799.7503258
 21
6486.391142
 31
0.0
  0
LINE
  5
DA
330
1F
100
AcDbEntity
  8
0
  6
Continuous
 62
     7
100
AcDbLine
 10
5799.7503258
 20
6486.391142
 30
0.0
 11
5799.7503258
 21
6808.971142
 31
0.0
  0
LINE
  5
DB
330
1F
100
AcDbEntity
  8
0
  6
Continuous
 62
     7
100
AcDbLine
 10
3913.2003778
 20
2787.0437782
 30
0.0
 11
5599.8519956
 21
2787.0437782
 31
0.0
  0
LINE
  5
DC
330
1F
100
AcDbEntity
  8
0
  6
Continuous
 62
     7
100
AcDbLine
 10
5628.1377658
 20
2815.3295738
 30
0.0
 11
5628.1377658
 21
3716.1763116
 31
0.0
  0
LINE
  5
DD
330
1F
100
AcDbEntity
  8
0
  6
Continuous
 62
     7
100
AcDbLine
 10
5599.8519956
 20
3744.4611928
 30
0.0
 11
3913.2003778
 21
3744.4611928
 31
0.0
  0
LINE
  5
DE
330
1F
100
AcDbEntity
  8
0
  6
Continuous
 62
     7
100
AcDbLine
 10
3884.9154966
 20
3716.1763116
 30
0.0
 11
3884.9154966
 21
2815.3295738
 31
0.0
  0
LINE
  5
DF
330
1F
100
AcDbEntity
  8
0
  6
Continuous
 62
     7
100
AcDbLine
 10
4597.7608324
 20
1457.6916236
 30
0.0
 11
4597.7608324
 21
1543.4979036
 31
0.0
  0
LINE
  5
E0
330
1F
100
AcDbEntity
  8
0
  6
Continuous
 62
     7
100
AcDbLine
 10
4597.7608324
 20
1543.4979036
 30
0.0
 11
4511.9545524
 21
1543.4979036
 31
0.0
  0
LINE
  5
E1
330
1F
100
AcDbEntity
  8
0
  6
Continuous
 62
     7
100
AcDbLine
 10
4511.9545524
 20
1543.4979036
 30
0.0
 11
4511.9545524
 21
1629.3041836
 31
0.0
  0
LINE
  5
E2
330
1F
100
AcDbEntity
  8
0
  6
Continuous
 62
     7
100
AcDbLine
 10
4511.9545524
 20
1629.3041836
 30
0.0
 11
4597.7608324
 21
1629.3041836
 31
0.0
  0
LINE
  5
E3
330
1F
100
AcDbEntity
  8
0
  6
Continuous
 62
     7
100
AcDbLine
 10
4597.7608324
 20
1629.3041836
 30
0.0
 11
4597.7608324
 21
1715.1104636
 31
0.0
  0
LINE
  5
E4
330
1F
100
AcDbEntity
  8
0
  6
Continuous
 62
     7
100
AcDbLine
 10
4597.7608324
 20
1715.1104636
 30
0.0
 11
6512.5956616
 21
1715.1104636
 31
0.0
  0
LINE
  5
E5
330
1F
100
AcDbEntity
  8
0
  6
Continuous
 62
     7
100
AcDbLine
 10
6512.5956616
 20
1715.1104636
 30
0.0
 11
6512.5956616
 21
1629.3041836
 31
0.0
  0
LINE
  5
E6
330
1F
100
AcDbEntity
  8
0
  6
Continuous
 62
     7
100
AcDbLine
 10
6512.5956616
 20
1629.3041836
 30
0.0
 11
6598.4019416
 21
1629.3041836
 31
0.0
  0
LINE
  5
E7
330
1F
100
AcDbEntity
  8
0
  6
Continuous
 62
     7
100
AcDbLine
 10
6598.4019416
 20
1629.3041836
 30
0.0
 11
6598.4019416
 21
1543.4979036
 31
0.0
  0
LINE
  5
E8
330
1F
100
AcDbEntity
  8
0
  6
Continuous
 62
     7
100
AcDbLine
 10
6598.4019416
 20
1543.4979036
 30
0.0
 11
6512.5956616
 21
1543.4979036
 31
0.0
  0
LINE
  5
E9
330
1F
100
AcDbEntity
  8
0
  6
Continuous
 62
     7
100
AcDbLine
 10
6512.5956616
 20
1543.4979036
 30
0.0
 11
6512.5956616
 21
1457.6916236
 31
0.0
  0
LINE
  5
EA
330
1F
100
AcDbEntity
  8
0
  6
Continuous
 62
     7
100
AcDbLine
 10
6512.5956616
 20
1457.6916236
 30
0.0
 11
6598.4019416
 21
1457.6916236
 31
0.0
  0
LINE
  5
EB
330
1F
100
AcDbEntity
  8
0
  6
Continuous
 62
     7
100
AcDbLine
 10
6598.4019416
 20
1457.6916236
 30
0.0
 11
6598.4019416
 21
1371.8853436
 31
0.0
  0
LINE
  5
EC
330
1F
100
AcDbEntity
  8
0
  6
Continuous
 62
     7
100
AcDbLine
 10
6598.4019416
 20
1371.8853436
 30
0.0
 11
6512.5956616
 21
1371.8853436
 31
0.0
  0
LINE
  5
ED
330
1F
100
AcDbEntity
  8
0
  6
Continuous
 62
     7
100
AcDbLine
 10
6512.5956616
 20
1371.8853436
 30
0.0
 11
6512.5956616
 21
1286.079089
 31
0.0
  0
LINE
  5
EE
330
1F
100
AcDbEntity
  8
0
  6
Continuous
 62
     7
100
AcDbLine
 10
6512.5956616
 20
1286.079089
 30
0.0
 11
6598.4019416
 21
1286.079089
 31
0.0
  0
LINE
  5
EF
330
1F
100
AcDbEntity
  8
0
  6
Continuous
 62
     7
100
AcDbLine
 10
6598.4019416
 20
1286.079089
 30
0.0
 11
6598.4019416
 21
1200.272809
 31
0.0
  0
LINE
  5
F0
330
1F
100
AcDbEntity
  8
0
  6
Continuous
 62
     7
100
AcDbLine
 10
6598.4019416
 20
1200.272809
 30
0.0
 11
4511.9545524
 21
1200.272809
 31
0.0
  0
LINE
  5
F1
330
1F
100
AcDbEntity
  8
0
  6
Continuous
 62
     7
100
AcDbLine
 10
4511.9545524
 20
1200.272809
 30
0.0
 11
4511.9545524
 21
1286.079089
 31
0.0
  0
LINE
  5
F2
330
1F
100
AcDbEntity
  8
0
  6
Continuous
 62
     7
100
AcDbLine
 10
4511.9545524
 20
1286.079089
 30
0.0
 11
4597.7608324
 21
1286.079089
 31
0.0
  0
LINE
  5
F3
330
1F
100
AcDbEntity
  8
0
  6
Continuous
 62
     7
100
AcDbLine
 10
4597.7608324
 20
1286.079089
 30
0.0
 11
4597.7608324
 21
1371.8853436
 31
0.0
  0
LINE
  5
F4
330
1F
100
AcDbEntity
  8
0
  6
Continuous
 62
     7
100
AcDbLine
 10
4597.7608324
 20
1371.8853436
 30
0.0
 11
4511.9545524
 21
1371.8853436
 31
0.0
  0
LINE
  5
F5
330
1F
100
AcDbEntity
  8
0
  6
Continuous
 62
     7
100
AcDbLine
 10
4511.9545524
 20
1371.8853436
 30
0.0
 11
4511.9545524
 21
1457.6916236
 31
0.0
  0
LINE
  5
F6
330
1F
100
AcDbEntity
  8
0
  6
Continuous
 62
     7
100
AcDbLine
 10
4511.9545524
 20
1457.6916236
 30
0.0
 11
4597.7608324
 21
1457.6916236
 31
0.0
  0
LINE
  5
F7
330
1F
100
AcDbEntity
  8
0
  6
Continuous
 62
     7
100
AcDbLine
 10
337.1807328
 20
2315.4318436
 30
0.0
 11
337.1807328
 21
2401.2381236
 31
0.0
  0
LINE
  5
F8
330
1F
100
AcDbEntity
  8
0
  6
Continuous
 62
     7
100
AcDbLine
 10
337.1807328
 20
2401.2381236
 30
0.0
 11
251.3744528
 21
2401.2381236
 31
0.0
  0
LINE
  5
F9
330
1F
100
AcDbEntity
  8
0
  6
Continuous
 62
     7
100
AcDbLine
 10
251.3744528
 20
2401.2381236
 30
0.0
 11
251.3744528
 21
2487.0444036
 31
0.0
  0
LINE
  5
FA
330
1F
100
AcDbEntity
  8
0
  6
Continuous
 62
     7
100
AcDbLine
 10
251.3744528
 20
2487.0444036
 30
0.0
 11
337.1807328
 21
2487.0444036
 31
0.0
  0
LINE
  5
FB
330
1F
100
AcDbEntity
  8
0
  6
Continuous
 62
     7
100
AcDbLine
 10
337.1807328
 20
2487.0444036
 30
0.0
 11
337.1807328
 21
2572.8506582
 31
0.0
  0
LINE
  5
FC
330
1F
100
AcDbEntity
  8
0
  6
Continuous
 62
     7
100
AcDbLine
 10
337.1807328
 20
2572.8506582
 30
0.0
 11
2252.015562
 21
2572.8506582
 31
0.0
  0
LINE
  5
FD
330
1F
100
AcDbEntity
  8
0
  6
Continuous
 62
     7
100
AcDbLine
 10
2252.015562
 20
2572.8506582
 30
0.0
 11
2252.015562
 21
2487.0444036
 31
0.0
  0
LINE
  5
FE
330
1F
100
AcDbEntity
  8
0
  6
Continuous
 62
     7
100
AcDbLine
 10
2252.015562
 20
2487.0444036
 30
0.0
 11
2337.821842
 21
2487.0444036
 31
0.0
  0
LINE
  5
FF
330
1F
100
AcDbEntity
  8
0
  6
Continuous
 62
     7
100
AcDbLine
 10
2337.821842
 20
2487.0444036
 30
0.0
 11
2337.821842
 21
2401.2381236
 31
0.0
  0
LINE
  5
100
330
1F
100
AcDbEntity
  8
0
  6
Continuous
 62
     7
100
AcDbLine
 10
2337.821842
 20
2401.2381236
 30
0.0
 11
2252.015562
 21
2401.2381236
 31
0.0
  0
LINE
  5
101
330
1F
100
AcDbEntity
  8
0
  6
Continuous
 62
     7
100
AcDbLine
 10
2252.015562
 20
2401.2381236
 30
0.0
 11
2252.015562
 21
2315.4318436
 31
0.0
  0
LINE
  5
102
330
1F
100
AcDbEntity
  8
0
  6
Continuous
 62
     7
100
AcDbLine
 10
2252.015562
 20
2315.4318436
 30
0.0
 11
2337.821842
 21
2315.4318436
 31
0.0
  0
LINE
  5
103
330
1F
100
AcDbEntity
  8
0
  6
Continuous
 62
     7
100
AcDbLine
 10
2337.821842
 20
2315.4318436
 30
0.0
 11
2337.821842
 21
2229.6255636
 31
0.0
  0
LINE
  5
104
330
1F
100
AcDbEntity
  8
0
  6
Continuous
 62
     7
100
AcDbLine
 10
2337.821842
 20
2229.6255636
 30
0.0
 11
2252.015562
 21
2229.6255636
 31
0.0
  0
LINE
  5
105
330
1F
100
AcDbEntity
  8
0
  6
Continuous
 62
     7
100
AcDbLine
 10
2252.015562
 20
2229.6255636
 30
0.0
 11
2252.015562
 21
2143.8192836
 31
0.0
  0
LINE
  5
106
330
1F
100
AcDbEntity
  8
0
  6
Continuous
 62
     7
100
AcDbLine
 10
2252.015562
 20
2143.8192836
 30
0.0
 11
2337.821842
 21
2143.8192836
 31
0.0
  0
LINE
  5
107
330
1F
100
AcDbEntity
  8
0
  6
Continuous
 62
     7
100
AcDbLine
 10
2337.821842
 20
2143.8192836
 30
0.0
 11
2337.821842
 21
2058.0130036
 31
0.0
  0
LINE
  5
108
330
1F
100
AcDbEntity
  8
0
  6
Continuous
 62
     7
100
AcDbLine
 10
2337.821842
 20
2058.0130036
 30
0.0
 11
251.3744528
 21
2058.0130036
 31
0.0
  0
LINE
  5
109
330
1F
100
AcDbEntity
  8
0
  6
Continuous
 62
     7
100
AcDbLine
 10
251.3744528
 20
2058.0130036
 30
0.0
 11
251.3744528
 21
2143.8192836
 31
0.0
  0
LINE
  5
10A
330
1F
100
AcDbEntity
  8
0
  6
Continuous
 62
     7
100
AcDbLine
 10
251.3744528
 20
2143.8192836
 30
0.0
 11
337.1807328
 21
2143.8192836
 31
0.0
  0
LINE
  5
10B
330
1F
100
AcDbEntity
  8
0
  6
Continuous
 62
     7
100
AcDbLine
 10
337.1807328
 20
2143.8192836
 30
0.0
 11
337.1807328
 21
2229.6255636
 31
0.0
  0
LINE
  5
10C
330
1F
100
AcDbEntity
  8
0
  6
Continuous
 62
     7
100
AcDbLine
 10
337.1807328
 20
2229.6255636
 30
0.0
 11
251.3744528
 21
2229.6255636
 31
0.0
  0
LINE
  5
10D
330
1F
100
AcDbEntity
  8
0
  6
Continuous
 62
     7
100
AcDbLine
 10
251.3744528
 20
2229.6255636
 30
0.0
 11
251.3744528
 21
2315.4318436
 31
0.0
  0
LINE
  5
10E
330
1F
100
AcDbEntity
  8
0
  6
Continuous
 62
     7
100
AcDbLine
 10
251.3744528
 20
2315.4318436
 30
0.0
 11
337.1807328
 21
2315.4318436
 31
0.0
  0
LINE
  5
10F
330
1F
100
AcDbEntity
  8
0
  6
Continuous
 62
     7
100
AcDbLine
 10
337.1807328
 20
1758.0136036
 30
0.0
 11
337.1807328
 21
1843.8198836
 31
0.0
  0
LINE
  5
110
330
1F
100
AcDbEntity
  8
0
  6
Continuous
 62
     7
100
AcDbLine
 10
337.1807328
 20
1843.8198836
 30
0.0
 11
251.3744528
 21
1843.8198836
 31
0.0
  0
LINE
  5
111
330
1F
100
AcDbEntity
  8
0
  6
Continuous
 62
     7
100
AcDbLine
 10
251.3744528
 20
1843.8198836
 30
0.0
 11
251.3744528
 21
1929.6261636
 31
0.0
  0
LINE
  5
112
330
1F
100
AcDbEntity
  8
0
  6
Continuous
 62
     7
100
AcDbLine
 10
251.3744528
 20
1929.6261636
 30
0.0
 11
337.1807328
 21
1929.6261636
 31
0.0
  0
LINE
  5
113
330
1F
100
AcDbEntity
  8
0
  6
Continuous
 62
     7
100
AcDbLine
 10
337.1807328
 20
1929.6261636
 30
0.0
 11
337.1807328
 21
2015.4324436
 31
0.0
  0
LINE
  5
114
330
1F
100
AcDbEntity
  8
0
  6
Continuous
 62
     7
100
AcDbLine
 10
337.1807328
 20
2015.4324436
 30
0.0
 11
2252.015562
 21
2015.4324436
 31
0.0
  0
LINE
  5
115
330
1F
100
AcDbEntity
  8
0
  6
Continuous
 62
     7
100
AcDbLine
 10
2252.015562
 20
2015.4324436
 30
0.0
 11
2252.015562
 21
1929.6261636
 31
0.0
  0
LINE
  5
116
330
1F
100
AcDbEntity
  8
0
  6
Continuous
 62
     7
100
AcDbLine
 10
2252.015562
 20
1929.6261636
 30
0.0
 11
2337.821842
 21
1929.6261636
 31
0.0
  0
LINE
  5
117
330
1F
100
AcDbEntity
  8
0
  6
Continuous
 62
     7
100
AcDbLine
 10
2337.821842
 20
1929.6261636
 30
0.0
 11
2337.821842
 21
1843.8198836
 31
0.0
  0
LINE
  5
118
330
1F
100
AcDbEntity
  8
0
  6
Continuous
 62
     7
100
AcDbLine
 10
2337.821842
 20
1843.8198836
 30
0.0
 11
2252.015562
 21
1843.8198836
 31
0.0
  0
LINE
  5
119
330
1F
100
AcDbEntity
  8
0
  6
Continuous
 62
     7
100
AcDbLine
 10
2252.015562
 20
1843.8198836
 30
0.0
 11
2252.015562
 21
1758.0136036
 31
0.0
  0
LINE
  5
11A
330
1F
100
AcDbEntity
  8
0
  6
Continuous
 62
     7
100
AcDbLine
 10
2252.015562
 20
1758.0136036
 30
0.0
 11
2337.821842
 21
1758.0136036
 31
0.0
  0
LINE
  5
11B
330
1F
100
AcDbEntity
  8
0
  6
Continuous
 62
     7
100
AcDbLine
 10
2337.821842
 20
1758.0136036
 30
0.0
 11
2337.821842
 21
1672.2073236
 31
0.0
  0
LINE
  5
11C
330
1F
100
AcDbEntity
  8
0
  6
Continuous
 62
     7
100
AcDbLine
 10
2337.821842
 20
1672.2073236
 30
0.0
 11
2252.015562
 21
1672.2073236
 31
0.0
  0
LINE
  5
11D
330
1F
100
AcDbEntity
  8
0
  6
Continuous
 62
     7
100
AcDbLine
 10
2252.015562
 20
1672.2073236
 30
0.0
 11
2252.015562
 21
1586.4010436
 31
0.0
  0
LINE
  5
11E
330
1F
100
AcDbEntity
  8
0
  6
Continuous
 62
     7
100
AcDbLine
 10
2252.015562
 20
1586.4010436
 30
0.0
 11
2337.821842
 21
1586.4010436
 31
0.0
  0
LINE
  5
11F
330
1F
100
AcDbEntity
  8
0
  6
Continuous
 62
     7
100
AcDbLine
 10
2337.821842
 20
1586.4010436
 30
0.0
 11
2337.821842
 21
1500.5947636
 31
0.0
  0
LINE
  5
120
330
1F
100
AcDbEntity
  8
0
  6
Continuous
 62
     7
100
AcDbLine
 10
2337.821842
 20
1500.5947636
 30
0.0
 11
251.3744528
 21
1500.5947636
 31
0.0
  0
LINE
  5
121
330
1F
100
AcDbEntity
  8
0
  6
Continuous
 62
     7
100
AcDbLine
 10
251.3744528
 20
1500.5947636
 30
0.0
 11
251.3744528
 21
1586.4010436
 31
0.0
  0
LINE
  5
122
330
1F
100
AcDbEntity
  8
0
  6
Continuous
 62
     7
100
AcDbLine
 10
251.3744528
 20
1586.4010436
 30
0.0
 11
337.1807328
 21
1586.4010436
 31
0.0
  0
LINE
  5
123
330
1F
100
AcDbEntity
  8
0
  6
Continuous
 62
     7
100
AcDbLine
 10
337.1807328
 20
1586.4010436
 30
0.0
 11
337.1807328
 21
1672.2073236
 31
0.0
  0
LINE
  5
124
330
1F
100
AcDbEntity
  8
0
  6
Continuous
 62
     7
100
AcDbLine
 10
337.1807328
 20
1672.2073236
 30
0.0
 11
251.3744528
 21
1672.2073236
 31
0.0
  0
LINE
  5
125
330
1F
100
AcDbEntity
  8
0
  6
Continuous
 62
     7
100
AcDbLine
 10
251.3744528
 20
1672.2073236
 30
0.0
 11
251.3744528
 21
1758.0136036
 31
0.0
  0
LINE
  5
126
330
1F
100
AcDbEntity
  8
0
  6
Continuous
 62
     7
100
AcDbLine
 10
251.3744528
 20
1758.0136036
 30
0.0
 11
337.1807328
 21
1758.0136036
 31
0.0
  0
LINE
  5
127
330
1F
100
AcDbEntity
  8
0
  6
Continuous
 62
     7
100
AcDbLine
 10
4595.2366312
 20
2015.4324436
 30
0.0
 11
4595.2366312
 21
2101.2387236
 31
0.0
  0
LINE
  5
128
330
1F
100
AcDbEntity
  8
0
  6
Continuous
 62
     7
100
AcDbLine
 10
4595.2366312
 20
2101.2387236
 30
0.0
 11
4509.4303512
 21
2101.2387236
 31
0.0
  0
LINE
  5
129
330
1F
100
AcDbEntity
  8
0
  6
Continuous
 62
     7
100
AcDbLine
 10
4509.4303512
 20
2101.2387236
 30
0.0
 11
4509.4303512
 21
2187.0450036
 31
0.0
  0
LINE
  5
12A
330
1F
100
AcDbEntity
  8
0
  6
Continuous
 62
     7
100
AcDbLine
 10
4509.4303512
 20
2187.0450036
 30
0.0
 11
4595.2366312
 21
2187.0450036
 31
0.0
  0
LINE
  5
12B
330
1F
100
AcDbEntity
  8
0
  6
Continuous
 62
     7
100
AcDbLine
 10
4595.2366312
 20
2187.0450036
 30
0.0
 11
4595.2366312
 21
2272.8512836
 31
0.0
  0
LINE
  5
12C
330
1F
100
AcDbEntity
  8
0
  6
Continuous
 62
     7
100
AcDbLine
 10
4595.2366312
 20
2272.8512836
 30
0.0
 11
6510.0714858
 21
2272.8512836
 31
0.0
  0
LINE
  5
12D
330
1F
100
AcDbEntity
  8
0
  6
Continuous
 62
     7
100
AcDbLine
 10
6510.0714858
 20
2272.8512836
 30
0.0
 11
6510.0714858
 21
2187.0450036
 31
0.0
  0
LINE
  5
12E
330
1F
100
AcDbEntity
  8
0
  6
Continuous
 62
     7
100
AcDbLine
 10
6510.0714858
 20
2187.0450036
 30
0.0
 11
6595.8777658
 21
2187.0450036
 31
0.0
  0
LINE
  5
12F
330
1F
100
AcDbEntity
  8
0
  6
Continuous
 62
     7
100
AcDbLine
 10
6595.8777658
 20
2187.0450036
 30
0.0
 11
6595.8777658
 21
2101.2387236
 31
0.0
  0
LINE
  5
130
330
1F
100
AcDbEntity
  8
0
  6
Continuous
 62
     7
100
AcDbLine
 10
6595.8777658
 20
2101.2387236
 30
0.0
 11
6510.0714858
 21
2101.2387236
 31
0.0
  0
LINE
  5
131
330
1F
100
AcDbEntity
  8
0
  6
Continuous
 62
     7
100
AcDbLine
 10
6510.0714858
 20
2101.2387236
 30
0.0
 11
6510.0714858
 21
2015.4324436
 31
0.0
  0
LINE
  5
132
330
1F
100
AcDbEntity
  8
0
  6
Continuous
 62
     7
100
AcDbLine
 10
6510.0714858
 20
2015.4324436
 30
0.0
 11
6595.8777658
 21
2015.4324436
 31
0.0
  0
LINE
  5
133
330
1F
100
AcDbEntity
  8
0
  6
Continuous
 62
     7
100
AcDbLine
 10
6595.8777658
 20
2015.4324436
 30
0.0
 11
6595.8777658
 21
1929.6261636
 31
0.0
  0
LINE
  5
134
330
1F
100
AcDbEntity
  8
0
  6
Continuous
 62
     7
100
AcDbLine
 10
6595.8777658
 20
1929.6261636
 30
0.0
 11
6510.0714858
 21
1929.6261636
 31
0.0
  0
LINE
  5
135
330
1F
100
AcDbEntity
  8
0
  6
Continuous
 62
     7
100
AcDbLine
 10
6510.0714858
 20
1929.6261636
 30
0.0
 11
6510.0714858
 21
1843.8198836
 31
0.0
  0
LINE
  5
136
330
1F
100
AcDbEntity
  8
0
  6
Continuous
 62
     7
100
AcDbLine
 10
6510.0714858
 20
1843.8198836
 30
0.0
 11
6595.8777658
 21
1843.8198836
 31
0.0
  0
LINE
  5
137
330
1F
100
AcDbEntity
  8
0
  6
Continuous
 62
     7
100
AcDbLine
 10
6595.8777658
 20
1843.8198836
 30
0.0
 11
6595.8777658
 21
1758.0136036
 31
0.0
  0
LINE
  5
138
330
1F
100
AcDbEntity
  8
0
  6
Continuous
 62
     7
100
AcDbLine
 10
6595.8777658
 20
1758.0136036
 30
0.0
 11
4509.4303512
 21
1758.0136036
 31
0.0
  0
LINE
  5
139
330
1F
100
AcDbEntity
  8
0
  6
Continuous
 62
     7
100
AcDbLine
 10
4509.4303512
 20
1758.0136036
 30
0.0
 11
4509.4303512
 21
1843.8198836
 31
0.0
  0
LINE
  5
13A
330
1F
100
AcDbEntity
  8
0
  6
Continuous
 62
     7
100
AcDbLine
 10
4509.4303512
 20
1843.8198836
 30
0.0
 11
4595.2366312
 21
1843.8198836
 31
0.0
  0
LINE
  5
13B
330
1F
100
AcDbEntity
  8
0
  6
Continuous
 62
     7
100
AcDbLine
 10
4595.2366312
 20
1843.8198836
 30
0.0
 11
4595.2366312
 21
1929.6261636
 31
0.0
  0
LINE
  5
13C
330
1F
100
AcDbEntity
  8
0
  6
Continuous
 62
     7
100
AcDbLine
 10
4595.2366312
 20
1929.6261636
 30
0.0
 11
4509.4303512
 21
1929.6261636
 31
0.0
  0
LINE
  5
13D
330
1F
100
AcDbEntity
  8
0
  6
Continuous
 62
     7
100
AcDbLine
 10
4509.4303512
 20
1929.6261636
 30
0.0
 11
4509.4303512
 21
2015.4324436
 31
0.0
  0
LINE
  5
13E
330
1F
100
AcDbEntity
  8
0
  6
Continuous
 62
     7
100
AcDbLine
 10
4509.4303512
 20
2015.4324436
 30
0.0
 11
4595.2366312
 21
2015.4324436
 31
0.0
  0
LINE
  5
13F
330
1F
100
AcDbEntity
  8
0
  6
Continuous
 62
     7
100
AcDbLine
 10
4509.4303512
 20
2572.8506582
 30
0.0
 11
6595.8777658
 21
2572.8506582
 31
0.0
  0
LINE
  5
140
330
1F
100
AcDbEntity
  8
0
  6
Continuous
 62
     7
100
AcDbLine
 10
6595.8777658
 20
2572.8506582
 30
0.0
 11
6595.8777658
 21
2487.0444036
 31
0.0
  0
LINE
  5
141
330
1F
100
AcDbEntity
  8
0
  6
Continuous
 62
     7
100
AcDbLine
 10
6595.8777658
 20
2487.0444036
 30
0.0
 11
6510.0714858
 21
2487.0444036
 31
0.0
  0
LINE
  5
142
330
1F
100
AcDbEntity
  8
0
  6
Continuous
 62
     7
100
AcDbLine
 10
6510.0714858
 20
2487.0444036
 30
0.0
 11
6510.0714858
 21
2401.2381236
 31
0.0
  0
LINE
  5
143
330
1F
100
AcDbEntity
  8
0
  6
Continuous
 62
     7
100
AcDbLine
 10
6510.0714858
 20
2401.2381236
 30
0.0
 11
6595.8777658
 21
2401.2381236
 31
0.0
  0
LINE
  5
144
330
1F
100
AcDbEntity
  8
0
  6
Continuous
 62
     7
100
AcDbLine
 10
6595.8777658
 20
2401.2381236
 30
0.0
 11
6595.8777658
 21
2315.4318436
 31
0.0
  0
LINE
  5
145
330
1F
100
AcDbEntity
  8
0
  6
Continuous
 62
     7
100
AcDbLine
 10
6595.8777658
 20
2315.4318436
 30
0.0
 11
4509.4303512
 21
2315.4318436
 31
0.0
  0
LINE
  5
146
330
1F
100
AcDbEntity
  8
0
  6
Continuous
 62
     7
100
AcDbLine
 10
4509.4303512
 20
2315.4318436
 30
0.0
 11
4509.4303512
 21
2401.2381236
 31
0.0
  0
LINE
  5
147
330
1F
100
AcDbEntity
  8
0
  6
Continuous
 62
     7
100
AcDbLine
 10
4509.4303512
 20
2401.2381236
 30
0.0
 11
4595.2366312
 21
2401.2381236
 31
0.0
  0
LINE
  5
148
330
1F
100
AcDbEntity
  8
0
  6
Continuous
 62
     7
100
AcDbLine
 10
4595.2366312
 20
2401.2381236
 30
0.0
 11
4595.2366312
 21
2487.0444036
 31
0.0
  0
LINE
  5
149
330
1F
100
AcDbEntity
  8
0
  6
Continuous
 62
     7
100
AcDbLine
 10
4595.2366312
 20
2487.0444036
 30
0.0
 11
4509.4303512
 21
2487.0444036
 31
0.0
  0
LINE
  5
14A
330
1F
100
AcDbEntity
  8
0
  6
Continuous
 62
     7
100
AcDbLine
 10
4509.4303512
 20
2487.0444036
 30
0.0
 11
4509.4303512
 21
2572.8506582
 31
0.0
  0
LINE
  5
14B
330
1F
100
AcDbEntity
  8
0
  6
Continuous
 62
     7
100
AcDbLine
 10
2466.208682
 20
1714.7878836
 30
0.0
 11
2380.402402
 21
1714.7878836
 31
0.0
  0
LINE
  5
14C
330
1F
100
AcDbEntity
  8
0
  6
Continuous
 62
     7
100
AcDbLine
 10
2380.402402
 20
1714.7878836
 30
0.0
 11
2380.402402
 21
1800.5941636
 31
0.0
  0
LINE
  5
14D
330
1F
100
AcDbEntity
  8
0
  6
Continuous
 62
     7
100
AcDbLine
 10
2380.402402
 20
1800.5941636
 30
0.0
 11
2466.208682
 21
1800.5941636
 31
0.0
  0
LINE
  5
14E
330
1F
100
AcDbEntity
  8
0
  6
Continuous
 62
     7
100
AcDbLine
 10
2466.208682
 20
1800.5941636
 30
0.0
 11
2466.208682
 21
1886.4004436
 31
0.0
  0
LINE
  5
14F
330
1F
100
AcDbEntity
  8
0
  6
Continuous
 62
     7
100
AcDbLine
 10
2466.208682
 20
1886.4004436
 30
0.0
 11
2380.402402
 21
1886.4004436
 31
0.0
  0
LINE
  5
150
330
1F
100
AcDbEntity
  8
0
  6
Continuous
 62
     7
100
AcDbLine
 10
2380.402402
 20
1886.4004436
 30
0.0
 11
2380.402402
 21
1972.2067236
 31
0.0
  0
LINE
  5
151
330
1F
100
AcDbEntity
  8
0
  6
Continuous
 62
     7
100
AcDbLine
 10
2380.402402
 20
1972.2067236
 30
0.0
 11
2466.208682
 21
1972.2067236
 31
0.0
  0
LINE
  5
152
330
1F
100
AcDbEntity
  8
0
  6
Continuous
 62
     7
100
AcDbLine
 10
2466.208682
 20
1972.2067236
 30
0.0
 11
2466.208682
 21
2058.0130036
 31
0.0
  0
LINE
  5
153
330
1F
100
AcDbEntity
  8
0
  6
Continuous
 62
     7
100
AcDbLine
 10
2466.208682
 20
2058.0130036
 30
0.0
 11
2380.402402
 21
2058.0130036
 31
0.0
  0
LINE
  5
154
330
1F
100
AcDbEntity
  8
0
  6
Continuous
 62
     7
100
AcDbLine
 10
2380.402402
 20
2058.0130036
 30
0.0
 11
2380.402402
 21
2143.8192836
 31
0.0
  0
LINE
  5
155
330
1F
100
AcDbEntity
  8
0
  6
Continuous
 62
     7
100
AcDbLine
 10
2380.402402
 20
2143.8192836
 30
0.0
 11
2466.208682
 21
2143.8192836
 31
0.0
  0
LINE
  5
156
330
1F
100
AcDbEntity
  8
0
  6
Continuous
 62
     7
100
AcDbLine
 10
2466.208682
 20
2143.8192836
 30
0.0
 11
2466.208682
 21
2229.6255636
 31
0.0
  0
LINE
  5
157
330
1F
100
AcDbEntity
  8
0
  6
Continuous
 62
     7
100
AcDbLine
 10
2466.208682
 20
2229.6255636
 30
0.0
 11
2380.402402
 21
2229.6255636
 31
0.0
  0
LINE
  5
158
330
1F
100
AcDbEntity
  8
0
  6
Continuous
 62
     7
100
AcDbLine
 10
2380.402402
 20
2229.6255636
 30
0.0
 11
2380.402402
 21
2315.4318436
 31
0.0
  0
LINE
  5
159
330
1F
100
AcDbEntity
  8
0
  6
Continuous
 62
     7
100
AcDbLine
 10
2380.402402
 20
2315.4318436
 30
0.0
 11
2466.208682
 21
2315.4318436
 31
0.0
  0
LINE
  5
15A
330
1F
100
AcDbEntity
  8
0
  6
Continuous
 62
     7
100
AcDbLine
 10
2466.208682
 20
2315.4318436
 30
0.0
 11
2466.208682
 21
2401.2381236
 31
0.0
  0
LINE
  5
15B
330
1F
100
AcDbEntity
  8
0
  6
Continuous
 62
     7
100
AcDbLine
 10
2466.208682
 20
2401.2381236
 30
0.0
 11
2380.402402
 21
2401.2381236
 31
0.0
  0
LINE
  5
15C
330
1F
100
AcDbEntity
  8
0
  6
Continuous
 62
     7
100
AcDbLine
 10
2380.402402
 20
2401.2381236
 30
0.0
 11
2380.402402
 21
2487.0444036
 31
0.0
  0
LINE
  5
15D
330
1F
100
AcDbEntity
  8
0
  6
Continuous
 62
     7
100
AcDbLine
 10
2380.402402
 20
2487.0444036
 30
0.0
 11
2466.208682
 21
2487.0444036
 31
0.0
  0
LINE
  5
15E
330
1F
100
AcDbEntity
  8
0
  6
Continuous
 62
     7
100
AcDbLine
 10
2466.208682
 20
2487.0444036
 30
0.0
 11
2466.208682
 21
2572.8506582
 31
0.0
  0
LINE
  5
15F
330
1F
100
AcDbEntity
  8
0
  6
Continuous
 62
     7
100
AcDbLine
 10
2466.208682
 20
2572.8506582
 30
0.0
 11
4381.0435112
 21
2572.8506582
 31
0.0
  0
LINE
  5
160
330
1F
100
AcDbEntity
  8
0
  6
Continuous
 62
     7
100
AcDbLine
 10
4381.0435112
 20
2572.8506582
 30
0.0
 11
4381.0435112
 21
2487.0444036
 31
0.0
  0
LINE
  5
161
330
1F
100
AcDbEntity
  8
0
  6
Continuous
 62
     7
100
AcDbLine
 10
4381.0435112
 20
2487.0444036
 30
0.0
 11
4466.8497912
 21
2487.0444036
 31
0.0
  0
LINE
  5
162
330
1F
100
AcDbEntity
  8
0
  6
Continuous
 62
     7
100
AcDbLine
 10
4466.8497912
 20
2487.0444036
 30
0.0
 11
4466.8497912
 21
2401.2381236
 31
0.0
  0
LINE
  5
163
330
1F
100
AcDbEntity
  8
0
  6
Continuous
 62
     7
100
AcDbLine
 10
4466.8497912
 20
2401.2381236
 30
0.0
 11
4381.0435112
 21
2401.2381236
 31
0.0
  0
LINE
  5
164
330
1F
100
AcDbEntity
  8
0
  6
Continuous
 62
     7
100
AcDbLine
 10
4381.0435112
 20
2401.2381236
 30
0.0
 11
4381.0435112
 21
2315.4318436
 31
0.0
  0
LINE
  5
165
330
1F
100
AcDbEntity
  8
0
  6
Continuous
 62
     7
100
AcDbLine
 10
4381.0435112
 20
2315.4318436
 30
0.0
 11
4466.8497912
 21
2315.4318436
 31
0.0
  0
LINE
  5
166
330
1F
100
AcDbEntity
  8
0
  6
Continuous
 62
     7
100
AcDbLine
 10
4466.8497912
 20
2315.4318436
 30
0.0
 11
4466.8497912
 21
2229.6255636
 31
0.0
  0
LINE
  5
167
330
1F
100
AcDbEntity
  8
0
  6
Continuous
 62
     7
100
AcDbLine
 10
4466.8497912
 20
2229.6255636
 30
0.0
 11
4381.0435112
 21
2229.6255636
 31
0.0
  0
LINE
  5
168
330
1F
100
AcDbEntity
  8
0
  6
Continuous
 62
     7
100
AcDbLine
 10
4381.0435112
 20
2229.6255636
 30
0.0
 11
4381.0435112
 21
2143.8192836
 31
0.0
  0
LINE
  5
169
330
1F
100
AcDbEntity
  8
0
  6
Continuous
 62
     7
100
AcDbLine
 10
4381.0435112
 20
2143.8192836
 30
0.0
 11
4466.8497912
 21
2143.8192836
 31
0.0
  0
LINE
  5
16A
330
1F
100
AcDbEntity
  8
0
  6
Continuous
 62
     7
100
AcDbLine
 10
4466.8497912
 20
2143.8192836
 30
0.0
 11
4466.8497912
 21
2058.0130036
 31
0.0
  0
LINE
  5
16B
330
1F
100
AcDbEntity
  8
0
  6
Continuous
 62
     7
100
AcDbLine
 10
4466.8497912
 20
2058.0130036
 30
0.0
 11
4381.0435112
 21
2058.0130036
 31
0.0
  0
LINE
  5
16C
330
1F
100
AcDbEntity
  8
0
  6
Continuous
 62
     7
100
AcDbLine
 10
4381.0435112
 20
2058.0130036
 30
0.0
 11
4381.0435112
 21
1972.2067236
 31
0.0
  0
LINE
  5
16D
330
1F
100
AcDbEntity
  8
0
  6
Continuous
 62
     7
100
AcDbLine
 10
4381.0435112
 20
1972.2067236
 30
0.0
 11
4466.8497912
 21
1972.2067236
 31
0.0
  0
LINE
  5
16E
330
1F
100
AcDbEntity
  8
0
  6
Continuous
 62
     7
100
AcDbLine
 10
4466.8497912
 20
1972.2067236
 30
0.0
 11
4466.8497912
 21
1886.4004436
 31
0.0
  0
LINE
  5
16F
330
1F
100
AcDbEntity
  8
0
  6
Continuous
 62
     7
100
AcDbLine
 10
4466.8497912
 20
1886.4004436
 30
0.0
 11
4381.0435112
 21
1886.4004436
 31
0.0
  0
LINE
  5
170
330
1F
100
AcDbEntity
  8
0
  6
Continuous
 62
     7
100
AcDbLine
 10
4381.0435112
 20
1886.4004436
 30
0.0
 11
4381.0435112
 21
1800.5941636
 31
0.0
  0
LINE
  5
171
330
1F
100
AcDbEntity
  8
0
  6
Continuous
 62
     7
100
AcDbLine
 10
4381.0435112
 20
1800.5941636
 30
0.0
 11
4466.8497912
 21
1800.5941636
 31
0.0
  0
LINE
  5
172
330
1F
100
AcDbEntity
  8
0
  6
Continuous
 62
     7
100
AcDbLine
 10
4466.8497912
 20
1800.5941636
 30
0.0
 11
4466.8497912
 21
1714.7878836
 31
0.0
  0
LINE
  5
173
330
1F
100
AcDbEntity
  8
0
  6
Continuous
 62
     7
100
AcDbLine
 10
4466.8497912
 20
1714.7878836
 30
0.0
 11
4381.0435112
 21
1714.7878836
 31
0.0
  0
LINE
  5
174
330
1F
100
AcDbEntity
  8
0
  6
Continuous
 62
     7
100
AcDbLine
 10
4381.0435112
 20
1714.7878836
 30
0.0
 11
4381.0435112
 21
1628.9816036
 31
0.0
  0
LINE
  5
175
330
1F
100
AcDbEntity
  8
0
  6
Continuous
 62
     7
100
AcDbLine
 10
4381.0435112
 20
1628.9816036
 30
0.0
 11
4466.8497912
 21
1628.9816036
 31
0.0
  0
LINE
  5
176
330
1F
100
AcDbEntity
  8
0
  6
Continuous
 62
     7
100
AcDbLine
 10
4466.8497912
 20
1628.9816036
 30
0.0
 11
4466.8497912
 21
1543.1753236
 31
0.0
  0
LINE
  5
177
330
1F
100
AcDbEntity
  8
0
  6
Continuous
 62
     7
100
AcDbLine
 10
4466.8497912
 20
1543.1753236
 30
0.0
 11
2380.402402
 21
1543.1753236
 31
0.0
  0
LINE
  5
178
330
1F
100
AcDbEntity
  8
0
  6
Continuous
 62
     7
100
AcDbLine
 10
2380.402402
 20
1543.1753236
 30
0.0
 11
2380.402402
 21
1628.9816036
 31
0.0
  0
LINE
  5
179
330
1F
100
AcDbEntity
  8
0
  6
Continuous
 62
     7
100
AcDbLine
 10
2380.402402
 20
1628.9816036
 30
0.0
 11
2466.208682
 21
1628.9816036
 31
0.0
  0
LINE
  5
17A
330
1F
100
AcDbEntity
  8
0
  6
Continuous
 62
     7
100
AcDbLine
 10
2466.208682
 20
1628.9816036
 30
0.0
 11
2466.208682
 21
1714.7878836
 31
0.0
  0
LINE
  5
17B
330
1F
100
AcDbEntity
  8
0
  6
Continuous
 62
     7
100
AcDbLine
 10
2466.208682
 20
6808.971142
 30
0.0
 11
3670.7223766
 21
6808.971142
 31
0.0
  0
LINE
  5
17C
330
1F
100
AcDbEntity
  8
0
  6
Continuous
 62
     7
100
AcDbLine
 10
3670.7223766
 20
6808.971142
 30
0.0
 11
3670.7223766
 21
6486.391142
 31
0.0
  0
LINE
  5
17D
330
1F
100
AcDbEntity
  8
0
  6
Continuous
 62
     7
100
AcDbLine
 10
3670.7223766
 20
6486.391142
 30
0.0
 11
3584.9160966
 21
6486.391142
 31
0.0
  0
LINE
  5
17E
330
1F
100
AcDbEntity
  8
0
  6
Continuous
 62
     7
100
AcDbLine
 10
3584.9160966
 20
6486.391142
 30
0.0
 11
3584.9160966
 21
6163.811142
 31
0.0
  0
LINE
  5
17F
330
1F
100
AcDbEntity
  8
0
  6
Continuous
 62
     7
100
AcDbLine
 10
3584.9160966
 20
6163.811142
 30
0.0
 11
3670.7223766
 21
6163.811142
 31
0.0
  0
LINE
  5
180
330
1F
100
AcDbEntity
  8
0
  6
Continuous
 62
     7
100
AcDbLine
 10
3670.7223766
 20
6163.811142
 30
0.0
 11
3670.7223766
 21
5841.2311674
 31
0.0
  0
LINE
  5
181
330
1F
100
AcDbEntity
  8
0
  6
Continuous
 62
     7
100
AcDbLine
 10
3670.7223766
 20
5841.2311674
 30
0.0
 11
3584.9160966
 21
5841.2311674
 31
0.0
  0
LINE
  5
182
330
1F
100
AcDbEntity
  8
0
  6
Continuous
 62
     7
100
AcDbLine
 10
3584.9160966
 20
5841.2311674
 30
0.0
 11
3584.9160966
 21
5518.6511674
 31
0.0
  0
LINE
  5
183
330
1F
100
AcDbEntity
  8
0
  6
Continuous
 62
     7
100
AcDbLine
 10
3584.9160966
 20
5518.6511674
 30
0.0
 11
3670.7223766
 21
5518.6511674
 31
0.0
  0
LINE
  5
184
330
1F
100
AcDbEntity
  8
0
  6
Continuous
 62
     7
100
AcDbLine
 10
3670.7223766
 20
5518.6511674
 30
0.0
 11
3670.7223766
 21
5196.0711674
 31
0.0
  0
LINE
  5
185
330
1F
100
AcDbEntity
  8
0
  6
Continuous
 62
     7
100
AcDbLine
 10
3670.7223766
 20
5196.0711674
 30
0.0
 11
3584.9160966
 21
5196.0711674
 31
0.0
  0
LINE
  5
186
330
1F
100
AcDbEntity
  8
0
  6
Continuous
 62
     7
100
AcDbLine
 10
3584.9160966
 20
5196.0711674
 30
0.0
 11
3584.9160966
 21
4873.4911674
 31
0.0
  0
LINE
  5
187
330
1F
100
AcDbEntity
  8
0
  6
Continuous
 62
     7
100
AcDbLine
 10
3584.9160966
 20
4873.4911674
 30
0.0
 11
3670.7223766
 21
4873.4911674
 31
0.0
  0
LINE
  5
188
330
1F
100
AcDbEntity
  8
0
  6
Continuous
 62
     7
100
AcDbLine
 10
3670.7223766
 20
4873.4911674
 30
0.0
 11
3670.7223766
 21
4550.9111928
 31
0.0
  0
LINE
  5
189
330
1F
100
AcDbEntity
  8
0
  6
Continuous
 62
     7
100
AcDbLine
 10
3670.7223766
 20
4550.9111928
 30
0.0
 11
3584.9160966
 21
4550.9111928
 31
0.0
  0
LINE
  5
18A
330
1F
100
AcDbEntity
  8
0
  6
Continuous
 62
     7
100
AcDbLine
 10
3584.9160966
 20
4550.9111928
 30
0.0
 11
3584.9160966
 21
4228.3311928
 31
0.0
  0
LINE
  5
18B
330
1F
100
AcDbEntity
  8
0
  6
Continuous
 62
     7
100
AcDbLine
 10
3584.9160966
 20
4228.3311928
 30
0.0
 11
3670.7223766
 21
4228.3311928
 31
0.0
  0
LINE
  5
18C
330
1F
100
AcDbEntity
  8
0
  6
Continuous
 62
     7
100
AcDbLine
 10
3670.7223766
 20
4228.3311928
 30
0.0
 11
3670.7223766
 21
3905.7511928
 31
0.0
  0
LINE
  5
18D
330
1F
100
AcDbEntity
  8
0
  6
Continuous
 62
     7
100
AcDbLine
 10
3670.7223766
 20
3905.7511928
 30
0.0
 11
3584.9160966
 21
3905.7511928
 31
0.0
  0
LINE
  5
18E
330
1F
100
AcDbEntity
  8
0
  6
Continuous
 62
     7
100
AcDbLine
 10
3584.9160966
 20
3905.7511928
 30
0.0
 11
3584.9160966
 21
3583.1712182
 31
0.0
  0
LINE
  5
18F
330
1F
100
AcDbEntity
  8
0
  6
Continuous
 62
     7
100
AcDbLine
 10
3584.9160966
 20
3583.1712182
 30
0.0
 11
3670.7223766
 21
3583.1712182
 31
0.0
  0
LINE
  5
190
330
1F
100
AcDbEntity
  8
0
  6
Continuous
 62
     7
100
AcDbLine
 10
3670.7223766
 20
3583.1712182
 30
0.0
 11
3670.7223766
 21
3260.5912182
 31
0.0
  0
LINE
  5
191
330
1F
100
AcDbEntity
  8
0
  6
Continuous
 62
     7
100
AcDbLine
 10
3670.7223766
 20
3260.5912182
 30
0.0
 11
3584.9160966
 21
3260.5912182
 31
0.0
  0
LINE
  5
192
330
1F
100
AcDbEntity
  8
0
  6
Continuous
 62
     7
100
AcDbLine
 10
3584.9160966
 20
3260.5912182
 30
0.0
 11
3584.9160966
 21
2938.0112182
 31
0.0
  0
LINE
  5
193
330
1F
100
AcDbEntity
  8
0
  6
Continuous
 62
     7
100
AcDbLine
 10
3584.9160966
 20
2938.0112182
 30
0.0
 11
3670.7223766
 21
2938.0112182
 31
0.0
  0
LINE
  5
194
330
1F
100
AcDbEntity
  8
0
  6
Continuous
 62
     7
100
AcDbLine
 10
3670.7223766
 20
2938.0112182
 30
0.0
 11
3670.7223766
 21
2615.4312182
 31
0.0
  0
LINE
  5
195
330
1F
100
AcDbEntity
  8
0
  6
Continuous
 62
     7
100
AcDbLine
 10
3670.7223766
 20
2615.4312182
 30
0.0
 11
2466.208682
 21
2615.4312182
 31
0.0
  0
LINE
  5
196
330
1F
100
AcDbEntity
  8
0
  6
Continuous
 62
     7
100
AcDbLine
 10
2466.208682
 20
2615.4312182
 30
0.0
 11
2466.208682
 21
2938.0112182
 31
0.0
  0
LINE
  5
197
330
1F
100
AcDbEntity
  8
0
  6
Continuous
 62
     7
100
AcDbLine
 10
2466.208682
 20
2938.0112182
 30
0.0
 11
2380.402402
 21
2938.0112182
 31
0.0
  0
LINE
  5
198
330
1F
100
AcDbEntity
  8
0
  6
Continuous
 62
     7
100
AcDbLine
 10
2380.402402
 20
2938.0112182
 30
0.0
 11
2380.402402
 21
3260.5912182
 31
0.0
  0
LINE
  5
199
330
1F
100
AcDbEntity
  8
0
  6
Continuous
 62
     7
100
AcDbLine
 10
2380.402402
 20
3260.5912182
 30
0.0
 11
2466.208682
 21
3260.5912182
 31
0.0
  0
LINE
  5
19A
330
1F
100
AcDbEntity
  8
0
  6
Continuous
 62
     7
100
AcDbLine
 10
2466.208682
 20
3260.5912182
 30
0.0
 11
2466.208682
 21
3583.1712182
 31
0.0
  0
LINE
  5
19B
330
1F
100
AcDbEntity
  8
0
  6
Continuous
 62
     7
100
AcDbLine
 10
2466.208682
 20
3583.1712182
 30
0.0
 11
2380.402402
 21
3583.1712182
 31
0.0
  0
LINE
  5
19C
330
1F
100
AcDbEntity
  8
0
  6
Continuous
 62
     7
100
AcDbLine
 10
2380.402402
 20
3583.1712182
 30
0.0
 11
2380.402402
 21
3905.7511928
 31
0.0
  0
LINE
  5
19D
330
1F
100
AcDbEntity
  8
0
  6
Continuous
 62
     7
100
AcDbLine
 10
2380.402402
 20
3905.7511928
 30
0.0
 11
2466.208682
 21
3905.7511928
 31
0.0
  0
LINE
  5
19E
330
1F
100
AcDbEntity
  8
0
  6
Continuous
 62
     7
100
AcDbLine
 10
2466.208682
 20
3905.7511928
 30
0.0
 11
2466.208682
 21
4228.3311928
 31
0.0
  0
LINE
  5
19F
330
1F
100
AcDbEntity
  8
0
  6
Continuous
 62
     7
100
AcDbLine
 10
2466.208682
 20
4228.3311928
 30
0.0
 11
2380.402402
 21
4228.3311928
 31
0.0
  0
LINE
  5
1A0
330
1F
100
AcDbEntity
  8
0
  6
Continuous
 62
     7
100
AcDbLine
 10
2380.402402
 20
4228.3311928
 30
0.0
 11
2380.402402
 21
4550.9111928
 31
0.0
  0
LINE
  5
1A1
330
1F
100
AcDbEntity
  8
0
  6
Continuous
 62
     7
100
AcDbLine
 10
2380.402402
 20
4550.9111928
 30
0.0
 11
2466.208682
 21
4550.9111928
 31
0.0
  0
LINE
  5
1A2
330
1F
100
AcDbEntity
  8
0
  6
Continuous
 62
     7
100
AcDbLine
 10
2466.208682
 20
4550.9111928
 30
0.0
 11
2466.208682
 21
4873.4911674
 31
0.0
  0
LINE
  5
1A3
330
1F
100
AcDbEntity
  8
0
  6
Continuous
 62
     7
100
AcDbLine
 10
2466.208682
 20
4873.4911674
 30
0.0
 11
2380.402402
 21
4873.4911674
 31
0.0
  0
LINE
  5
1A4
330
1F
100
AcDbEntity
  8
0
  6
Continuous
 62
     7
100
AcDbLine
 10
2380.402402
 20
4873.4911674
 30
0.0
 11
2380.402402
 21
5196.0711674
 31
0.0
  0
LINE
  5
1A5
330
1F
100
AcDbEntity
  8
0
  6
Continuous
 62
     7
100
AcDbLine
 10
2380.402402
 20
5196.0711674
 30
0.0
 11
2466.208682
 21
5196.0711674
 31
0.0
  0
LINE
  5
1A6
330
1F
100
AcDbEntity
  8
0
  6
Continuous
 62
     7
100
AcDbLine
 10
2466.208682
 20
5196.0711674
 30
0.0
 11
2466.208682
 21
5518.6511674
 31
0.0
  0
LINE
  5
1A7
330
1F
100
AcDbEntity
  8
0
  6
Continuous
 62
     7
100
AcDbLine
 10
2466.208682
 20
5518.6511674
 30
0.0
 11
2380.402402
 21
5518.6511674
 31
0.0
  0
LINE
  5
1A8
330
1F
100
AcDbEntity
  8
0
  6
Continuous
 62
     7
100
AcDbLine
 10
2380.402402
 20
5518.6511674
 30
0.0
 11
2380.402402
 21
5841.2311674
 31
0.0
  0
LINE
  5
1A9
330
1F
100
AcDbEntity
  8
0
  6
Continuous
 62
     7
100
AcDbLine
 10
2380.402402
 20
5841.2311674
 30
0.0
 11
2466.208682
 21
5841.2311674
 31
0.0
  0
LINE
  5
1AA
330
1F
100
AcDbEntity
  8
0
  6
Continuous
 62
     7
100
AcDbLine
 10
2466.208682
 20
5841.2311674
 30
0.0
 11
2466.208682
 21
6163.811142
 31
0.0
  0
LINE
  5
1AB
330
1F
100
AcDbEntity
  8
0
  6
Continuous
 62
     7
100
AcDbLine
 10
2466.208682
 20
6163.811142
 30
0.0
 11
2380.402402
 21
6163.811142
 31
0.0
  0
LINE
  5
1AC
330
1F
100
AcDbEntity
  8
0
  6
Continuous
 62
     7
100
AcDbLine
 10
2380.402402
 20
6163.811142
 30
0.0
 11
2380.402402
 21
6486.391142
 31
0.0
  0
LINE
  5
1AD
330
1F
100
AcDbEntity
  8
0
  6
Continuous
 62
     7
100
AcDbLine
 10
2380.402402
 20
6486.391142
 30
0.0
 11
2466.208682
 21
6486.391142
 31
0.0
  0
LINE
  5
1AE
330
1F
100
AcDbEntity
  8
0
  6
Continuous
 62
     7
100
AcDbLine
 10
2466.208682
 20
6486.391142
 30
0.0
 11
2466.208682
 21
6808.971142
 31
0.0
  0
LINE
  5
1AF
330
1F
100
AcDbEntity
  8
0
  6
Continuous
 62
     7
100
AcDbLine
 10
3409.5562492
 20
6713.4955138
 30
0.0
 11
3494.8168102
 21
6723.164862
 31
0.0
  0
LINE
  5
1B0
330
1F
100
AcDbEntity
  8
0
  6
Continuous
 62
     7
100
AcDbLine
 10
3494.8168102
 20
6723.164862
 30
0.0
 11
3504.4870474
 21
6637.907857
 31
0.0
  0
LINE
  5
1B1
330
1F
100
AcDbEntity
  8
0
  6
Continuous
 62
     7
100
AcDbLine
 10
3504.4870474
 20
6637.907857
 30
0.0
 11
3419.226461
 21
6628.2376198
 31
0.0
  0
LINE
  5
1B2
330
1F
100
AcDbEntity
  8
0
  6
Continuous
 62
     7
100
AcDbLine
 10
3419.226461
 20
6628.2376198
 30
0.0
 11
3409.5562492
 21
6713.4955138
 31
0.0
  0
LINE
  5
1B3
330
1F
100
AcDbEntity
  8
0
  6
Continuous
 62
     7
100
AcDbLine
 10
3504.4870474
 20
2863.919977
 30
0.0
 11
3428.9549404
 21
2904.6331544
 31
0.0
  0
LINE
  5
1B4
330
1F
100
AcDbEntity
  8
0
  6
Continuous
 62
     7
100
AcDbLine
 10
3428.9549404
 20
2904.6331544
 30
0.0
 11
3388.240874
 21
2829.1010474
 31
0.0
  0
LINE
  5
1B5
330
1F
100
AcDbEntity
  8
0
  6
Continuous
 62
     7
100
AcDbLine
 10
3388.240874
 20
2829.1010474
 30
0.0
 11
3463.772981
 21
2788.38787
 31
0.0
  0
LINE
  5
1B6
330
1F
100
AcDbEntity
  8
0
  6
Continuous
 62
     7
100
AcDbLine
 10
3463.772981
 20
2788.38787
 30
0.0
 11
3504.4870474
 21
2863.919977
 31
0.0
  0
LINE
  5
1B7
330
1F
100
AcDbEntity
  8
0
  6
Continuous
 62
     7
100
AcDbLine
 10
3239.0718302
 20
6693.8557766
 30
0.0
 11
3324.3323912
 21
6703.5260138
 31
0.0
  0
LINE
  5
1B8
330
1F
100
AcDbEntity
  8
0
  6
Continuous
 62
     7
100
AcDbLine
 10
3324.3323912
 20
6703.5260138
 30
0.0
 11
3334.0017394
 21
6618.2681198
 31
0.0
  0
LINE
  5
1B9
330
1F
100
AcDbEntity
  8
0
  6
Continuous
 62
     7
100
AcDbLine
 10
3334.0017394
 20
6618.2681198
 30
0.0
 11
3248.742042
 21
6608.5987716
 31
0.0
  0
LINE
  5
1BA
330
1F
100
AcDbEntity
  8
0
  6
Continuous
 62
     7
100
AcDbLine
 10
3248.742042
 20
6608.5987716
 30
0.0
 11
3239.0718302
 21
6693.8557766
 31
0.0
  0
LINE
  5
1BB
330
1F
100
AcDbEntity
  8
0
  6
Continuous
 62
     7
100
AcDbLine
 10
3030.9396328
 20
5201.6948036
 30
0.0
 11
3110.2154458
 21
5234.5325586
 31
0.0
  0
LINE
  5
1BC
330
1F
100
AcDbEntity
  8
0
  6
Continuous
 62
     7
100
AcDbLine
 10
3110.2154458
 20
5234.5325586
 30
0.0
 11
3077.3776908
 21
5313.808397
 31
0.0
  0
LINE
  5
1BD
330
1F
100
AcDbEntity
  8
0
  6
Continuous
 62
     7
100
AcDbLine
 10
3077.3776908
 20
5313.808397
 30
0.0
 11
2998.1018778
 21
5280.970642
 31
0.0
  0
LINE
  5
1BE
330
1F
100
AcDbEntity
  8
0
  6
Continuous
 62
     7
100
AcDbLine
 10
2998.1018778
 20
5280.970642
 30
0.0
 11
3030.9396328
 21
5201.6948036
 31
0.0
  0
LINE
  5
1BF
330
1F
100
AcDbEntity
  8
0
  6
Continuous
 62
     7
100
AcDbLine
 10
3189.4912842
 20
5267.3694246
 30
0.0
 11
3268.7670972
 21
5300.2062652
 31
0.0
  0
LINE
  5
1C0
330
1F
100
AcDbEntity
  8
0
  6
Continuous
 62
     7
100
AcDbLine
 10
3268.7670972
 20
5300.2062652
 30
0.0
 11
3235.9302566
 21
5379.4821036
 31
0.0
  0
LINE
  5
1C1
330
1F
100
AcDbEntity
  8
0
  6
Continuous
 62
     7
100
AcDbLine
 10
3235.9302566
 20
5379.4821036
 30
0.0
 11
3156.6535292
 21
5346.6452376
 31
0.0
  0
LINE
  5
1C2
330
1F
100
AcDbEntity
  8
0
  6
Continuous
 62
     7
100
AcDbLine
 10
3156.6535292
 20
5346.6452376
 30
0.0
 11
3189.4912842
 21
5267.3694246
 31
0.0
  0
LINE
  5
1C3
330
1F
100
AcDbEntity
  8
0
  6
Continuous
 62
     7
100
AcDbLine
 10
3348.0429356
 20
5333.0440202
 30
0.0
 11
3427.3187486
 21
5365.8808608
 31
0.0
  0
LINE
  5
1C4
330
1F
100
AcDbEntity
  8
0
  6
Continuous
 62
     7
100
AcDbLine
 10
3427.3187486
 20
5365.8808608
 30
0.0
 11
3394.481908
 21
5445.1566992
 31
0.0
  0
LINE
  5
1C5
330
1F
100
AcDbEntity
  8
0
  6
Continuous
 62
     7
100
AcDbLine
 10
3394.481908
 20
5445.1566992
 30
0.0
 11
3315.2060696
 21
5412.3198332
 31
0.0
  0
LINE
  5
1C6
330
1F
100
AcDbEntity
  8
0
  6
Continuous
 62
     7
100
AcDbLine
 10
3315.2060696
 20
5412.3198332
 30
0.0
 11
3348.0429356
 21
5333.0440202
 31
0.0
  0
LINE
  5
1C7
330
1F
100
AcDbEntity
  8
0
  6
Continuous
 62
     7
100
AcDbLine
 10
3030.9396328
 20
3751.4316132
 30
0.0
 11
3110.2154458
 21
3784.2684792
 31
0.0
  0
LINE
  5
1C8
330
1F
100
AcDbEntity
  8
0
  6
Continuous
 62
     7
100
AcDbLine
 10
3110.2154458
 20
3784.2684792
 30
0.0
 11
3077.3776908
 21
3863.5442922
 31
0.0
  0
LINE
  5
1C9
330
1F
100
AcDbEntity
  8
0
  6
Continuous
 62
     7
100
AcDbLine
 10
3077.3776908
 20
3863.5442922
 30
0.0
 11
2998.1018778
 21
3830.7074516
 31
0.0
  0
LINE
  5
1CA
330
1F
100
AcDbEntity
  8
0
  6
Continuous
 62
     7
100
AcDbLine
 10
2998.1018778
 20
3830.7074516
 30
0.0
 11
3030.9396328
 21
3751.4316132
 31
0.0
  0
LINE
  5
1CB
330
1F
100
AcDbEntity
  8
0
  6
Continuous
 62
     7
100
AcDbLine
 10
3189.4912842
 20
3817.1053198
 30
0.0
 11
3268.7670972
 21
3849.9430748
 31
0.0
  0
LINE
  5
1CC
330
1F
100
AcDbEntity
  8
0
  6
Continuous
 62
     7
100
AcDbLine
 10
3268.7670972
 20
3849.9430748
 30
0.0
 11
3235.9302566
 21
3929.2188878
 31
0.0
  0
LINE
  5
1CD
330
1F
100
AcDbEntity
  8
0
  6
Continuous
 62
     7
100
AcDbLine
 10
3235.9302566
 20
3929.2188878
 30
0.0
 11
3156.6535292
 21
3896.3811582
 31
0.0
  0
LINE
  5
1CE
330
1F
100
AcDbEntity
  8
0
  6
Continuous
 62
     7
100
AcDbLine
 10
3156.6535292
 20
3896.3811582
 30
0.0
 11
3189.4912842
 21
3817.1053198
 31
0.0
  0
LINE
  5
1CF
330
1F
100
AcDbEntity
  8
0
  6
Continuous
 62
     7
100
AcDbLine
 10
3348.0429356
 20
3882.7799154
 30
0.0
 11
3427.3187486
 21
3915.6167814
 31
0.0
  0
LINE
  5
1D0
330
1F
100
AcDbEntity
  8
0
  6
Continuous
 62
     7
100
AcDbLine
 10
3427.3187486
 20
3915.6167814
 30
0.0
 11
3394.481908
 21
3994.8925944
 31
0.0
  0
LINE
  5
1D1
330
1F
100
AcDbEntity
  8
0
  6
Continuous
 62
     7
100
AcDbLine
 10
3394.481908
 20
3994.8925944
 30
0.0
 11
3315.2060696
 21
3962.0557538
 31
0.0
  0
LINE
  5
1D2
330
1F
100
AcDbEntity
  8
0
  6
Continuous
 62
     7
100
AcDbLine
 10
3315.2060696
 20
3962.0557538
 30
0.0
 11
3348.0429356
 21
3882.7799154
 31
0.0
  0
LINE
  5
1D3
330
1F
100
AcDbEntity
  8
0
  6
Continuous
 62
     7
100
AcDbLine
 10
3030.9396328
 20
5926.826856
 30
0.0
 11
2951.6629054
 21
5959.663722
 31
0.0
  0
LINE
  5
1D4
330
1F
100
AcDbEntity
  8
0
  6
Continuous
 62
     7
100
AcDbLine
 10
2951.6629054
 20
5959.663722
 30
0.0
 11
2984.5006604
 21
6038.940424
 31
0.0
  0
LINE
  5
1D5
330
1F
100
AcDbEntity
  8
0
  6
Continuous
 62
     7
100
AcDbLine
 10
2984.5006604
 20
6038.940424
 30
0.0
 11
3063.7764734
 21
6006.1026944
 31
0.0
  0
LINE
  5
1D6
330
1F
100
AcDbEntity
  8
0
  6
Continuous
 62
     7
100
AcDbLine
 10
3063.7764734
 20
6006.1026944
 30
0.0
 11
3030.9396328
 21
5926.826856
 31
0.0
  0
LINE
  5
1D7
330
1F
100
AcDbEntity
  8
0
  6
Continuous
 62
     7
100
AcDbLine
 10
2872.387067
 20
5992.5014516
 30
0.0
 11
2793.111254
 21
6025.3383176
 31
0.0
  0
LINE
  5
1D8
330
1F
100
AcDbEntity
  8
0
  6
Continuous
 62
     7
100
AcDbLine
 10
2793.111254
 20
6025.3383176
 30
0.0
 11
2825.9480946
 21
6104.6141306
 31
0.0
  0
LINE
  5
1D9
330
1F
100
AcDbEntity
  8
0
  6
Continuous
 62
     7
100
AcDbLine
 10
2825.9480946
 20
6104.6141306
 30
0.0
 11
2905.224822
 21
6071.77729
 31
0.0
  0
LINE
  5
1DA
330
1F
100
AcDbEntity
  8
0
  6
Continuous
 62
     7
100
AcDbLine
 10
2905.224822
 20
6071.77729
 30
0.0
 11
2872.387067
 21
5992.5014516
 31
0.0
  0
LINE
  5
1DB
330
1F
100
AcDbEntity
  8
0
  6
Continuous
 62
     7
100
AcDbLine
 10
2713.8354156
 20
6058.1751582
 30
0.0
 11
2634.5596026
 21
6091.0129132
 31
0.0
  0
LINE
  5
1DC
330
1F
100
AcDbEntity
  8
0
  6
Continuous
 62
     7
100
AcDbLine
 10
2634.5596026
 20
6091.0129132
 30
0.0
 11
2667.3964432
 21
6170.2887262
 31
0.0
  0
LINE
  5
1DD
330
1F
100
AcDbEntity
  8
0
  6
Continuous
 62
     7
100
AcDbLine
 10
2667.3964432
 20
6170.2887262
 30
0.0
 11
2746.6722816
 21
6137.4509966
 31
0.0
  0
LINE
  5
1DE
330
1F
100
AcDbEntity
  8
0
  6
Continuous
 62
     7
100
AcDbLine
 10
2746.6722816
 20
6137.4509966
 30
0.0
 11
2713.8354156
 21
6058.1751582
 31
0.0
  0
LINE
  5
1DF
330
1F
100
AcDbEntity
  8
0
  6
Continuous
 62
     7
100
AcDbLine
 10
3030.9396328
 20
4476.5636656
 30
0.0
 11
2951.6629054
 21
4509.4005062
 31
0.0
  0
LINE
  5
1E0
330
1F
100
AcDbEntity
  8
0
  6
Continuous
 62
     7
100
AcDbLine
 10
2951.6629054
 20
4509.4005062
 30
0.0
 11
2984.5006604
 21
4588.6763446
 31
0.0
  0
LINE
  5
1E1
330
1F
100
AcDbEntity
  8
0
  6
Continuous
 62
     7
100
AcDbLine
 10
2984.5006604
 20
4588.6763446
 30
0.0
 11
3063.7764734
 21
4555.839504
 31
0.0
  0
LINE
  5
1E2
330
1F
100
AcDbEntity
  8
0
  6
Continuous
 62
     7
100
AcDbLine
 10
3063.7764734
 20
4555.839504
 30
0.0
 11
3030.9396328
 21
4476.5636656
 31
0.0
  0
LINE
  5
1E3
330
1F
100
AcDbEntity
  8
0
  6
Continuous
 62
     7
100
AcDbLine
 10
2872.387067
 20
4542.2373722
 30
0.0
 11
2793.111254
 21
4575.0742128
 31
0.0
  0
LINE
  5
1E4
330
1F
100
AcDbEntity
  8
0
  6
Continuous
 62
     7
100
AcDbLine
 10
2793.111254
 20
4575.0742128
 30
0.0
 11
2825.9480946
 21
4654.3509402
 31
0.0
  0
LINE
  5
1E5
330
1F
100
AcDbEntity
  8
0
  6
Continuous
 62
     7
100
AcDbLine
 10
2825.9480946
 20
4654.3509402
 30
0.0
 11
2905.224822
 21
4621.5131852
 31
0.0
  0
LINE
  5
1E6
330
1F
100
AcDbEntity
  8
0
  6
Continuous
 62
     7
100
AcDbLine
 10
2905.224822
 20
4621.5131852
 30
0.0
 11
2872.387067
 21
4542.2373722
 31
0.0
  0
LINE
  5
1E7
330
1F
100
AcDbEntity
  8
0
  6
Continuous
 62
     7
100
AcDbLine
 10
2713.8354156
 20
4607.9119678
 30
0.0
 11
2634.5596026
 21
4640.7488084
 31
0.0
  0
LINE
  5
1E8
330
1F
100
AcDbEntity
  8
0
  6
Continuous
 62
     7
100
AcDbLine
 10
2634.5596026
 20
4640.7488084
 30
0.0
 11
2667.3964432
 21
4720.0246468
 31
0.0
  0
LINE
  5
1E9
330
1F
100
AcDbEntity
  8
0
  6
Continuous
 62
     7
100
AcDbLine
 10
2667.3964432
 20
4720.0246468
 30
0.0
 11
2746.6722816
 21
4687.1877808
 31
0.0
  0
LINE
  5
1EA
330
1F
100
AcDbEntity
  8
0
  6
Continuous
 62
     7
100
AcDbLine
 10
2746.6722816
 20
4687.1877808
 30
0.0
 11
2713.8354156
 21
4607.9119678
 31
0.0
  0
LINE
  5
1EB
330
1F
100
AcDbEntity
  8
0
  6
Continuous
 62
     7
100
AcDbLine
 10
3353.4228334
 20
2945.3472208
 30
0.0
 11
3277.8907264
 21
2986.0603982
 31
0.0
  0
LINE
  5
1EC
330
1F
100
AcDbEntity
  8
0
  6
Continuous
 62
     7
100
AcDbLine
 10
3277.8907264
 20
2986.0603982
 30
0.0
 11
3237.17666
 21
2910.5292056
 31
0.0
  0
LINE
  5
1ED
330
1F
100
AcDbEntity
  8
0
  6
Continuous
 62
     7
100
AcDbLine
 10
3237.17666
 20
2910.5292056
 30
0.0
 11
3312.708767
 21
2869.8151138
 31
0.0
  0
LINE
  5
1EE
330
1F
100
AcDbEntity
  8
0
  6
Continuous
 62
     7
100
AcDbLine
 10
3312.708767
 20
2869.8151138
 30
0.0
 11
3353.4228334
 21
2945.3472208
 31
0.0
  0
LINE
  5
1EF
330
1F
100
AcDbEntity
  8
0
  6
Continuous
 62
     7
100
AcDbLine
 10
3202.3586194
 20
3026.77449
 30
0.0
 11
3126.8265378
 21
3067.4876674
 31
0.0
  0
LINE
  5
1F0
330
1F
100
AcDbEntity
  8
0
  6
Continuous
 62
     7
100
AcDbLine
 10
3126.8265378
 20
3067.4876674
 30
0.0
 11
3086.113335
 21
2991.9564494
 31
0.0
  0
LINE
  5
1F1
330
1F
100
AcDbEntity
  8
0
  6
Continuous
 62
     7
100
AcDbLine
 10
3086.113335
 20
2991.9564494
 30
0.0
 11
3161.645442
 21
2951.242383
 31
0.0
  0
LINE
  5
1F2
330
1F
100
AcDbEntity
  8
0
  6
Continuous
 62
     7
100
AcDbLine
 10
3161.645442
 20
2951.242383
 30
0.0
 11
3202.3586194
 21
3026.77449
 31
0.0
  0
LINE
  5
1F3
330
1F
100
AcDbEntity
  8
0
  6
Continuous
 62
     7
100
AcDbLine
 10
3051.2944308
 20
3108.2017338
 30
0.0
 11
2975.7632128
 21
3148.9158002
 31
0.0
  0
LINE
  5
1F4
330
1F
100
AcDbEntity
  8
0
  6
Continuous
 62
     7
100
AcDbLine
 10
2975.7632128
 20
3148.9158002
 30
0.0
 11
2935.0491464
 21
3073.3837186
 31
0.0
  0
LINE
  5
1F5
330
1F
100
AcDbEntity
  8
0
  6
Continuous
 62
     7
100
AcDbLine
 10
2935.0491464
 20
3073.3837186
 30
0.0
 11
3010.581228
 21
3032.6696268
 31
0.0
  0
LINE
  5
1F6
330
1F
100
AcDbEntity
  8
0
  6
Continuous
 62
     7
100
AcDbLine
 10
3010.581228
 20
3032.6696268
 30
0.0
 11
3051.2944308
 21
3108.2017338
 31
0.0
  0
LINE
  5
1F7
330
1F
100
AcDbEntity
  8
0
  6
Continuous
 62
     7
100
AcDbLine
 10
2900.2311058
 20
3189.629003
 30
0.0
 11
2824.6989988
 21
3230.3430694
 31
0.0
  0
LINE
  5
1F8
330
1F
100
AcDbEntity
  8
0
  6
Continuous
 62
     7
100
AcDbLine
 10
2824.6989988
 20
3230.3430694
 30
0.0
 11
2783.9849324
 21
3154.8109624
 31
0.0
  0
LINE
  5
1F9
330
1F
100
AcDbEntity
  8
0
  6
Continuous
 62
     7
100
AcDbLine
 10
2783.9849324
 20
3154.8109624
 30
0.0
 11
2859.5170394
 21
3114.096896
 31
0.0
  0
LINE
  5
1FA
330
1F
100
AcDbEntity
  8
0
  6
Continuous
 62
     7
100
AcDbLine
 10
2859.5170394
 20
3114.096896
 30
0.0
 11
2900.2311058
 21
3189.629003
 31
0.0
  0
LINE
  5
1FB
330
1F
100
AcDbEntity
  8
0
  6
Continuous
 62
     7
100
AcDbLine
 10
2749.1668918
 20
3271.0562468
 30
0.0
 11
2673.6347848
 21
3311.7703132
 31
0.0
  0
LINE
  5
1FC
330
1F
100
AcDbEntity
  8
0
  6
Continuous
 62
     7
100
AcDbLine
 10
2673.6347848
 20
3311.7703132
 30
0.0
 11
2632.9216074
 21
3236.2382062
 31
0.0
  0
LINE
  5
1FD
330
1F
100
AcDbEntity
  8
0
  6
Continuous
 62
     7
100
AcDbLine
 10
2632.9216074
 20
3236.2382062
 30
0.0
 11
2708.4528254
 21
3195.5241398
 31
0.0
  0
LINE
  5
1FE
330
1F
100
AcDbEntity
  8
0
  6
Continuous
 62
     7
100
AcDbLine
 10
2708.4528254
 20
3195.5241398
 30
0.0
 11
2749.1668918
 21
3271.0562468
 31
0.0
  0
LINE
  5
1FF
330
1F
100
AcDbEntity
  8
0
  6
Continuous
 62
     7
100
AcDbLine
 10
5928.4597458
 20
6808.971142
 30
0.0
 11
7132.9734404
 21
6808.971142
 31
0.0
  0
LINE
  5
200
330
1F
100
AcDbEntity
  8
0
  6
Continuous
 62
     7
100
AcDbLine
 10
7132.9734404
 20
6808.971142
 30
0.0
 11
7132.9734404
 21
6486.391142
 31
0.0
  0
LINE
  5
201
330
1F
100
AcDbEntity
  8
0
  6
Continuous
 62
     7
100
AcDbLine
 10
7132.9734404
 20
6486.391142
 30
0.0
 11
7047.1671604
 21
6486.391142
 31
0.0
  0
LINE
  5
202
330
1F
100
AcDbEntity
  8
0
  6
Continuous
 62
     7
100
AcDbLine
 10
7047.1671604
 20
6486.391142
 30
0.0
 11
7047.1671604
 21
6163.811142
 31
0.0
  0
LINE
  5
203
330
1F
100
AcDbEntity
  8
0
  6
Continuous
 62
     7
100
AcDbLine
 10
7047.1671604
 20
6163.811142
 30
0.0
 11
7132.9734404
 21
6163.811142
 31
0.0
  0
LINE
  5
204
330
1F
100
AcDbEntity
  8
0
  6
Continuous
 62
     7
100
AcDbLine
 10
7132.9734404
 20
6163.811142
 30
0.0
 11
7132.9734404
 21
5841.2311674
 31
0.0
  0
LINE
  5
205
330
1F
100
AcDbEntity
  8
0
  6
Continuous
 62
     7
100
AcDbLine
 10
7132.9734404
 20
5841.2311674
 30
0.0
 11
7047.1671604
 21
5841.2311674
 31
0.0
  0
LINE
  5
206
330
1F
100
AcDbEntity
  8
0
  6
Continuous
 62
     7
100
AcDbLine
 10
7047.1671604
 20
5841.2311674
 30
0.0
 11
7047.1671604
 21
5518.6511674
 31
0.0
  0
LINE
  5
207
330
1F
100
AcDbEntity
  8
0
  6
Continuous
 62
     7
100
AcDbLine
 10
7047.1671604
 20
5518.6511674
 30
0.0
 11
7132.9734404
 21
5518.6511674
 31
0.0
  0
LINE
  5
208
330
1F
100
AcDbEntity
  8
0
  6
Continuous
 62
     7
100
AcDbLine
 10
7132.9734404
 20
5518.6511674
 30
0.0
 11
7132.9734404
 21
5196.0711674
 31
0.0
  0
LINE
  5
209
330
1F
100
AcDbEntity
  8
0
  6
Continuous
 62
     7
100
AcDbLine
 10
7132.9734404
 20
5196.0711674
 30
0.0
 11
7047.1671604
 21
5196.0711674
 31
0.0
  0
LINE
  5
20A
330
1F
100
AcDbEntity
  8
0
  6
Continuous
 62
     7
100
AcDbLine
 10
7047.1671604
 20
5196.0711674
 30
0.0
 11
7047.1671604
 21
4873.4911674
 31
0.0
  0
LINE
  5
20B
330
1F
100
AcDbEntity
  8
0
  6
Continuous
 62
     7
100
AcDbLine
 10
7047.1671604
 20
4873.4911674
 30
0.0
 11
7132.9734404
 21
4873.4911674
 31
0.0
  0
LINE
  5
20C
330
1F
100
AcDbEntity
  8
0
  6
Continuous
 62
     7
100
AcDbLine
 10
7132.9734404
 20
4873.4911674
 30
0.0
 11
7132.9734404
 21
4550.9111928
 31
0.0
  0
LINE
  5
20D
330
1F
100
AcDbEntity
  8
0
  6
Continuous
 62
     7
100
AcDbLine
 10
7132.9734404
 20
4550.9111928
 30
0.0
 11
7047.1671604
 21
4550.9111928
 31
0.0
  0
LINE
  5
20E
330
1F
100
AcDbEntity
  8
0
  6
Continuous
 62
     7
100
AcDbLine
 10
7047.1671604
 20
4550.9111928
 30
0.0
 11
7047.1671604
 21
4228.3311928
 31
0.0
  0
LINE
  5
20F
330
1F
100
AcDbEntity
  8
0
  6
Continuous
 62
     7
100
AcDbLine
 10
7047.1671604
 20
4228.3311928
 30
0.0
 11
7132.9734404
 21
4228.3311928
 31
0.0
  0
LINE
  5
210
330
1F
100
AcDbEntity
  8
0
  6
Continuous
 62
     7
100
AcDbLine
 10
7132.9734404
 20
4228.3311928
 30
0.0
 11
7132.9734404
 21
3905.7511928
 31
0.0
  0
LINE
  5
211
330
1F
100
AcDbEntity
  8
0
  6
Continuous
 62
     7
100
AcDbLine
 10
7132.9734404
 20
3905.7511928
 30
0.0
 11
7047.1671604
 21
3905.7511928
 31
0.0
  0
LINE
  5
212
330
1F
100
AcDbEntity
  8
0
  6
Continuous
 62
     7
100
AcDbLine
 10
7047.1671604
 20
3905.7511928
 30
0.0
 11
7047.1671604
 21
3583.1712182
 31
0.0
  0
LINE
  5
213
330
1F
100
AcDbEntity
  8
0
  6
Continuous
 62
     7
100
AcDbLine
 10
7047.1671604
 20
3583.1712182
 30
0.0
 11
7132.9734404
 21
3583.1712182
 31
0.0
  0
LINE
  5
214
330
1F
100
AcDbEntity
  8
0
  6
Continuous
 62
     7
100
AcDbLine
 10
7132.9734404
 20
3583.1712182
 30
0.0
 11
7132.9734404
 21
3260.5912182
 31
0.0
  0
LINE
  5
215
330
1F
100
AcDbEntity
  8
0
  6
Continuous
 62
     7
100
AcDbLine
 10
7132.9734404
 20
3260.5912182
 30
0.0
 11
7047.1671604
 21
3260.5912182
 31
0.0
  0
LINE
  5
216
330
1F
100
AcDbEntity
  8
0
  6
Continuous
 62
     7
100
AcDbLine
 10
7047.1671604
 20
3260.5912182
 30
0.0
 11
7047.1671604
 21
2938.0112182
 31
0.0
  0
LINE
  5
217
330
1F
100
AcDbEntity
  8
0
  6
Continuous
 62
     7
100
AcDbLine
 10
7047.1671604
 20
2938.0112182
 30
0.0
 11
7132.9734404
 21
2938.0112182
 31
0.0
  0
LINE
  5
218
330
1F
100
AcDbEntity
  8
0
  6
Continuous
 62
     7
100
AcDbLine
 10
7132.9734404
 20
2938.0112182
 30
0.0
 11
7132.9734404
 21
2615.4312182
 31
0.0
  0
LINE
  5
219
330
1F
100
AcDbEntity
  8
0
  6
Continuous
 62
     7
100
AcDbLine
 10
7132.9734404
 20
2615.4312182
 30
0.0
 11
5928.4597458
 21
2615.4312182
 31
0.0
  0
LINE
  5
21A
330
1F
100
AcDbEntity
  8
0
  6
Continuous
 62
     7
100
AcDbLine
 10
5928.4597458
 20
2615.4312182
 30
0.0
 11
5928.4597458
 21
2938.0112182
 31
0.0
  0
LINE
  5
21B
330
1F
100
AcDbEntity
  8
0
  6
Continuous
 62
     7
100
AcDbLine
 10
5928.4597458
 20
2938.0112182
 30
0.0
 11
5842.6534658
 21
2938.0112182
 31
0.0
  0
LINE
  5
21C
330
1F
100
AcDbEntity
  8
0
  6
Continuous
 62
     7
100
AcDbLine
 10
5842.6534658
 20
2938.0112182
 30
0.0
 11
5842.6534658
 21
3260.5912182
 31
0.0
  0
LINE
  5
21D
330
1F
100
AcDbEntity
  8
0
  6
Continuous
 62
     7
100
AcDbLine
 10
5842.6534658
 20
3260.5912182
 30
0.0
 11
5928.4597458
 21
3260.5912182
 31
0.0
  0
LINE
  5
21E
330
1F
100
AcDbEntity
  8
0
  6
Continuous
 62
     7
100
AcDbLine
 10
5928.4597458
 20
3260.5912182
 30
0.0
 11
5928.4597458
 21
3583.1712182
 31
0.0
  0
LINE
  5
21F
330
1F
100
AcDbEntity
  8
0
  6
Continuous
 62
     7
100
AcDbLine
 10
5928.4597458
 20
3583.1712182
 30
0.0
 11
5842.6534658
 21
3583.1712182
 31
0.0
  0
LINE
  5
220
330
1F
100
AcDbEntity
  8
0
  6
Continuous
 62
     7
100
AcDbLine
 10
5842.6534658
 20
3583.1712182
 30
0.0
 11
5842.6534658
 21
3905.7511928
 31
0.0
  0
LINE
  5
221
330
1F
100
AcDbEntity
  8
0
  6
Continuous
 62
     7
100
AcDbLine
 10
5842.6534658
 20
3905.7511928
 30
0.0
 11
5928.4597458
 21
3905.7511928
 31
0.0
  0
LINE
  5
222
330
1F
100
AcDbEntity
  8
0
  6
Continuous
 62
     7
100
AcDbLine
 10
5928.4597458
 20
3905.7511928
 30
0.0
 11
5928.4597458
 21
4228.3311928
 31
0.0
  0
LINE
  5
223
330
1F
100
AcDbEntity
  8
0
  6
Continuous
 62
     7
100
AcDbLine
 10
5928.4597458
 20
4228.3311928
 30
0.0
 11
5842.6534658
 21
4228.3311928
 31
0.0
  0
LINE
  5
224
330
1F
100
AcDbEntity
  8
0
  6
Continuous
 62
     7
100
AcDbLine
 10
5842.6534658
 20
4228.3311928
 30
0.0
 11
5842.6534658
 21
4550.9111928
 31
0.0
  0
LINE
  5
225
330
1F
100
AcDbEntity
  8
0
  6
Continuous
 62
     7
100
AcDbLine
 10
5842.6534658
 20
4550.9111928
 30
0.0
 11
5928.4597458
 21
4550.9111928
 31
0.0
  0
LINE
  5
226
330
1F
100
AcDbEntity
  8
0
  6
Continuous
 62
     7
100
AcDbLine
 10
5928.4597458
 20
4550.9111928
 30
0.0
 11
5928.4597458
 21
4873.4911674
 31
0.0
  0
LINE
  5
227
330
1F
100
AcDbEntity
  8
0
  6
Continuous
 62
     7
100
AcDbLine
 10
5928.4597458
 20
4873.4911674
 30
0.0
 11
5842.6534658
 21
4873.4911674
 31
0.0
  0
LINE
  5
228
330
1F
100
AcDbEntity
  8
0
  6
Continuous
 62
     7
100
AcDbLine
 10
5842.6534658
 20
4873.4911674
 30
0.0
 11
5842.6534658
 21
5196.0711674
 31
0.0
  0
LINE
  5
229
330
1F
100
AcDbEntity
  8
0
  6
Continuous
 62
     7
100
AcDbLine
 10
5842.6534658
 20
5196.0711674
 30
0.0
 11
5928.4597458
 21
5196.0711674
 31
0.0
  0
LINE
  5
22A
330
1F
100
AcDbEntity
  8
0
  6
Continuous
 62
     7
100
AcDbLine
 10
5928.4597458
 20
5196.0711674
 30
0.0
 11
5928.4597458
 21
5518.6511674
 31
0.0
  0
LINE
  5
22B
330
1F
100
AcDbEntity
  8
0
  6
Continuous
 62
     7
100
AcDbLine
 10
5928.4597458
 20
5518.6511674
 30
0.0
 11
5842.6534658
 21
5518.6511674
 31
0.0
  0
LINE
  5
22C
330
1F
100
AcDbEntity
  8
0
  6
Continuous
 62
     7
100
AcDbLine
 10
5842.6534658
 20
5518.6511674
 30
0.0
 11
5842.6534658
 21
5841.2311674
 31
0.0
  0
LINE
  5
22D
330
1F
100
AcDbEntity
  8
0
  6
Continuous
 62
     7
100
AcDbLine
 10
5842.6534658
 20
5841.2311674
 30
0.0
 11
5928.4597458
 21
5841.2311674
 31
0.0
  0
LINE
  5
22E
330
1F
100
AcDbEntity
  8
0
  6
Continuous
 62
     7
100
AcDbLine
 10
5928.4597458
 20
5841.2311674
 30
0.0
 11
5928.4597458
 21
6163.811142
 31
0.0
  0
LINE
  5
22F
330
1F
100
AcDbEntity
  8
0
  6
Continuous
 62
     7
100
AcDbLine
 10
5928.4597458
 20
6163.811142
 30
0.0
 11
5842.6534658
 21
6163.811142
 31
0.0
  0
LINE
  5
230
330
1F
100
AcDbEntity
  8
0
  6
Continuous
 62
     7
100
AcDbLine
 10
5842.6534658
 20
6163.811142
 30
0.0
 11
5842.6534658
 21
6486.391142
 31
0.0
  0
LINE
  5
231
330
1F
100
AcDbEntity
  8
0
  6
Continuous
 62
     7
100
AcDbLine
 10
5842.6534658
 20
6486.391142
 30
0.0
 11
5928.4597458
 21
6486.391142
 31
0.0
  0
LINE
  5
232
330
1F
100
AcDbEntity
  8
0
  6
Continuous
 62
     7
100
AcDbLine
 10
5928.4597458
 20
6486.391142
 30
0.0
 11
5928.4597458
 21
6808.971142
 31
0.0
  0
LINE
  5
233
330
1F
100
AcDbEntity
  8
0
  6
Continuous
 62
     7
100
AcDbLine
 10
6103.8187042
 20
6713.4955138
 30
0.0
 11
6018.5581432
 21
6723.164862
 31
0.0
  0
LINE
  5
234
330
1F
100
AcDbEntity
  8
0
  6
Continuous
 62
     7
100
AcDbLine
 10
6018.5581432
 20
6723.164862
 30
0.0
 11
6008.888795
 21
6637.907857
 31
0.0
  0
LINE
  5
235
330
1F
100
AcDbEntity
  8
0
  6
Continuous
 62
     7
100
AcDbLine
 10
6008.888795
 20
6637.907857
 30
0.0
 11
6094.1484924
 21
6628.2376198
 31
0.0
  0
LINE
  5
236
330
1F
100
AcDbEntity
  8
0
  6
Continuous
 62
     7
100
AcDbLine
 10
6094.1484924
 20
6628.2376198
 30
0.0
 11
6103.8187042
 21
6713.4955138
 31
0.0
  0
LINE
  5
237
330
1F
100
AcDbEntity
  8
0
  6
Continuous
 62
     7
100
AcDbLine
 10
6008.888795
 20
2863.919977
 30
0.0
 11
6084.420013
 21
2904.6331544
 31
0.0
  0
LINE
  5
238
330
1F
100
AcDbEntity
  8
0
  6
Continuous
 62
     7
100
AcDbLine
 10
6084.420013
 20
2904.6331544
 30
0.0
 11
6125.1340794
 21
2829.1010474
 31
0.0
  0
LINE
  5
239
330
1F
100
AcDbEntity
  8
0
  6
Continuous
 62
     7
100
AcDbLine
 10
6125.1340794
 20
2829.1010474
 30
0.0
 11
6049.6019724
 21
2788.38787
 31
0.0
  0
LINE
  5
23A
330
1F
100
AcDbEntity
  8
0
  6
Continuous
 62
     7
100
AcDbLine
 10
6049.6019724
 20
2788.38787
 30
0.0
 11
6008.888795
 21
2863.919977
 31
0.0
  0
LINE
  5
23B
330
1F
100
AcDbEntity
  8
0
  6
Continuous
 62
     7
100
AcDbLine
 10
6274.3031486
 20
6693.8557766
 30
0.0
 11
6189.0434512
 21
6703.5260138
 31
0.0
  0
LINE
  5
23C
330
1F
100
AcDbEntity
  8
0
  6
Continuous
 62
     7
100
AcDbLine
 10
6189.0434512
 20
6703.5260138
 30
0.0
 11
6179.373214
 21
6618.2681198
 31
0.0
  0
LINE
  5
23D
330
1F
100
AcDbEntity
  8
0
  6
Continuous
 62
     7
100
AcDbLine
 10
6179.373214
 20
6618.2681198
 30
0.0
 11
6264.6338004
 21
6608.5987716
 31
0.0
  0
LINE
  5
23E
330
1F
100
AcDbEntity
  8
0
  6
Continuous
 62
     7
100
AcDbLine
 10
6264.6338004
 20
6608.5987716
 30
0.0
 11
6274.3031486
 21
6693.8557766
 31
0.0
  0
LINE
  5
23F
330
1F
100
AcDbEntity
  8
0
  6
Continuous
 62
     7
100
AcDbLine
 10
6482.436235
 20
5201.6948036
 30
0.0
 11
6403.1603966
 21
5234.5325586
 31
0.0
  0
LINE
  5
240
330
1F
100
AcDbEntity
  8
0
  6
Continuous
 62
     7
100
AcDbLine
 10
6403.1603966
 20
5234.5325586
 30
0.0
 11
6435.9972626
 21
5313.808397
 31
0.0
  0
LINE
  5
241
330
1F
100
AcDbEntity
  8
0
  6
Continuous
 62
     7
100
AcDbLine
 10
6435.9972626
 20
5313.808397
 30
0.0
 11
6515.2730756
 21
5280.970642
 31
0.0
  0
LINE
  5
242
330
1F
100
AcDbEntity
  8
0
  6
Continuous
 62
     7
100
AcDbLine
 10
6515.2730756
 20
5280.970642
 30
0.0
 11
6482.436235
 21
5201.6948036
 31
0.0
  0
LINE
  5
243
330
1F
100
AcDbEntity
  8
0
  6
Continuous
 62
     7
100
AcDbLine
 10
6323.8836692
 20
5267.3694246
 30
0.0
 11
6244.6078562
 21
5300.2062652
 31
0.0
  0
LINE
  5
244
330
1F
100
AcDbEntity
  8
0
  6
Continuous
 62
     7
100
AcDbLine
 10
6244.6078562
 20
5300.2062652
 30
0.0
 11
6277.4456112
 21
5379.4821036
 31
0.0
  0
LINE
  5
245
330
1F
100
AcDbEntity
  8
0
  6
Continuous
 62
     7
100
AcDbLine
 10
6277.4456112
 20
5379.4821036
 30
0.0
 11
6356.7214242
 21
5346.6452376
 31
0.0
  0
LINE
  5
246
330
1F
100
AcDbEntity
  8
0
  6
Continuous
 62
     7
100
AcDbLine
 10
6356.7214242
 20
5346.6452376
 30
0.0
 11
6323.8836692
 21
5267.3694246
 31
0.0
  0
LINE
  5
247
330
1F
100
AcDbEntity
  8
0
  6
Continuous
 62
     7
100
AcDbLine
 10
6165.3320178
 20
5333.0440202
 30
0.0
 11
6086.0562048
 21
5365.8808608
 31
0.0
  0
LINE
  5
248
330
1F
100
AcDbEntity
  8
0
  6
Continuous
 62
     7
100
AcDbLine
 10
6086.0562048
 20
5365.8808608
 30
0.0
 11
6118.8930454
 21
5445.1566992
 31
0.0
  0
LINE
  5
249
330
1F
100
AcDbEntity
  8
0
  6
Continuous
 62
     7
100
AcDbLine
 10
6118.8930454
 20
5445.1566992
 30
0.0
 11
6198.1688838
 21
5412.3198332
 31
0.0
  0
LINE
  5
24A
330
1F
100
AcDbEntity
  8
0
  6
Continuous
 62
     7
100
AcDbLine
 10
6198.1688838
 20
5412.3198332
 30
0.0
 11
6165.3320178
 21
5333.0440202
 31
0.0
  0
LINE
  5
24B
330
1F
100
AcDbEntity
  8
0
  6
Continuous
 62
     7
100
AcDbLine
 10
6482.436235
 20
3751.4316132
 30
0.0
 11
6403.1603966
 21
3784.2684792
 31
0.0
  0
LINE
  5
24C
330
1F
100
AcDbEntity
  8
0
  6
Continuous
 62
     7
100
AcDbLine
 10
6403.1603966
 20
3784.2684792
 30
0.0
 11
6435.9972626
 21
3863.5442922
 31
0.0
  0
LINE
  5
24D
330
1F
100
AcDbEntity
  8
0
  6
Continuous
 62
     7
100
AcDbLine
 10
6435.9972626
 20
3863.5442922
 30
0.0
 11
6515.2730756
 21
3830.7074516
 31
0.0
  0
LINE
  5
24E
330
1F
100
AcDbEntity
  8
0
  6
Continuous
 62
     7
100
AcDbLine
 10
6515.2730756
 20
3830.7074516
 30
0.0
 11
6482.436235
 21
3751.4316132
 31
0.0
  0
LINE
  5
24F
330
1F
100
AcDbEntity
  8
0
  6
Continuous
 62
     7
100
AcDbLine
 10
6323.8836692
 20
3817.1053198
 30
0.0
 11
6244.6078562
 21
3849.9430748
 31
0.0
  0
LINE
  5
250
330
1F
100
AcDbEntity
  8
0
  6
Continuous
 62
     7
100
AcDbLine
 10
6244.6078562
 20
3849.9430748
 30
0.0
 11
6277.4456112
 21
3929.2188878
 31
0.0
  0
LINE
  5
251
330
1F
100
AcDbEntity
  8
0
  6
Continuous
 62
     7
100
AcDbLine
 10
6277.4456112
 20
3929.2188878
 30
0.0
 11
6356.7214242
 21
3896.3811582
 31
0.0
  0
LINE
  5
252
330
1F
100
AcDbEntity
  8
0
  6
Continuous
 62
     7
100
AcDbLine
 10
6356.7214242
 20
3896.3811582
 30
0.0
 11
6323.8836692
 21
3817.1053198
 31
0.0
  0
LINE
  5
253
330
1F
100
AcDbEntity
  8
0
  6
Continuous
 62
     7
100
AcDbLine
 10
6165.3320178
 20
3882.7799154
 30
0.0
 11
6086.0562048
 21
3915.6167814
 31
0.0
  0
LINE
  5
254
330
1F
100
AcDbEntity
  8
0
  6
Continuous
 62
     7
100
AcDbLine
 10
6086.0562048
 20
3915.6167814
 30
0.0
 11
6118.8930454
 21
3994.8925944
 31
0.0
  0
LINE
  5
255
330
1F
100
AcDbEntity
  8
0
  6
Continuous
 62
     7
100
AcDbLine
 10
6118.8930454
 20
3994.8925944
 30
0.0
 11
6198.1688838
 21
3962.0557538
 31
0.0
  0
LINE
  5
256
330
1F
100
AcDbEntity
  8
0
  6
Continuous
 62
     7
100
AcDbLine
 10
6198.1688838
 20
3962.0557538
 30
0.0
 11
6165.3320178
 21
3882.7799154
 31
0.0
  0
LINE
  5
257
330
1F
100
AcDbEntity
  8
0
  6
Continuous
 62
     7
100
AcDbLine
 10
6482.436235
 20
5926.826856
 30
0.0
 11
6561.712048
 21
5959.663722
 31
0.0
  0
LINE
  5
258
330
1F
100
AcDbEntity
  8
0
  6
Continuous
 62
     7
100
AcDbLine
 10
6561.712048
 20
5959.663722
 30
0.0
 11
6528.8743184
 21
6038.940424
 31
0.0
  0
LINE
  5
259
330
1F
100
AcDbEntity
  8
0
  6
Continuous
 62
     7
100
AcDbLine
 10
6528.8743184
 20
6038.940424
 30
0.0
 11
6449.59848
 21
6006.1026944
 31
0.0
  0
LINE
  5
25A
330
1F
100
AcDbEntity
  8
0
  6
Continuous
 62
     7
100
AcDbLine
 10
6449.59848
 20
6006.1026944
 30
0.0
 11
6482.436235
 21
5926.826856
 31
0.0
  0
LINE
  5
25B
330
1F
100
AcDbEntity
  8
0
  6
Continuous
 62
     7
100
AcDbLine
 10
6640.9878864
 20
5992.5014516
 30
0.0
 11
6720.2636994
 21
6025.3383176
 31
0.0
  0
LINE
  5
25C
330
1F
100
AcDbEntity
  8
0
  6
Continuous
 62
     7
100
AcDbLine
 10
6720.2636994
 20
6025.3383176
 30
0.0
 11
6687.4268588
 21
6104.6141306
 31
0.0
  0
LINE
  5
25D
330
1F
100
AcDbEntity
  8
0
  6
Continuous
 62
     7
100
AcDbLine
 10
6687.4268588
 20
6104.6141306
 30
0.0
 11
6608.1510204
 21
6071.77729
 31
0.0
  0
LINE
  5
25E
330
1F
100
AcDbEntity
  8
0
  6
Continuous
 62
     7
100
AcDbLine
 10
6608.1510204
 20
6071.77729
 30
0.0
 11
6640.9878864
 21
5992.5014516
 31
0.0
  0
LINE
  5
25F
330
1F
100
AcDbEntity
  8
0
  6
Continuous
 62
     7
100
AcDbLine
 10
6799.5395378
 20
6058.1751582
 30
0.0
 11
6878.8153508
 21
6091.0129132
 31
0.0
  0
LINE
  5
260
330
1F
100
AcDbEntity
  8
0
  6
Continuous
 62
     7
100
AcDbLine
 10
6878.8153508
 20
6091.0129132
 30
0.0
 11
6845.9785102
 21
6170.2887262
 31
0.0
  0
LINE
  5
261
330
1F
100
AcDbEntity
  8
0
  6
Continuous
 62
     7
100
AcDbLine
 10
6845.9785102
 20
6170.2887262
 30
0.0
 11
6766.7026718
 21
6137.4509966
 31
0.0
  0
LINE
  5
262
330
1F
100
AcDbEntity
  8
0
  6
Continuous
 62
     7
100
AcDbLine
 10
6766.7026718
 20
6137.4509966
 30
0.0
 11
6799.5395378
 21
6058.1751582
 31
0.0
  0
LINE
  5
263
330
1F
100
AcDbEntity
  8
0
  6
Continuous
 62
     7
100
AcDbLine
 10
6482.436235
 20
4476.5636656
 30
0.0
 11
6561.712048
 21
4509.4005062
 31
0.0
  0
LINE
  5
264
330
1F
100
AcDbEntity
  8
0
  6
Continuous
 62
     7
100
AcDbLine
 10
6561.712048
 20
4509.4005062
 30
0.0
 11
6528.8743184
 21
4588.6763446
 31
0.0
  0
LINE
  5
265
330
1F
100
AcDbEntity
  8
0
  6
Continuous
 62
     7
100
AcDbLine
 10
6528.8743184
 20
4588.6763446
 30
0.0
 11
6449.59848
 21
4555.839504
 31
0.0
  0
LINE
  5
266
330
1F
100
AcDbEntity
  8
0
  6
Continuous
 62
     7
100
AcDbLine
 10
6449.59848
 20
4555.839504
 30
0.0
 11
6482.436235
 21
4476.5636656
 31
0.0
  0
LINE
  5
267
330
1F
100
AcDbEntity
  8
0
  6
Continuous
 62
     7
100
AcDbLine
 10
6640.9878864
 20
4542.2373722
 30
0.0
 11
6720.2636994
 21
4575.0742128
 31
0.0
  0
LINE
  5
268
330
1F
100
AcDbEntity
  8
0
  6
Continuous
 62
     7
100
AcDbLine
 10
6720.2636994
 20
4575.0742128
 30
0.0
 11
6687.4268588
 21
4654.3509402
 31
0.0
  0
LINE
  5
269
330
1F
100
AcDbEntity
  8
0
  6
Continuous
 62
     7
100
AcDbLine
 10
6687.4268588
 20
4654.3509402
 30
0.0
 11
6608.1510204
 21
4621.5131852
 31
0.0
  0
LINE
  5
26A
330
1F
100
AcDbEntity
  8
0
  6
Continuous
 62
     7
100
AcDbLine
 10
6608.1510204
 20
4621.5131852
 30
0.0
 11
6640.9878864
 21
4542.2373722
 31
0.0
  0
LINE
  5
26B
330
1F
100
AcDbEntity
  8
0
  6
Continuous
 62
     7
100
AcDbLine
 10
6799.5395378
 20
4607.9119678
 30
0.0
 11
6878.8153508
 21
4640.7488084
 31
0.0
  0
LINE
  5
26C
330
1F
100
AcDbEntity
  8
0
  6
Continuous
 62
     7
100
AcDbLine
 10
6878.8153508
 20
4640.7488084
 30
0.0
 11
6845.9785102
 21
4720.0246468
 31
0.0
  0
LINE
  5
26D
330
1F
100
AcDbEntity
  8
0
  6
Continuous
 62
     7
100
AcDbLine
 10
6845.9785102
 20
4720.0246468
 30
0.0
 11
6766.7026718
 21
4687.1877808
 31
0.0
  0
LINE
  5
26E
330
1F
100
AcDbEntity
  8
0
  6
Continuous
 62
     7
100
AcDbLine
 10
6766.7026718
 20
4687.1877808
 30
0.0
 11
6799.5395378
 21
4607.9119678
 31
0.0
  0
LINE
  5
26F
330
1F
100
AcDbEntity
  8
0
  6
Continuous
 62
     7
100
AcDbLine
 10
6159.95212
 20
2945.3472208
 30
0.0
 11
6235.484227
 21
2986.0603982
 31
0.0
  0
LINE
  5
270
330
1F
100
AcDbEntity
  8
0
  6
Continuous
 62
     7
100
AcDbLine
 10
6235.484227
 20
2986.0603982
 30
0.0
 11
6276.1982934
 21
2910.5292056
 31
0.0
  0
LINE
  5
271
330
1F
100
AcDbEntity
  8
0
  6
Continuous
 62
     7
100
AcDbLine
 10
6276.1982934
 20
2910.5292056
 30
0.0
 11
6200.6661864
 21
2869.8151138
 31
0.0
  0
LINE
  5
272
330
1F
100
AcDbEntity
  8
0
  6
Continuous
 62
     7
100
AcDbLine
 10
6200.6661864
 20
2869.8151138
 30
0.0
 11
6159.95212
 21
2945.3472208
 31
0.0
  0
LINE
  5
273
330
1F
100
AcDbEntity
  8
0
  6
Continuous
 62
     7
100
AcDbLine
 10
6311.016334
 20
3026.77449
 30
0.0
 11
6386.548441
 21
3067.4876674
 31
0.0
  0
LINE
  5
274
330
1F
100
AcDbEntity
  8
0
  6
Continuous
 62
     7
100
AcDbLine
 10
6386.548441
 20
3067.4876674
 30
0.0
 11
6427.2616184
 21
2991.9564494
 31
0.0
  0
LINE
  5
275
330
1F
100
AcDbEntity
  8
0
  6
Continuous
 62
     7
100
AcDbLine
 10
6427.2616184
 20
2991.9564494
 30
0.0
 11
6351.7304004
 21
2951.242383
 31
0.0
  0
LINE
  5
276
330
1F
100
AcDbEntity
  8
0
  6
Continuous
 62
     7
100
AcDbLine
 10
6351.7304004
 20
2951.242383
 30
0.0
 11
6311.016334
 21
3026.77449
 31
0.0
  0
LINE
  5
277
330
1F
100
AcDbEntity
  8
0
  6
Continuous
 62
     7
100
AcDbLine
 10
6462.0805226
 20
3108.2017338
 30
0.0
 11
6537.6126296
 21
3148.9158002
 31
0.0
  0
LINE
  5
278
330
1F
100
AcDbEntity
  8
0
  6
Continuous
 62
     7
100
AcDbLine
 10
6537.6126296
 20
3148.9158002
 30
0.0
 11
6578.325807
 21
3073.3837186
 31
0.0
  0
LINE
  5
279
330
1F
100
AcDbEntity
  8
0
  6
Continuous
 62
     7
100
AcDbLine
 10
6578.325807
 20
3073.3837186
 30
0.0
 11
6502.7937254
 21
3032.6696268
 31
0.0
  0
LINE
  5
27A
330
1F
100
AcDbEntity
  8
0
  6
Continuous
 62
     7
100
AcDbLine
 10
6502.7937254
 20
3032.6696268
 30
0.0
 11
6462.0805226
 21
3108.2017338
 31
0.0
  0
LINE
  5
27B
330
1F
100
AcDbEntity
  8
0
  6
Continuous
 62
     7
100
AcDbLine
 10
6613.1447366
 20
3189.629003
 30
0.0
 11
6688.6759546
 21
3230.3430694
 31
0.0
  0
LINE
  5
27C
330
1F
100
AcDbEntity
  8
0
  6
Continuous
 62
     7
100
AcDbLine
 10
6688.6759546
 20
3230.3430694
 30
0.0
 11
6729.390021
 21
3154.8109624
 31
0.0
  0
LINE
  5
27D
330
1F
100
AcDbEntity
  8
0
  6
Continuous
 62
     7
100
AcDbLine
 10
6729.390021
 20
3154.8109624
 30
0.0
 11
6653.857914
 21
3114.096896
 31
0.0
  0
LINE
  5
27E
330
1F
100
AcDbEntity
  8
0
  6
Continuous
 62
     7
100
AcDbLine
 10
6653.857914
 20
3114.096896
 30
0.0
 11
6613.1447366
 21
3189.629003
 31
0.0
  0
LINE
  5
27F
330
1F
100
AcDbEntity
  8
0
  6
Continuous
 62
     7
100
AcDbLine
 10
6764.2080616
 20
3271.0562468
 30
0.0
 11
6839.7401686
 21
3311.7703132
 31
0.0
  0
LINE
  5
280
330
1F
100
AcDbEntity
  8
0
  6
Continuous
 62
     7
100
AcDbLine
 10
6839.7401686
 20
3311.7703132
 30
0.0
 11
6880.454235
 21
3236.2382062
 31
0.0
  0
LINE
  5
281
330
1F
100
AcDbEntity
  8
0
  6
Continuous
 62
     7
100
AcDbLine
 10
6880.454235
 20
3236.2382062
 30
0.0
 11
6804.922128
 21
3195.5241398
 31
0.0
  0
LINE
  5
282
330
1F
100
AcDbEntity
  8
0
  6
Continuous
 62
     7
100
AcDbLine
 10
6804.922128
 20
3195.5241398
 30
0.0
 11
6764.2080616
 21
3271.0562468
 31
0.0
  0
LINE
  5
283
330
1F
100
AcDbEntity
  8
0
  6
Continuous
 62
     7
100
AcDbLine
 10
5240.3966312
 20
2615.4312182
 30
0.0
 11
5240.3966312
 21
2701.2374982
 31
0.0
  0
LINE
  5
284
330
1F
100
AcDbEntity
  8
0
  6
Continuous
 62
     7
100
AcDbLine
 10
5240.3966312
 20
2701.2374982
 30
0.0
 11
5562.9766058
 21
2701.2374982
 31
0.0
  0
LINE
  5
285
330
1F
100
AcDbEntity
  8
0
  6
Continuous
 62
     7
100
AcDbLine
 10
5562.9766058
 20
2701.2374982
 30
0.0
 11
5562.9766058
 21
2615.4312182
 31
0.0
  0
LINE
  5
286
330
1F
100
AcDbEntity
  8
0
  6
Continuous
 62
     7
100
AcDbLine
 10
4595.2366312
 20
2615.4312182
 30
0.0
 11
4595.2366312
 21
2701.2374982
 31
0.0
  0
LINE
  5
287
330
1F
100
AcDbEntity
  8
0
  6
Continuous
 62
     7
100
AcDbLine
 10
4595.2366312
 20
2701.2374982
 30
0.0
 11
4917.8166312
 21
2701.2374982
 31
0.0
  0
LINE
  5
288
330
1F
100
AcDbEntity
  8
0
  6
Continuous
 62
     7
100
AcDbLine
 10
4917.8166312
 20
2701.2374982
 30
0.0
 11
4917.8166312
 21
2615.4312182
 31
0.0
  0
LINE
  5
289
330
1F
100
AcDbEntity
  8
0
  6
Continuous
 62
     7
100
AcDbLine
 10
3950.0766566
 20
2615.4312182
 30
0.0
 11
3950.0766566
 21
2701.2374982
 31
0.0
  0
LINE
  5
28A
330
1F
100
AcDbEntity
  8
0
  6
Continuous
 62
     7
100
AcDbLine
 10
3950.0766566
 20
2701.2374982
 30
0.0
 11
4272.6566566
 21
2701.2374982
 31
0.0
  0
LINE
  5
28B
330
1F
100
AcDbEntity
  8
0
  6
Continuous
 62
     7
100
AcDbLine
 10
4272.6566566
 20
2701.2374982
 30
0.0
 11
4272.6566566
 21
2615.4312182
 31
0.0
  0
LINE
  5
28C
330
1F
100
AcDbEntity
  8
0
  6
Continuous
 62
     7
100
AcDbLine
 10
1778.4681474
 20
2615.4312182
 30
0.0
 11
1778.4681474
 21
2701.2374982
 31
0.0
  0
LINE
  5
28D
330
1F
100
AcDbEntity
  8
0
  6
Continuous
 62
     7
100
AcDbLine
 10
1778.4681474
 20
2701.2374982
 30
0.0
 11
2101.048122
 21
2701.2374982
 31
0.0
  0
LINE
  5
28E
330
1F
100
AcDbEntity
  8
0
  6
Continuous
 62
     7
100
AcDbLine
 10
2101.048122
 20
2701.2374982
 30
0.0
 11
2101.048122
 21
2615.4312182
 31
0.0
  0
LINE
  5
28F
330
1F
100
AcDbEntity
  8
0
  6
Continuous
 62
     7
100
AcDbLine
 10
1133.3081474
 20
2615.4312182
 30
0.0
 11
1133.3081474
 21
2701.2374982
 31
0.0
  0
LINE
  5
290
330
1F
100
AcDbEntity
  8
0
  6
Continuous
 62
     7
100
AcDbLine
 10
1133.3081474
 20
2701.2374982
 30
0.0
 11
1455.8881474
 21
2701.2374982
 31
0.0
  0
LINE
  5
291
330
1F
100
AcDbEntity
  8
0
  6
Continuous
 62
     7
100
AcDbLine
 10
1455.8881474
 20
2701.2374982
 30
0.0
 11
1455.8881474
 21
2615.4312182
 31
0.0
  0
LINE
  5
292
330
1F
100
AcDbEntity
  8
0
  6
Continuous
 62
     7
100
AcDbLine
 10
488.1481728
 20
2615.4312182
 30
0.0
 11
488.1481728
 21
2701.2374982
 31
0.0
  0
LINE
  5
293
330
1F
100
AcDbEntity
  8
0
  6
Continuous
 62
     7
100
AcDbLine
 10
488.1481728
 20
2701.2374982
 30
0.0
 11
810.7281728
 21
2701.2374982
 31
0.0
  0
LINE
  5
294
330
1F
100
AcDbEntity
  8
0
  6
Continuous
 62
     7
100
AcDbLine
 10
810.7281728
 20
2701.2374982
 30
0.0
 11
810.7281728
 21
2615.4312182
 31
0.0
  0
LINE
  5
295
330
1F
100
AcDbEntity
  8
0
  6
Continuous
 62
     7
100
AcDbLine
 10
3186.852402
 20
2615.4312182
 30
0.0
 11
3186.852402
 21
2701.2374982
 31
0.0
  0
LINE
  5
296
330
1F
100
AcDbEntity
  8
0
  6
Continuous
 62
     7
100
AcDbLine
 10
3186.852402
 20
2701.2374982
 30
0.0
 11
2864.272402
 21
2701.2374982
 31
0.0
  0
LINE
  5
297
330
1F
100
AcDbEntity
  8
0
  6
Continuous
 62
     7
100
AcDbLine
 10
2864.272402
 20
2701.2374982
 30
0.0
 11
2864.272402
 21
2615.4312182
 31
0.0
  0
LINE
  5
298
330
1F
100
AcDbEntity
  8
0
  6
Continuous
 62
     7
100
AcDbLine
 10
6648.7808858
 20
2615.4312182
 30
0.0
 11
6648.7808858
 21
2701.2374982
 31
0.0
  0
LINE
  5
299
330
1F
100
AcDbEntity
  8
0
  6
Continuous
 62
     7
100
AcDbLine
 10
6648.7808858
 20
2701.2374982
 30
0.0
 11
6326.2008858
 21
2701.2374982
 31
0.0
  0
LINE
  5
29A
330
1F
100
AcDbEntity
  8
0
  6
Continuous
 62
     7
100
AcDbLine
 10
6326.2008858
 20
2701.2374982
 30
0.0
 11
6326.2008858
 21
2615.4312182
 31
0.0
  0
LINE
  5
29B
330
1F
100
AcDbEntity
  8
0
  6
Continuous
 62
     7
100
AcDbLine
 10
11138.0659071597
 20
3340.5613414282
 30
0.0
 11
11138.0659071597
 21
4070.5016138282
 31
0.0
  0
LINE
  5
29C
330
1F
100
AcDbEntity
  8
0
  6
Continuous
 62
     7
100
AcDbLine
 10
11138.0659071597
 20
4070.5016138282
 30
0.0
 11
11054.1951071597
 21
4070.5016138282
 31
0.0
  0
LINE
  5
29D
330
1F
100
AcDbEntity
  8
0
  6
Continuous
 62
     7
100
AcDbLine
 10
11054.1951071597
 20
4070.5016138282
 30
0.0
 11
11054.1951071597
 21
4393.0816138282
 31
0.0
  0
LINE
  5
29E
330
1F
100
AcDbEntity
  8
0
  6
Continuous
 62
     7
100
AcDbLine
 10
11054.1951071597
 20
4393.0816138282
 30
0.0
 11
11138.0659071597
 21
4393.0816138282
 31
0.0
  0
LINE
  5
29F
330
1F
100
AcDbEntity
  8
0
  6
Continuous
 62
     7
100
AcDbLine
 10
11138.0659071597
 20
4393.0816138282
 30
0.0
 11
11138.0659071597
 21
4715.6615884282
 31
0.0
  0
LINE
  5
2A0
330
1F
100
AcDbEntity
  8
0
  6
Continuous
 62
     7
100
AcDbLine
 10
11138.0659071597
 20
4715.6615884282
 30
0.0
 11
11054.1951071597
 21
4715.6615884282
 31
0.0
  0
LINE
  5
2A1
330
1F
100
AcDbEntity
  8
0
  6
Continuous
 62
     7
100
AcDbLine
 10
11054.1951071597
 20
4715.6615884282
 30
0.0
 11
11054.1951071597
 21
5038.2415884282
 31
0.0
  0
LINE
  5
2A2
330
1F
100
AcDbEntity
  8
0
  6
Continuous
 62
     7
100
AcDbLine
 10
11054.1951071597
 20
5038.2415884282
 30
0.0
 11
11138.0659071597
 21
5038.2415884282
 31
0.0
  0
LINE
  5
2A3
330
1F
100
AcDbEntity
  8
0
  6
Continuous
 62
     7
100
AcDbLine
 10
11138.0659071597
 20
5038.2415884282
 30
0.0
 11
11138.0659071597
 21
5360.8215884282
 31
0.0
  0
LINE
  5
2A4
330
1F
100
AcDbEntity
  8
0
  6
Continuous
 62
     7
100
AcDbLine
 10
11138.0659071597
 20
5360.8215884282
 30
0.0
 11
11054.1951071597
 21
5360.8215884282
 31
0.0
  0
LINE
  5
2A5
330
1F
100
AcDbEntity
  8
0
  6
Continuous
 62
     7
100
AcDbLine
 10
11054.1951071597
 20
5360.8215884282
 30
0.0
 11
11054.1951071597
 21
5683.4015630282
 31
0.0
  0
LINE
  5
2A6
330
1F
100
AcDbEntity
  8
0
  6
Continuous
 62
     7
100
AcDbLine
 10
11054.1951071597
 20
5683.4015630282
 30
0.0
 11
11138.0659071597
 21
5683.4015630282
 31
0.0
  0
LINE
  5
2A7
330
1F
100
AcDbEntity
  8
0
  6
Continuous
 62
     7
100
AcDbLine
 10
11138.0659071597
 20
5683.4015630282
 30
0.0
 11
11138.0659071597
 21
6005.9815630282
 31
0.0
  0
LINE
  5
2A8
330
1F
100
AcDbEntity
  8
0
  6
Continuous
 62
     7
100
AcDbLine
 10
11138.0659071597
 20
6005.9815630282
 30
0.0
 11
11054.1951071597
 21
6005.9815630282
 31
0.0
  0
LINE
  5
2A9
330
1F
100
AcDbEntity
  8
0
  6
Continuous
 62
     7
100
AcDbLine
 10
11054.1951071597
 20
6005.9815630282
 30
0.0
 11
11054.1951071597
 21
6328.5615630282
 31
0.0
  0
LINE
  5
2AA
330
1F
100
AcDbEntity
  8
0
  6
Continuous
 62
     7
100
AcDbLine
 10
11054.1951071597
 20
6328.5615630282
 30
0.0
 11
11138.0659071597
 21
6328.5615630282
 31
0.0
  0
LINE
  5
2AB
330
1F
100
AcDbEntity
  8
0
  6
Continuous
 62
     7
100
AcDbLine
 10
11138.0659071597
 20
6328.5615630282
 30
0.0
 11
11138.0659071597
 21
6737.9738252282
 31
0.0
  0
LINE
  5
2AC
330
1F
100
AcDbEntity
  8
0
  6
Continuous
 62
     7
100
AcDbLine
 10
11138.0659071597
 20
6737.9738252282
 30
0.0
 11
11460.6458817597
 21
6737.9738252282
 31
0.0
  0
LINE
  5
2AD
330
1F
100
AcDbEntity
  8
0
  6
Continuous
 62
     7
100
AcDbLine
 10
11460.6458817597
 20
6737.9738252282
 30
0.0
 11
11460.6458817597
 21
6652.1675452282
 31
0.0
  0
LINE
  5
2AE
330
1F
100
AcDbEntity
  8
0
  6
Continuous
 62
     7
100
AcDbLine
 10
11460.6458817597
 20
6652.1675452282
 30
0.0
 11
11783.2278409541
 21
6652.1650582189
 31
0.0
  0
LINE
  5
2AF
330
1F
100
AcDbEntity
  8
0
  6
Continuous
 62
     7
100
AcDbLine
 10
11138.0659071597
 20
3340.5613414282
 30
0.0
 11
11622.8545015541
 21
3340.5615468189
 31
0.0
  0
LINE
  5
2B0
330
1F
100
AcDbEntity
  8
0
  6
Continuous
 62
     7
100
AcDbLine
 10
11783.2278409541
 20
6652.1650582189
 30
0.0
 11
11783.2278409541
 21
3500.9572636189
 31
0.0
  0
LINE
  5
2B1
330
1F
100
AcDbEntity
  8
0
  6
Continuous
 62
     7
100
AcDbLine
 10
8898.778113
 20
1756.080816
 30
0.0
 11
8898.778113
 21
1433.500816
 31
0.0
  0
LINE
  5
2B2
330
1F
100
AcDbEntity
  8
0
  6
Continuous
 62
     7
100
AcDbLine
 10
8898.778113
 20
1433.500816
 30
0.0
 11
8812.971833
 21
1433.500816
 31
0.0
  0
LINE
  5
2B3
330
1F
100
AcDbEntity
  8
0
  6
Continuous
 62
     7
100
AcDbLine
 10
8812.971833
 20
1433.500816
 30
0.0
 11
8812.970055
 21
1110.918149
 31
0.0
  0
LINE
  5
2B4
330
1F
100
AcDbEntity
  8
0
  6
Continuous
 62
     7
100
AcDbLine
 10
8812.970055
 20
1110.918149
 30
0.0
 11
8574.260855
 21
1110.918149
 31
0.0
  0
LINE
  5
2B5
330
1F
100
AcDbEntity
  8
0
  6
Continuous
 62
     7
100
AcDbLine
 10
8574.260855
 20
1110.918149
 30
0.0
 11
8574.260855
 21
1025.111869
 31
0.0
  0
LINE
  5
2B6
330
1F
100
AcDbEntity
  8
0
  6
Continuous
 62
     7
100
AcDbLine
 10
8574.260855
 20
1025.111869
 30
0.0
 11
8251.680855
 21
1025.111869
 31
0.0
  0
LINE
  5
2B7
330
1F
100
AcDbEntity
  8
0
  6
Continuous
 62
     7
100
AcDbLine
 10
8251.680855
 20
1025.111869
 30
0.0
 11
8251.680855
 21
1110.918149
 31
0.0
  0
LINE
  5
2B8
330
1F
100
AcDbEntity
  8
0
  6
Continuous
 62
     7
100
AcDbLine
 10
8251.680855
 20
1110.918149
 30
0.0
 11
7929.100855
 21
1110.918149
 31
0.0
  0
LINE
  5
2B9
330
1F
100
AcDbEntity
  8
0
  6
Continuous
 62
     7
100
AcDbLine
 10
7929.100855
 20
1110.918149
 30
0.0
 11
7929.100855
 21
1025.111869
 31
0.0
  0
LINE
  5
2BA
330
1F
100
AcDbEntity
  8
0
  6
Continuous
 62
     7
100
AcDbLine
 10
7929.100855
 20
1025.111869
 30
0.0
 11
7606.5208804
 21
1025.111869
 31
0.0
  0
LINE
  5
2BB
330
1F
100
AcDbEntity
  8
0
  6
Continuous
 62
     7
100
AcDbLine
 10
7606.5208804
 20
1025.111869
 30
0.0
 11
7606.5208804
 21
1110.918149
 31
0.0
  0
LINE
  5
2BC
330
1F
100
AcDbEntity
  8
0
  6
Continuous
 62
     7
100
AcDbLine
 10
7606.5208804
 20
1110.918149
 30
0.0
 11
7283.9408804
 21
1110.918149
 31
0.0
  0
LINE
  5
2BD
330
1F
100
AcDbEntity
  8
0
  6
Continuous
 62
     7
100
AcDbLine
 10
7283.9408804
 20
1110.918149
 30
0.0
 11
7283.9408804
 21
1025.111869
 31
0.0
  0
LINE
  5
2BE
330
1F
100
AcDbEntity
  8
0
  6
Continuous
 62
     7
100
AcDbLine
 10
7283.9408804
 20
1025.111869
 30
0.0
 11
6961.3608804
 21
1025.111869
 31
0.0
  0
LINE
  5
2BF
330
1F
100
AcDbEntity
  8
0
  6
Continuous
 62
     7
100
AcDbLine
 10
6961.3608804
 20
1025.111869
 30
0.0
 11
6961.3608804
 21
1110.918149
 31
0.0
  0
LINE
  5
2C0
330
1F
100
AcDbEntity
  8
0
  6
Continuous
 62
     7
100
AcDbLine
 10
6961.3608804
 20
1110.918149
 30
0.0
 11
6724.5871604
 21
1110.918149
 31
0.0
  0
LINE
  5
2C1
330
1F
100
AcDbEntity
  8
0
  6
Continuous
 62
     7
100
AcDbLine
 10
6724.5871604
 20
1110.918149
 30
0.0
 11
6724.5844934
 21
1433.500816
 31
0.0
  0
LINE
  5
2C2
330
1F
100
AcDbEntity
  8
0
  6
Continuous
 62
     7
100
AcDbLine
 10
6724.5844934
 20
1433.500816
 30
0.0
 11
6638.7782134
 21
1433.500816
 31
0.0
  0
LINE
  5
2C3
330
1F
100
AcDbEntity
  8
0
  6
Continuous
 62
     7
100
AcDbLine
 10
6638.7782134
 20
1433.500816
 30
0.0
 11
6638.7782134
 21
1756.080816
 31
0.0
  0
LINE
  5
2C4
330
1F
100
AcDbEntity
  8
0
  6
Continuous
 62
     7
100
AcDbLine
 10
7347.163868
 20
3013.4976306
 30
0.0
 11
7347.163868
 21
2615.4339106
 31
0.0
  0
LINE
  5
2C5
330
1F
100
AcDbEntity
  8
0
  6
Continuous
 62
     7
100
AcDbLine
 10
7347.163868
 20
2615.4339106
 30
0.0
 11
7498.1340004
 21
2615.4312182
 31
0.0
  0
LINE
  5
2C6
330
1F
100
AcDbEntity
  8
0
  6
Continuous
 62
     7
100
AcDbLine
 10
7498.1340004
 20
2615.4312182
 30
0.0
 11
7498.1340004
 21
2529.6249382
 31
0.0
  0
LINE
  5
2C7
330
1F
100
AcDbEntity
  8
0
  6
Continuous
 62
     7
100
AcDbLine
 10
7498.1340004
 20
2529.6249382
 30
0.0
 11
7261.357588
 21
2529.6249382
 31
0.0
  0
LINE
  5
2C8
330
1F
100
AcDbEntity
  8
0
  6
Continuous
 62
     7
100
AcDbLine
 10
7261.357588
 20
2529.6249382
 30
0.0
 11
7261.357588
 21
2615.4339106
 31
0.0
  0
LINE
  5
2C9
330
1F
100
AcDbEntity
  8
0
  6
Continuous
 62
     7
100
AcDbLine
 10
7261.357588
 20
2615.4339106
 30
0.0
 11
7261.357588
 21
3013.4976306
 31
0.0
  0
LINE
  5
2CA
330
1F
100
AcDbEntity
  8
0
  6
Continuous
 62
     7
100
AcDbLine
 10
7261.357588
 20
3013.4976306
 30
0.0
 11
7347.163868
 21
3013.4976306
 31
0.0
  0
LINE
  5
2CB
330
1F
100
AcDbEntity
  8
0
  6
Continuous
 62
     7
100
AcDbLine
 10
7347.1665604
 20
3734.1386328
 30
0.0
 11
7347.1665604
 21
3336.0749382
 31
0.0
  0
LINE
  5
2CC
330
1F
100
AcDbEntity
  8
0
  6
Continuous
 62
     7
100
AcDbLine
 10
7347.1665604
 20
3336.0749382
 30
0.0
 11
7261.3602804
 21
3336.0749382
 31
0.0
  0
LINE
  5
2CD
330
1F
100
AcDbEntity
  8
0
  6
Continuous
 62
     7
100
AcDbLine
 10
7261.3602804
 20
3336.0749382
 30
0.0
 11
7261.3602804
 21
3734.1386328
 31
0.0
  0
LINE
  5
2CE
330
1F
100
AcDbEntity
  8
0
  6
Continuous
 62
     7
100
AcDbLine
 10
7261.3602804
 20
3734.1386328
 30
0.0
 11
7261.357588
 21
3819.9449128
 31
0.0
  0
LINE
  5
2CF
330
1F
100
AcDbEntity
  8
0
  6
Continuous
 62
     7
100
AcDbLine
 10
7261.357588
 20
3819.9449128
 30
0.0
 11
7498.1340004
 21
3819.9449128
 31
0.0
  0
LINE
  5
2D0
330
1F
100
AcDbEntity
  8
0
  6
Continuous
 62
     7
100
AcDbLine
 10
7498.1340004
 20
3819.9449128
 30
0.0
 11
7498.1340004
 21
3734.1386328
 31
0.0
  0
LINE
  5
2D1
330
1F
100
AcDbEntity
  8
0
  6
Continuous
 62
     7
100
AcDbLine
 10
7498.1340004
 20
3734.1386328
 30
0.0
 11
7347.1665604
 21
3734.1386328
 31
0.0
  0
LINE
  5
2D2
330
1F
100
AcDbEntity
  8
0
  6
Continuous
 62
     7
100
AcDbLine
 10
9111.0339496
 20
3734.1386328
 30
0.0
 11
9111.0339496
 21
3819.9449128
 31
0.0
  0
LINE
  5
2D3
330
1F
100
AcDbEntity
  8
0
  6
Continuous
 62
     7
100
AcDbLine
 10
9111.0339496
 20
3819.9449128
 30
0.0
 11
9347.8049772
 21
3819.9449128
 31
0.0
  0
LINE
  5
2D4
330
1F
100
AcDbEntity
  8
0
  6
Continuous
 62
     7
100
AcDbLine
 10
9347.8049772
 20
3819.9449128
 30
0.0
 11
9347.8049772
 21
3734.1386328
 31
0.0
  0
LINE
  5
2D5
330
1F
100
AcDbEntity
  8
0
  6
Continuous
 62
     7
100
AcDbLine
 10
9347.8049772
 20
3734.1386328
 30
0.0
 11
9347.8076696
 21
3336.0749382
 31
0.0
  0
LINE
  5
2D6
330
1F
100
AcDbEntity
  8
0
  6
Continuous
 62
     7
100
AcDbLine
 10
9347.8076696
 20
3336.0749382
 30
0.0
 11
9262.0013896
 21
3336.0749382
 31
0.0
  0
LINE
  5
2D7
330
1F
100
AcDbEntity
  8
0
  6
Continuous
 62
     7
100
AcDbLine
 10
9262.0013896
 20
3336.0749382
 30
0.0
 11
9262.0013896
 21
3734.1386328
 31
0.0
  0
LINE
  5
2D8
330
1F
100
AcDbEntity
  8
0
  6
Continuous
 62
     7
100
AcDbLine
 10
9262.0013896
 20
3734.1386328
 30
0.0
 11
9111.0339496
 21
3734.1386328
 31
0.0
  0
LINE
  5
2D9
330
1F
100
AcDbEntity
  8
0
  6
Continuous
 62
     7
100
AcDbLine
 10
8465.873975
 20
3734.1386328
 30
0.0
 11
8465.873975
 21
3819.9449128
 31
0.0
  0
LINE
  5
2DA
330
1F
100
AcDbEntity
  8
0
  6
Continuous
 62
     7
100
AcDbLine
 10
8465.873975
 20
3819.9449128
 30
0.0
 11
8788.453975
 21
3819.9449128
 31
0.0
  0
LINE
  5
2DB
330
1F
100
AcDbEntity
  8
0
  6
Continuous
 62
     7
100
AcDbLine
 10
8788.453975
 20
3819.9449128
 30
0.0
 11
8788.453975
 21
3734.1386328
 31
0.0
  0
LINE
  5
2DC
330
1F
100
AcDbEntity
  8
0
  6
Continuous
 62
     7
100
AcDbLine
 10
8788.453975
 20
3734.1386328
 30
0.0
 11
8465.873975
 21
3734.1386328
 31
0.0
  0
LINE
  5
2DD
330
1F
100
AcDbEntity
  8
0
  6
Continuous
 62
     7
100
AcDbLine
 10
8143.293975
 20
3734.1386328
 30
0.0
 11
7820.713975
 21
3734.1386328
 31
0.0
  0
LINE
  5
2DE
330
1F
100
AcDbEntity
  8
0
  6
Continuous
 62
     7
100
AcDbLine
 10
7820.713975
 20
3734.1386328
 30
0.0
 11
7820.713975
 21
3819.9449128
 31
0.0
  0
LINE
  5
2DF
330
1F
100
AcDbEntity
  8
0
  6
Continuous
 62
     7
100
AcDbLine
 10
7820.713975
 20
3819.9449128
 30
0.0
 11
8143.293975
 21
3819.9449128
 31
0.0
  0
LINE
  5
2E0
330
1F
100
AcDbEntity
  8
0
  6
Continuous
 62
     7
100
AcDbLine
 10
8143.293975
 20
3819.9449128
 30
0.0
 11
8143.293975
 21
3734.1386328
 31
0.0
  0
LINE
  5
2E1
330
1F
100
AcDbEntity
  8
0
  6
Continuous
 62
     7
100
AcDbLine
 10
9433.6139496
 20
6076.9788798
 30
0.0
 11
9349.7431496
 21
6076.9788798
 31
0.0
  0
LINE
  5
2E2
330
1F
100
AcDbEntity
  8
0
  6
Continuous
 62
     7
100
AcDbLine
 10
9349.7431496
 20
6076.9788798
 30
0.0
 11
9349.7431496
 21
6399.5588798
 31
0.0
  0
LINE
  5
2E3
330
1F
100
AcDbEntity
  8
0
  6
Continuous
 62
     7
100
AcDbLine
 10
9349.7431496
 20
6399.5588798
 30
0.0
 11
9433.6139496
 21
6399.5588798
 31
0.0
  0
LINE
  5
2E4
330
1F
100
AcDbEntity
  8
0
  6
Continuous
 62
     7
100
AcDbLine
 10
9433.6139496
 20
6399.5588798
 30
0.0
 11
9433.6139496
 21
6808.971142
 31
0.0
  0
LINE
  5
2E5
330
1F
100
AcDbEntity
  8
0
  6
Continuous
 62
     7
100
AcDbLine
 10
9433.6139496
 20
6808.971142
 30
0.0
 11
9111.0339496
 21
6808.9693386
 31
0.0
  0
LINE
  5
2E6
330
1F
100
AcDbEntity
  8
0
  6
Continuous
 62
     7
100
AcDbLine
 10
9111.0339496
 20
6808.9693386
 30
0.0
 11
9111.0339496
 21
6723.1630586
 31
0.0
  0
LINE
  5
2E7
330
1F
100
AcDbEntity
  8
0
  6
Continuous
 62
     7
100
AcDbLine
 10
9111.0339496
 20
6723.1630586
 30
0.0
 11
8788.453975
 21
6723.1630586
 31
0.0
  0
LINE
  5
2E8
330
1F
100
AcDbEntity
  8
0
  6
Continuous
 62
     7
100
AcDbLine
 10
8788.453975
 20
6723.1630586
 30
0.0
 11
8788.453975
 21
6808.9693386
 31
0.0
  0
LINE
  5
2E9
330
1F
100
AcDbEntity
  8
0
  6
Continuous
 62
     7
100
AcDbLine
 10
8788.453975
 20
6808.9693386
 30
0.0
 11
8465.873975
 21
6808.9693386
 31
0.0
  0
LINE
  5
2EA
330
1F
100
AcDbEntity
  8
0
  6
Continuous
 62
     7
100
AcDbLine
 10
8465.873975
 20
6808.9693386
 30
0.0
 11
8465.873975
 21
6723.1630586
 31
0.0
  0
LINE
  5
2EB
330
1F
100
AcDbEntity
  8
0
  6
Continuous
 62
     7
100
AcDbLine
 10
8465.873975
 20
6723.1630586
 30
0.0
 11
8143.293975
 21
6723.1630586
 31
0.0
  0
LINE
  5
2EC
330
1F
100
AcDbEntity
  8
0
  6
Continuous
 62
     7
100
AcDbLine
 10
8143.293975
 20
6723.1630586
 30
0.0
 11
8143.293975
 21
6808.9693386
 31
0.0
  0
LINE
  5
2ED
330
1F
100
AcDbEntity
  8
0
  6
Continuous
 62
     7
100
AcDbLine
 10
8143.293975
 20
6808.9693386
 30
0.0
 11
7820.713975
 21
6808.9693386
 31
0.0
  0
LINE
  5
2EE
330
1F
100
AcDbEntity
  8
0
  6
Continuous
 62
     7
100
AcDbLine
 10
7820.713975
 20
6808.9693386
 30
0.0
 11
7820.713975
 21
6723.1630586
 31
0.0
  0
LINE
  5
2EF
330
1F
100
AcDbEntity
  8
0
  6
Continuous
 62
     7
100
AcDbLine
 10
7820.713975
 20
6723.1630586
 30
0.0
 11
7498.1340004
 21
6723.1630586
 31
0.0
  0
LINE
  5
2F0
330
1F
100
AcDbEntity
  8
0
  6
Continuous
 62
     7
100
AcDbLine
 10
7498.1340004
 20
6723.1630586
 30
0.0
 11
7498.1340004
 21
6808.9693386
 31
0.0
  0
LINE
  5
2F1
330
1F
100
AcDbEntity
  8
0
  6
Continuous
 62
     7
100
AcDbLine
 10
7498.1340004
 20
6808.9693386
 30
0.0
 11
7175.5540004
 21
6808.971142
 31
0.0
  0
LINE
  5
2F2
330
1F
100
AcDbEntity
  8
0
  6
Continuous
 62
     7
100
AcDbLine
 10
7175.5540004
 20
6808.971142
 30
0.0
 11
7175.5540004
 21
6400.584862
 31
0.0
  0
LINE
  5
2F3
330
1F
100
AcDbEntity
  8
0
  6
Continuous
 62
     7
100
AcDbLine
 10
7175.5540004
 20
6400.584862
 30
0.0
 11
7261.3602804
 21
6400.584862
 31
0.0
  0
LINE
  5
2F4
330
1F
100
AcDbEntity
  8
0
  6
Continuous
 62
     7
100
AcDbLine
 10
7261.3602804
 20
6400.584862
 30
0.0
 11
7261.3602804
 21
6078.004862
 31
0.0
  0
LINE
  5
2F5
330
1F
100
AcDbEntity
  8
0
  6
Continuous
 62
     7
100
AcDbLine
 10
7261.3602804
 20
6078.004862
 30
0.0
 11
7175.5540004
 21
6078.004862
 31
0.0
  0
LINE
  5
2F6
330
1F
100
AcDbEntity
  8
0
  6
Continuous
 62
     7
100
AcDbLine
 10
7175.5540004
 20
6078.004862
 30
0.0
 11
7175.5540004
 21
5755.4248874
 31
0.0
  0
LINE
  5
2F7
330
1F
100
AcDbEntity
  8
0
  6
Continuous
 62
     7
100
AcDbLine
 10
7175.5540004
 20
5755.4248874
 30
0.0
 11
7261.3602804
 21
5755.4248874
 31
0.0
  0
LINE
  5
2F8
330
1F
100
AcDbEntity
  8
0
  6
Continuous
 62
     7
100
AcDbLine
 10
7261.3602804
 20
5755.4248874
 30
0.0
 11
7261.3602804
 21
5432.8448874
 31
0.0
  0
LINE
  5
2F9
330
1F
100
AcDbEntity
  8
0
  6
Continuous
 62
     7
100
AcDbLine
 10
7261.3602804
 20
5432.8448874
 30
0.0
 11
7175.5540004
 21
5432.8448874
 31
0.0
  0
LINE
  5
2FA
330
1F
100
AcDbEntity
  8
0
  6
Continuous
 62
     7
100
AcDbLine
 10
7175.5540004
 20
5432.8448874
 30
0.0
 11
7175.5540004
 21
5110.2648874
 31
0.0
  0
LINE
  5
2FB
330
1F
100
AcDbEntity
  8
0
  6
Continuous
 62
     7
100
AcDbLine
 10
7175.5540004
 20
5110.2648874
 30
0.0
 11
7261.3602804
 21
5110.2648874
 31
0.0
  0
LINE
  5
2FC
330
1F
100
AcDbEntity
  8
0
  6
Continuous
 62
     7
100
AcDbLine
 10
7261.3602804
 20
5110.2648874
 30
0.0
 11
7261.3602804
 21
4787.6849128
 31
0.0
  0
LINE
  5
2FD
330
1F
100
AcDbEntity
  8
0
  6
Continuous
 62
     7
100
AcDbLine
 10
7261.3602804
 20
4787.6849128
 30
0.0
 11
7175.5540004
 21
4787.6849128
 31
0.0
  0
LINE
  5
2FE
330
1F
100
AcDbEntity
  8
0
  6
Continuous
 62
     7
100
AcDbLine
 10
7175.5540004
 20
4787.6849128
 30
0.0
 11
7175.5540004
 21
4465.1049128
 31
0.0
  0
LINE
  5
2FF
330
1F
100
AcDbEntity
  8
0
  6
Continuous
 62
     7
100
AcDbLine
 10
7175.5540004
 20
4465.1049128
 30
0.0
 11
7261.3602804
 21
4465.1049128
 31
0.0
  0
LINE
  5
300
330
1F
100
AcDbEntity
  8
0
  6
Continuous
 62
     7
100
AcDbLine
 10
7261.3602804
 20
4465.1049128
 30
0.0
 11
7261.3602804
 21
4142.5249128
 31
0.0
  0
LINE
  5
301
330
1F
100
AcDbEntity
  8
0
  6
Continuous
 62
     7
100
AcDbLine
 10
7261.3602804
 20
4142.5249128
 30
0.0
 11
7175.5540004
 21
4142.5249128
 31
0.0
  0
LINE
  5
302
330
1F
100
AcDbEntity
  8
0
  6
Continuous
 62
     7
100
AcDbLine
 10
7175.5540004
 20
4142.5249128
 30
0.0
 11
7175.5540004
 21
2486.2468944
 31
0.0
  0
LINE
  5
303
330
1F
100
AcDbEntity
  8
0
  6
Continuous
 62
     7
100
AcDbLine
 10
7217.9822366
 20
2443.8186836
 30
0.0
 11
9391.1857134
 21
2443.8186836
 31
0.0
  0
LINE
  5
304
330
1F
100
AcDbEntity
  8
0
  6
Continuous
 62
     7
100
AcDbLine
 10
9433.6139496
 20
2486.2468944
 30
0.0
 11
9433.6139496
 21
4141.4989306
 31
0.0
  0
LINE
  5
305
330
1F
100
AcDbEntity
  8
0
  6
Continuous
 62
     7
100
AcDbLine
 10
9433.6139496
 20
4141.4989306
 30
0.0
 11
9349.7431496
 21
4141.4989306
 31
0.0
  0
LINE
  5
306
330
1F
100
AcDbEntity
  8
0
  6
Continuous
 62
     7
100
AcDbLine
 10
9349.7431496
 20
4141.4989306
 30
0.0
 11
9349.7431496
 21
4464.0789306
 31
0.0
  0
LINE
  5
307
330
1F
100
AcDbEntity
  8
0
  6
Continuous
 62
     7
100
AcDbLine
 10
9349.7431496
 20
4464.0789306
 30
0.0
 11
9433.6139496
 21
4464.0789306
 31
0.0
  0
LINE
  5
308
330
1F
100
AcDbEntity
  8
0
  6
Continuous
 62
     7
100
AcDbLine
 10
9433.6139496
 20
4464.0789306
 30
0.0
 11
9433.6139496
 21
4786.6589052
 31
0.0
  0
LINE
  5
309
330
1F
100
AcDbEntity
  8
0
  6
Continuous
 62
     7
100
AcDbLine
 10
9433.6139496
 20
4786.6589052
 30
0.0
 11
9349.7431496
 21
4786.6589052
 31
0.0
  0
LINE
  5
30A
330
1F
100
AcDbEntity
  8
0
  6
Continuous
 62
     7
100
AcDbLine
 10
9349.7431496
 20
4786.6589052
 30
0.0
 11
9349.7431496
 21
5109.2389052
 31
0.0
  0
LINE
  5
30B
330
1F
100
AcDbEntity
  8
0
  6
Continuous
 62
     7
100
AcDbLine
 10
9349.7431496
 20
5109.2389052
 30
0.0
 11
9433.6139496
 21
5109.2389052
 31
0.0
  0
LINE
  5
30C
330
1F
100
AcDbEntity
  8
0
  6
Continuous
 62
     7
100
AcDbLine
 10
9433.6139496
 20
5109.2389052
 30
0.0
 11
9433.6139496
 21
5431.8189052
 31
0.0
  0
LINE
  5
30D
330
1F
100
AcDbEntity
  8
0
  6
Continuous
 62
     7
100
AcDbLine
 10
9433.6139496
 20
5431.8189052
 30
0.0
 11
9349.7431496
 21
5431.8189052
 31
0.0
  0
LINE
  5
30E
330
1F
100
AcDbEntity
  8
0
  6
Continuous
 62
     7
100
AcDbLine
 10
9349.7431496
 20
5431.8189052
 30
0.0
 11
9349.7431496
 21
5754.3989052
 31
0.0
  0
LINE
  5
30F
330
1F
100
AcDbEntity
  8
0
  6
Continuous
 62
     7
100
AcDbLine
 10
9349.7431496
 20
5754.3989052
 30
0.0
 11
9433.6139496
 21
5754.3989052
 31
0.0
  0
LINE
  5
310
330
1F
100
AcDbEntity
  8
0
  6
Continuous
 62
     7
100
AcDbLine
 10
9433.6139496
 20
5754.3989052
 30
0.0
 11
9433.6139496
 21
6076.9788798
 31
0.0
  0
LINE
  5
311
330
1F
100
AcDbEntity
  8
0
  6
Continuous
 62
     7
100
AcDbLine
 10
9111.0339496
 20
2529.6249382
 30
0.0
 11
9111.0339496
 21
2615.4312182
 31
0.0
  0
LINE
  5
312
330
1F
100
AcDbEntity
  8
0
  6
Continuous
 62
     7
100
AcDbLine
 10
9111.0339496
 20
2615.4312182
 30
0.0
 11
9261.9986972
 21
2615.4339106
 31
0.0
  0
LINE
  5
313
330
1F
100
AcDbEntity
  8
0
  6
Continuous
 62
     7
100
AcDbLine
 10
9261.9986972
 20
2615.4339106
 30
0.0
 11
9261.9986972
 21
3013.4976306
 31
0.0
  0
LINE
  5
314
330
1F
100
AcDbEntity
  8
0
  6
Continuous
 62
     7
100
AcDbLine
 10
9261.9986972
 20
3013.4976306
 30
0.0
 11
9347.8049772
 21
3013.4976306
 31
0.0
  0
LINE
  5
315
330
1F
100
AcDbEntity
  8
0
  6
Continuous
 62
     7
100
AcDbLine
 10
9347.8049772
 20
3013.4976306
 30
0.0
 11
9347.8049772
 21
2615.4339106
 31
0.0
  0
LINE
  5
316
330
1F
100
AcDbEntity
  8
0
  6
Continuous
 62
     7
100
AcDbLine
 10
9347.8049772
 20
2615.4339106
 30
0.0
 11
9347.8049772
 21
2529.6249382
 31
0.0
  0
LINE
  5
317
330
1F
100
AcDbEntity
  8
0
  6
Continuous
 62
     7
100
AcDbLine
 10
9347.8049772
 20
2529.6249382
 30
0.0
 11
9111.0339496
 21
2529.6249382
 31
0.0
  0
LINE
  5
318
330
1F
100
AcDbEntity
  8
0
  6
Continuous
 62
     7
100
AcDbLine
 10
8465.873975
 20
2529.6249382
 30
0.0
 11
8465.873975
 21
2615.4312182
 31
0.0
  0
LINE
  5
319
330
1F
100
AcDbEntity
  8
0
  6
Continuous
 62
     7
100
AcDbLine
 10
8465.873975
 20
2615.4312182
 30
0.0
 11
8788.453975
 21
2615.4312182
 31
0.0
  0
LINE
  5
31A
330
1F
100
AcDbEntity
  8
0
  6
Continuous
 62
     7
100
AcDbLine
 10
8788.453975
 20
2615.4312182
 30
0.0
 11
8788.453975
 21
2529.6249382
 31
0.0
  0
LINE
  5
31B
330
1F
100
AcDbEntity
  8
0
  6
Continuous
 62
     7
100
AcDbLine
 10
8788.453975
 20
2529.6249382
 30
0.0
 11
8465.873975
 21
2529.6249382
 31
0.0
  0
LINE
  5
31C
330
1F
100
AcDbEntity
  8
0
  6
Continuous
 62
     7
100
AcDbLine
 10
7820.713975
 20
2615.4312182
 30
0.0
 11
8143.293975
 21
2615.4312182
 31
0.0
  0
LINE
  5
31D
330
1F
100
AcDbEntity
  8
0
  6
Continuous
 62
     7
100
AcDbLine
 10
8143.293975
 20
2615.4312182
 30
0.0
 11
8143.293975
 21
2529.6249382
 31
0.0
  0
LINE
  5
31E
330
1F
100
AcDbEntity
  8
0
  6
Continuous
 62
     7
100
AcDbLine
 10
8143.293975
 20
2529.6249382
 30
0.0
 11
7820.713975
 21
2529.6249382
 31
0.0
  0
LINE
  5
31F
330
1F
100
AcDbEntity
  8
0
  6
Continuous
 62
     7
100
AcDbLine
 10
7820.713975
 20
2529.6249382
 30
0.0
 11
7820.713975
 21
2615.4312182
 31
0.0
  0
LINE
  5
320
330
1F
100
AcDbEntity
  8
0
  6
Continuous
 62
     7
100
AcDbLine
 10
10215.0657879263
 20
6666.8090212901
 30
0.0
 11
10215.0657879263
 21
3515.6012266901
 31
0.0
  0
LINE
  5
321
330
1F
100
AcDbEntity
  8
0
  6
Continuous
 62
     7
100
AcDbLine
 10
10860.2277217207
 20
3355.2053044995
 30
0.0
 11
10375.4391273263
 21
3355.2055098901
 31
0.0
  0
LINE
  5
322
330
1F
100
AcDbEntity
  8
0
  6
Continuous
 62
     7
100
AcDbLine
 10
10537.6477471207
 20
6666.8115082995
 30
0.0
 11
10215.0657879263
 21
6666.8090212901
 31
0.0
  0
LINE
  5
323
330
1F
100
AcDbEntity
  8
0
  6
Continuous
 62
     7
100
AcDbLine
 10
10537.6477471207
 20
6752.6177882995
 30
0.0
 11
10537.6477471207
 21
6666.8115082995
 31
0.0
  0
LINE
  5
324
330
1F
100
AcDbEntity
  8
0
  6
Continuous
 62
     7
100
AcDbLine
 10
10860.2277217207
 20
6752.6177882995
 30
0.0
 11
10537.6477471207
 21
6752.6177882995
 31
0.0
  0
LINE
  5
325
330
1F
100
AcDbEntity
  8
0
  6
Continuous
 62
     7
100
AcDbLine
 10
10860.2277217207
 20
6343.2055260995
 30
0.0
 11
10860.2277217207
 21
6752.6177882995
 31
0.0
  0
LINE
  5
326
330
1F
100
AcDbEntity
  8
0
  6
Continuous
 62
     7
100
AcDbLine
 10
10944.0985217207
 20
6343.2055260995
 30
0.0
 11
10860.2277217207
 21
6343.2055260995
 31
0.0
  0
LINE
  5
327
330
1F
100
AcDbEntity
  8
0
  6
Continuous
 62
     7
100
AcDbLine
 10
10944.0985217207
 20
6020.6255260995
 30
0.0
 11
10944.0985217207
 21
6343.2055260995
 31
0.0
  0
LINE
  5
328
330
1F
100
AcDbEntity
  8
0
  6
Continuous
 62
     7
100
AcDbLine
 10
10860.2277217207
 20
6020.6255260995
 30
0.0
 11
10944.0985217207
 21
6020.6255260995
 31
0.0
  0
LINE
  5
329
330
1F
100
AcDbEntity
  8
0
  6
Continuous
 62
     7
100
AcDbLine
 10
10860.2277217207
 20
5698.0455260995
 30
0.0
 11
10860.2277217207
 21
6020.6255260995
 31
0.0
  0
LINE
  5
32A
330
1F
100
AcDbEntity
  8
0
  6
Continuous
 62
     7
100
AcDbLine
 10
10944.0985217207
 20
5698.0455260995
 30
0.0
 11
10860.2277217207
 21
5698.0455260995
 31
0.0
  0
LINE
  5
32B
330
1F
100
AcDbEntity
  8
0
  6
Continuous
 62
     7
100
AcDbLine
 10
10944.0985217207
 20
5375.4655514995
 30
0.0
 11
10944.0985217207
 21
5698.0455260995
 31
0.0
  0
LINE
  5
32C
330
1F
100
AcDbEntity
  8
0
  6
Continuous
 62
     7
100
AcDbLine
 10
10860.2277217207
 20
5375.4655514995
 30
0.0
 11
10944.0985217207
 21
5375.4655514995
 31
0.0
  0
LINE
  5
32D
330
1F
100
AcDbEntity
  8
0
  6
Continuous
 62
     7
100
AcDbLine
 10
10860.2277217207
 20
5052.8855514995
 30
0.0
 11
10860.2277217207
 21
5375.4655514995
 31
0.0
  0
LINE
  5
32E
330
1F
100
AcDbEntity
  8
0
  6
Continuous
 62
     7
100
AcDbLine
 10
10944.0985217207
 20
5052.8855514995
 30
0.0
 11
10860.2277217207
 21
5052.8855514995
 31
0.0
  0
LINE
  5
32F
330
1F
100
AcDbEntity
  8
0
  6
Continuous
 62
     7
100
AcDbLine
 10
10944.0985217207
 20
4730.3055514995
 30
0.0
 11
10944.0985217207
 21
5052.8855514995
 31
0.0
  0
LINE
  5
330
330
1F
100
AcDbEntity
  8
0
  6
Continuous
 62
     7
100
AcDbLine
 10
10860.2277217207
 20
4730.3055514995
 30
0.0
 11
10944.0985217207
 21
4730.3055514995
 31
0.0
  0
LINE
  5
331
330
1F
100
AcDbEntity
  8
0
  6
Continuous
 62
     7
100
AcDbLine
 10
6638.7782134
 20
1756.080816
 30
0.0
 11
8898.778113
 21
1756.080816
 31
0.0
  0
LINE
  5
332
330
1F
100
AcDbEntity
  8
0
  6
Continuous
 62
     7
100
AcDbLine
 10
10860.2277217207
 20
4407.7255768995
 30
0.0
 11
10860.2277217207
 21
4730.3055514995
 31
0.0
  0
LINE
  5
333
330
1F
100
AcDbEntity
  8
0
  6
Continuous
 62
     7
100
AcDbLine
 10
10944.0985217207
 20
4407.7255768995
 30
0.0
 11
10860.2277217207
 21
4407.7255768995
 31
0.0
  0
LINE
  5
334
330
1F
100
AcDbEntity
  8
0
  6
Continuous
 62
     7
100
AcDbLine
 10
10944.0985217207
 20
4085.1455768995
 30
0.0
 11
10944.0985217207
 21
4407.7255768995
 31
0.0
  0
LINE
  5
335
330
1F
100
AcDbEntity
  8
0
  6
Continuous
 62
     7
100
AcDbLine
 10
10860.2277217207
 20
4085.1455768995
 30
0.0
 11
10944.0985217207
 21
4085.1455768995
 31
0.0
  0
LINE
  5
336
330
1F
100
AcDbEntity
  8
0
  6
Continuous
 62
     7
100
AcDbLine
 10
10860.2277217207
 20
3355.2053044995
 30
0.0
 11
10860.2277217207
 21
4085.1455768995
 31
0.0
  0
ARC
  5
337
330
1F
100
AcDbEntity
  8
0
  6
Continuous
 62
     7
100
AcDbCircle
 10
5599.8161595063
 20
2815.3653872757
 30
0.0
 40
28.32162893731684
100
AcDbArc
 50
270.0678556429
 51
359.9275478978
  0
ARC
  5
338
330
1F
100
AcDbEntity
  8
0
  6
Continuous
 62
     7
100
AcDbCircle
 10
5599.8192492625
 20
3716.1447622691
 30
0.0
 40
28.31644946549362
100
AcDbArc
 50
0.0638372364
 51
89.9337407272
  0
ARC
  5
339
330
1F
100
AcDbEntity
  8
0
  6
Continuous
 62
     7
100
AcDbCircle
 10
3913.2357703238
 20
3716.1409215263
 30
0.0
 40
28.32029583617639
100
AcDbArc
 50
90.0754614461
 51
179.9284010874
  0
ARC
  5
33A
330
1F
100
AcDbEntity
  8
0
  6
Continuous
 62
     7
100
AcDbCircle
 10
3913.2377020107
 20
2815.3670822607
 30
0.0
 40
28.32332865346532
100
AcDbArc
 50
180.0758765733
 51
269.9244961498
  0
ARC
  5
33B
330
1F
100
AcDbEntity
  8
0
  6
Continuous
 62
     7
100
AcDbCircle
 10
11622.0340184122
 20
3501.7534195983
 30
0.0
 40
161.1939609374892
100
AcDbArc
 50
270.2916388673
 51
359.7170082387
  0
ARC
  5
33C
330
1F
100
AcDbEntity
  8
0
  6
Continuous
 62
     7
100
AcDbCircle
 10
7218.4274265029
 20
2486.6937593645
 30
0.0
 40
42.87738699894646
100
AcDbArc
 50
180.5971431979
 51
269.4050952582
  0
ARC
  5
33D
330
1F
100
AcDbEntity
  8
0
  6
Continuous
 62
     7
100
AcDbCircle
 10
9390.7414463768
 20
2486.6912263726
 30
0.0
 40
42.87480569666595
100
AcDbArc
 50
270.5886721002
 51
359.4062059979
  0
ARC
  5
33E
330
1F
100
AcDbEntity
  8
0
  6
Continuous
 62
     7
100
AcDbCircle
 10
10376.2623576013
 20
3516.402755683
 30
0.0
 40
161.1993478872412
100
AcDbArc
 50
180.284892081
 51
269.7073944407
  0
MTEXT
  5
340
330
1F
100
AcDbEntity
  8
0
  6
Continuous
 62
     7
100
AcDbMText
 10
251.3744528
 20
1024.0430062592
 30
0.0
 40
5.0673270158
 41
0.0
 71
     1
 72
     1
  1
SOLIDWORKS Educational Product.
  7
SLDTEXTSTYLE0
 73
     1
 44
1.0
  0
MTEXT
  5
341
330
1F
100
AcDbEntity
  8
0
  6
Continuous
 62
     7
100
AcDbMText
 10
251.3744528
 20
1016.4420157355
 30
0.0
 40
5.0673270158
 41
0.0
 71
     1
 72
     1
  1
For Instructional Use Only.
  7
SLDTEXTSTYLE0
 73
     1
 44
1.0
  0
ENDSEC
  0
SECTION
  2
OBJECTS
  0
DICTIONARY
  5
C
330
0
100
AcDbDictionary
281
     1
  3
ACAD_GROUP
350
D
  3
ACAD_LAYOUT
350
1A
  3
ACAD_MLINESTYLE
350
17
  3
ACAD_PLOTSETTINGS
350
19
  3
ACAD_PLOTSTYLENAME
350
E
  3
ACAD_SCALELIST
350
47
  0
DICTIONARY
  5
D
102
{ACAD_REACTORS
330
C
102
}
330
C
100
AcDbDictionary
281
     1
  0
DICTIONARY
  5
1A
102
{ACAD_REACTORS
330
C
102
}
330
C
100
AcDbDictionary
281
     1
  3
Layout1
350
1E
  3
Layout2
350
26
  3
Model
350
22
  0
DICTIONARY
  5
17
102
{ACAD_REACTORS
330
C
102
}
330
C
100
AcDbDictionary
281
     1
  3
Standard
350
18
  0
DICTIONARY
  5
19
102
{ACAD_REACTORS
330
C
102
}
330
C
100
AcDbDictionary
281
     1
  0
ACDBDICTIONARYWDFLT
  5
E
102
{ACAD_REACTORS
330
C
102
}
330
C
100
AcDbDictionary
281
     1
  3
Normal
350
F
100
AcDbDictionaryWithDefault
340
F
  0
DICTIONARY
  5
47
102
{ACAD_REACTORS
330
C
102
}
330
C
100
AcDbDictionary
281
     1
  3
A0
350
48
  3
A1
350
49
  3
A2
350
4A
  3
A3
350
4B
  3
A4
350
4C
  3
A5
350
4D
  3
A6
350
4E
  3
A7
350
4F
  3
A8
350
50
  3
A9
350
51
  3
B0
350
52
  3
B1
350
53
  3
B2
350
54
  3
B3
350
55
  3
B4
350
56
  3
B5
350
57
  3
B6
350
58
  3
B7
350
59
  3
B8
350
5A
  3
B9
350
5B
  3
C0
350
5C
  3
C1
350
5D
  3
C2
350
5E
  3
C3
350
5F
  3
C4
350
60
  3
C5
350
61
  3
C6
350
62
  3
C7
350
63
  3
C8
350
64
  3
C9
350
65
  3
D0
350
66
  3
D1
350
67
  3
D2
350
68
  0
LAYOUT
  5
1E
102
{ACAD_REACTORS
330
1A
102
}
330
1A
100
AcDbPlotSettings
  1

  2
none_device
  4

  6

 40
0.0
 41
0.0
 42
0.0
 43
0.0
 44
0.0
 45
0.0
 46
0.0
 47
0.0
 48
0.0
 49
0.0
140
0.0
141
0.0
142
1.0
143
1.0
 70
   688
 72
     1
 73
     0
 74
     5
  7

 75
    16
147
1.0
148
0.0
149
0.0
100
AcDbLayout
  1
Layout1
 70
     1
 71
     1
 10
0.0
 20
0.0
 11
420.0
 21
297.0
 12
0.0
 22
0.0
 32
0.0
 14
1.0000000000E+20
 24
1.0000000000E+20
 34
1.0000000000E+20
 15
-1.0000000000E+20
 25
-1.0000000000E+20
 35
-1.0000000000E+20
146
0.0
 13
0.0
 23
0.0
 33
0.0
 16
1.0
 26
0.0
 36
0.0
 17
0.0
 27
1.0
 37
0.0
 76
     0
330
1B
  0
LAYOUT
  5
26
102
{ACAD_REACTORS
330
1A
102
}
330
1A
100
AcDbPlotSettings
  1

  2
none_device
  4

  6

 40
0.0
 41
0.0
 42
0.0
 43
0.0
 44
0.0
 45
0.0
 46
0.0
 47
0.0
 48
0.0
 49
0.0
140
0.0
141
0.0
142
1.0
143
1.0
 70
   688
 72
     1
 73
     0
 74
     5
  7

 75
    16
147
1.0
148
0.0
149
0.0
100
AcDbLayout
  1
Layout2
 70
     1
 71
     2
 10
0.0
 20
0.0
 11
0.0
 21
0.0
 12
0.0
 22
0.0
 32
0.0
 14
0.0
 24
0.0
 34
0.0
 15
0.0
 25
0.0
 35
0.0
146
0.0
 13
0.0
 23
0.0
 33
0.0
 16
1.0
 26
0.0
 36
0.0
 17
0.0
 27
1.0
 37
0.0
 76
     0
330
23
  0
LAYOUT
  5
22
102
{ACAD_REACTORS
330
1A
102
}
330
1A
100
AcDbPlotSettings
  1

  2
none_device
  4
ANSI_A_(11.00_x_8.50_Inches)
  6

 40
6.35
 41
19.05
 42
6.35000508
 43
19.05000254
 44
279.4
 45
215.9
 46
-10.9825347887
 47
-5.0551658217
 48
0.0
 49
0.0
140
0.0
141
0.0
142
0.0009443408
143
1.0
 70
  1696
 72
     0
 73
     0
 74
     0
  7

 75
     0
147
0.0179189148
148
-1300.4909072572
149
0.0
100
AcDbLayout
  1
Model
 70
     1
 71
     0
 10
0.0
 20
0.0
 11
420.0
 21
297.0
 12
0.0
 22
0.0
 32
0.0
 14
251.3744528
 24
1025.111869
 34
0.0
 15
11783.2278409541
 25
6808.971142
 35
0.0
146
0.0
 13
0.0
 23
0.0
 33
0.0
 16
1.0
 26
0.0
 36
0.0
 17
0.0
 27
1.0
 37
0.0
 76
     0
330
1F
331
29
  0
MLINESTYLE
  5
18
102
{ACAD_REACTORS
330
17
102
}
330
17
100
AcDbMlineStyle
  2
Standard
 70
     0
  3

 62
   256
 51
90.0
 52
90.0
 71
     2
 49
0.5
 62
   256
  6
BYLAYER
 49
-0.5
 62
   256
  6
BYLAYER
  0
ACDBPLACEHOLDER
  5
F
102
{ACAD_REACTORS
330
E
102
}
330
E
  0
SCALE
  5
48
102
{ACAD_REACTORS
330
47
102
}
330
47
100
AcDbScale
 70
     0
300
1:1
140
1.0
141
1.0
290
     1
  0
SCALE
  5
49
102
{ACAD_REACTORS
330
47
102
}
330
47
100
AcDbScale
 70
     0
300
1:2
140
1.0
141
2.0
290
     0
  0
SCALE
  5
4A
102
{ACAD_REACTORS
330
47
102
}
330
47
100
AcDbScale
 70
     0
300
1:4
140
1.0
141
4.0
290
     0
  0
SCALE
  5
4B
102
{ACAD_REACTORS
330
47
102
}
330
47
100
AcDbScale
 70
     0
300
1:5
140
1.0
141
5.0
290
     0
  0
SCALE
  5
4C
102
{ACAD_REACTORS
330
47
102
}
330
47
100
AcDbScale
 70
     0
300
1:8
140
1.0
141
8.0
290
     0
  0
SCALE
  5
4D
102
{ACAD_REACTORS
330
47
102
}
330
47
100
AcDbScale
 70
     0
300
1:10
140
1.0
141
10.0
290
     0
  0
SCALE
  5
4E
102
{ACAD_REACTORS
330
47
102
}
330
47
100
AcDbScale
 70
     0
300
1:16
140
1.0
141
16.0
290
     0
  0
SCALE
  5
4F
102
{ACAD_REACTORS
330
47
102
}
330
47
100
AcDbScale
 70
     0
300
1:20
140
1.0
141
20.0
290
     0
  0
SCALE
  5
50
102
{ACAD_REACTORS
330
47
102
}
330
47
100
AcDbScale
 70
     0
300
1:30
140
1.0
141
30.0
290
     0
  0
SCALE
  5
51
102
{ACAD_REACTORS
330
47
102
}
330
47
100
AcDbScale
 70
     0
300
1:40
140
1.0
141
40.0
290
     0
  0
SCALE
  5
52
102
{ACAD_REACTORS
330
47
102
}
330
47
100
AcDbScale
 70
     0
300
1:50
140
1.0
141
50.0
290
     0
  0
SCALE
  5
53
102
{ACAD_REACTORS
330
47
102
}
330
47
100
AcDbScale
 70
     0
300
1:100
140
1.0
141
100.0
290
     0
  0
SCALE
  5
54
102
{ACAD_REACTORS
330
47
102
}
330
47
100
AcDbScale
 70
     0
300
2:1
140
2.0
141
1.0
290
     0
  0
SCALE
  5
55
102
{ACAD_REACTORS
330
47
102
}
330
47
100
AcDbScale
 70
     0
300
4:1
140
4.0
141
1.0
290
     0
  0
SCALE
  5
56
102
{ACAD_REACTORS
330
47
102
}
330
47
100
AcDbScale
 70
     0
300
8:1
140
8.0
141
1.0
290
     0
  0
SCALE
  5
57
102
{ACAD_REACTORS
330
47
102
}
330
47
100
AcDbScale
 70
     0
300
10:1
140
10.0
141
1.0
290
     0
  0
SCALE
  5
58
102
{ACAD_REACTORS
330
47
102
}
330
47
100
AcDbScale
 70
     0
300
100:1
140
100.0
141
1.0
290
     0
  0
SCALE
  5
59
102
{ACAD_REACTORS
330
47
102
}
330
47
100
AcDbScale
 70
     0
300
1/128" = 1'-0"
140
0.0078125
141
12.0
290
     0
  0
SCALE
  5
5A
102
{ACAD_REACTORS
330
47
102
}
330
47
100
AcDbScale
 70
     0
300
1/64" = 1'-0"
140
0.015625
141
12.0
290
     0
  0
SCALE
  5
5B
102
{ACAD_REACTORS
330
47
102
}
330
47
100
AcDbScale
 70
     0
300
1/32" = 1'-0"
140
0.03125
141
12.0
290
     0
  0
SCALE
  5
5C
102
{ACAD_REACTORS
330
47
102
}
330
47
100
AcDbScale
 70
     0
300
1/16" = 1'-0"
140
0.0625
141
12.0
290
     0
  0
SCALE
  5
5D
102
{ACAD_REACTORS
330
47
102
}
330
47
100
AcDbScale
 70
     0
300
3/32" = 1'-0"
140
0.09375
141
12.0
290
     0
  0
SCALE
  5
5E
102
{ACAD_REACTORS
330
47
102
}
330
47
100
AcDbScale
 70
     0
300
1/8" = 1'-0"
140
0.125
141
12.0
290
     0
  0
SCALE
  5
5F
102
{ACAD_REACTORS
330
47
102
}
330
47
100
AcDbScale
 70
     0
300
3/16" = 1'-0"
140
0.1875
141
12.0
290
     0
  0
SCALE
  5
60
102
{ACAD_REACTORS
330
47
102
}
330
47
100
AcDbScale
 70
     0
300
1/4" = 1'-0"
140
0.25
141
12.0
290
     0
  0
SCALE
  5
61
102
{ACAD_REACTORS
330
47
102
}
330
47
100
AcDbScale
 70
     0
300
3/8" = 1'-0"
140
0.375
141
12.0
290
     0
  0
SCALE
  5
62
102
{ACAD_REACTORS
330
47
102
}
330
47
100
AcDbScale
 70
     0
300
1/2" = 1'-0"
140
0.5
141
12.0
290
     0
  0
SCALE
  5
63
102
{ACAD_REACTORS
330
47
102
}
330
47
100
AcDbScale
 70
     0
300
3/4" = 1'-0"
140
0.75
141
12.0
290
     0
  0
SCALE
  5
64
102
{ACAD_REACTORS
330
47
102
}
330
47
100
AcDbScale
 70
     0
300
1" = 1'-0"
140
1.0
141
12.0
290
     0
  0
SCALE
  5
65
102
{ACAD_REACTORS
330
47
102
}
330
47
100
AcDbScale
 70
     0
300
1-1/2" = 1'-0"
140
1.5
141
12.0
290
     0
  0
SCALE
  5
66
102
{ACAD_REACTORS
330
47
102
}
330
47
100
AcDbScale
 70
     0
300
3" = 1'-0"
140
3.0
141
12.0
290
     0
  0
SCALE
  5
67
102
{ACAD_REACTORS
330
47
102
}
330
47
100
AcDbScale
 70
     0
300
6" = 1'-0"
140
6.0
141
12.0
290
     0
  0
SCALE
  5
68
102
{ACAD_REACTORS
330
47
102
}
330
47
100
AcDbScale
 70
     0
300
1'-0" = 1'-0"
140
12.0
141
12.0
290
     0
  0
ENDSEC
  0
EOF
