  0
SECTION
  2
HEADER
  9
$ACADVER
  1
AC1014
  9
$HANDSEED
  5
FFFF
  9
$MEASUREMENT
 70
     1
  0
ENDSEC
  0
SECTION
  2
TABLES
  0
TABLE
  2
VPORT
  5
8
330
0
100
AcDbSymbolTable
 70
     4
  0
VPORT
  5
2E
330
8
100
AcDbSymbolTableRecord
100
AcDbViewportTableRecord
  2
*ACTIVE
 70
     0
 10
0.0
 20
0.0
 11
1.0
 21
1.0
 12
210.0
 22
148.5
 13
0.0
 23
0.0
 14
10.0
 24
10.0
 15
10.0
 25
10.0
 16
0.0
 26
0.0
 36
1.0
 17
0.0
 27
0.0
 37
0.0
 40
341.0
 41
1.24
 42
50.0
 43
0.0
 44
0.0
 50
0.0
 51
0.0
 71
     0
 72
   100
 73
     1
 74
     3
 75
     0
 76
     0
 77
     0
 78
     0
  0
ENDTAB
  0
TABLE
  2
LTYPE
  5
5
330
0
100
AcDbSymbolTable
 70
     1
  0
LTYPE
  5
14
330
5
100
AcDbSymbolTableRecord
100
AcDbLinetypeTableRecord
  2
BYBLOCK
 70
     0
  3

 72
    65
 73
     0
 40
0.0
  0
LTYPE
  5
15
330
5
100
AcDbSymbolTableRecord
100
AcDbLinetypeTableRecord
  2
BYLAYER
 70
     0
  3

 72
    65
 73
     0
 40
0.0
  0
LTYPE
  5
16
330
5
100
AcDbSymbolTableRecord
100
AcDbLinetypeTableRecord
  2
CONTINUOUS
 70
     0
  3
Solid line
 72
    65
 73
     0
 40
0.0
  0
ENDTAB
  0
TABLE
  2
LAYER
  5
2
100
AcDbSymbolTable
 70
2
  0
LAYER
  5
50
100
AcDbSymbolTableRecord
100
AcDbLayerTableRecord
  2
0
 70
0
  6
CONTINUOUS
  0
LAYER
  5
51
100
AcDbSymbolTableRecord
100
AcDbLayerTableRecord
  2
Layer_1
 70
0
  6
CONTINUOUS
  0
ENDTAB
  0
TABLE
  2
STYLE
  5
3
330
0
100
AcDbSymbolTable
 70
     1
  0
STYLE
  5
11
330
3
100
AcDbSymbolTableRecord
100
AcDbTextStyleTableRecord
  2
STANDARD
 70
     0
 40
0.0
 41
1.0
 50
0.0
 71
     0
 42
2.5
  3
txt
  4

  0
ENDTAB
  0
TABLE
  2
VIEW
  5
6
330
0
100
AcDbSymbolTable
 70
     0
  0
ENDTAB
  0
TABLE
  2
UCS
  5
7
330
0
100
AcDbSymbolTable
 70
     0
  0
ENDTAB
  0
TABLE
  2
APPID
  5
9
330
0
100
AcDbSymbolTable
 70
     2
  0
APPID
  5
12
330
9
100
AcDbSymbolTableRecord
100
AcDbRegAppTableRecord
  2
ACAD
 70
     0
  0
ENDTAB
  0
TABLE
  2
DIMSTYLE
  5
A
330
0
100
AcDbSymbolTable
 70
     1
  0
DIMSTYLE
105
27
330
A
100
AcDbSymbolTableRecord
100
AcDbDimStyleTableRecord
  2
ISO-25
 70
     0
  3

  4

  5

  6

  7

 40
1.0
 41
2.5
 42
0.625
 43
3.75
 44
1.25
 45
0.0
 46
0.0
 47
0.0
 48
0.0
140
2.5
141
2.5
142
0.0
143
0.03937007874016
144
1.0
145
0.0
146
1.0
147
0.625
 71
     0
 72
     0
 73
     0
 74
     0
 75
     0
 76
     0
 77
     1
 78
     8
170
     0
171
     3
172
     1
173
     0
174
     0
175
     0
176
     0
177
     0
178
     0
270
     2
271
     2
272
     2
273
     2
274
     3
340
11
275
     0
280
     0
281
     0
282
     0
283
     0
284
     8
285
     0
286
     0
287
     3
288
     0
  0
ENDTAB
  0
TABLE
  2
BLOCK_RECORD
  5
1
330
0
100
AcDbSymbolTable
 70
     1
  0
BLOCK_RECORD
  5
1F
330
1
100
AcDbSymbolTableRecord
100
AcDbBlockTableRecord
  2
*MODEL_SPACE
  0
BLOCK_RECORD
  5
1B
330
1
100
AcDbSymbolTableRecord
100
AcDbBlockTableRecord
  2
*PAPER_SPACE
  0
ENDTAB
  0
ENDSEC
  0
SECTION
  2
BLOCKS
  0
BLOCK
  5
20
330
1F
100
AcDbEntity
  8
0
100
AcDbBlockBegin
  2
*MODEL_SPACE
 70
     0
 10
0.0
 20
0.0
 30
0.0
  3
*MODEL_SPACE
  1

  0
ENDBLK
  5
21
330
1F
100
AcDbEntity
  8
0
100
AcDbBlockEnd
  0
BLOCK
  5
1C
330
1B
100
AcDbEntity
 67
     1
  8
0
100
AcDbBlockBegin
  2
*PAPER_SPACE
  1

  0
ENDBLK
  5
1D
330
1B
100
AcDbEntity
 67
     1
  8
0
100
AcDbBlockEnd
  0
ENDSEC
  0
SECTION
  2
ENTITIES
  0
LWPOLYLINE
  5
100
100
AcDbEntity
  8
Layer_1
 62
7
100
AcDbPolyline
 90
52
 70
1
 10
92.040230
 20
268.069730
 30
0.0
 10
13.274832
 20
268.069730
 30
0.0
 10
13.274832
 20
255.369730
 30
0.0
 10
9.896632
 20
255.369730
 30
0.0
 10
9.896632
 20
242.669730
 30
0.0
 10
13.274832
 20
242.669730
 30
0.0
 10
13.274832
 20
229.969731
 30
0.0
 10
9.896632
 20
229.969731
 30
0.0
 10
9.896632
 20
217.269731
 30
0.0
 10
13.274832
 20
217.269731
 30
0.0
 10
13.274832
 20
204.569731
 30
0.0
 10
9.896632
 20
204.569731
 30
0.0
 10
9.896632
 20
191.869731
 30
0.0
 10
13.274832
 20
191.869731
 30
0.0
 10
13.274832
 20
179.169732
 30
0.0
 10
9.896632
 20
179.169732
 30
0.0
 10
9.896632
 20
166.469732
 30
0.0
 10
13.274832
 20
166.469732
 30
0.0
 10
13.274832
 20
153.769732
 30
0.0
 10
9.896632
 20
153.769732
 30
0.0
 10
9.896632
 20
141.069733
 30
0.0
 10
13.274832
 20
141.069733
 30
0.0
 10
13.274832
 20
128.369733
 30
0.0
 10
9.896632
 20
128.369733
 30
0.0
 10
9.896632
 20
115.669733
 30
0.0
 10
13.274832
 20
115.669733
 30
0.0
 10
13.274832
 20
102.969733
 30
0.0
 10
92.040230
 20
102.969733
 30
0.0
 10
92.040230
 20
115.669733
 30
0.0
 10
88.662030
 20
115.669733
 30
0.0
 10
88.662030
 20
128.369733
 30
0.0
 10
92.040230
 20
128.369733
 30
0.0
 10
92.040230
 20
141.069733
 30
0.0
 10
88.662030
 20
141.069733
 30
0.0
 10
88.662030
 20
153.769732
 30
0.0
 10
92.040230
 20
153.769732
 30
0.0
 10
92.040230
 20
166.469732
 30
0.0
 10
88.662030
 20
166.469732
 30
0.0
 10
88.662030
 20
179.169732
 30
0.0
 10
92.040230
 20
179.169732
 30
0.0
 10
92.040230
 20
191.869731
 30
0.0
 10
88.662030
 20
191.869731
 30
0.0
 10
88.662030
 20
204.569731
 30
0.0
 10
92.040230
 20
204.569731
 30
0.0
 10
92.040230
 20
217.269731
 30
0.0
 10
88.662030
 20
217.269731
 30
0.0
 10
88.662030
 20
229.969731
 30
0.0
 10
92.040230
 20
229.969731
 30
0.0
 10
92.040230
 20
242.669730
 30
0.0
 10
88.662030
 20
242.669730
 30
0.0
 10
88.662030
 20
255.369730
 30
0.0
 10
92.040230
 20
255.369730
 30
0.0
  0
LWPOLYLINE
  5
101
100
AcDbEntity
  8
Layer_1
 62
7
100
AcDbPolyline
 90
52
 70
1
 10
228.336627
 20
268.069730
 30
0.0
 10
149.571229
 20
268.069730
 30
0.0
 10
149.571229
 20
255.369730
 30
0.0
 10
146.193029
 20
255.369730
 30
0.0
 10
146.193029
 20
242.669730
 30
0.0
 10
149.571229
 20
242.669730
 30
0.0
 10
149.571229
 20
229.969731
 30
0.0
 10
146.193029
 20
229.969731
 30
0.0
 10
146.193029
 20
217.269731
 30
0.0
 10
149.571229
 20
217.269731
 30
0.0
 10
149.571229
 20
204.569731
 30
0.0
 10
146.193029
 20
204.569731
 30
0.0
 10
146.193029
 20
191.869731
 30
0.0
 10
149.571229
 20
191.869731
 30
0.0
 10
149.571229
 20
179.169732
 30
0.0
 10
146.193029
 20
179.169732
 30
0.0
 10
146.193029
 20
166.469732
 30
0.0
 10
149.571229
 20
166.469732
 30
0.0
 10
149.571229
 20
153.769732
 30
0.0
 10
146.193029
 20
153.769732
 30
0.0
 10
146.193029
 20
141.069733
 30
0.0
 10
149.571229
 20
141.069733
 30
0.0
 10
149.571229
 20
128.369733
 30
0.0
 10
146.193029
 20
128.369733
 30
0.0
 10
146.193029
 20
115.669733
 30
0.0
 10
149.571229
 20
115.669733
 30
0.0
 10
149.571229
 20
102.969733
 30
0.0
 10
228.336627
 20
102.969733
 30
0.0
 10
228.336627
 20
115.669733
 30
0.0
 10
224.958427
 20
115.669733
 30
0.0
 10
224.958427
 20
128.369733
 30
0.0
 10
228.336627
 20
128.369733
 30
0.0
 10
228.336627
 20
141.069733
 30
0.0
 10
224.958427
 20
141.069733
 30
0.0
 10
224.958427
 20
153.769732
 30
0.0
 10
228.336627
 20
153.769732
 30
0.0
 10
228.336627
 20
166.469732
 30
0.0
 10
224.958427
 20
166.469732
 30
0.0
 10
224.958427
 20
179.169732
 30
0.0
 10
228.336627
 20
179.169732
 30
0.0
 10
228.336627
 20
191.869731
 30
0.0
 10
224.958427
 20
191.869731
 30
0.0
 10
224.958427
 20
204.569731
 30
0.0
 10
228.336627
 20
204.569731
 30
0.0
 10
228.336627
 20
217.269731
 30
0.0
 10
224.958427
 20
217.269731
 30
0.0
 10
224.958427
 20
229.969731
 30
0.0
 10
228.336627
 20
229.969731
 30
0.0
 10
228.336627
 20
242.669730
 30
0.0
 10
224.958427
 20
242.669730
 30
0.0
 10
224.958427
 20
255.369730
 30
0.0
 10
228.336627
 20
255.369730
 30
0.0
  0
SPLINE
  5
102
100
AcDbEntity
  8
Layer_1
 62
6
100
AcDbSpline
 70
8
 71
3
 72
8
 73
4
 74
0
 40
0
 40
0
 40
0
 40
0
 40
1
 40
1
 40
1
 40
1
 10
220.466614
 20
109.726133
 30
0.0
 10
221.079107
 20
109.726133
 30
0.0
 10
221.580227
 20
110.227254
 30
0.0
 10
221.580227
 20
110.839747
 30
0.0
  0
LWPOLYLINE
  5
103
100
AcDbEntity
  8
Layer_1
 62
6
100
AcDbPolyline
 90
2
 70
0
 10
154.063007
 20
109.726133
 30
0.0
 10
220.466614
 20
109.726133
 30
0.0
  0
SPLINE
  5
104
100
AcDbEntity
  8
Layer_1
 62
6
100
AcDbSpline
 70
8
 71
3
 72
8
 73
4
 74
0
 40
0
 40
0
 40
0
 40
0
 40
1
 40
1
 40
1
 40
1
 10
221.580227
 20
146.306154
 30
0.0
 10
221.580227
 20
146.918647
 30
0.0
 10
221.079107
 20
147.419732
 30
0.0
 10
220.466614
 20
147.419732
 30
0.0
  0
LWPOLYLINE
  5
105
100
AcDbEntity
  8
Layer_1
 62
6
100
AcDbPolyline
 90
2
 70
0
 10
221.580227
 20
110.839747
 30
0.0
 10
221.580227
 20
146.306154
 30
0.0
  0
SPLINE
  5
106
100
AcDbEntity
  8
Layer_1
 62
6
100
AcDbSpline
 70
8
 71
3
 72
8
 73
4
 74
0
 40
0
 40
0
 40
0
 40
0
 40
1
 40
1
 40
1
 40
1
 10
154.063007
 20
147.419732
 30
0.0
 10
153.450514
 20
147.419732
 30
0.0
 10
152.949429
 20
146.918647
 30
0.0
 10
152.949429
 20
146.306154
 30
0.0
  0
LWPOLYLINE
  5
107
100
AcDbEntity
  8
Layer_1
 62
6
100
AcDbPolyline
 90
2
 70
0
 10
220.466614
 20
147.419732
 30
0.0
 10
154.063007
 20
147.419732
 30
0.0
  0
SPLINE
  5
108
100
AcDbEntity
  8
Layer_1
 62
6
100
AcDbSpline
 70
8
 71
3
 72
8
 73
4
 74
0
 40
0
 40
0
 40
0
 40
0
 40
1
 40
1
 40
1
 40
1
 10
152.949429
 20
110.839747
 30
0.0
 10
152.949429
 20
110.227254
 30
0.0
 10
153.450514
 20
109.726133
 30
0.0
 10
154.063007
 20
109.726133
 30
0.0
  0
LWPOLYLINE
  5
109
100
AcDbEntity
  8
Layer_1
 62
6
100
AcDbPolyline
 90
2
 70
0
 10
152.949429
 20
146.306154
 30
0.0
 10
152.949429
 20
110.839747
 30
0.0
  0
LWPOLYLINE
  5
10a
100
AcDbEntity
  8
Layer_1
 62
6
100
AcDbPolyline
 90
1
 70
1
 10
154.063007
 20
109.726133
 30
0.0
  0
LWPOLYLINE
  5
10b
100
AcDbEntity
  8
Layer_1
 62
7
100
AcDbPolyline
 90
24
 70
1
 10
181.014206
 20
57.389434
 30
0.0
 10
181.014206
 20
60.767634
 30
0.0
 10
177.636006
 20
60.767634
 30
0.0
 10
177.636006
 20
64.145834
 30
0.0
 10
181.014206
 20
64.145834
 30
0.0
 10
181.014206
 20
67.524034
 30
0.0
 10
256.401404
 20
67.524034
 30
0.0
 10
256.401404
 20
64.145834
 30
0.0
 10
259.779604
 20
64.145834
 30
0.0
 10
259.779604
 20
60.767634
 30
0.0
 10
256.401404
 20
60.767634
 30
0.0
 10
256.401404
 20
57.389434
 30
0.0
 10
259.779604
 20
57.389434
 30
0.0
 10
259.779604
 20
54.011234
 30
0.0
 10
256.401404
 20
54.011234
 30
0.0
 10
256.401404
 20
50.633035
 30
0.0
 10
259.779604
 20
50.633035
 30
0.0
 10
259.779604
 20
47.254835
 30
0.0
 10
177.636006
 20
47.254835
 30
0.0
 10
177.636006
 20
50.633035
 30
0.0
 10
181.014206
 20
50.633035
 30
0.0
 10
181.014206
 20
54.011234
 30
0.0
 10
177.636006
 20
54.011234
 30
0.0
 10
177.636006
 20
57.389434
 30
0.0
  0
LWPOLYLINE
  5
10c
100
AcDbEntity
  8
Layer_1
 62
7
100
AcDbPolyline
 90
24
 70
1
 10
13.274832
 20
91.158734
 30
0.0
 10
13.274832
 20
94.536934
 30
0.0
 10
9.896632
 20
94.536934
 30
0.0
 10
9.896632
 20
97.915134
 30
0.0
 10
13.274832
 20
97.915134
 30
0.0
 10
13.274832
 20
101.293333
 30
0.0
 10
88.662030
 20
101.293333
 30
0.0
 10
88.662030
 20
97.915134
 30
0.0
 10
92.040230
 20
97.915134
 30
0.0
 10
92.040230
 20
94.536934
 30
0.0
 10
88.662030
 20
94.536934
 30
0.0
 10
88.662030
 20
91.158734
 30
0.0
 10
92.040230
 20
91.158734
 30
0.0
 10
92.040230
 20
87.780534
 30
0.0
 10
88.662030
 20
87.780534
 30
0.0
 10
88.662030
 20
84.402334
 30
0.0
 10
92.040230
 20
84.402334
 30
0.0
 10
92.040230
 20
81.024134
 30
0.0
 10
9.896632
 20
81.024134
 30
0.0
 10
9.896632
 20
84.402334
 30
0.0
 10
13.274832
 20
84.402334
 30
0.0
 10
13.274832
 20
87.780534
 30
0.0
 10
9.896632
 20
87.780534
 30
0.0
 10
9.896632
 20
91.158734
 30
0.0
  0
LWPOLYLINE
  5
10d
100
AcDbEntity
  8
Layer_1
 62
7
100
AcDbPolyline
 90
24
 70
1
 10
13.274832
 20
69.213134
 30
0.0
 10
13.274832
 20
72.591334
 30
0.0
 10
9.896632
 20
72.591334
 30
0.0
 10
9.896632
 20
75.969534
 30
0.0
 10
13.274832
 20
75.969534
 30
0.0
 10
13.274832
 20
79.347734
 30
0.0
 10
88.662030
 20
79.347734
 30
0.0
 10
88.662030
 20
75.969534
 30
0.0
 10
92.040230
 20
75.969534
 30
0.0
 10
92.040230
 20
72.591334
 30
0.0
 10
88.662030
 20
72.591334
 30
0.0
 10
88.662030
 20
69.213134
 30
0.0
 10
92.040230
 20
69.213134
 30
0.0
 10
92.040230
 20
65.834934
 30
0.0
 10
88.662030
 20
65.834934
 30
0.0
 10
88.662030
 20
62.456734
 30
0.0
 10
92.040230
 20
62.456734
 30
0.0
 10
92.040230
 20
59.078534
 30
0.0
 10
9.896632
 20
59.078534
 30
0.0
 10
9.896632
 20
62.456734
 30
0.0
 10
13.274832
 20
62.456734
 30
0.0
 10
13.274832
 20
65.834934
 30
0.0
 10
9.896632
 20
65.834934
 30
0.0
 10
9.896632
 20
69.213134
 30
0.0
  0
LWPOLYLINE
  5
10e
100
AcDbEntity
  8
Layer_1
 62
7
100
AcDbPolyline
 90
24
 70
1
 10
180.914828
 20
79.347734
 30
0.0
 10
180.914828
 20
82.725934
 30
0.0
 10
177.536628
 20
82.725934
 30
0.0
 10
177.536628
 20
86.104134
 30
0.0
 10
180.914828
 20
86.104134
 30
0.0
 10
180.914828
 20
89.482334
 30
0.0
 10
256.302027
 20
89.482334
 30
0.0
 10
256.302027
 20
86.104134
 30
0.0
 10
259.680227
 20
86.104134
 30
0.0
 10
259.680227
 20
82.725934
 30
0.0
 10
256.302027
 20
82.725934
 30
0.0
 10
256.302027
 20
79.347734
 30
0.0
 10
259.680227
 20
79.347734
 30
0.0
 10
259.680227
 20
75.969534
 30
0.0
 10
256.302027
 20
75.969534
 30
0.0
 10
256.302027
 20
72.591334
 30
0.0
 10
259.680227
 20
72.591334
 30
0.0
 10
259.680227
 20
69.213134
 30
0.0
 10
177.536628
 20
69.213134
 30
0.0
 10
177.536628
 20
72.591334
 30
0.0
 10
180.914828
 20
72.591334
 30
0.0
 10
180.914828
 20
75.969534
 30
0.0
 10
177.536628
 20
75.969534
 30
0.0
 10
177.536628
 20
79.347734
 30
0.0
  0
LWPOLYLINE
  5
10f
100
AcDbEntity
  8
Layer_1
 62
7
100
AcDbPolyline
 90
12
 70
1
 10
177.536628
 20
101.293333
 30
0.0
 10
259.680227
 20
101.293333
 30
0.0
 10
259.680227
 20
97.915134
 30
0.0
 10
256.302027
 20
97.915134
 30
0.0
 10
256.302027
 20
94.536934
 30
0.0
 10
259.680227
 20
94.536934
 30
0.0
 10
259.680227
 20
91.158734
 30
0.0
 10
177.536628
 20
91.158734
 30
0.0
 10
177.536628
 20
94.536934
 30
0.0
 10
180.914828
 20
94.536934
 30
0.0
 10
180.914828
 20
97.915134
 30
0.0
 10
177.536628
 20
97.915134
 30
0.0
  0
LWPOLYLINE
  5
110
100
AcDbEntity
  8
Layer_1
 62
7
100
AcDbPolyline
 90
48
 70
1
 10
97.094830
 20
67.511334
 30
0.0
 10
93.716630
 20
67.511334
 30
0.0
 10
93.716630
 20
70.889534
 30
0.0
 10
97.094830
 20
70.889534
 30
0.0
 10
97.094830
 20
74.267734
 30
0.0
 10
93.716630
 20
74.267734
 30
0.0
 10
93.716630
 20
77.645934
 30
0.0
 10
97.094830
 20
77.645934
 30
0.0
 10
97.094830
 20
81.024134
 30
0.0
 10
93.716630
 20
81.024134
 30
0.0
 10
93.716630
 20
84.402334
 30
0.0
 10
97.094830
 20
84.402334
 30
0.0
 10
97.094830
 20
87.780534
 30
0.0
 10
93.716630
 20
87.780534
 30
0.0
 10
93.716630
 20
91.158734
 30
0.0
 10
97.094830
 20
91.158734
 30
0.0
 10
97.094830
 20
94.536934
 30
0.0
 10
93.716630
 20
94.536934
 30
0.0
 10
93.716630
 20
97.915134
 30
0.0
 10
97.094830
 20
97.915134
 30
0.0
 10
97.094830
 20
101.293333
 30
0.0
 10
172.482028
 20
101.293333
 30
0.0
 10
172.482028
 20
97.915134
 30
0.0
 10
175.860228
 20
97.915134
 30
0.0
 10
175.860228
 20
94.536934
 30
0.0
 10
172.482028
 20
94.536934
 30
0.0
 10
172.482028
 20
91.158734
 30
0.0
 10
175.860228
 20
91.158734
 30
0.0
 10
175.860228
 20
87.780534
 30
0.0
 10
172.482028
 20
87.780534
 30
0.0
 10
172.482028
 20
84.402334
 30
0.0
 10
175.860228
 20
84.402334
 30
0.0
 10
175.860228
 20
81.024134
 30
0.0
 10
172.482028
 20
81.024134
 30
0.0
 10
172.482028
 20
77.645934
 30
0.0
 10
175.860228
 20
77.645934
 30
0.0
 10
175.860228
 20
74.267734
 30
0.0
 10
172.482028
 20
74.267734
 30
0.0
 10
172.482028
 20
70.889534
 30
0.0
 10
175.860228
 20
70.889534
 30
0.0
 10
175.860228
 20
67.511334
 30
0.0
 10
172.482028
 20
67.511334
 30
0.0
 10
172.482028
 20
64.133134
 30
0.0
 10
175.860228
 20
64.133134
 30
0.0
 10
175.860228
 20
60.754934
 30
0.0
 10
93.716630
 20
60.754934
 30
0.0
 10
93.716630
 20
64.133134
 30
0.0
 10
97.094830
 20
64.133134
 30
0.0
  0
LWPOLYLINE
  5
111
100
AcDbEntity
  8
Layer_1
 62
7
100
AcDbPolyline
 90
52
 70
1
 10
97.094830
 20
268.069730
 30
0.0
 10
144.516629
 20
268.069730
 30
0.0
 10
144.516629
 20
255.369730
 30
0.0
 10
141.138429
 20
255.369730
 30
0.0
 10
141.138429
 20
242.669730
 30
0.0
 10
144.516629
 20
242.669730
 30
0.0
 10
144.516629
 20
229.969731
 30
0.0
 10
141.138429
 20
229.969731
 30
0.0
 10
141.138429
 20
217.269731
 30
0.0
 10
144.516629
 20
217.269731
 30
0.0
 10
144.516629
 20
204.569731
 30
0.0
 10
141.138429
 20
204.569731
 30
0.0
 10
141.138429
 20
191.869731
 30
0.0
 10
144.516629
 20
191.869731
 30
0.0
 10
144.516629
 20
179.169732
 30
0.0
 10
141.138429
 20
179.169732
 30
0.0
 10
141.138429
 20
166.469732
 30
0.0
 10
144.516629
 20
166.469732
 30
0.0
 10
144.516629
 20
153.769732
 30
0.0
 10
141.138429
 20
153.769732
 30
0.0
 10
141.138429
 20
141.069733
 30
0.0
 10
144.516629
 20
141.069733
 30
0.0
 10
144.516629
 20
128.369733
 30
0.0
 10
141.138429
 20
128.369733
 30
0.0
 10
141.138429
 20
115.669733
 30
0.0
 10
144.516629
 20
115.669733
 30
0.0
 10
144.516629
 20
102.969733
 30
0.0
 10
97.094830
 20
102.969733
 30
0.0
 10
97.094830
 20
115.669733
 30
0.0
 10
93.716630
 20
115.669733
 30
0.0
 10
93.716630
 20
128.369733
 30
0.0
 10
97.094830
 20
128.369733
 30
0.0
 10
97.094830
 20
141.069733
 30
0.0
 10
93.716630
 20
141.069733
 30
0.0
 10
93.716630
 20
153.769732
 30
0.0
 10
97.094830
 20
153.769732
 30
0.0
 10
97.094830
 20
166.469732
 30
0.0
 10
93.716630
 20
166.469732
 30
0.0
 10
93.716630
 20
179.169732
 30
0.0
 10
97.094830
 20
179.169732
 30
0.0
 10
97.094830
 20
191.869731
 30
0.0
 10
93.716630
 20
191.869731
 30
0.0
 10
93.716630
 20
204.569731
 30
0.0
 10
97.094830
 20
204.569731
 30
0.0
 10
97.094830
 20
217.269731
 30
0.0
 10
93.716630
 20
217.269731
 30
0.0
 10
93.716630
 20
229.969731
 30
0.0
 10
97.094830
 20
229.969731
 30
0.0
 10
97.094830
 20
242.669730
 30
0.0
 10
93.716630
 20
242.669730
 30
0.0
 10
93.716630
 20
255.369730
 30
0.0
 10
97.094830
 20
255.369730
 30
0.0
  0
LWPOLYLINE
  5
112
100
AcDbEntity
  8
Layer_1
 62
1
100
AcDbPolyline
 90
4
 70
1
 10
134.234498
 20
264.310847
 30
0.0
 10
137.591213
 20
264.691530
 30
0.0
 10
137.971931
 20
261.334955
 30
0.0
 10
134.615215
 20
260.954237
 30
0.0
  0
LWPOLYLINE
  5
113
100
AcDbEntity
  8
Layer_1
 62
1
100
AcDbPolyline
 90
4
 70
1
 10
137.971931
 20
112.752755
 30
0.0
 10
134.998226
 20
114.355636
 30
0.0
 10
133.395310
 20
111.381931
 30
0.0
 10
136.369015
 20
109.779050
 30
0.0
  0
LWPOLYLINE
  5
114
100
AcDbEntity
  8
Layer_1
 62
1
100
AcDbPolyline
 90
4
 70
1
 10
127.522513
 20
263.537629
 30
0.0
 10
130.879228
 20
263.918347
 30
0.0
 10
131.259911
 20
260.561737
 30
0.0
 10
127.903230
 20
260.181054
 30
0.0
  0
LWPOLYLINE
  5
115
100
AcDbEntity
  8
Layer_1
 62
1
100
AcDbPolyline
 90
4
 70
1
 10
119.328332
 20
204.791134
 30
0.0
 10
122.449427
 20
206.083959
 30
0.0
 10
121.156602
 20
209.205055
 30
0.0
 10
118.035507
 20
207.912230
 30
0.0
  0
LWPOLYLINE
  5
116
100
AcDbEntity
  8
Layer_1
 62
1
100
AcDbPolyline
 90
4
 70
1
 10
125.570523
 20
207.376749
 30
0.0
 10
128.691618
 20
208.669538
 30
0.0
 10
127.398829
 20
211.790634
 30
0.0
 10
124.277698
 20
210.497844
 30
0.0
  0
LWPOLYLINE
  5
117
100
AcDbEntity
  8
Layer_1
 62
1
100
AcDbPolyline
 90
4
 70
1
 10
131.812714
 20
209.962363
 30
0.0
 10
134.933809
 20
211.255152
 30
0.0
 10
133.641020
 20
214.376248
 30
0.0
 10
130.519924
 20
213.083458
 30
0.0
  0
LWPOLYLINE
  5
118
100
AcDbEntity
  8
Layer_1
 62
1
100
AcDbPolyline
 90
4
 70
1
 10
119.328332
 20
147.694158
 30
0.0
 10
122.449427
 20
148.986948
 30
0.0
 10
121.156602
 20
152.108043
 30
0.0
 10
118.035507
 20
150.815254
 30
0.0
  0
LWPOLYLINE
  5
119
100
AcDbEntity
  8
Layer_1
 62
1
100
AcDbPolyline
 90
4
 70
1
 10
125.570523
 20
150.279737
 30
0.0
 10
128.691618
 20
151.572562
 30
0.0
 10
127.398829
 20
154.693657
 30
0.0
 10
124.277698
 20
153.400833
 30
0.0
  0
LWPOLYLINE
  5
11a
100
AcDbEntity
  8
Layer_1
 62
1
100
AcDbPolyline
 90
4
 70
1
 10
131.812714
 20
152.865351
 30
0.0
 10
134.933809
 20
154.158141
 30
0.0
 10
133.641020
 20
157.279236
 30
0.0
 10
130.519924
 20
155.986447
 30
0.0
  0
LWPOLYLINE
  5
11b
100
AcDbEntity
  8
Layer_1
 62
1
100
AcDbPolyline
 90
4
 70
1
 10
119.328332
 20
233.339640
 30
0.0
 10
116.207201
 20
234.632430
 30
0.0
 10
117.500026
 20
237.753560
 30
0.0
 10
120.621121
 20
236.460736
 30
0.0
  0
LWPOLYLINE
  5
11c
100
AcDbEntity
  8
Layer_1
 62
1
100
AcDbPolyline
 90
4
 70
1
 10
113.086105
 20
235.925254
 30
0.0
 10
109.965010
 20
237.218044
 30
0.0
 10
111.257799
 20
240.339139
 30
0.0
 10
114.378930
 20
239.046350
 30
0.0
  0
LWPOLYLINE
  5
11d
100
AcDbEntity
  8
Layer_1
 62
1
100
AcDbPolyline
 90
4
 70
1
 10
106.843914
 20
238.510833
 30
0.0
 10
103.722819
 20
239.803658
 30
0.0
 10
105.015608
 20
242.924753
 30
0.0
 10
108.136704
 20
241.631929
 30
0.0
  0
LWPOLYLINE
  5
11e
100
AcDbEntity
  8
Layer_1
 62
1
100
AcDbPolyline
 90
4
 70
1
 10
119.328332
 20
176.242664
 30
0.0
 10
116.207201
 20
177.535453
 30
0.0
 10
117.500026
 20
180.656549
 30
0.0
 10
120.621121
 20
179.363760
 30
0.0
  0
LWPOLYLINE
  5
11f
100
AcDbEntity
  8
Layer_1
 62
1
100
AcDbPolyline
 90
4
 70
1
 10
113.086105
 20
178.828243
 30
0.0
 10
109.965010
 20
180.121032
 30
0.0
 10
111.257799
 20
183.242163
 30
0.0
 10
114.378930
 20
181.949338
 30
0.0
  0
LWPOLYLINE
  5
120
100
AcDbEntity
  8
Layer_1
 62
1
100
AcDbPolyline
 90
4
 70
1
 10
106.843914
 20
181.413857
 30
0.0
 10
103.722819
 20
182.706646
 30
0.0
 10
105.015608
 20
185.827742
 30
0.0
 10
108.136704
 20
184.534952
 30
0.0
  0
LWPOLYLINE
  5
121
100
AcDbEntity
  8
Layer_1
 62
1
100
AcDbPolyline
 90
4
 70
1
 10
132.024521
 20
115.958552
 30
0.0
 10
129.050816
 20
117.561433
 30
0.0
 10
127.447900
 20
114.587764
 30
0.0
 10
130.421605
 20
112.984847
 30
0.0
  0
LWPOLYLINE
  5
122
100
AcDbEntity
  8
Layer_1
 62
1
100
AcDbPolyline
 90
4
 70
1
 10
126.077111
 20
119.164350
 30
0.0
 10
123.103407
 20
120.767231
 30
0.0
 10
121.500525
 20
117.793561
 30
0.0
 10
124.474230
 20
116.190645
 30
0.0
  0
LWPOLYLINE
  5
123
100
AcDbEntity
  8
Layer_1
 62
1
100
AcDbPolyline
 90
4
 70
1
 10
120.129702
 20
122.370147
 30
0.0
 10
117.156032
 20
123.973063
 30
0.0
 10
115.553116
 20
120.999359
 30
0.0
 10
118.526820
 20
119.396442
 30
0.0
  0
LWPOLYLINE
  5
124
100
AcDbEntity
  8
Layer_1
 62
1
100
AcDbPolyline
 90
4
 70
1
 10
114.182327
 20
125.575945
 30
0.0
 10
111.208622
 20
127.178861
 30
0.0
 10
109.605706
 20
124.205156
 30
0.0
 10
112.579411
 20
122.602240
 30
0.0
  0
LWPOLYLINE
  5
125
100
AcDbEntity
  8
Layer_1
 62
1
100
AcDbPolyline
 90
4
 70
1
 10
108.234917
 20
128.781742
 30
0.0
 10
105.261212
 20
130.384658
 30
0.0
 10
103.658331
 20
127.410953
 30
0.0
 10
106.632001
 20
125.808037
 30
0.0
  0
LWPOLYLINE
  5
126
100
AcDbEntity
  8
Layer_1
 62
7
100
AcDbPolyline
 90
52
 70
1
 10
233.403927
 20
268.069730
 30
0.0
 10
280.825726
 20
268.069730
 30
0.0
 10
280.825726
 20
255.369730
 30
0.0
 10
277.447526
 20
255.369730
 30
0.0
 10
277.447526
 20
242.669730
 30
0.0
 10
280.825726
 20
242.669730
 30
0.0
 10
280.825726
 20
229.969731
 30
0.0
 10
277.447526
 20
229.969731
 30
0.0
 10
277.447526
 20
217.269731
 30
0.0
 10
280.825726
 20
217.269731
 30
0.0
 10
280.825726
 20
204.569731
 30
0.0
 10
277.447526
 20
204.569731
 30
0.0
 10
277.447526
 20
191.869731
 30
0.0
 10
280.825726
 20
191.869731
 30
0.0
 10
280.825726
 20
179.169732
 30
0.0
 10
277.447526
 20
179.169732
 30
0.0
 10
277.447526
 20
166.469732
 30
0.0
 10
280.825726
 20
166.469732
 30
0.0
 10
280.825726
 20
153.769732
 30
0.0
 10
277.447526
 20
153.769732
 30
0.0
 10
277.447526
 20
141.069733
 30
0.0
 10
280.825726
 20
141.069733
 30
0.0
 10
280.825726
 20
128.369733
 30
0.0
 10
277.447526
 20
128.369733
 30
0.0
 10
277.447526
 20
115.669733
 30
0.0
 10
280.825726
 20
115.669733
 30
0.0
 10
280.825726
 20
102.969733
 30
0.0
 10
233.403927
 20
102.969733
 30
0.0
 10
233.403927
 20
115.669733
 30
0.0
 10
230.025727
 20
115.669733
 30
0.0
 10
230.025727
 20
128.369733
 30
0.0
 10
233.403927
 20
128.369733
 30
0.0
 10
233.403927
 20
141.069733
 30
0.0
 10
230.025727
 20
141.069733
 30
0.0
 10
230.025727
 20
153.769732
 30
0.0
 10
233.403927
 20
153.769732
 30
0.0
 10
233.403927
 20
166.469732
 30
0.0
 10
230.025727
 20
166.469732
 30
0.0
 10
230.025727
 20
179.169732
 30
0.0
 10
233.403927
 20
179.169732
 30
0.0
 10
233.403927
 20
191.869731
 30
0.0
 10
230.025727
 20
191.869731
 30
0.0
 10
230.025727
 20
204.569731
 30
0.0
 10
233.403927
 20
204.569731
 30
0.0
 10
233.403927
 20
217.269731
 30
0.0
 10
230.025727
 20
217.269731
 30
0.0
 10
230.025727
 20
229.969731
 30
0.0
 10
233.403927
 20
229.969731
 30
0.0
 10
233.403927
 20
242.669730
 30
0.0
 10
230.025727
 20
242.669730
 30
0.0
 10
230.025727
 20
255.369730
 30
0.0
 10
233.403927
 20
255.369730
 30
0.0
  0
LWPOLYLINE
  5
127
100
AcDbEntity
  8
Layer_1
 62
1
100
AcDbPolyline
 90
4
 70
1
 10
240.307823
 20
264.310847
 30
0.0
 10
236.951108
 20
264.691530
 30
0.0
 10
236.570425
 20
261.334955
 30
0.0
 10
239.927106
 20
260.954237
 30
0.0
  0
LWPOLYLINE
  5
128
100
AcDbEntity
  8
Layer_1
 62
1
100
AcDbPolyline
 90
4
 70
1
 10
236.570425
 20
112.752755
 30
0.0
 10
239.544095
 20
114.355636
 30
0.0
 10
241.147011
 20
111.381931
 30
0.0
 10
238.173306
 20
109.779050
 30
0.0
  0
LWPOLYLINE
  5
129
100
AcDbEntity
  8
Layer_1
 62
1
100
AcDbPolyline
 90
4
 70
1
 10
247.019809
 20
263.537629
 30
0.0
 10
243.663128
 20
263.918347
 30
0.0
 10
243.282410
 20
260.561737
 30
0.0
 10
246.639126
 20
260.181054
 30
0.0
  0
LWPOLYLINE
  5
12a
100
AcDbEntity
  8
Layer_1
 62
1
100
AcDbPolyline
 90
4
 70
1
 10
255.214025
 20
204.791134
 30
0.0
 10
252.092929
 20
206.083959
 30
0.0
 10
253.385719
 20
209.205055
 30
0.0
 10
256.506814
 20
207.912230
 30
0.0
  0
LWPOLYLINE
  5
12b
100
AcDbEntity
  8
Layer_1
 62
1
100
AcDbPolyline
 90
4
 70
1
 10
248.971798
 20
207.376749
 30
0.0
 10
245.850703
 20
208.669538
 30
0.0
 10
247.143528
 20
211.790634
 30
0.0
 10
250.264623
 20
210.497844
 30
0.0
  0
LWPOLYLINE
  5
12c
100
AcDbEntity
  8
Layer_1
 62
1
100
AcDbPolyline
 90
4
 70
1
 10
242.729607
 20
209.962363
 30
0.0
 10
239.608512
 20
211.255152
 30
0.0
 10
240.901301
 20
214.376248
 30
0.0
 10
244.022397
 20
213.083458
 30
0.0
  0
LWPOLYLINE
  5
12d
100
AcDbEntity
  8
Layer_1
 62
1
100
AcDbPolyline
 90
4
 70
1
 10
255.214025
 20
147.694158
 30
0.0
 10
252.092929
 20
148.986948
 30
0.0
 10
253.385719
 20
152.108043
 30
0.0
 10
256.506814
 20
150.815254
 30
0.0
  0
LWPOLYLINE
  5
12e
100
AcDbEntity
  8
Layer_1
 62
1
100
AcDbPolyline
 90
4
 70
1
 10
248.971798
 20
150.279737
 30
0.0
 10
245.850703
 20
151.572562
 30
0.0
 10
247.143528
 20
154.693657
 30
0.0
 10
250.264623
 20
153.400833
 30
0.0
  0
LWPOLYLINE
  5
12f
100
AcDbEntity
  8
Layer_1
 62
1
100
AcDbPolyline
 90
4
 70
1
 10
242.729607
 20
152.865351
 30
0.0
 10
239.608512
 20
154.158141
 30
0.0
 10
240.901301
 20
157.279236
 30
0.0
 10
244.022397
 20
155.986447
 30
0.0
  0
LWPOLYLINE
  5
130
100
AcDbEntity
  8
Layer_1
 62
1
100
AcDbPolyline
 90
4
 70
1
 10
255.214025
 20
233.339640
 30
0.0
 10
258.335120
 20
234.632430
 30
0.0
 10
257.042296
 20
237.753560
 30
0.0
 10
253.921200
 20
236.460736
 30
0.0
  0
LWPOLYLINE
  5
131
100
AcDbEntity
  8
Layer_1
 62
1
100
AcDbPolyline
 90
4
 70
1
 10
261.456216
 20
235.925254
 30
0.0
 10
264.577311
 20
237.218044
 30
0.0
 10
263.284522
 20
240.339139
 30
0.0
 10
260.163426
 20
239.046350
 30
0.0
  0
LWPOLYLINE
  5
132
100
AcDbEntity
  8
Layer_1
 62
1
100
AcDbPolyline
 90
4
 70
1
 10
267.698407
 20
238.510833
 30
0.0
 10
270.819502
 20
239.803658
 30
0.0
 10
269.526713
 20
242.924753
 30
0.0
 10
266.405617
 20
241.631929
 30
0.0
  0
LWPOLYLINE
  5
133
100
AcDbEntity
  8
Layer_1
 62
1
100
AcDbPolyline
 90
4
 70
1
 10
255.214025
 20
176.242664
 30
0.0
 10
258.335120
 20
177.535453
 30
0.0
 10
257.042296
 20
180.656549
 30
0.0
 10
253.921200
 20
179.363760
 30
0.0
  0
LWPOLYLINE
  5
134
100
AcDbEntity
  8
Layer_1
 62
1
100
AcDbPolyline
 90
4
 70
1
 10
261.456216
 20
178.828243
 30
0.0
 10
264.577311
 20
180.121032
 30
0.0
 10
263.284522
 20
183.242163
 30
0.0
 10
260.163426
 20
181.949338
 30
0.0
  0
LWPOLYLINE
  5
135
100
AcDbEntity
  8
Layer_1
 62
1
100
AcDbPolyline
 90
4
 70
1
 10
267.698407
 20
181.413857
 30
0.0
 10
270.819502
 20
182.706646
 30
0.0
 10
269.526713
 20
185.827742
 30
0.0
 10
266.405617
 20
184.534952
 30
0.0
  0
LWPOLYLINE
  5
136
100
AcDbEntity
  8
Layer_1
 62
1
100
AcDbPolyline
 90
4
 70
1
 10
242.517800
 20
115.958552
 30
0.0
 10
245.491505
 20
117.561433
 30
0.0
 10
247.094421
 20
114.587764
 30
0.0
 10
244.120716
 20
112.984847
 30
0.0
  0
LWPOLYLINE
  5
137
100
AcDbEntity
  8
Layer_1
 62
1
100
AcDbPolyline
 90
4
 70
1
 10
248.465210
 20
119.164350
 30
0.0
 10
251.438915
 20
120.767231
 30
0.0
 10
253.041796
 20
117.793561
 30
0.0
 10
250.068126
 20
116.190645
 30
0.0
  0
LWPOLYLINE
  5
138
100
AcDbEntity
  8
Layer_1
 62
1
100
AcDbPolyline
 90
4
 70
1
 10
254.412619
 20
122.370147
 30
0.0
 10
257.386324
 20
123.973063
 30
0.0
 10
258.989205
 20
120.999359
 30
0.0
 10
256.015501
 20
119.396442
 30
0.0
  0
LWPOLYLINE
  5
139
100
AcDbEntity
  8
Layer_1
 62
1
100
AcDbPolyline
 90
4
 70
1
 10
260.360029
 20
125.575945
 30
0.0
 10
263.333699
 20
127.178861
 30
0.0
 10
264.936615
 20
124.205156
 30
0.0
 10
261.962910
 20
122.602240
 30
0.0
  0
LWPOLYLINE
  5
13a
100
AcDbEntity
  8
Layer_1
 62
1
100
AcDbPolyline
 90
4
 70
1
 10
266.307404
 20
128.781742
 30
0.0
 10
269.281109
 20
130.384658
 30
0.0
 10
270.884025
 20
127.410953
 30
0.0
 10
267.910320
 20
125.808037
 30
0.0
  0
LWPOLYLINE
  5
13b
100
AcDbEntity
  8
Layer_1
 62
1
100
AcDbPolyline
 90
4
 70
0
 10
206.314828
 20
102.969733
 30
0.0
 10
206.314828
 20
106.347933
 30
0.0
 10
219.014827
 20
106.347933
 30
0.0
 10
219.014827
 20
102.969733
 30
0.0
  0
LWPOLYLINE
  5
13c
100
AcDbEntity
  8
Layer_1
 62
1
100
AcDbPolyline
 90
4
 70
0
 10
180.914828
 20
102.969733
 30
0.0
 10
180.914828
 20
106.347933
 30
0.0
 10
193.614828
 20
106.347933
 30
0.0
 10
193.614828
 20
102.969733
 30
0.0
  0
LWPOLYLINE
  5
13d
100
AcDbEntity
  8
Layer_1
 62
1
100
AcDbPolyline
 90
4
 70
0
 10
155.514829
 20
102.969733
 30
0.0
 10
155.514829
 20
106.347933
 30
0.0
 10
168.214829
 20
106.347933
 30
0.0
 10
168.214829
 20
102.969733
 30
0.0
  0
LWPOLYLINE
  5
13e
100
AcDbEntity
  8
Layer_1
 62
1
100
AcDbPolyline
 90
4
 70
0
 10
70.018431
 20
102.969733
 30
0.0
 10
70.018431
 20
106.347933
 30
0.0
 10
82.718430
 20
106.347933
 30
0.0
 10
82.718430
 20
102.969733
 30
0.0
  0
LWPOLYLINE
  5
13f
100
AcDbEntity
  8
Layer_1
 62
1
100
AcDbPolyline
 90
4
 70
0
 10
44.618431
 20
102.969733
 30
0.0
 10
44.618431
 20
106.347933
 30
0.0
 10
57.318431
 20
106.347933
 30
0.0
 10
57.318431
 20
102.969733
 30
0.0
  0
LWPOLYLINE
  5
140
100
AcDbEntity
  8
Layer_1
 62
1
100
AcDbPolyline
 90
4
 70
0
 10
19.218432
 20
102.969733
 30
0.0
 10
19.218432
 20
106.347933
 30
0.0
 10
31.918432
 20
106.347933
 30
0.0
 10
31.918432
 20
102.969733
 30
0.0
  0
LWPOLYLINE
  5
141
100
AcDbEntity
  8
Layer_1
 62
1
100
AcDbPolyline
 90
4
 70
0
 10
125.466630
 20
102.969733
 30
0.0
 10
125.466630
 20
106.347933
 30
0.0
 10
112.766630
 20
106.347933
 30
0.0
 10
112.766630
 20
102.969733
 30
0.0
  0
LWPOLYLINE
  5
142
100
AcDbEntity
  8
Layer_1
 62
1
100
AcDbPolyline
 90
4
 70
0
 10
261.763027
 20
102.969733
 30
0.0
 10
261.763027
 20
106.347933
 30
0.0
 10
249.063027
 20
106.347933
 30
0.0
 10
249.063027
 20
102.969733
 30
0.0
  0
SPLINE
  5
143
100
AcDbEntity
  8
Layer_1
 62
3
100
AcDbSpline
 70
8
 71
3
 72
8
 73
4
 74
0
 40
0
 40
0
 40
0
 40
0
 40
1
 40
1
 40
1
 40
1
 10
482.984322
 20
140.628231
 30
0.0
 10
482.965624
 20
137.149348
 30
0.0
 10
480.149117
 20
134.332735
 30
0.0
 10
476.670411
 20
134.313439
 30
0.0
  0
LWPOLYLINE
  5
144
100
AcDbEntity
  8
Layer_1
 62
3
100
AcDbPolyline
 90
26
 70
0
 10
432.184323
 20
134.313439
 30
0.0
 10
432.184323
 20
163.051245
 30
0.0
 10
428.882323
 20
163.051245
 30
0.0
 10
428.882323
 20
175.751245
 30
0.0
 10
432.184323
 20
175.751245
 30
0.0
 10
432.184323
 20
188.451244
 30
0.0
 10
428.882323
 20
188.451244
 30
0.0
 10
428.882323
 20
201.151244
 30
0.0
 10
432.184323
 20
201.151244
 30
0.0
 10
432.184323
 20
213.851244
 30
0.0
 10
428.882323
 20
213.851244
 30
0.0
 10
428.882323
 20
226.551243
 30
0.0
 10
432.184323
 20
226.551243
 30
0.0
 10
432.184323
 20
239.251243
 30
0.0
 10
428.882323
 20
239.251243
 30
0.0
 10
428.882323
 20
251.951243
 30
0.0
 10
432.184323
 20
251.951243
 30
0.0
 10
432.184323
 20
268.069836
 30
0.0
 10
444.884322
 20
268.069836
 30
0.0
 10
444.884322
 20
264.691636
 30
0.0
 10
457.584393
 20
264.691530
 30
0.0
 10
457.584393
 20
268.069730
 30
0.0
 10
470.284392
 20
268.069730
 30
0.0
 10
470.284392
 20
264.691530
 30
0.0
 10
482.984322
 20
264.691530
 30
0.0
 10
482.984322
 20
140.628231
 30
0.0
  0
LWPOLYLINE
  5
145
100
AcDbEntity
  8
Layer_1
 62
3
100
AcDbPolyline
 90
2
 70
0
 10
476.670411
 20
134.313439
 30
0.0
 10
432.184323
 20
134.313439
 30
0.0
  0
LWPOLYLINE
  5
146
100
AcDbEntity
  8
Layer_1
 62
3
100
AcDbPolyline
 90
29
 70
1
 10
346.967325
 20
81.836934
 30
0.0
 10
346.967395
 20
69.137040
 30
0.0
 10
350.345595
 20
69.137040
 30
0.0
 10
350.345595
 20
56.437040
 30
0.0
 10
346.967395
 20
56.437040
 30
0.0
 10
346.967325
 20
43.736935
 30
0.0
 10
337.569325
 20
43.736935
 30
0.0
 10
337.569325
 20
40.358735
 30
0.0
 10
324.869325
 20
40.358735
 30
0.0
 10
324.869325
 20
43.736935
 30
0.0
 10
312.169325
 20
43.736935
 30
0.0
 10
312.169325
 20
40.358735
 30
0.0
 10
299.469326
 20
40.358735
 30
0.0
 10
299.469326
 20
43.736935
 30
0.0
 10
286.769326
 20
43.736935
 30
0.0
 10
286.769326
 20
40.358735
 30
0.0
 10
274.069326
 20
40.358735
 30
0.0
 10
274.069326
 20
43.736935
 30
0.0
 10
264.747526
 20
43.736935
 30
0.0
 10
264.747421
 20
56.437040
 30
0.0
 10
261.369221
 20
56.437040
 30
0.0
 10
261.369221
 20
69.137040
 30
0.0
 10
264.747421
 20
69.137040
 30
0.0
 10
264.747526
 20
81.836934
 30
0.0
 10
261.369327
 20
81.836934
 30
0.0
 10
261.369327
 20
94.536934
 30
0.0
 10
264.747526
 20
94.536934
 30
0.0
 10
350.345525
 20
94.536934
 30
0.0
 10
350.345525
 20
81.836934
 30
0.0
  0
LWPOLYLINE
  5
147
100
AcDbEntity
  8
Layer_1
 62
3
100
AcDbPolyline
 90
7
 70
1
 10
289.258420
 20
118.641639
 30
0.0
 10
289.258420
 20
102.969839
 30
0.0
 10
295.202126
 20
102.969733
 30
0.0
 10
295.202126
 20
99.591533
 30
0.0
 10
285.880220
 20
99.591533
 30
0.0
 10
285.880220
 20
102.969839
 30
0.0
 10
285.880220
 20
118.641639
 30
0.0
  0
LWPOLYLINE
  5
148
100
AcDbEntity
  8
Layer_1
 62
3
100
AcDbPolyline
 90
7
 70
1
 10
289.258526
 20
147.013332
 30
0.0
 10
289.258526
 20
131.341533
 30
0.0
 10
285.880326
 20
131.341533
 30
0.0
 10
285.880326
 20
147.013332
 30
0.0
 10
285.880220
 20
150.391532
 30
0.0
 10
295.202126
 20
150.391532
 30
0.0
 10
295.202126
 20
147.013332
 30
0.0
  0
LWPOLYLINE
  5
149
100
AcDbEntity
  8
Layer_1
 62
3
100
AcDbPolyline
 90
7
 70
1
 10
358.702124
 20
147.013332
 30
0.0
 10
358.702124
 20
150.391532
 30
0.0
 10
368.023818
 20
150.391532
 30
0.0
 10
368.023818
 20
147.013332
 30
0.0
 10
368.023924
 20
131.341533
 30
0.0
 10
364.645724
 20
131.341533
 30
0.0
 10
364.645724
 20
147.013332
 30
0.0
  0
LWPOLYLINE
  5
14a
100
AcDbEntity
  8
Layer_1
 62
3
100
AcDbPolyline
 90
4
 70
1
 10
333.302125
 20
147.013332
 30
0.0
 10
333.302125
 20
150.391532
 30
0.0
 10
346.002125
 20
150.391532
 30
0.0
 10
346.002125
 20
147.013332
 30
0.0
  0
LWPOLYLINE
  5
14b
100
AcDbEntity
  8
Layer_1
 62
3
100
AcDbPolyline
 90
4
 70
1
 10
320.602125
 20
147.013332
 30
0.0
 10
307.902125
 20
147.013332
 30
0.0
 10
307.902125
 20
150.391532
 30
0.0
 10
320.602125
 20
150.391532
 30
0.0
  0
SPLINE
  5
14c
100
AcDbEntity
  8
Layer_1
 62
3
100
AcDbSpline
 70
8
 71
3
 72
8
 73
4
 74
0
 40
0
 40
0
 40
0
 40
0
 40
1
 40
1
 40
1
 40
1
 10
282.502126
 20
97.883736
 30
0.0
 10
282.512004
 20
96.965562
 30
0.0
 10
283.254425
 20
96.223247
 30
0.0
 10
284.172529
 20
96.213334
 30
0.0
  0
LWPOLYLINE
  5
14d
100
AcDbEntity
  8
Layer_1
 62
3
100
AcDbPolyline
 90
35
 70
0
 10
371.402124
 20
239.251137
 30
0.0
 10
368.100124
 20
239.251137
 30
0.0
 10
368.100124
 20
251.951137
 30
0.0
 10
371.402124
 20
251.951137
 30
0.0
 10
371.402124
 20
268.069730
 30
0.0
 10
358.702124
 20
268.069659
 30
0.0
 10
358.702124
 20
264.691459
 30
0.0
 10
346.002125
 20
264.691459
 30
0.0
 10
346.002125
 20
268.069659
 30
0.0
 10
333.302125
 20
268.069659
 30
0.0
 10
333.302125
 20
264.691459
 30
0.0
 10
320.602125
 20
264.691459
 30
0.0
 10
320.602125
 20
268.069659
 30
0.0
 10
307.902125
 20
268.069659
 30
0.0
 10
307.902125
 20
264.691459
 30
0.0
 10
295.202126
 20
264.691459
 30
0.0
 10
295.202126
 20
268.069659
 30
0.0
 10
282.502126
 20
268.069730
 30
0.0
 10
282.502126
 20
251.991530
 30
0.0
 10
285.880326
 20
251.991530
 30
0.0
 10
285.880326
 20
239.291530
 30
0.0
 10
282.502126
 20
239.291530
 30
0.0
 10
282.502126
 20
226.591531
 30
0.0
 10
285.880326
 20
226.591531
 30
0.0
 10
285.880326
 20
213.891531
 30
0.0
 10
282.502126
 20
213.891531
 30
0.0
 10
282.502126
 20
201.191531
 30
0.0
 10
285.880326
 20
201.191531
 30
0.0
 10
285.880326
 20
188.491532
 30
0.0
 10
282.502126
 20
188.491532
 30
0.0
 10
282.502126
 20
175.791532
 30
0.0
 10
285.880326
 20
175.791532
 30
0.0
 10
285.880326
 20
163.091532
 30
0.0
 10
282.502126
 20
163.091532
 30
0.0
 10
282.502126
 20
97.883736
 30
0.0
  0
SPLINE
  5
14e
100
AcDbEntity
  8
Layer_1
 62
3
100
AcDbSpline
 70
8
 71
3
 72
8
 73
4
 74
0
 40
0
 40
0
 40
0
 40
0
 40
1
 40
1
 40
1
 40
1
 10
369.731721
 20
96.213334
 30
0.0
 10
370.649825
 20
96.223247
 30
0.0
 10
371.392211
 20
96.965562
 30
0.0
 10
371.402124
 20
97.883736
 30
0.0
  0
LWPOLYLINE
  5
14f
100
AcDbEntity
  8
Layer_1
 62
3
100
AcDbPolyline
 90
2
 70
0
 10
284.172529
 20
96.213334
 30
0.0
 10
369.731721
 20
96.213334
 30
0.0
  0
LWPOLYLINE
  5
150
100
AcDbEntity
  8
Layer_1
 62
3
100
AcDbPolyline
 90
14
 70
0
 10
371.402124
 20
97.883736
 30
0.0
 10
371.402124
 20
163.051139
 30
0.0
 10
368.100124
 20
163.051139
 30
0.0
 10
368.100124
 20
175.751139
 30
0.0
 10
371.402124
 20
175.751139
 30
0.0
 10
371.402124
 20
188.451138
 30
0.0
 10
368.100124
 20
188.451138
 30
0.0
 10
368.100124
 20
201.151138
 30
0.0
 10
371.402124
 20
201.151138
 30
0.0
 10
371.402124
 20
213.851138
 30
0.0
 10
368.100124
 20
213.851138
 30
0.0
 10
368.100124
 20
226.551138
 30
0.0
 10
371.402124
 20
226.551138
 30
0.0
 10
371.402124
 20
239.251137
 30
0.0
  0
LWPOLYLINE
  5
151
100
AcDbEntity
  8
Layer_1
 62
3
100
AcDbPolyline
 90
7
 70
1
 10
358.702124
 20
99.591533
 30
0.0
 10
358.702124
 20
102.969733
 30
0.0
 10
364.645618
 20
102.969839
 30
0.0
 10
364.645618
 20
118.641639
 30
0.0
 10
368.023818
 20
118.641639
 30
0.0
 10
368.023818
 20
102.969839
 30
0.0
 10
368.023818
 20
99.591533
 30
0.0
  0
LWPOLYLINE
  5
152
100
AcDbEntity
  8
Layer_1
 62
3
100
AcDbPolyline
 90
4
 70
1
 10
333.302125
 20
99.591533
 30
0.0
 10
333.302125
 20
102.969733
 30
0.0
 10
346.002125
 20
102.969733
 30
0.0
 10
346.002125
 20
99.591533
 30
0.0
  0
LWPOLYLINE
  5
153
100
AcDbEntity
  8
Layer_1
 62
3
100
AcDbPolyline
 90
4
 70
1
 10
307.902125
 20
102.969733
 30
0.0
 10
320.602125
 20
102.969733
 30
0.0
 10
320.602125
 20
99.591533
 30
0.0
 10
307.902125
 20
99.591533
 30
0.0
  0
SPLINE
  5
154
100
AcDbEntity
  8
Layer_1
 62
3
100
AcDbSpline
 70
8
 71
3
 72
8
 73
4
 74
0
 40
0
 40
0
 40
0
 40
0
 40
1
 40
1
 40
1
 40
1
 10
373.091224
 20
140.628231
 30
0.0
 10
373.109921
 20
137.149348
 30
0.0
 10
375.926393
 20
134.332735
 30
0.0
 10
379.405099
 20
134.313439
 30
0.0
  0
LWPOLYLINE
  5
155
100
AcDbEntity
  8
Layer_1
 62
3
100
AcDbPolyline
 90
26
 70
0
 10
423.891223
 20
134.313439
 30
0.0
 10
423.891223
 20
163.051245
 30
0.0
 10
427.193223
 20
163.051245
 30
0.0
 10
427.193223
 20
175.751245
 30
0.0
 10
423.891223
 20
175.751245
 30
0.0
 10
423.891223
 20
188.451244
 30
0.0
 10
427.193223
 20
188.451244
 30
0.0
 10
427.193223
 20
201.151244
 30
0.0
 10
423.891223
 20
201.151244
 30
0.0
 10
423.891223
 20
213.851244
 30
0.0
 10
427.193223
 20
213.851244
 30
0.0
 10
427.193223
 20
226.551243
 30
0.0
 10
423.891223
 20
226.551243
 30
0.0
 10
423.891223
 20
239.251243
 30
0.0
 10
427.193223
 20
239.251243
 30
0.0
 10
427.193223
 20
251.951243
 30
0.0
 10
423.891223
 20
251.951243
 30
0.0
 10
423.891223
 20
268.069836
 30
0.0
 10
411.191223
 20
268.069836
 30
0.0
 10
411.191223
 20
264.691636
 30
0.0
 10
398.491118
 20
264.691530
 30
0.0
 10
398.491118
 20
268.069730
 30
0.0
 10
385.791118
 20
268.069730
 30
0.0
 10
385.791118
 20
264.691530
 30
0.0
 10
373.091224
 20
264.691530
 30
0.0
 10
373.091224
 20
140.628231
 30
0.0
  0
LWPOLYLINE
  5
156
100
AcDbEntity
  8
Layer_1
 62
3
100
AcDbPolyline
 90
2
 70
0
 10
379.405099
 20
134.313439
 30
0.0
 10
423.891223
 20
134.313439
 30
0.0
  0
ENDSEC
  0
SECTION
  2
OBJECTS
  0
DICTIONARY
  5
C
330
0
100
AcDbDictionary
  3
ACAD_GROUP
350
D
  3
ACAD_MLINESTYLE
350
17
  0
DICTIONARY
  5
D
330
C
100
AcDbDictionary
  0
DICTIONARY
  5
1A
330
C
100
AcDbDictionary
  0
DICTIONARY
  5
17
330
C
100
AcDbDictionary
  3
STANDARD
350
18
  0
DICTIONARY
  5
19
330
C
100
AcDbDictionary
  0
ENDSEC
  0
EOF
