  0
SECTION
  2
BLOCKS
  0
ENDSEC
  0
SECTION
  2
ENTITIES
  0
LINE
  8
0
 10
321.578
 20
48.5729
 11
322.667
 21
50.0729
  0
LINE
  8
0
 10
322.667
 20
50.0729
 11
322.667
 21
72
  0
LINE
  8
0
 10
322.667
 20
72
 11
333.814
 21
72
  0
LINE
  8
0
 10
333.814
 20
72
 11
335.578
 21
72.5729
  0
LINE
  8
0
 10
335.578
 20
72.5729
 11
336.667
 21
74.0729
  0
LINE
  8
0
 10
336.667
 20
74.0729
 11
336.667
 21
78
  0
LINE
  8
0
 10
336.667
 20
78
 11
326.814
 21
78
  0
LINE
  8
0
 10
326.814
 20
78
 11
326.814
 21
81
  0
LINE
  8
0
 10
326.814
 20
81
 11
336.667
 21
81
  0
LINE
  8
0
 10
336.667
 20
81
 11
336.667
 21
81.927
  0
LINE
  8
0
 10
336.667
 20
81.927
 11
335.578
 21
83.427
  0
LINE
  8
0
 10
335.578
 20
83.427
 11
333.814
 21
84
  0
LINE
  8
0
 10
333.814
 20
84
 11
321.814
 21
84
  0
LINE
  8
0
 10
321.814
 20
84
 11
321.814
 21
87
  0
LINE
  8
0
 10
321.814
 20
87
 11
326.667
 21
87
  0
LINE
  8
0
 10
326.667
 20
87
 11
326.667
 21
90.927
  0
LINE
  8
0
 10
326.667
 20
90.927
 11
325.578
 21
92.427
  0
LINE
  8
0
 10
325.578
 20
92.427
 11
323.814
 21
93
  0
LINE
  8
0
 10
323.814
 20
93
 11
316.814
 21
93
  0
LINE
  8
0
 10
316.814
 20
93
 11
316.814
 21
87.375
  0
LINE
  8
0
 10
316.814
 20
87.375
 11
313.814
 21
87.375
  0
LINE
  8
0
 10
313.814
 20
87.375
 11
313.814
 21
93
  0
LINE
  8
0
 10
313.814
 20
93
 11
303
 21
93
  0
LINE
  8
0
 10
303
 20
93
 11
304.954
 21
81.75
  0
LINE
  8
0
 10
304.954
 20
81.75
 11
316.814
 21
81.75
  0
LINE
  8
0
 10
316.814
 20
81.75
 11
316.814
 21
53.625
  0
LINE
  8
0
 10
316.814
 20
53.625
 11
313.814
 21
53.625
  0
LINE
  8
0
 10
313.814
 20
53.625
 11
313.814
 21
59.25
  0
LINE
  8
0
 10
313.814
 20
59.25
 11
308.861
 21
59.25
  0
LINE
  8
0
 10
308.861
 20
59.25
 11
310.814
 21
48
  0
LINE
  8
0
 10
310.814
 20
48
 11
319.814
 21
48
  0
LINE
  8
0
 10
319.814
 20
48
 11
321.578
 21
48.5729
  0
LINE
  8
0
 10
35.4375
 20
67
 11
53.0625
 21
67
  0
LINE
  8
0
 10
53.0625
 20
67
 11
53.0625
 21
64
  0
LINE
  8
0
 10
53.0625
 20
64
 11
70.6875
 21
64
  0
LINE
  8
0
 10
70.6875
 20
64
 11
70.6875
 21
67
  0
LINE
  8
0
 10
70.6875
 20
67
 11
88.3125
 21
67
  0
LINE
  8
0
 10
88.3125
 20
67
 11
88.3125
 21
64
  0
LINE
  8
0
 10
88.3125
 20
64
 11
105.938
 21
64
  0
LINE
  8
0
 10
105.938
 20
64
 11
105.938
 21
67
  0
LINE
  8
0
 10
105.938
 20
67
 11
123.562
 21
67
  0
LINE
  8
0
 10
123.562
 20
67
 11
123.562
 21
64
  0
LINE
  8
0
 10
123.562
 20
64
 11
141.188
 21
64
  0
LINE
  8
0
 10
141.188
 20
64
 11
141.188
 21
67
  0
LINE
  8
0
 10
141.188
 20
67
 11
158.812
 21
67
  0
LINE
  8
0
 10
158.812
 20
67
 11
158.812
 21
64
  0
LINE
  8
0
 10
158.812
 20
64
 11
176.438
 21
64
  0
LINE
  8
0
 10
176.438
 20
64
 11
176.438
 21
67
  0
LINE
  8
0
 10
176.438
 20
67
 11
194.062
 21
67
  0
LINE
  8
0
 10
194.062
 20
67
 11
194.062
 21
64
  0
LINE
  8
0
 10
194.062
 20
64
 11
211.688
 21
64
  0
LINE
  8
0
 10
211.688
 20
64
 11
211.688
 21
67
  0
LINE
  8
0
 10
211.688
 20
67
 11
229.312
 21
67
  0
LINE
  8
0
 10
229.312
 20
67
 11
229.312
 21
64
  0
LINE
  8
0
 10
229.312
 20
64
 11
246.938
 21
64
  0
LINE
  8
0
 10
246.938
 20
64
 11
246.938
 21
67
  0
LINE
  8
0
 10
246.938
 20
67
 11
264.562
 21
67
  0
LINE
  8
0
 10
264.562
 20
67
 11
264.562
 21
64
  0
LINE
  8
0
 10
264.562
 20
64
 11
282.188
 21
64
  0
LINE
  8
0
 10
282.188
 20
64
 11
282.188
 21
67
  0
LINE
  8
0
 10
282.188
 20
67
 11
291
 21
67
  0
LINE
  8
0
 10
291
 20
67
 11
291
 21
77
  0
LINE
  8
0
 10
291
 20
77
 11
294
 21
77
  0
LINE
  8
0
 10
294
 20
77
 11
294
 21
67
  0
LINE
  8
0
 10
294
 20
67
 11
300
 21
67
  0
LINE
  8
0
 10
300
 20
67
 11
300
 21
84
  0
LINE
  8
0
 10
300
 20
84
 11
299.427
 21
85.7634
  0
LINE
  8
0
 10
299.427
 20
85.7634
 11
297.927
 21
86.8532
  0
LINE
  8
0
 10
297.927
 20
86.8532
 11
2.07294
 21
86.8532
  0
LINE
  8
0
 10
2.07294
 20
86.8532
 11
0.572937
 21
85.7634
  0
LINE
  8
0
 10
0.572937
 20
85.7634
 11
0
 21
84
  0
LINE
  8
0
 10
0
 20
84
 11
0
 21
67
  0
LINE
  8
0
 10
0
 20
67
 11
6
 21
67
  0
LINE
  8
0
 10
6
 20
67
 11
6
 21
77
  0
LINE
  8
0
 10
6
 20
77
 11
9
 21
77
  0
LINE
  8
0
 10
9
 20
77
 11
9
 21
67
  0
LINE
  8
0
 10
9
 20
67
 11
17.8125
 21
67
  0
LINE
  8
0
 10
17.8125
 20
67
 11
17.8125
 21
64
  0
LINE
  8
0
 10
17.8125
 20
64
 11
35.4375
 21
64
  0
LINE
  8
0
 10
35.4375
 20
64
 11
35.4375
 21
67
  0
LINE
  8
0
 10
44.25
 20
51
 11
67.75
 21
51
  0
LINE
  8
0
 10
67.75
 20
51
 11
67.75
 21
48
  0
LINE
  8
0
 10
67.75
 20
48
 11
91.25
 21
48
  0
LINE
  8
0
 10
91.25
 20
48
 11
91.25
 21
51
  0
LINE
  8
0
 10
91.25
 20
51
 11
114.75
 21
51
  0
LINE
  8
0
 10
114.75
 20
51
 11
114.75
 21
48
  0
LINE
  8
0
 10
114.75
 20
48
 11
138.25
 21
48
  0
LINE
  8
0
 10
138.25
 20
48
 11
138.25
 21
51
  0
LINE
  8
0
 10
138.25
 20
51
 11
161.75
 21
51
  0
LINE
  8
0
 10
161.75
 20
51
 11
161.75
 21
48
  0
LINE
  8
0
 10
161.75
 20
48
 11
185.25
 21
48
  0
LINE
  8
0
 10
185.25
 20
48
 11
185.25
 21
51
  0
LINE
  8
0
 10
185.25
 20
51
 11
208.75
 21
51
  0
LINE
  8
0
 10
208.75
 20
51
 11
208.75
 21
48
  0
LINE
  8
0
 10
208.75
 20
48
 11
232.25
 21
48
  0
LINE
  8
0
 10
232.25
 20
48
 11
232.25
 21
51
  0
LINE
  8
0
 10
232.25
 20
51
 11
255.75
 21
51
  0
LINE
  8
0
 10
255.75
 20
51
 11
255.75
 21
48
  0
LINE
  8
0
 10
255.75
 20
48
 11
279.25
 21
48
  0
LINE
  8
0
 10
279.25
 20
48
 11
279.25
 21
51
  0
LINE
  8
0
 10
279.25
 20
51
 11
291
 21
51
  0
LINE
  8
0
 10
291
 20
51
 11
291
 21
56
  0
LINE
  8
0
 10
291
 20
56
 11
294
 21
56
  0
LINE
  8
0
 10
294
 20
56
 11
294
 21
51
  0
LINE
  8
0
 10
294
 20
51
 11
300
 21
51
  0
LINE
  8
0
 10
300
 20
51
 11
300
 21
58
  0
LINE
  8
0
 10
300
 20
58
 11
299.427
 21
59.7634
  0
LINE
  8
0
 10
299.427
 20
59.7634
 11
297.927
 21
60.8532
  0
LINE
  8
0
 10
297.927
 20
60.8532
 11
2.07294
 21
60.8532
  0
LINE
  8
0
 10
2.07294
 20
60.8532
 11
0.572937
 21
59.7634
  0
LINE
  8
0
 10
0.572937
 20
59.7634
 11
0
 21
58
  0
LINE
  8
0
 10
0
 20
58
 11
0
 21
51
  0
LINE
  8
0
 10
0
 20
51
 11
6
 21
51
  0
LINE
  8
0
 10
6
 20
51
 11
6
 21
56
  0
LINE
  8
0
 10
6
 20
56
 11
9
 21
56
  0
LINE
  8
0
 10
9
 20
56
 11
9
 21
51
  0
LINE
  8
0
 10
9
 20
51
 11
20.75
 21
51
  0
LINE
  8
0
 10
20.75
 20
51
 11
20.75
 21
48
  0
LINE
  8
0
 10
20.75
 20
48
 11
44.25
 21
48
  0
LINE
  8
0
 10
44.25
 20
48
 11
44.25
 21
51
  0
LINE
  8
0
 10
300
 20
45
 11
294
 21
45
  0
LINE
  8
0
 10
294
 20
45
 11
294
 21
39.375
  0
LINE
  8
0
 10
294
 20
39.375
 11
291
 21
39.375
  0
LINE
  8
0
 10
291
 20
39.375
 11
291
 21
45
  0
LINE
  8
0
 10
291
 20
45
 11
9
 21
45
  0
LINE
  8
0
 10
9
 20
45
 11
9
 21
39.375
  0
LINE
  8
0
 10
9
 20
39.375
 11
6
 21
39.375
  0
LINE
  8
0
 10
6
 20
39.375
 11
6
 21
45
  0
LINE
  8
0
 10
6
 20
45
 11
0
 21
45
  0
LINE
  8
0
 10
0
 20
45
 11
0
 21
0
  0
LINE
  8
0
 10
0
 20
0
 11
300
 21
0
  0
LINE
  8
0
 10
300
 20
0
 11
300
 21
45
  0
LINE
  8
0
 10
6
 20
5.625
 11
6
 21
17.075
  0
LINE
  8
0
 10
6
 20
17.075
 11
9
 21
17.075
  0
LINE
  8
0
 10
9
 20
17.075
 11
9
 21
5.625
  0
LINE
  8
0
 10
9
 20
5.625
 11
6
 21
5.625
  0
LINE
  8
0
 10
291
 20
5.625
 11
291
 21
17.075
  0
LINE
  8
0
 10
291
 20
17.075
 11
294
 21
17.075
  0
LINE
  8
0
 10
294
 20
17.075
 11
294
 21
5.625
  0
LINE
  8
0
 10
294
 20
5.625
 11
291
 21
5.625
  0
LINE
  8
0
 10
17.8125
 20
12
 11
17.8125
 21
15
  0
LINE
  8
0
 10
17.8125
 20
15
 11
35.4375
 21
15
  0
LINE
  8
0
 10
35.4375
 20
15
 11
35.4375
 21
12
  0
LINE
  8
0
 10
35.4375
 20
12
 11
17.8125
 21
12
  0
LINE
  8
0
 10
53.0625
 20
12
 11
53.0625
 21
15
  0
LINE
  8
0
 10
53.0625
 20
15
 11
70.6875
 21
15
  0
LINE
  8
0
 10
70.6875
 20
15
 11
70.6875
 21
12
  0
LINE
  8
0
 10
70.6875
 20
12
 11
53.0625
 21
12
  0
LINE
  8
0
 10
123.562
 20
12
 11
123.562
 21
15
  0
LINE
  8
0
 10
123.562
 20
15
 11
141.188
 21
15
  0
LINE
  8
0
 10
141.188
 20
15
 11
141.188
 21
12
  0
LINE
  8
0
 10
141.188
 20
12
 11
123.562
 21
12
  0
LINE
  8
0
 10
158.812
 20
12
 11
158.812
 21
15
  0
LINE
  8
0
 10
158.812
 20
15
 11
176.438
 21
15
  0
LINE
  8
0
 10
176.438
 20
15
 11
176.438
 21
12
  0
LINE
  8
0
 10
176.438
 20
12
 11
158.812
 21
12
  0
LINE
  8
0
 10
194.062
 20
12
 11
194.062
 21
15
  0
LINE
  8
0
 10
194.062
 20
15
 11
211.688
 21
15
  0
LINE
  8
0
 10
211.688
 20
15
 11
211.688
 21
12
  0
LINE
  8
0
 10
211.688
 20
12
 11
194.062
 21
12
  0
LINE
  8
0
 10
229.312
 20
12
 11
229.312
 21
15
  0
LINE
  8
0
 10
229.312
 20
15
 11
246.938
 21
15
  0
LINE
  8
0
 10
246.938
 20
15
 11
246.938
 21
12
  0
LINE
  8
0
 10
246.938
 20
12
 11
229.312
 21
12
  0
LINE
  8
0
 10
264.562
 20
12
 11
264.562
 21
15
  0
LINE
  8
0
 10
264.562
 20
15
 11
282.188
 21
15
  0
LINE
  8
0
 10
282.188
 20
15
 11
282.188
 21
12
  0
LINE
  8
0
 10
282.188
 20
12
 11
264.562
 21
12
  0
LINE
  8
0
 10
88.3125
 20
12
 11
88.3125
 21
15
  0
LINE
  8
0
 10
88.3125
 20
15
 11
105.938
 21
15
  0
LINE
  8
0
 10
105.938
 20
15
 11
105.938
 21
12
  0
LINE
  8
0
 10
105.938
 20
12
 11
88.3125
 21
12
  0
LINE
  8
0
 10
20.75
 20
6
 11
20.75
 21
9
  0
LINE
  8
0
 10
20.75
 20
9
 11
44.25
 21
9
  0
LINE
  8
0
 10
44.25
 20
9
 11
44.25
 21
6
  0
LINE
  8
0
 10
44.25
 20
6
 11
20.75
 21
6
  0
LINE
  8
0
 10
161.75
 20
6
 11
161.75
 21
9
  0
LINE
  8
0
 10
161.75
 20
9
 11
185.25
 21
9
  0
LINE
  8
0
 10
185.25
 20
9
 11
185.25
 21
6
  0
LINE
  8
0
 10
185.25
 20
6
 11
161.75
 21
6
  0
LINE
  8
0
 10
67.75
 20
6
 11
67.75
 21
9
  0
LINE
  8
0
 10
67.75
 20
9
 11
91.25
 21
9
  0
LINE
  8
0
 10
91.25
 20
9
 11
91.25
 21
6
  0
LINE
  8
0
 10
91.25
 20
6
 11
67.75
 21
6
  0
LINE
  8
0
 10
114.75
 20
6
 11
114.75
 21
9
  0
LINE
  8
0
 10
114.75
 20
9
 11
138.25
 21
9
  0
LINE
  8
0
 10
138.25
 20
9
 11
138.25
 21
6
  0
LINE
  8
0
 10
138.25
 20
6
 11
114.75
 21
6
  0
LINE
  8
0
 10
255.75
 20
6
 11
255.75
 21
9
  0
LINE
  8
0
 10
255.75
 20
9
 11
279.25
 21
9
  0
LINE
  8
0
 10
279.25
 20
9
 11
279.25
 21
6
  0
LINE
  8
0
 10
279.25
 20
6
 11
255.75
 21
6
  0
LINE
  8
0
 10
208.75
 20
6
 11
208.75
 21
9
  0
LINE
  8
0
 10
208.75
 20
9
 11
232.25
 21
9
  0
LINE
  8
0
 10
232.25
 20
9
 11
232.25
 21
6
  0
LINE
  8
0
 10
232.25
 20
6
 11
208.75
 21
6
  0
LINE
  8
0
 10
313.814
 20
5.625
 11
316.814
 21
5.625
  0
LINE
  8
0
 10
316.814
 20
5.625
 11
316.814
 21
0
  0
LINE
  8
0
 10
316.814
 20
0
 11
323.814
 21
0
  0
LINE
  8
0
 10
323.814
 20
0
 11
325.578
 21
0.572952
  0
LINE
  8
0
 10
325.578
 20
0.572952
 11
326.667
 21
2.07295
  0
LINE
  8
0
 10
326.667
 20
2.07295
 11
326.667
 21
6
  0
LINE
  8
0
 10
326.667
 20
6
 11
321.814
 21
6
  0
LINE
  8
0
 10
321.814
 20
6
 11
321.814
 21
9
  0
LINE
  8
0
 10
321.814
 20
9
 11
333.814
 21
9
  0
LINE
  8
0
 10
333.814
 20
9
 11
335.578
 21
9.57295
  0
LINE
  8
0
 10
335.578
 20
9.57295
 11
336.667
 21
11.073
  0
LINE
  8
0
 10
336.667
 20
11.073
 11
336.667
 21
12
  0
LINE
  8
0
 10
336.667
 20
12
 11
326.814
 21
12
  0
LINE
  8
0
 10
326.814
 20
12
 11
326.814
 21
15
  0
LINE
  8
0
 10
326.814
 20
15
 11
336.667
 21
15
  0
LINE
  8
0
 10
336.667
 20
15
 11
336.667
 21
18.9271
  0
LINE
  8
0
 10
336.667
 20
18.9271
 11
335.578
 21
20.4271
  0
LINE
  8
0
 10
335.578
 20
20.4271
 11
333.814
 21
21
  0
LINE
  8
0
 10
333.814
 20
21
 11
322.667
 21
21
  0
LINE
  8
0
 10
322.667
 20
21
 11
322.667
 21
42.9271
  0
LINE
  8
0
 10
322.667
 20
42.9271
 11
321.578
 21
44.4271
  0
LINE
  8
0
 10
321.578
 20
44.4271
 11
319.814
 21
45
  0
LINE
  8
0
 10
319.814
 20
45
 11
310.814
 21
45
  0
LINE
  8
0
 10
310.814
 20
45
 11
308.861
 21
33.75
  0
LINE
  8
0
 10
308.861
 20
33.75
 11
313.814
 21
33.75
  0
LINE
  8
0
 10
313.814
 20
33.75
 11
313.814
 21
39.375
  0
LINE
  8
0
 10
313.814
 20
39.375
 11
316.814
 21
39.375
  0
LINE
  8
0
 10
316.814
 20
39.375
 11
316.814
 21
11.25
  0
LINE
  8
0
 10
316.814
 20
11.25
 11
304.954
 21
11.25
  0
LINE
  8
0
 10
304.954
 20
11.25
 11
303
 21
0
  0
LINE
  8
0
 10
303
 20
0
 11
313.814
 21
0
  0
LINE
  8
0
 10
313.814
 20
0
 11
313.814
 21
5.625
  0
ENDSEC
  0
SECTION
  2
OBJECTS
  0
DICTIONARY
  0
ENDSEC
  0
EOF
